<?xml version="1.0" encoding="utf-8" standalone="no"?>
<!DOCTYPE svg PUBLIC "-//W3C//DTD SVG 1.1//EN"
  "http://www.w3.org/Graphics/SVG/1.1/DTD/svg11.dtd">
<svg height="264.88pt" version="1.1" viewBox="0 0 387.597399 264.88" width="387.597399pt" xmlns="http://www.w3.org/2000/svg" xmlns:xlink="http://www.w3.org/1999/xlink">
 <metadata>
  <rdf:RDF xmlns:cc="http://creativecommons.org/ns#" xmlns:dc="http://purl.org/dc/elements/1.1/" xmlns:rdf="http://www.w3.org/1999/02/22-rdf-syntax-ns#">
   <cc:Work>
    <dc:type rdf:resource="http://purl.org/dc/dcmitype/StillImage"/>
    <dc:date>2021-09-10T17:55:16.845191</dc:date>
    <dc:format>image/svg+xml</dc:format>
    <dc:creator>
     <cc:Agent>
      <dc:title>Matplotlib v3.4.3, https://matplotlib.org/</dc:title>
     </cc:Agent>
    </dc:creator>
   </cc:Work>
  </rdf:RDF>
 </metadata>
 <defs>
  <style type="text/css">*{stroke-linecap:butt;stroke-linejoin:round;}</style>
 </defs>
 <g id="figure_1">
  <g id="patch_1">
   <path d="M 0 264.88 
L 387.597399 264.88 
L 387.597399 0 
L 0 0 
z
" style="fill:#ffffff;"/>
  </g>
  <g id="axes_1">
   <g id="line2d_1">
    <path clip-path="url(#pfd66650b27)" d="M 106.827866 68.8688 
L 343.233266 68.8688 
" style="fill:none;stroke:#000000;stroke-linecap:square;stroke-width:2;"/>
   </g>
   <g id="line2d_2">
    <path clip-path="url(#pfd66650b27)" d="M 106.827866 115.2228 
L 343.233266 115.2228 
" style="fill:none;stroke:#000000;stroke-linecap:square;stroke-width:2;"/>
   </g>
   <g id="line2d_3">
    <path clip-path="url(#pfd66650b27)" d="M 106.827866 161.5768 
L 343.233266 161.5768 
" style="fill:none;stroke:#000000;stroke-linecap:square;stroke-width:2;"/>
   </g>
   <g id="line2d_4">
    <path clip-path="url(#pfd66650b27)" d="M 106.827866 207.9308 
L 343.233266 207.9308 
" style="fill:none;stroke:#000000;stroke-linecap:square;stroke-width:2;"/>
   </g>
   <g id="line2d_5">
    <path clip-path="url(#pfd66650b27)" d="M 224.567026 207.9308 
L 224.567026 68.8688 
" style="fill:none;stroke:#bb8bff;stroke-linecap:square;stroke-width:2;"/>
   </g>
   <g id="text_1">
    <!-- The diffuser circuit, with 3 address qubits -->
    <g transform="translate(74.250542 25.7856)scale(0.12 -0.12)">
     <defs>
      <path d="M -19 4666 
L 3928 4666 
L 3928 4134 
L 2272 4134 
L 2272 0 
L 1638 0 
L 1638 4134 
L -19 4134 
L -19 4666 
z
" id="DejaVuSans-54" transform="scale(0.015625)"/>
      <path d="M 3513 2113 
L 3513 0 
L 2938 0 
L 2938 2094 
Q 2938 2591 2744 2837 
Q 2550 3084 2163 3084 
Q 1697 3084 1428 2787 
Q 1159 2491 1159 1978 
L 1159 0 
L 581 0 
L 581 4863 
L 1159 4863 
L 1159 2956 
Q 1366 3272 1645 3428 
Q 1925 3584 2291 3584 
Q 2894 3584 3203 3211 
Q 3513 2838 3513 2113 
z
" id="DejaVuSans-68" transform="scale(0.015625)"/>
      <path d="M 3597 1894 
L 3597 1613 
L 953 1613 
Q 991 1019 1311 708 
Q 1631 397 2203 397 
Q 2534 397 2845 478 
Q 3156 559 3463 722 
L 3463 178 
Q 3153 47 2828 -22 
Q 2503 -91 2169 -91 
Q 1331 -91 842 396 
Q 353 884 353 1716 
Q 353 2575 817 3079 
Q 1281 3584 2069 3584 
Q 2775 3584 3186 3129 
Q 3597 2675 3597 1894 
z
M 3022 2063 
Q 3016 2534 2758 2815 
Q 2500 3097 2075 3097 
Q 1594 3097 1305 2825 
Q 1016 2553 972 2059 
L 3022 2063 
z
" id="DejaVuSans-65" transform="scale(0.015625)"/>
      <path id="DejaVuSans-20" transform="scale(0.015625)"/>
      <path d="M 2906 2969 
L 2906 4863 
L 3481 4863 
L 3481 0 
L 2906 0 
L 2906 525 
Q 2725 213 2448 61 
Q 2172 -91 1784 -91 
Q 1150 -91 751 415 
Q 353 922 353 1747 
Q 353 2572 751 3078 
Q 1150 3584 1784 3584 
Q 2172 3584 2448 3432 
Q 2725 3281 2906 2969 
z
M 947 1747 
Q 947 1113 1208 752 
Q 1469 391 1925 391 
Q 2381 391 2643 752 
Q 2906 1113 2906 1747 
Q 2906 2381 2643 2742 
Q 2381 3103 1925 3103 
Q 1469 3103 1208 2742 
Q 947 2381 947 1747 
z
" id="DejaVuSans-64" transform="scale(0.015625)"/>
      <path d="M 603 3500 
L 1178 3500 
L 1178 0 
L 603 0 
L 603 3500 
z
M 603 4863 
L 1178 4863 
L 1178 4134 
L 603 4134 
L 603 4863 
z
" id="DejaVuSans-69" transform="scale(0.015625)"/>
      <path d="M 2375 4863 
L 2375 4384 
L 1825 4384 
Q 1516 4384 1395 4259 
Q 1275 4134 1275 3809 
L 1275 3500 
L 2222 3500 
L 2222 3053 
L 1275 3053 
L 1275 0 
L 697 0 
L 697 3053 
L 147 3053 
L 147 3500 
L 697 3500 
L 697 3744 
Q 697 4328 969 4595 
Q 1241 4863 1831 4863 
L 2375 4863 
z
" id="DejaVuSans-66" transform="scale(0.015625)"/>
      <path d="M 544 1381 
L 544 3500 
L 1119 3500 
L 1119 1403 
Q 1119 906 1312 657 
Q 1506 409 1894 409 
Q 2359 409 2629 706 
Q 2900 1003 2900 1516 
L 2900 3500 
L 3475 3500 
L 3475 0 
L 2900 0 
L 2900 538 
Q 2691 219 2414 64 
Q 2138 -91 1772 -91 
Q 1169 -91 856 284 
Q 544 659 544 1381 
z
M 1991 3584 
L 1991 3584 
z
" id="DejaVuSans-75" transform="scale(0.015625)"/>
      <path d="M 2834 3397 
L 2834 2853 
Q 2591 2978 2328 3040 
Q 2066 3103 1784 3103 
Q 1356 3103 1142 2972 
Q 928 2841 928 2578 
Q 928 2378 1081 2264 
Q 1234 2150 1697 2047 
L 1894 2003 
Q 2506 1872 2764 1633 
Q 3022 1394 3022 966 
Q 3022 478 2636 193 
Q 2250 -91 1575 -91 
Q 1294 -91 989 -36 
Q 684 19 347 128 
L 347 722 
Q 666 556 975 473 
Q 1284 391 1588 391 
Q 1994 391 2212 530 
Q 2431 669 2431 922 
Q 2431 1156 2273 1281 
Q 2116 1406 1581 1522 
L 1381 1569 
Q 847 1681 609 1914 
Q 372 2147 372 2553 
Q 372 3047 722 3315 
Q 1072 3584 1716 3584 
Q 2034 3584 2315 3537 
Q 2597 3491 2834 3397 
z
" id="DejaVuSans-73" transform="scale(0.015625)"/>
      <path d="M 2631 2963 
Q 2534 3019 2420 3045 
Q 2306 3072 2169 3072 
Q 1681 3072 1420 2755 
Q 1159 2438 1159 1844 
L 1159 0 
L 581 0 
L 581 3500 
L 1159 3500 
L 1159 2956 
Q 1341 3275 1631 3429 
Q 1922 3584 2338 3584 
Q 2397 3584 2469 3576 
Q 2541 3569 2628 3553 
L 2631 2963 
z
" id="DejaVuSans-72" transform="scale(0.015625)"/>
      <path d="M 3122 3366 
L 3122 2828 
Q 2878 2963 2633 3030 
Q 2388 3097 2138 3097 
Q 1578 3097 1268 2742 
Q 959 2388 959 1747 
Q 959 1106 1268 751 
Q 1578 397 2138 397 
Q 2388 397 2633 464 
Q 2878 531 3122 666 
L 3122 134 
Q 2881 22 2623 -34 
Q 2366 -91 2075 -91 
Q 1284 -91 818 406 
Q 353 903 353 1747 
Q 353 2603 823 3093 
Q 1294 3584 2113 3584 
Q 2378 3584 2631 3529 
Q 2884 3475 3122 3366 
z
" id="DejaVuSans-63" transform="scale(0.015625)"/>
      <path d="M 1172 4494 
L 1172 3500 
L 2356 3500 
L 2356 3053 
L 1172 3053 
L 1172 1153 
Q 1172 725 1289 603 
Q 1406 481 1766 481 
L 2356 481 
L 2356 0 
L 1766 0 
Q 1100 0 847 248 
Q 594 497 594 1153 
L 594 3053 
L 172 3053 
L 172 3500 
L 594 3500 
L 594 4494 
L 1172 4494 
z
" id="DejaVuSans-74" transform="scale(0.015625)"/>
      <path d="M 750 794 
L 1409 794 
L 1409 256 
L 897 -744 
L 494 -744 
L 750 256 
L 750 794 
z
" id="DejaVuSans-2c" transform="scale(0.015625)"/>
      <path d="M 269 3500 
L 844 3500 
L 1563 769 
L 2278 3500 
L 2956 3500 
L 3675 769 
L 4391 3500 
L 4966 3500 
L 4050 0 
L 3372 0 
L 2619 2869 
L 1863 0 
L 1184 0 
L 269 3500 
z
" id="DejaVuSans-77" transform="scale(0.015625)"/>
      <path d="M 2597 2516 
Q 3050 2419 3304 2112 
Q 3559 1806 3559 1356 
Q 3559 666 3084 287 
Q 2609 -91 1734 -91 
Q 1441 -91 1130 -33 
Q 819 25 488 141 
L 488 750 
Q 750 597 1062 519 
Q 1375 441 1716 441 
Q 2309 441 2620 675 
Q 2931 909 2931 1356 
Q 2931 1769 2642 2001 
Q 2353 2234 1838 2234 
L 1294 2234 
L 1294 2753 
L 1863 2753 
Q 2328 2753 2575 2939 
Q 2822 3125 2822 3475 
Q 2822 3834 2567 4026 
Q 2313 4219 1838 4219 
Q 1578 4219 1281 4162 
Q 984 4106 628 3988 
L 628 4550 
Q 988 4650 1302 4700 
Q 1616 4750 1894 4750 
Q 2613 4750 3031 4423 
Q 3450 4097 3450 3541 
Q 3450 3153 3228 2886 
Q 3006 2619 2597 2516 
z
" id="DejaVuSans-33" transform="scale(0.015625)"/>
      <path d="M 2194 1759 
Q 1497 1759 1228 1600 
Q 959 1441 959 1056 
Q 959 750 1161 570 
Q 1363 391 1709 391 
Q 2188 391 2477 730 
Q 2766 1069 2766 1631 
L 2766 1759 
L 2194 1759 
z
M 3341 1997 
L 3341 0 
L 2766 0 
L 2766 531 
Q 2569 213 2275 61 
Q 1981 -91 1556 -91 
Q 1019 -91 701 211 
Q 384 513 384 1019 
Q 384 1609 779 1909 
Q 1175 2209 1959 2209 
L 2766 2209 
L 2766 2266 
Q 2766 2663 2505 2880 
Q 2244 3097 1772 3097 
Q 1472 3097 1187 3025 
Q 903 2953 641 2809 
L 641 3341 
Q 956 3463 1253 3523 
Q 1550 3584 1831 3584 
Q 2591 3584 2966 3190 
Q 3341 2797 3341 1997 
z
" id="DejaVuSans-61" transform="scale(0.015625)"/>
      <path d="M 947 1747 
Q 947 1113 1208 752 
Q 1469 391 1925 391 
Q 2381 391 2643 752 
Q 2906 1113 2906 1747 
Q 2906 2381 2643 2742 
Q 2381 3103 1925 3103 
Q 1469 3103 1208 2742 
Q 947 2381 947 1747 
z
M 2906 525 
Q 2725 213 2448 61 
Q 2172 -91 1784 -91 
Q 1150 -91 751 415 
Q 353 922 353 1747 
Q 353 2572 751 3078 
Q 1150 3584 1784 3584 
Q 2172 3584 2448 3432 
Q 2725 3281 2906 2969 
L 2906 3500 
L 3481 3500 
L 3481 -1331 
L 2906 -1331 
L 2906 525 
z
" id="DejaVuSans-71" transform="scale(0.015625)"/>
      <path d="M 3116 1747 
Q 3116 2381 2855 2742 
Q 2594 3103 2138 3103 
Q 1681 3103 1420 2742 
Q 1159 2381 1159 1747 
Q 1159 1113 1420 752 
Q 1681 391 2138 391 
Q 2594 391 2855 752 
Q 3116 1113 3116 1747 
z
M 1159 2969 
Q 1341 3281 1617 3432 
Q 1894 3584 2278 3584 
Q 2916 3584 3314 3078 
Q 3713 2572 3713 1747 
Q 3713 922 3314 415 
Q 2916 -91 2278 -91 
Q 1894 -91 1617 61 
Q 1341 213 1159 525 
L 1159 0 
L 581 0 
L 581 4863 
L 1159 4863 
L 1159 2969 
z
" id="DejaVuSans-62" transform="scale(0.015625)"/>
     </defs>
     <use xlink:href="#DejaVuSans-54"/>
     <use x="61.083984" xlink:href="#DejaVuSans-68"/>
     <use x="124.462891" xlink:href="#DejaVuSans-65"/>
     <use x="185.986328" xlink:href="#DejaVuSans-20"/>
     <use x="217.773438" xlink:href="#DejaVuSans-64"/>
     <use x="281.25" xlink:href="#DejaVuSans-69"/>
     <use x="309.033203" xlink:href="#DejaVuSans-66"/>
     <use x="344.238281" xlink:href="#DejaVuSans-66"/>
     <use x="379.443359" xlink:href="#DejaVuSans-75"/>
     <use x="442.822266" xlink:href="#DejaVuSans-73"/>
     <use x="494.921875" xlink:href="#DejaVuSans-65"/>
     <use x="556.445312" xlink:href="#DejaVuSans-72"/>
     <use x="597.558594" xlink:href="#DejaVuSans-20"/>
     <use x="629.345703" xlink:href="#DejaVuSans-63"/>
     <use x="684.326172" xlink:href="#DejaVuSans-69"/>
     <use x="712.109375" xlink:href="#DejaVuSans-72"/>
     <use x="750.972656" xlink:href="#DejaVuSans-63"/>
     <use x="805.953125" xlink:href="#DejaVuSans-75"/>
     <use x="869.332031" xlink:href="#DejaVuSans-69"/>
     <use x="897.115234" xlink:href="#DejaVuSans-74"/>
     <use x="936.324219" xlink:href="#DejaVuSans-2c"/>
     <use x="968.111328" xlink:href="#DejaVuSans-20"/>
     <use x="999.898438" xlink:href="#DejaVuSans-77"/>
     <use x="1081.685547" xlink:href="#DejaVuSans-69"/>
     <use x="1109.46875" xlink:href="#DejaVuSans-74"/>
     <use x="1148.677734" xlink:href="#DejaVuSans-68"/>
     <use x="1212.056641" xlink:href="#DejaVuSans-20"/>
     <use x="1243.84375" xlink:href="#DejaVuSans-33"/>
     <use x="1307.466797" xlink:href="#DejaVuSans-20"/>
     <use x="1339.253906" xlink:href="#DejaVuSans-61"/>
     <use x="1400.533203" xlink:href="#DejaVuSans-64"/>
     <use x="1464.009766" xlink:href="#DejaVuSans-64"/>
     <use x="1527.486328" xlink:href="#DejaVuSans-72"/>
     <use x="1566.349609" xlink:href="#DejaVuSans-65"/>
     <use x="1627.873047" xlink:href="#DejaVuSans-73"/>
     <use x="1679.972656" xlink:href="#DejaVuSans-73"/>
     <use x="1732.072266" xlink:href="#DejaVuSans-20"/>
     <use x="1763.859375" xlink:href="#DejaVuSans-71"/>
     <use x="1827.335938" xlink:href="#DejaVuSans-75"/>
     <use x="1890.714844" xlink:href="#DejaVuSans-62"/>
     <use x="1954.191406" xlink:href="#DejaVuSans-69"/>
     <use x="1981.974609" xlink:href="#DejaVuSans-74"/>
     <use x="2021.183594" xlink:href="#DejaVuSans-73"/>
    </g>
   </g>
   <g id="patch_2">
    <path clip-path="url(#pfd66650b27)" d="M 116.793976 83.93385 
L 146.924076 83.93385 
L 146.924076 53.80375 
L 116.793976 53.80375 
z
" style="fill:#6fa4ff;stroke:#6fa4ff;stroke-linejoin:miter;stroke-width:1.5;"/>
   </g>
   <g id="patch_3">
    <path clip-path="url(#pfd66650b27)" d="M 116.793976 130.28785 
L 146.924076 130.28785 
L 146.924076 100.15775 
L 116.793976 100.15775 
z
" style="fill:#6fa4ff;stroke:#6fa4ff;stroke-linejoin:miter;stroke-width:1.5;"/>
   </g>
   <g id="patch_4">
    <path clip-path="url(#pfd66650b27)" d="M 116.793976 176.64185 
L 146.924076 176.64185 
L 146.924076 146.51175 
L 116.793976 146.51175 
z
" style="fill:#6fa4ff;stroke:#6fa4ff;stroke-linejoin:miter;stroke-width:1.5;"/>
   </g>
   <g id="patch_5">
    <path clip-path="url(#pfd66650b27)" d="M 116.793976 222.99585 
L 146.924076 222.99585 
L 146.924076 192.86575 
L 116.793976 192.86575 
z
" style="fill:#05bab6;stroke:#05bab6;stroke-linejoin:miter;stroke-width:1.5;"/>
   </g>
   <g id="patch_6">
    <path clip-path="url(#pfd66650b27)" d="M 163.147976 83.93385 
L 193.278076 83.93385 
L 193.278076 53.80375 
L 163.147976 53.80375 
z
" style="fill:#05bab6;stroke:#05bab6;stroke-linejoin:miter;stroke-width:1.5;"/>
   </g>
   <g id="patch_7">
    <path clip-path="url(#pfd66650b27)" d="M 163.147976 130.28785 
L 193.278076 130.28785 
L 193.278076 100.15775 
L 163.147976 100.15775 
z
" style="fill:#05bab6;stroke:#05bab6;stroke-linejoin:miter;stroke-width:1.5;"/>
   </g>
   <g id="patch_8">
    <path clip-path="url(#pfd66650b27)" d="M 163.147976 176.64185 
L 193.278076 176.64185 
L 193.278076 146.51175 
L 163.147976 146.51175 
z
" style="fill:#05bab6;stroke:#05bab6;stroke-linejoin:miter;stroke-width:1.5;"/>
   </g>
   <g id="patch_9">
    <path clip-path="url(#pfd66650b27)" d="M 224.567026 73.388315 
C 225.765615 73.388315 226.915275 72.91211 227.762805 72.06458 
C 228.610336 71.217049 229.086541 70.067389 229.086541 68.8688 
C 229.086541 67.670211 228.610336 66.520551 227.762805 65.67302 
C 226.915275 64.82549 225.765615 64.349285 224.567026 64.349285 
C 223.368436 64.349285 222.218777 64.82549 221.371246 65.67302 
C 220.523715 66.520551 220.047511 67.670211 220.047511 68.8688 
C 220.047511 70.067389 220.523715 71.217049 221.371246 72.06458 
C 222.218777 72.91211 223.368436 73.388315 224.567026 73.388315 
z
" style="fill:#bb8bff;stroke:#bb8bff;stroke-linejoin:miter;stroke-width:1.5;"/>
   </g>
   <g id="patch_10">
    <path clip-path="url(#pfd66650b27)" d="M 224.567026 119.742315 
C 225.765615 119.742315 226.915275 119.26611 227.762805 118.41858 
C 228.610336 117.571049 229.086541 116.421389 229.086541 115.2228 
C 229.086541 114.024211 228.610336 112.874551 227.762805 112.02702 
C 226.915275 111.17949 225.765615 110.703285 224.567026 110.703285 
C 223.368436 110.703285 222.218777 111.17949 221.371246 112.02702 
C 220.523715 112.874551 220.047511 114.024211 220.047511 115.2228 
C 220.047511 116.421389 220.523715 117.571049 221.371246 118.41858 
C 222.218777 119.26611 223.368436 119.742315 224.567026 119.742315 
z
" style="fill:#bb8bff;stroke:#bb8bff;stroke-linejoin:miter;stroke-width:1.5;"/>
   </g>
   <g id="patch_11">
    <path clip-path="url(#pfd66650b27)" d="M 224.567026 166.096315 
C 225.765615 166.096315 226.915275 165.62011 227.762805 164.77258 
C 228.610336 163.925049 229.086541 162.775389 229.086541 161.5768 
C 229.086541 160.378211 228.610336 159.228551 227.762805 158.38102 
C 226.915275 157.53349 225.765615 157.057285 224.567026 157.057285 
C 223.368436 157.057285 222.218777 157.53349 221.371246 158.38102 
C 220.523715 159.228551 220.047511 160.378211 220.047511 161.5768 
C 220.047511 162.775389 220.523715 163.925049 221.371246 164.77258 
C 222.218777 165.62011 223.368436 166.096315 224.567026 166.096315 
z
" style="fill:#bb8bff;stroke:#bb8bff;stroke-linejoin:miter;stroke-width:1.5;"/>
   </g>
   <g id="patch_12">
    <path clip-path="url(#pfd66650b27)" d="M 224.567026 218.476335 
C 227.363734 218.476335 230.046273 217.365191 232.023845 215.387619 
C 234.001417 213.410048 235.112561 210.727509 235.112561 207.9308 
C 235.112561 205.134091 234.001417 202.451552 232.023845 200.473981 
C 230.046273 198.496409 227.363734 197.385265 224.567026 197.385265 
C 221.770317 197.385265 219.087778 198.496409 217.110206 200.473981 
C 215.132635 202.451552 214.021491 205.134091 214.021491 207.9308 
C 214.021491 210.727509 215.132635 213.410048 217.110206 215.387619 
C 219.087778 217.365191 221.770317 218.476335 224.567026 218.476335 
z
" style="fill:#bb8bff;stroke:#bb8bff;stroke-linejoin:miter;stroke-width:2;"/>
   </g>
   <g id="patch_13">
    <path clip-path="url(#pfd66650b27)" d="M 255.855976 83.93385 
L 285.986076 83.93385 
L 285.986076 53.80375 
L 255.855976 53.80375 
z
" style="fill:#05bab6;stroke:#05bab6;stroke-linejoin:miter;stroke-width:1.5;"/>
   </g>
   <g id="patch_14">
    <path clip-path="url(#pfd66650b27)" d="M 255.855976 130.28785 
L 285.986076 130.28785 
L 285.986076 100.15775 
L 255.855976 100.15775 
z
" style="fill:#05bab6;stroke:#05bab6;stroke-linejoin:miter;stroke-width:1.5;"/>
   </g>
   <g id="patch_15">
    <path clip-path="url(#pfd66650b27)" d="M 255.855976 176.64185 
L 285.986076 176.64185 
L 285.986076 146.51175 
L 255.855976 146.51175 
z
" style="fill:#05bab6;stroke:#05bab6;stroke-linejoin:miter;stroke-width:1.5;"/>
   </g>
   <g id="patch_16">
    <path clip-path="url(#pfd66650b27)" d="M 302.209976 83.93385 
L 332.340076 83.93385 
L 332.340076 53.80375 
L 302.209976 53.80375 
z
" style="fill:#6fa4ff;stroke:#6fa4ff;stroke-linejoin:miter;stroke-width:1.5;"/>
   </g>
   <g id="patch_17">
    <path clip-path="url(#pfd66650b27)" d="M 302.209976 130.28785 
L 332.340076 130.28785 
L 332.340076 100.15775 
L 302.209976 100.15775 
z
" style="fill:#6fa4ff;stroke:#6fa4ff;stroke-linejoin:miter;stroke-width:1.5;"/>
   </g>
   <g id="patch_18">
    <path clip-path="url(#pfd66650b27)" d="M 302.209976 176.64185 
L 332.340076 176.64185 
L 332.340076 146.51175 
L 302.209976 146.51175 
z
" style="fill:#6fa4ff;stroke:#6fa4ff;stroke-linejoin:miter;stroke-width:1.5;"/>
   </g>
   <g id="line2d_6">
    <path clip-path="url(#pfd66650b27)" d="M 224.567026 213.95682 
L 224.567026 201.90478 
" style="fill:none;stroke:#ffffff;stroke-linecap:square;stroke-width:2;"/>
   </g>
   <g id="line2d_7">
    <path clip-path="url(#pfd66650b27)" d="M 218.541006 207.9308 
L 230.593046 207.9308 
" style="fill:none;stroke:#ffffff;stroke-linecap:square;stroke-width:2;"/>
   </g>
   <g id="text_2">
    <g clip-path="url(#pfd66650b27)">
     <!-- H -->
     <g transform="translate(126.970822 72.455987)scale(0.13 -0.13)">
      <defs>
       <path d="M 628 4666 
L 1259 4666 
L 1259 2753 
L 3553 2753 
L 3553 4666 
L 4184 4666 
L 4184 0 
L 3553 0 
L 3553 2222 
L 1259 2222 
L 1259 0 
L 628 0 
L 628 4666 
z
" id="DejaVuSans-48" transform="scale(0.015625)"/>
      </defs>
      <use xlink:href="#DejaVuSans-48"/>
     </g>
    </g>
   </g>
   <g id="text_3">
    <g clip-path="url(#pfd66650b27)">
     <!-- H -->
     <g transform="translate(126.970822 118.809987)scale(0.13 -0.13)">
      <use xlink:href="#DejaVuSans-48"/>
     </g>
    </g>
   </g>
   <g id="text_4">
    <g clip-path="url(#pfd66650b27)">
     <!-- H -->
     <g transform="translate(126.970822 165.163987)scale(0.13 -0.13)">
      <use xlink:href="#DejaVuSans-48"/>
     </g>
    </g>
   </g>
   <g id="text_5">
    <g clip-path="url(#pfd66650b27)">
     <!-- X -->
     <g transform="translate(127.406526 211.517987)scale(0.13 -0.13)">
      <defs>
       <path d="M 403 4666 
L 1081 4666 
L 2241 2931 
L 3406 4666 
L 4084 4666 
L 2584 2425 
L 4184 0 
L 3506 0 
L 2194 1984 
L 872 0 
L 191 0 
L 1856 2491 
L 403 4666 
z
" id="DejaVuSans-58" transform="scale(0.015625)"/>
      </defs>
      <use xlink:href="#DejaVuSans-58"/>
     </g>
    </g>
   </g>
   <g id="text_6">
    <g clip-path="url(#pfd66650b27)">
     <!-- X -->
     <g transform="translate(173.760526 72.455987)scale(0.13 -0.13)">
      <use xlink:href="#DejaVuSans-58"/>
     </g>
    </g>
   </g>
   <g id="text_7">
    <g clip-path="url(#pfd66650b27)">
     <!-- X -->
     <g transform="translate(173.760526 118.809987)scale(0.13 -0.13)">
      <use xlink:href="#DejaVuSans-58"/>
     </g>
    </g>
   </g>
   <g id="text_8">
    <g clip-path="url(#pfd66650b27)">
     <!-- X -->
     <g transform="translate(173.760526 165.163987)scale(0.13 -0.13)">
      <use xlink:href="#DejaVuSans-58"/>
     </g>
    </g>
   </g>
   <g id="text_9">
    <g clip-path="url(#pfd66650b27)">
     <!-- X -->
     <g transform="translate(266.468526 72.455987)scale(0.13 -0.13)">
      <use xlink:href="#DejaVuSans-58"/>
     </g>
    </g>
   </g>
   <g id="text_10">
    <g clip-path="url(#pfd66650b27)">
     <!-- X -->
     <g transform="translate(266.468526 118.809987)scale(0.13 -0.13)">
      <use xlink:href="#DejaVuSans-58"/>
     </g>
    </g>
   </g>
   <g id="text_11">
    <g clip-path="url(#pfd66650b27)">
     <!-- X -->
     <g transform="translate(266.468526 165.163987)scale(0.13 -0.13)">
      <use xlink:href="#DejaVuSans-58"/>
     </g>
    </g>
   </g>
   <g id="text_12">
    <g clip-path="url(#pfd66650b27)">
     <!-- H -->
     <g transform="translate(312.386822 72.455987)scale(0.13 -0.13)">
      <use xlink:href="#DejaVuSans-48"/>
     </g>
    </g>
   </g>
   <g id="text_13">
    <g clip-path="url(#pfd66650b27)">
     <!-- H -->
     <g transform="translate(312.386822 118.809987)scale(0.13 -0.13)">
      <use xlink:href="#DejaVuSans-48"/>
     </g>
    </g>
   </g>
   <g id="text_14">
    <g clip-path="url(#pfd66650b27)">
     <!-- H -->
     <g transform="translate(312.386822 165.163987)scale(0.13 -0.13)">
      <use xlink:href="#DejaVuSans-48"/>
     </g>
    </g>
   </g>
   <g id="text_15">
    <g clip-path="url(#pfd66650b27)">
     <!-- ${q}_{0}$ -->
     <g transform="translate(79.519566 73.319777)scale(0.1625 -0.1625)">
      <defs>
       <path d="M 2669 525 
Q 2438 222 2123 65 
Q 1809 -91 1428 -91 
Q 897 -91 595 267 
Q 294 625 294 1253 
Q 294 1759 480 2231 
Q 666 2703 1013 3078 
Q 1238 3322 1530 3453 
Q 1822 3584 2144 3584 
Q 2531 3584 2781 3431 
Q 3031 3278 3144 2969 
L 3244 3494 
L 3822 3494 
L 2888 -1319 
L 2309 -1319 
L 2669 525 
z
M 891 1338 
Q 891 875 1084 633 
Q 1278 391 1644 391 
Q 2188 391 2572 911 
Q 2956 1431 2956 2175 
Q 2956 2625 2757 2864 
Q 2559 3103 2188 3103 
Q 1916 3103 1684 2976 
Q 1453 2850 1281 2606 
Q 1100 2350 995 2006 
Q 891 1663 891 1338 
z
" id="DejaVuSans-Oblique-71" transform="scale(0.015625)"/>
       <path d="M 2034 4250 
Q 1547 4250 1301 3770 
Q 1056 3291 1056 2328 
Q 1056 1369 1301 889 
Q 1547 409 2034 409 
Q 2525 409 2770 889 
Q 3016 1369 3016 2328 
Q 3016 3291 2770 3770 
Q 2525 4250 2034 4250 
z
M 2034 4750 
Q 2819 4750 3233 4129 
Q 3647 3509 3647 2328 
Q 3647 1150 3233 529 
Q 2819 -91 2034 -91 
Q 1250 -91 836 529 
Q 422 1150 422 2328 
Q 422 3509 836 4129 
Q 1250 4750 2034 4750 
z
" id="DejaVuSans-30" transform="scale(0.015625)"/>
      </defs>
      <use xlink:href="#DejaVuSans-Oblique-71"/>
      <use transform="translate(63.476562 -16.40625)scale(0.7)" xlink:href="#DejaVuSans-30"/>
     </g>
    </g>
   </g>
   <g id="text_16">
    <g clip-path="url(#pfd66650b27)">
     <!-- ${q}_{1}$ -->
     <g transform="translate(79.519566 119.673777)scale(0.1625 -0.1625)">
      <defs>
       <path d="M 794 531 
L 1825 531 
L 1825 4091 
L 703 3866 
L 703 4441 
L 1819 4666 
L 2450 4666 
L 2450 531 
L 3481 531 
L 3481 0 
L 794 0 
L 794 531 
z
" id="DejaVuSans-31" transform="scale(0.015625)"/>
      </defs>
      <use xlink:href="#DejaVuSans-Oblique-71"/>
      <use transform="translate(63.476562 -16.40625)scale(0.7)" xlink:href="#DejaVuSans-31"/>
     </g>
    </g>
   </g>
   <g id="text_17">
    <g clip-path="url(#pfd66650b27)">
     <!-- ${q}_{2}$ -->
     <g transform="translate(79.519566 166.027777)scale(0.1625 -0.1625)">
      <defs>
       <path d="M 1228 531 
L 3431 531 
L 3431 0 
L 469 0 
L 469 531 
Q 828 903 1448 1529 
Q 2069 2156 2228 2338 
Q 2531 2678 2651 2914 
Q 2772 3150 2772 3378 
Q 2772 3750 2511 3984 
Q 2250 4219 1831 4219 
Q 1534 4219 1204 4116 
Q 875 4013 500 3803 
L 500 4441 
Q 881 4594 1212 4672 
Q 1544 4750 1819 4750 
Q 2544 4750 2975 4387 
Q 3406 4025 3406 3419 
Q 3406 3131 3298 2873 
Q 3191 2616 2906 2266 
Q 2828 2175 2409 1742 
Q 1991 1309 1228 531 
z
" id="DejaVuSans-32" transform="scale(0.015625)"/>
      </defs>
      <use xlink:href="#DejaVuSans-Oblique-71"/>
      <use transform="translate(63.476562 -16.40625)scale(0.7)" xlink:href="#DejaVuSans-32"/>
     </g>
    </g>
   </g>
   <g id="text_18">
    <g clip-path="url(#pfd66650b27)">
     <!-- ${q}_{3}$ -->
     <g transform="translate(79.519566 212.381777)scale(0.1625 -0.1625)">
      <use xlink:href="#DejaVuSans-Oblique-71"/>
      <use transform="translate(63.476562 -16.40625)scale(0.7)" xlink:href="#DejaVuSans-33"/>
     </g>
    </g>
   </g>
  </g>
 </g>
 <defs>
  <clipPath id="pfd66650b27">
   <rect height="203.9576" width="298.449997" x="49.418668" y="31.7856"/>
  </clipPath>
 </defs>
</svg>
