<?xml version="1.0" encoding="utf-8" standalone="no"?>
<!DOCTYPE svg PUBLIC "-//W3C//DTD SVG 1.1//EN"
  "http://www.w3.org/Graphics/SVG/1.1/DTD/svg11.dtd">
<svg height="1830.08pt" version="1.1" viewBox="0 0 461.06879 1830.08" width="461.06879pt" xmlns="http://www.w3.org/2000/svg" xmlns:xlink="http://www.w3.org/1999/xlink">
 <metadata>
  <rdf:RDF xmlns:cc="http://creativecommons.org/ns#" xmlns:dc="http://purl.org/dc/elements/1.1/" xmlns:rdf="http://www.w3.org/1999/02/22-rdf-syntax-ns#">
   <cc:Work>
    <dc:type rdf:resource="http://purl.org/dc/dcmitype/StillImage"/>
    <dc:date>2021-09-13T16:36:36.522136</dc:date>
    <dc:format>image/svg+xml</dc:format>
    <dc:creator>
     <cc:Agent>
      <dc:title>Matplotlib v3.4.3, https://matplotlib.org/</dc:title>
     </cc:Agent>
    </dc:creator>
   </cc:Work>
  </rdf:RDF>
 </metadata>
 <defs>
  <style type="text/css">*{stroke-linecap:butt;stroke-linejoin:round;}</style>
 </defs>
 <g id="figure_1">
  <g id="patch_1">
   <path d="M 0 1830.08 
L 461.06879 1830.08 
L 461.06879 0 
L 0 0 
z
" style="fill:#ffffff;"/>
  </g>
  <g id="axes_1">
   <g id="line2d_1">
    <path clip-path="url(#p40412a7338)" d="M 126.414439 256.6928 
L 409.173839 256.6928 
" style="fill:none;stroke:#000000;stroke-linecap:square;stroke-width:2;"/>
   </g>
   <g id="line2d_2">
    <path clip-path="url(#p40412a7338)" d="M 126.414439 303.0468 
L 409.173839 303.0468 
" style="fill:none;stroke:#000000;stroke-linecap:square;stroke-width:2;"/>
   </g>
   <g id="line2d_3">
    <path clip-path="url(#p40412a7338)" d="M 126.414439 349.4008 
L 409.173839 349.4008 
" style="fill:none;stroke:#000000;stroke-linecap:square;stroke-width:2;"/>
   </g>
   <g id="line2d_4">
    <path clip-path="url(#p40412a7338)" d="M 126.414439 395.7548 
L 409.173839 395.7548 
" style="fill:none;stroke:#000000;stroke-linecap:square;stroke-width:2;"/>
   </g>
   <g id="line2d_5">
    <path clip-path="url(#p40412a7338)" d="M 126.414439 442.1088 
L 409.173839 442.1088 
" style="fill:none;stroke:#000000;stroke-linecap:square;stroke-width:2;"/>
   </g>
   <g id="line2d_6">
    <path clip-path="url(#p40412a7338)" d="M 126.414439 488.4628 
L 409.173839 488.4628 
" style="fill:none;stroke:#000000;stroke-linecap:square;stroke-width:2;"/>
   </g>
   <g id="line2d_7">
    <path clip-path="url(#p40412a7338)" d="M 126.414439 534.8168 
L 409.173839 534.8168 
" style="fill:none;stroke:#000000;stroke-linecap:square;stroke-width:2;"/>
   </g>
   <g id="line2d_8">
    <path clip-path="url(#p40412a7338)" d="M 126.414439 581.1708 
L 409.173839 581.1708 
" style="fill:none;stroke:#000000;stroke-linecap:square;stroke-width:2;"/>
   </g>
   <g id="line2d_9">
    <path clip-path="url(#p40412a7338)" d="M 126.414439 627.5248 
L 409.173839 627.5248 
" style="fill:none;stroke:#000000;stroke-linecap:square;stroke-width:2;"/>
   </g>
   <g id="line2d_10">
    <path clip-path="url(#p40412a7338)" d="M 126.414439 673.8788 
L 409.173839 673.8788 
" style="fill:none;stroke:#000000;stroke-linecap:square;stroke-width:2;"/>
   </g>
   <g id="line2d_11">
    <path clip-path="url(#p40412a7338)" d="M 126.414439 720.2328 
L 409.173839 720.2328 
" style="fill:none;stroke:#000000;stroke-linecap:square;stroke-width:2;"/>
   </g>
   <g id="line2d_12">
    <path clip-path="url(#p40412a7338)" d="M 126.414439 766.5868 
L 409.173839 766.5868 
" style="fill:none;stroke:#000000;stroke-linecap:square;stroke-width:2;"/>
   </g>
   <g id="line2d_13">
    <path clip-path="url(#p40412a7338)" d="M 126.414439 812.9408 
L 409.173839 812.9408 
" style="fill:none;stroke:#000000;stroke-linecap:square;stroke-width:2;"/>
   </g>
   <g id="line2d_14">
    <path clip-path="url(#p40412a7338)" d="M 126.414439 859.2948 
L 409.173839 859.2948 
" style="fill:none;stroke:#000000;stroke-linecap:square;stroke-width:2;"/>
   </g>
   <g id="line2d_15">
    <path clip-path="url(#p40412a7338)" d="M 126.414439 905.6488 
L 409.173839 905.6488 
" style="fill:none;stroke:#000000;stroke-linecap:square;stroke-width:2;"/>
   </g>
   <g id="line2d_16">
    <path clip-path="url(#p40412a7338)" d="M 126.414439 952.0028 
L 409.173839 952.0028 
" style="fill:none;stroke:#000000;stroke-linecap:square;stroke-width:2;"/>
   </g>
   <g id="line2d_17">
    <path clip-path="url(#p40412a7338)" d="M 126.414439 998.3568 
L 409.173839 998.3568 
" style="fill:none;stroke:#000000;stroke-linecap:square;stroke-width:2;"/>
   </g>
   <g id="line2d_18">
    <path clip-path="url(#p40412a7338)" d="M 126.414439 1044.7108 
L 409.173839 1044.7108 
" style="fill:none;stroke:#000000;stroke-linecap:square;stroke-width:2;"/>
   </g>
   <g id="line2d_19">
    <path clip-path="url(#p40412a7338)" d="M 126.414439 1091.0648 
L 409.173839 1091.0648 
" style="fill:none;stroke:#000000;stroke-linecap:square;stroke-width:2;"/>
   </g>
   <g id="line2d_20">
    <path clip-path="url(#p40412a7338)" d="M 126.414439 1137.4188 
L 409.173839 1137.4188 
" style="fill:none;stroke:#000000;stroke-linecap:square;stroke-width:2;"/>
   </g>
   <g id="line2d_21">
    <path clip-path="url(#p40412a7338)" d="M 126.414439 1183.7728 
L 409.173839 1183.7728 
" style="fill:none;stroke:#000000;stroke-linecap:square;stroke-width:2;"/>
   </g>
   <g id="line2d_22">
    <path clip-path="url(#p40412a7338)" d="M 126.414439 1230.1268 
L 409.173839 1230.1268 
" style="fill:none;stroke:#000000;stroke-linecap:square;stroke-width:2;"/>
   </g>
   <g id="line2d_23">
    <path clip-path="url(#p40412a7338)" d="M 126.414439 1276.4808 
L 409.173839 1276.4808 
" style="fill:none;stroke:#000000;stroke-linecap:square;stroke-width:2;"/>
   </g>
   <g id="line2d_24">
    <path clip-path="url(#p40412a7338)" d="M 126.414439 1322.8348 
L 409.173839 1322.8348 
" style="fill:none;stroke:#000000;stroke-linecap:square;stroke-width:2;"/>
   </g>
   <g id="line2d_25">
    <path clip-path="url(#p40412a7338)" d="M 126.414439 1369.1888 
L 409.173839 1369.1888 
" style="fill:none;stroke:#000000;stroke-linecap:square;stroke-width:2;"/>
   </g>
   <g id="line2d_26">
    <path clip-path="url(#p40412a7338)" d="M 126.414439 1415.5428 
L 409.173839 1415.5428 
" style="fill:none;stroke:#000000;stroke-linecap:square;stroke-width:2;"/>
   </g>
   <g id="line2d_27">
    <path clip-path="url(#p40412a7338)" d="M 126.414439 1461.8968 
L 409.173839 1461.8968 
" style="fill:none;stroke:#000000;stroke-linecap:square;stroke-width:2;"/>
   </g>
   <g id="line2d_28">
    <path clip-path="url(#p40412a7338)" d="M 126.414439 1508.2508 
L 409.173839 1508.2508 
" style="fill:none;stroke:#000000;stroke-linecap:square;stroke-width:2;"/>
   </g>
   <g id="line2d_29">
    <path clip-path="url(#p40412a7338)" d="M 126.414439 1554.6048 
L 409.173839 1554.6048 
" style="fill:none;stroke:#000000;stroke-linecap:square;stroke-width:2;"/>
   </g>
   <g id="line2d_30">
    <path clip-path="url(#p40412a7338)" d="M 126.414439 1600.9588 
L 409.173839 1600.9588 
" style="fill:none;stroke:#000000;stroke-linecap:square;stroke-width:2;"/>
   </g>
   <g id="text_1">
    <!-- Circuit diagram of the oracle for input vector [3, 3, 0, 0, 1, 2, 0, 3], with m = 2 and n = 3; 'ORACLE' gate -->
    <g transform="translate(-77.10662 213.6096)scale(0.12 -0.12)">
     <defs>
      <path d="M 4122 4306 
L 4122 3641 
Q 3803 3938 3442 4084 
Q 3081 4231 2675 4231 
Q 1875 4231 1450 3742 
Q 1025 3253 1025 2328 
Q 1025 1406 1450 917 
Q 1875 428 2675 428 
Q 3081 428 3442 575 
Q 3803 722 4122 1019 
L 4122 359 
Q 3791 134 3420 21 
Q 3050 -91 2638 -91 
Q 1578 -91 968 557 
Q 359 1206 359 2328 
Q 359 3453 968 4101 
Q 1578 4750 2638 4750 
Q 3056 4750 3426 4639 
Q 3797 4528 4122 4306 
z
" id="DejaVuSans-43" transform="scale(0.015625)"/>
      <path d="M 603 3500 
L 1178 3500 
L 1178 0 
L 603 0 
L 603 3500 
z
M 603 4863 
L 1178 4863 
L 1178 4134 
L 603 4134 
L 603 4863 
z
" id="DejaVuSans-69" transform="scale(0.015625)"/>
      <path d="M 2631 2963 
Q 2534 3019 2420 3045 
Q 2306 3072 2169 3072 
Q 1681 3072 1420 2755 
Q 1159 2438 1159 1844 
L 1159 0 
L 581 0 
L 581 3500 
L 1159 3500 
L 1159 2956 
Q 1341 3275 1631 3429 
Q 1922 3584 2338 3584 
Q 2397 3584 2469 3576 
Q 2541 3569 2628 3553 
L 2631 2963 
z
" id="DejaVuSans-72" transform="scale(0.015625)"/>
      <path d="M 3122 3366 
L 3122 2828 
Q 2878 2963 2633 3030 
Q 2388 3097 2138 3097 
Q 1578 3097 1268 2742 
Q 959 2388 959 1747 
Q 959 1106 1268 751 
Q 1578 397 2138 397 
Q 2388 397 2633 464 
Q 2878 531 3122 666 
L 3122 134 
Q 2881 22 2623 -34 
Q 2366 -91 2075 -91 
Q 1284 -91 818 406 
Q 353 903 353 1747 
Q 353 2603 823 3093 
Q 1294 3584 2113 3584 
Q 2378 3584 2631 3529 
Q 2884 3475 3122 3366 
z
" id="DejaVuSans-63" transform="scale(0.015625)"/>
      <path d="M 544 1381 
L 544 3500 
L 1119 3500 
L 1119 1403 
Q 1119 906 1312 657 
Q 1506 409 1894 409 
Q 2359 409 2629 706 
Q 2900 1003 2900 1516 
L 2900 3500 
L 3475 3500 
L 3475 0 
L 2900 0 
L 2900 538 
Q 2691 219 2414 64 
Q 2138 -91 1772 -91 
Q 1169 -91 856 284 
Q 544 659 544 1381 
z
M 1991 3584 
L 1991 3584 
z
" id="DejaVuSans-75" transform="scale(0.015625)"/>
      <path d="M 1172 4494 
L 1172 3500 
L 2356 3500 
L 2356 3053 
L 1172 3053 
L 1172 1153 
Q 1172 725 1289 603 
Q 1406 481 1766 481 
L 2356 481 
L 2356 0 
L 1766 0 
Q 1100 0 847 248 
Q 594 497 594 1153 
L 594 3053 
L 172 3053 
L 172 3500 
L 594 3500 
L 594 4494 
L 1172 4494 
z
" id="DejaVuSans-74" transform="scale(0.015625)"/>
      <path id="DejaVuSans-20" transform="scale(0.015625)"/>
      <path d="M 2906 2969 
L 2906 4863 
L 3481 4863 
L 3481 0 
L 2906 0 
L 2906 525 
Q 2725 213 2448 61 
Q 2172 -91 1784 -91 
Q 1150 -91 751 415 
Q 353 922 353 1747 
Q 353 2572 751 3078 
Q 1150 3584 1784 3584 
Q 2172 3584 2448 3432 
Q 2725 3281 2906 2969 
z
M 947 1747 
Q 947 1113 1208 752 
Q 1469 391 1925 391 
Q 2381 391 2643 752 
Q 2906 1113 2906 1747 
Q 2906 2381 2643 2742 
Q 2381 3103 1925 3103 
Q 1469 3103 1208 2742 
Q 947 2381 947 1747 
z
" id="DejaVuSans-64" transform="scale(0.015625)"/>
      <path d="M 2194 1759 
Q 1497 1759 1228 1600 
Q 959 1441 959 1056 
Q 959 750 1161 570 
Q 1363 391 1709 391 
Q 2188 391 2477 730 
Q 2766 1069 2766 1631 
L 2766 1759 
L 2194 1759 
z
M 3341 1997 
L 3341 0 
L 2766 0 
L 2766 531 
Q 2569 213 2275 61 
Q 1981 -91 1556 -91 
Q 1019 -91 701 211 
Q 384 513 384 1019 
Q 384 1609 779 1909 
Q 1175 2209 1959 2209 
L 2766 2209 
L 2766 2266 
Q 2766 2663 2505 2880 
Q 2244 3097 1772 3097 
Q 1472 3097 1187 3025 
Q 903 2953 641 2809 
L 641 3341 
Q 956 3463 1253 3523 
Q 1550 3584 1831 3584 
Q 2591 3584 2966 3190 
Q 3341 2797 3341 1997 
z
" id="DejaVuSans-61" transform="scale(0.015625)"/>
      <path d="M 2906 1791 
Q 2906 2416 2648 2759 
Q 2391 3103 1925 3103 
Q 1463 3103 1205 2759 
Q 947 2416 947 1791 
Q 947 1169 1205 825 
Q 1463 481 1925 481 
Q 2391 481 2648 825 
Q 2906 1169 2906 1791 
z
M 3481 434 
Q 3481 -459 3084 -895 
Q 2688 -1331 1869 -1331 
Q 1566 -1331 1297 -1286 
Q 1028 -1241 775 -1147 
L 775 -588 
Q 1028 -725 1275 -790 
Q 1522 -856 1778 -856 
Q 2344 -856 2625 -561 
Q 2906 -266 2906 331 
L 2906 616 
Q 2728 306 2450 153 
Q 2172 0 1784 0 
Q 1141 0 747 490 
Q 353 981 353 1791 
Q 353 2603 747 3093 
Q 1141 3584 1784 3584 
Q 2172 3584 2450 3431 
Q 2728 3278 2906 2969 
L 2906 3500 
L 3481 3500 
L 3481 434 
z
" id="DejaVuSans-67" transform="scale(0.015625)"/>
      <path d="M 3328 2828 
Q 3544 3216 3844 3400 
Q 4144 3584 4550 3584 
Q 5097 3584 5394 3201 
Q 5691 2819 5691 2113 
L 5691 0 
L 5113 0 
L 5113 2094 
Q 5113 2597 4934 2840 
Q 4756 3084 4391 3084 
Q 3944 3084 3684 2787 
Q 3425 2491 3425 1978 
L 3425 0 
L 2847 0 
L 2847 2094 
Q 2847 2600 2669 2842 
Q 2491 3084 2119 3084 
Q 1678 3084 1418 2786 
Q 1159 2488 1159 1978 
L 1159 0 
L 581 0 
L 581 3500 
L 1159 3500 
L 1159 2956 
Q 1356 3278 1631 3431 
Q 1906 3584 2284 3584 
Q 2666 3584 2933 3390 
Q 3200 3197 3328 2828 
z
" id="DejaVuSans-6d" transform="scale(0.015625)"/>
      <path d="M 1959 3097 
Q 1497 3097 1228 2736 
Q 959 2375 959 1747 
Q 959 1119 1226 758 
Q 1494 397 1959 397 
Q 2419 397 2687 759 
Q 2956 1122 2956 1747 
Q 2956 2369 2687 2733 
Q 2419 3097 1959 3097 
z
M 1959 3584 
Q 2709 3584 3137 3096 
Q 3566 2609 3566 1747 
Q 3566 888 3137 398 
Q 2709 -91 1959 -91 
Q 1206 -91 779 398 
Q 353 888 353 1747 
Q 353 2609 779 3096 
Q 1206 3584 1959 3584 
z
" id="DejaVuSans-6f" transform="scale(0.015625)"/>
      <path d="M 2375 4863 
L 2375 4384 
L 1825 4384 
Q 1516 4384 1395 4259 
Q 1275 4134 1275 3809 
L 1275 3500 
L 2222 3500 
L 2222 3053 
L 1275 3053 
L 1275 0 
L 697 0 
L 697 3053 
L 147 3053 
L 147 3500 
L 697 3500 
L 697 3744 
Q 697 4328 969 4595 
Q 1241 4863 1831 4863 
L 2375 4863 
z
" id="DejaVuSans-66" transform="scale(0.015625)"/>
      <path d="M 3513 2113 
L 3513 0 
L 2938 0 
L 2938 2094 
Q 2938 2591 2744 2837 
Q 2550 3084 2163 3084 
Q 1697 3084 1428 2787 
Q 1159 2491 1159 1978 
L 1159 0 
L 581 0 
L 581 4863 
L 1159 4863 
L 1159 2956 
Q 1366 3272 1645 3428 
Q 1925 3584 2291 3584 
Q 2894 3584 3203 3211 
Q 3513 2838 3513 2113 
z
" id="DejaVuSans-68" transform="scale(0.015625)"/>
      <path d="M 3597 1894 
L 3597 1613 
L 953 1613 
Q 991 1019 1311 708 
Q 1631 397 2203 397 
Q 2534 397 2845 478 
Q 3156 559 3463 722 
L 3463 178 
Q 3153 47 2828 -22 
Q 2503 -91 2169 -91 
Q 1331 -91 842 396 
Q 353 884 353 1716 
Q 353 2575 817 3079 
Q 1281 3584 2069 3584 
Q 2775 3584 3186 3129 
Q 3597 2675 3597 1894 
z
M 3022 2063 
Q 3016 2534 2758 2815 
Q 2500 3097 2075 3097 
Q 1594 3097 1305 2825 
Q 1016 2553 972 2059 
L 3022 2063 
z
" id="DejaVuSans-65" transform="scale(0.015625)"/>
      <path d="M 603 4863 
L 1178 4863 
L 1178 0 
L 603 0 
L 603 4863 
z
" id="DejaVuSans-6c" transform="scale(0.015625)"/>
      <path d="M 3513 2113 
L 3513 0 
L 2938 0 
L 2938 2094 
Q 2938 2591 2744 2837 
Q 2550 3084 2163 3084 
Q 1697 3084 1428 2787 
Q 1159 2491 1159 1978 
L 1159 0 
L 581 0 
L 581 3500 
L 1159 3500 
L 1159 2956 
Q 1366 3272 1645 3428 
Q 1925 3584 2291 3584 
Q 2894 3584 3203 3211 
Q 3513 2838 3513 2113 
z
" id="DejaVuSans-6e" transform="scale(0.015625)"/>
      <path d="M 1159 525 
L 1159 -1331 
L 581 -1331 
L 581 3500 
L 1159 3500 
L 1159 2969 
Q 1341 3281 1617 3432 
Q 1894 3584 2278 3584 
Q 2916 3584 3314 3078 
Q 3713 2572 3713 1747 
Q 3713 922 3314 415 
Q 2916 -91 2278 -91 
Q 1894 -91 1617 61 
Q 1341 213 1159 525 
z
M 3116 1747 
Q 3116 2381 2855 2742 
Q 2594 3103 2138 3103 
Q 1681 3103 1420 2742 
Q 1159 2381 1159 1747 
Q 1159 1113 1420 752 
Q 1681 391 2138 391 
Q 2594 391 2855 752 
Q 3116 1113 3116 1747 
z
" id="DejaVuSans-70" transform="scale(0.015625)"/>
      <path d="M 191 3500 
L 800 3500 
L 1894 563 
L 2988 3500 
L 3597 3500 
L 2284 0 
L 1503 0 
L 191 3500 
z
" id="DejaVuSans-76" transform="scale(0.015625)"/>
      <path d="M 550 4863 
L 1875 4863 
L 1875 4416 
L 1125 4416 
L 1125 -397 
L 1875 -397 
L 1875 -844 
L 550 -844 
L 550 4863 
z
" id="DejaVuSans-5b" transform="scale(0.015625)"/>
      <path d="M 2597 2516 
Q 3050 2419 3304 2112 
Q 3559 1806 3559 1356 
Q 3559 666 3084 287 
Q 2609 -91 1734 -91 
Q 1441 -91 1130 -33 
Q 819 25 488 141 
L 488 750 
Q 750 597 1062 519 
Q 1375 441 1716 441 
Q 2309 441 2620 675 
Q 2931 909 2931 1356 
Q 2931 1769 2642 2001 
Q 2353 2234 1838 2234 
L 1294 2234 
L 1294 2753 
L 1863 2753 
Q 2328 2753 2575 2939 
Q 2822 3125 2822 3475 
Q 2822 3834 2567 4026 
Q 2313 4219 1838 4219 
Q 1578 4219 1281 4162 
Q 984 4106 628 3988 
L 628 4550 
Q 988 4650 1302 4700 
Q 1616 4750 1894 4750 
Q 2613 4750 3031 4423 
Q 3450 4097 3450 3541 
Q 3450 3153 3228 2886 
Q 3006 2619 2597 2516 
z
" id="DejaVuSans-33" transform="scale(0.015625)"/>
      <path d="M 750 794 
L 1409 794 
L 1409 256 
L 897 -744 
L 494 -744 
L 750 256 
L 750 794 
z
" id="DejaVuSans-2c" transform="scale(0.015625)"/>
      <path d="M 2034 4250 
Q 1547 4250 1301 3770 
Q 1056 3291 1056 2328 
Q 1056 1369 1301 889 
Q 1547 409 2034 409 
Q 2525 409 2770 889 
Q 3016 1369 3016 2328 
Q 3016 3291 2770 3770 
Q 2525 4250 2034 4250 
z
M 2034 4750 
Q 2819 4750 3233 4129 
Q 3647 3509 3647 2328 
Q 3647 1150 3233 529 
Q 2819 -91 2034 -91 
Q 1250 -91 836 529 
Q 422 1150 422 2328 
Q 422 3509 836 4129 
Q 1250 4750 2034 4750 
z
" id="DejaVuSans-30" transform="scale(0.015625)"/>
      <path d="M 794 531 
L 1825 531 
L 1825 4091 
L 703 3866 
L 703 4441 
L 1819 4666 
L 2450 4666 
L 2450 531 
L 3481 531 
L 3481 0 
L 794 0 
L 794 531 
z
" id="DejaVuSans-31" transform="scale(0.015625)"/>
      <path d="M 1228 531 
L 3431 531 
L 3431 0 
L 469 0 
L 469 531 
Q 828 903 1448 1529 
Q 2069 2156 2228 2338 
Q 2531 2678 2651 2914 
Q 2772 3150 2772 3378 
Q 2772 3750 2511 3984 
Q 2250 4219 1831 4219 
Q 1534 4219 1204 4116 
Q 875 4013 500 3803 
L 500 4441 
Q 881 4594 1212 4672 
Q 1544 4750 1819 4750 
Q 2544 4750 2975 4387 
Q 3406 4025 3406 3419 
Q 3406 3131 3298 2873 
Q 3191 2616 2906 2266 
Q 2828 2175 2409 1742 
Q 1991 1309 1228 531 
z
" id="DejaVuSans-32" transform="scale(0.015625)"/>
      <path d="M 1947 4863 
L 1947 -844 
L 622 -844 
L 622 -397 
L 1369 -397 
L 1369 4416 
L 622 4416 
L 622 4863 
L 1947 4863 
z
" id="DejaVuSans-5d" transform="scale(0.015625)"/>
      <path d="M 269 3500 
L 844 3500 
L 1563 769 
L 2278 3500 
L 2956 3500 
L 3675 769 
L 4391 3500 
L 4966 3500 
L 4050 0 
L 3372 0 
L 2619 2869 
L 1863 0 
L 1184 0 
L 269 3500 
z
" id="DejaVuSans-77" transform="scale(0.015625)"/>
      <path d="M 678 2906 
L 4684 2906 
L 4684 2381 
L 678 2381 
L 678 2906 
z
M 678 1631 
L 4684 1631 
L 4684 1100 
L 678 1100 
L 678 1631 
z
" id="DejaVuSans-3d" transform="scale(0.015625)"/>
      <path d="M 750 3309 
L 1409 3309 
L 1409 2516 
L 750 2516 
L 750 3309 
z
M 750 794 
L 1409 794 
L 1409 256 
L 897 -744 
L 494 -744 
L 750 256 
L 750 794 
z
" id="DejaVuSans-3b" transform="scale(0.015625)"/>
      <path d="M 1147 4666 
L 1147 2931 
L 616 2931 
L 616 4666 
L 1147 4666 
z
" id="DejaVuSans-27" transform="scale(0.015625)"/>
      <path d="M 2522 4238 
Q 1834 4238 1429 3725 
Q 1025 3213 1025 2328 
Q 1025 1447 1429 934 
Q 1834 422 2522 422 
Q 3209 422 3611 934 
Q 4013 1447 4013 2328 
Q 4013 3213 3611 3725 
Q 3209 4238 2522 4238 
z
M 2522 4750 
Q 3503 4750 4090 4092 
Q 4678 3434 4678 2328 
Q 4678 1225 4090 567 
Q 3503 -91 2522 -91 
Q 1538 -91 948 565 
Q 359 1222 359 2328 
Q 359 3434 948 4092 
Q 1538 4750 2522 4750 
z
" id="DejaVuSans-4f" transform="scale(0.015625)"/>
      <path d="M 2841 2188 
Q 3044 2119 3236 1894 
Q 3428 1669 3622 1275 
L 4263 0 
L 3584 0 
L 2988 1197 
Q 2756 1666 2539 1819 
Q 2322 1972 1947 1972 
L 1259 1972 
L 1259 0 
L 628 0 
L 628 4666 
L 2053 4666 
Q 2853 4666 3247 4331 
Q 3641 3997 3641 3322 
Q 3641 2881 3436 2590 
Q 3231 2300 2841 2188 
z
M 1259 4147 
L 1259 2491 
L 2053 2491 
Q 2509 2491 2742 2702 
Q 2975 2913 2975 3322 
Q 2975 3731 2742 3939 
Q 2509 4147 2053 4147 
L 1259 4147 
z
" id="DejaVuSans-52" transform="scale(0.015625)"/>
      <path d="M 2188 4044 
L 1331 1722 
L 3047 1722 
L 2188 4044 
z
M 1831 4666 
L 2547 4666 
L 4325 0 
L 3669 0 
L 3244 1197 
L 1141 1197 
L 716 0 
L 50 0 
L 1831 4666 
z
" id="DejaVuSans-41" transform="scale(0.015625)"/>
      <path d="M 628 4666 
L 1259 4666 
L 1259 531 
L 3531 531 
L 3531 0 
L 628 0 
L 628 4666 
z
" id="DejaVuSans-4c" transform="scale(0.015625)"/>
      <path d="M 628 4666 
L 3578 4666 
L 3578 4134 
L 1259 4134 
L 1259 2753 
L 3481 2753 
L 3481 2222 
L 1259 2222 
L 1259 531 
L 3634 531 
L 3634 0 
L 628 0 
L 628 4666 
z
" id="DejaVuSans-45" transform="scale(0.015625)"/>
     </defs>
     <use xlink:href="#DejaVuSans-43"/>
     <use x="69.824219" xlink:href="#DejaVuSans-69"/>
     <use x="97.607422" xlink:href="#DejaVuSans-72"/>
     <use x="136.470703" xlink:href="#DejaVuSans-63"/>
     <use x="191.451172" xlink:href="#DejaVuSans-75"/>
     <use x="254.830078" xlink:href="#DejaVuSans-69"/>
     <use x="282.613281" xlink:href="#DejaVuSans-74"/>
     <use x="321.822266" xlink:href="#DejaVuSans-20"/>
     <use x="353.609375" xlink:href="#DejaVuSans-64"/>
     <use x="417.085938" xlink:href="#DejaVuSans-69"/>
     <use x="444.869141" xlink:href="#DejaVuSans-61"/>
     <use x="506.148438" xlink:href="#DejaVuSans-67"/>
     <use x="569.625" xlink:href="#DejaVuSans-72"/>
     <use x="610.738281" xlink:href="#DejaVuSans-61"/>
     <use x="672.017578" xlink:href="#DejaVuSans-6d"/>
     <use x="769.429688" xlink:href="#DejaVuSans-20"/>
     <use x="801.216797" xlink:href="#DejaVuSans-6f"/>
     <use x="862.398438" xlink:href="#DejaVuSans-66"/>
     <use x="897.603516" xlink:href="#DejaVuSans-20"/>
     <use x="929.390625" xlink:href="#DejaVuSans-74"/>
     <use x="968.599609" xlink:href="#DejaVuSans-68"/>
     <use x="1031.978516" xlink:href="#DejaVuSans-65"/>
     <use x="1093.501953" xlink:href="#DejaVuSans-20"/>
     <use x="1125.289062" xlink:href="#DejaVuSans-6f"/>
     <use x="1186.470703" xlink:href="#DejaVuSans-72"/>
     <use x="1227.583984" xlink:href="#DejaVuSans-61"/>
     <use x="1288.863281" xlink:href="#DejaVuSans-63"/>
     <use x="1343.84375" xlink:href="#DejaVuSans-6c"/>
     <use x="1371.626953" xlink:href="#DejaVuSans-65"/>
     <use x="1433.150391" xlink:href="#DejaVuSans-20"/>
     <use x="1464.9375" xlink:href="#DejaVuSans-66"/>
     <use x="1500.142578" xlink:href="#DejaVuSans-6f"/>
     <use x="1561.324219" xlink:href="#DejaVuSans-72"/>
     <use x="1602.4375" xlink:href="#DejaVuSans-20"/>
     <use x="1634.224609" xlink:href="#DejaVuSans-69"/>
     <use x="1662.007812" xlink:href="#DejaVuSans-6e"/>
     <use x="1725.386719" xlink:href="#DejaVuSans-70"/>
     <use x="1788.863281" xlink:href="#DejaVuSans-75"/>
     <use x="1852.242188" xlink:href="#DejaVuSans-74"/>
     <use x="1891.451172" xlink:href="#DejaVuSans-20"/>
     <use x="1923.238281" xlink:href="#DejaVuSans-76"/>
     <use x="1982.417969" xlink:href="#DejaVuSans-65"/>
     <use x="2043.941406" xlink:href="#DejaVuSans-63"/>
     <use x="2098.921875" xlink:href="#DejaVuSans-74"/>
     <use x="2138.130859" xlink:href="#DejaVuSans-6f"/>
     <use x="2199.3125" xlink:href="#DejaVuSans-72"/>
     <use x="2240.425781" xlink:href="#DejaVuSans-20"/>
     <use x="2272.212891" xlink:href="#DejaVuSans-5b"/>
     <use x="2311.226562" xlink:href="#DejaVuSans-33"/>
     <use x="2374.849609" xlink:href="#DejaVuSans-2c"/>
     <use x="2406.636719" xlink:href="#DejaVuSans-20"/>
     <use x="2438.423828" xlink:href="#DejaVuSans-33"/>
     <use x="2502.046875" xlink:href="#DejaVuSans-2c"/>
     <use x="2533.833984" xlink:href="#DejaVuSans-20"/>
     <use x="2565.621094" xlink:href="#DejaVuSans-30"/>
     <use x="2629.244141" xlink:href="#DejaVuSans-2c"/>
     <use x="2661.03125" xlink:href="#DejaVuSans-20"/>
     <use x="2692.818359" xlink:href="#DejaVuSans-30"/>
     <use x="2756.441406" xlink:href="#DejaVuSans-2c"/>
     <use x="2788.228516" xlink:href="#DejaVuSans-20"/>
     <use x="2820.015625" xlink:href="#DejaVuSans-31"/>
     <use x="2883.638672" xlink:href="#DejaVuSans-2c"/>
     <use x="2915.425781" xlink:href="#DejaVuSans-20"/>
     <use x="2947.212891" xlink:href="#DejaVuSans-32"/>
     <use x="3010.835938" xlink:href="#DejaVuSans-2c"/>
     <use x="3042.623047" xlink:href="#DejaVuSans-20"/>
     <use x="3074.410156" xlink:href="#DejaVuSans-30"/>
     <use x="3138.033203" xlink:href="#DejaVuSans-2c"/>
     <use x="3169.820312" xlink:href="#DejaVuSans-20"/>
     <use x="3201.607422" xlink:href="#DejaVuSans-33"/>
     <use x="3265.230469" xlink:href="#DejaVuSans-5d"/>
     <use x="3304.244141" xlink:href="#DejaVuSans-2c"/>
     <use x="3336.03125" xlink:href="#DejaVuSans-20"/>
     <use x="3367.818359" xlink:href="#DejaVuSans-77"/>
     <use x="3449.605469" xlink:href="#DejaVuSans-69"/>
     <use x="3477.388672" xlink:href="#DejaVuSans-74"/>
     <use x="3516.597656" xlink:href="#DejaVuSans-68"/>
     <use x="3579.976562" xlink:href="#DejaVuSans-20"/>
     <use x="3611.763672" xlink:href="#DejaVuSans-6d"/>
     <use x="3709.175781" xlink:href="#DejaVuSans-20"/>
     <use x="3740.962891" xlink:href="#DejaVuSans-3d"/>
     <use x="3824.751953" xlink:href="#DejaVuSans-20"/>
     <use x="3856.539062" xlink:href="#DejaVuSans-32"/>
     <use x="3920.162109" xlink:href="#DejaVuSans-20"/>
     <use x="3951.949219" xlink:href="#DejaVuSans-61"/>
     <use x="4013.228516" xlink:href="#DejaVuSans-6e"/>
     <use x="4076.607422" xlink:href="#DejaVuSans-64"/>
     <use x="4140.083984" xlink:href="#DejaVuSans-20"/>
     <use x="4171.871094" xlink:href="#DejaVuSans-6e"/>
     <use x="4235.25" xlink:href="#DejaVuSans-20"/>
     <use x="4267.037109" xlink:href="#DejaVuSans-3d"/>
     <use x="4350.826172" xlink:href="#DejaVuSans-20"/>
     <use x="4382.613281" xlink:href="#DejaVuSans-33"/>
     <use x="4446.236328" xlink:href="#DejaVuSans-3b"/>
     <use x="4479.927734" xlink:href="#DejaVuSans-20"/>
     <use x="4511.714844" xlink:href="#DejaVuSans-27"/>
     <use x="4539.205078" xlink:href="#DejaVuSans-4f"/>
     <use x="4617.916016" xlink:href="#DejaVuSans-52"/>
     <use x="4683.398438" xlink:href="#DejaVuSans-41"/>
     <use x="4750.056641" xlink:href="#DejaVuSans-43"/>
     <use x="4819.880859" xlink:href="#DejaVuSans-4c"/>
     <use x="4875.59375" xlink:href="#DejaVuSans-45"/>
     <use x="4938.777344" xlink:href="#DejaVuSans-27"/>
     <use x="4966.267578" xlink:href="#DejaVuSans-20"/>
     <use x="4998.054688" xlink:href="#DejaVuSans-67"/>
     <use x="5061.53125" xlink:href="#DejaVuSans-61"/>
     <use x="5122.810547" xlink:href="#DejaVuSans-74"/>
     <use x="5162.019531" xlink:href="#DejaVuSans-65"/>
    </g>
   </g>
   <g id="patch_2">
    <path clip-path="url(#p40412a7338)" d="M 148.706078 1569.66985 
L 200.53912 1569.66985 
L 200.53912 241.62775 
L 148.706078 241.62775 
z
" style="fill:#bb8bff;stroke:#bb8bff;stroke-linejoin:miter;stroke-width:1.5;"/>
   </g>
   <g id="patch_3">
    <path clip-path="url(#p40412a7338)" d="M 244.985653 1616.02385 
L 289.675545 1616.02385 
L 289.675545 1493.18575 
L 244.985653 1493.18575 
z
" style="fill:#bb8bff;stroke:#bb8bff;stroke-linejoin:miter;stroke-width:1.5;"/>
   </g>
   <g id="patch_4">
    <path clip-path="url(#p40412a7338)" d="M 334.122078 1569.66985 
L 385.95512 1569.66985 
L 385.95512 241.62775 
L 334.122078 241.62775 
z
" style="fill:#bb8bff;stroke:#bb8bff;stroke-linejoin:miter;stroke-width:1.5;"/>
   </g>
   <g id="text_2">
    <g clip-path="url(#p40412a7338)">
     <!-- 0 -->
     <g transform="translate(151.950858 260.279988)scale(0.13 -0.13)">
      <use xlink:href="#DejaVuSans-30"/>
     </g>
    </g>
   </g>
   <g id="text_3">
    <g clip-path="url(#p40412a7338)">
     <!-- 1 -->
     <g transform="translate(151.950858 306.633988)scale(0.13 -0.13)">
      <use xlink:href="#DejaVuSans-31"/>
     </g>
    </g>
   </g>
   <g id="text_4">
    <g clip-path="url(#p40412a7338)">
     <!-- 2 -->
     <g transform="translate(151.950858 352.987988)scale(0.13 -0.13)">
      <use xlink:href="#DejaVuSans-32"/>
     </g>
    </g>
   </g>
   <g id="text_5">
    <g clip-path="url(#p40412a7338)">
     <!-- 3 -->
     <g transform="translate(151.950858 399.341987)scale(0.13 -0.13)">
      <use xlink:href="#DejaVuSans-33"/>
     </g>
    </g>
   </g>
   <g id="text_6">
    <g clip-path="url(#p40412a7338)">
     <!-- 4 -->
     <g transform="translate(151.950858 445.695988)scale(0.13 -0.13)">
      <defs>
       <path d="M 2419 4116 
L 825 1625 
L 2419 1625 
L 2419 4116 
z
M 2253 4666 
L 3047 4666 
L 3047 1625 
L 3713 1625 
L 3713 1100 
L 3047 1100 
L 3047 0 
L 2419 0 
L 2419 1100 
L 313 1100 
L 313 1709 
L 2253 4666 
z
" id="DejaVuSans-34" transform="scale(0.015625)"/>
      </defs>
      <use xlink:href="#DejaVuSans-34"/>
     </g>
    </g>
   </g>
   <g id="text_7">
    <g clip-path="url(#p40412a7338)">
     <!-- 5 -->
     <g transform="translate(151.950858 492.049988)scale(0.13 -0.13)">
      <defs>
       <path d="M 691 4666 
L 3169 4666 
L 3169 4134 
L 1269 4134 
L 1269 2991 
Q 1406 3038 1543 3061 
Q 1681 3084 1819 3084 
Q 2600 3084 3056 2656 
Q 3513 2228 3513 1497 
Q 3513 744 3044 326 
Q 2575 -91 1722 -91 
Q 1428 -91 1123 -41 
Q 819 9 494 109 
L 494 744 
Q 775 591 1075 516 
Q 1375 441 1709 441 
Q 2250 441 2565 725 
Q 2881 1009 2881 1497 
Q 2881 1984 2565 2268 
Q 2250 2553 1709 2553 
Q 1456 2553 1204 2497 
Q 953 2441 691 2322 
L 691 4666 
z
" id="DejaVuSans-35" transform="scale(0.015625)"/>
      </defs>
      <use xlink:href="#DejaVuSans-35"/>
     </g>
    </g>
   </g>
   <g id="text_8">
    <g clip-path="url(#p40412a7338)">
     <!-- 6 -->
     <g transform="translate(151.950858 538.403988)scale(0.13 -0.13)">
      <defs>
       <path d="M 2113 2584 
Q 1688 2584 1439 2293 
Q 1191 2003 1191 1497 
Q 1191 994 1439 701 
Q 1688 409 2113 409 
Q 2538 409 2786 701 
Q 3034 994 3034 1497 
Q 3034 2003 2786 2293 
Q 2538 2584 2113 2584 
z
M 3366 4563 
L 3366 3988 
Q 3128 4100 2886 4159 
Q 2644 4219 2406 4219 
Q 1781 4219 1451 3797 
Q 1122 3375 1075 2522 
Q 1259 2794 1537 2939 
Q 1816 3084 2150 3084 
Q 2853 3084 3261 2657 
Q 3669 2231 3669 1497 
Q 3669 778 3244 343 
Q 2819 -91 2113 -91 
Q 1303 -91 875 529 
Q 447 1150 447 2328 
Q 447 3434 972 4092 
Q 1497 4750 2381 4750 
Q 2619 4750 2861 4703 
Q 3103 4656 3366 4563 
z
" id="DejaVuSans-36" transform="scale(0.015625)"/>
      </defs>
      <use xlink:href="#DejaVuSans-36"/>
     </g>
    </g>
   </g>
   <g id="text_9">
    <g clip-path="url(#p40412a7338)">
     <!-- 7 -->
     <g transform="translate(151.950858 584.757987)scale(0.13 -0.13)">
      <defs>
       <path d="M 525 4666 
L 3525 4666 
L 3525 4397 
L 1831 0 
L 1172 0 
L 2766 4134 
L 525 4134 
L 525 4666 
z
" id="DejaVuSans-37" transform="scale(0.015625)"/>
      </defs>
      <use xlink:href="#DejaVuSans-37"/>
     </g>
    </g>
   </g>
   <g id="text_10">
    <g clip-path="url(#p40412a7338)">
     <!-- 8 -->
     <g transform="translate(151.950858 631.111987)scale(0.13 -0.13)">
      <defs>
       <path d="M 2034 2216 
Q 1584 2216 1326 1975 
Q 1069 1734 1069 1313 
Q 1069 891 1326 650 
Q 1584 409 2034 409 
Q 2484 409 2743 651 
Q 3003 894 3003 1313 
Q 3003 1734 2745 1975 
Q 2488 2216 2034 2216 
z
M 1403 2484 
Q 997 2584 770 2862 
Q 544 3141 544 3541 
Q 544 4100 942 4425 
Q 1341 4750 2034 4750 
Q 2731 4750 3128 4425 
Q 3525 4100 3525 3541 
Q 3525 3141 3298 2862 
Q 3072 2584 2669 2484 
Q 3125 2378 3379 2068 
Q 3634 1759 3634 1313 
Q 3634 634 3220 271 
Q 2806 -91 2034 -91 
Q 1263 -91 848 271 
Q 434 634 434 1313 
Q 434 1759 690 2068 
Q 947 2378 1403 2484 
z
M 1172 3481 
Q 1172 3119 1398 2916 
Q 1625 2713 2034 2713 
Q 2441 2713 2670 2916 
Q 2900 3119 2900 3481 
Q 2900 3844 2670 4047 
Q 2441 4250 2034 4250 
Q 1625 4250 1398 4047 
Q 1172 3844 1172 3481 
z
" id="DejaVuSans-38" transform="scale(0.015625)"/>
      </defs>
      <use xlink:href="#DejaVuSans-38"/>
     </g>
    </g>
   </g>
   <g id="text_11">
    <g clip-path="url(#p40412a7338)">
     <!-- 9 -->
     <g transform="translate(151.950858 677.465987)scale(0.13 -0.13)">
      <defs>
       <path d="M 703 97 
L 703 672 
Q 941 559 1184 500 
Q 1428 441 1663 441 
Q 2288 441 2617 861 
Q 2947 1281 2994 2138 
Q 2813 1869 2534 1725 
Q 2256 1581 1919 1581 
Q 1219 1581 811 2004 
Q 403 2428 403 3163 
Q 403 3881 828 4315 
Q 1253 4750 1959 4750 
Q 2769 4750 3195 4129 
Q 3622 3509 3622 2328 
Q 3622 1225 3098 567 
Q 2575 -91 1691 -91 
Q 1453 -91 1209 -44 
Q 966 3 703 97 
z
M 1959 2075 
Q 2384 2075 2632 2365 
Q 2881 2656 2881 3163 
Q 2881 3666 2632 3958 
Q 2384 4250 1959 4250 
Q 1534 4250 1286 3958 
Q 1038 3666 1038 3163 
Q 1038 2656 1286 2365 
Q 1534 2075 1959 2075 
z
" id="DejaVuSans-39" transform="scale(0.015625)"/>
      </defs>
      <use xlink:href="#DejaVuSans-39"/>
     </g>
    </g>
   </g>
   <g id="text_12">
    <g clip-path="url(#p40412a7338)">
     <!-- 10 -->
     <g transform="translate(151.950858 723.819988)scale(0.13 -0.13)">
      <use xlink:href="#DejaVuSans-31"/>
      <use x="63.623047" xlink:href="#DejaVuSans-30"/>
     </g>
    </g>
   </g>
   <g id="text_13">
    <g clip-path="url(#p40412a7338)">
     <!-- 11 -->
     <g transform="translate(151.950858 770.173988)scale(0.13 -0.13)">
      <use xlink:href="#DejaVuSans-31"/>
      <use x="63.623047" xlink:href="#DejaVuSans-31"/>
     </g>
    </g>
   </g>
   <g id="text_14">
    <g clip-path="url(#p40412a7338)">
     <!-- 12 -->
     <g transform="translate(151.950858 816.527987)scale(0.13 -0.13)">
      <use xlink:href="#DejaVuSans-31"/>
      <use x="63.623047" xlink:href="#DejaVuSans-32"/>
     </g>
    </g>
   </g>
   <g id="text_15">
    <g clip-path="url(#p40412a7338)">
     <!-- 13 -->
     <g transform="translate(151.950858 862.881987)scale(0.13 -0.13)">
      <use xlink:href="#DejaVuSans-31"/>
      <use x="63.623047" xlink:href="#DejaVuSans-33"/>
     </g>
    </g>
   </g>
   <g id="text_16">
    <g clip-path="url(#p40412a7338)">
     <!-- 14 -->
     <g transform="translate(151.950858 909.235987)scale(0.13 -0.13)">
      <use xlink:href="#DejaVuSans-31"/>
      <use x="63.623047" xlink:href="#DejaVuSans-34"/>
     </g>
    </g>
   </g>
   <g id="text_17">
    <g clip-path="url(#p40412a7338)">
     <!-- 15 -->
     <g transform="translate(151.950858 955.589987)scale(0.13 -0.13)">
      <use xlink:href="#DejaVuSans-31"/>
      <use x="63.623047" xlink:href="#DejaVuSans-35"/>
     </g>
    </g>
   </g>
   <g id="text_18">
    <g clip-path="url(#p40412a7338)">
     <!-- 16 -->
     <g transform="translate(151.950858 1001.943987)scale(0.13 -0.13)">
      <use xlink:href="#DejaVuSans-31"/>
      <use x="63.623047" xlink:href="#DejaVuSans-36"/>
     </g>
    </g>
   </g>
   <g id="text_19">
    <g clip-path="url(#p40412a7338)">
     <!-- 17 -->
     <g transform="translate(151.950858 1048.297988)scale(0.13 -0.13)">
      <use xlink:href="#DejaVuSans-31"/>
      <use x="63.623047" xlink:href="#DejaVuSans-37"/>
     </g>
    </g>
   </g>
   <g id="text_20">
    <g clip-path="url(#p40412a7338)">
     <!-- 18 -->
     <g transform="translate(151.950858 1094.651987)scale(0.13 -0.13)">
      <use xlink:href="#DejaVuSans-31"/>
      <use x="63.623047" xlink:href="#DejaVuSans-38"/>
     </g>
    </g>
   </g>
   <g id="text_21">
    <g clip-path="url(#p40412a7338)">
     <!-- 19 -->
     <g transform="translate(151.950858 1141.005987)scale(0.13 -0.13)">
      <use xlink:href="#DejaVuSans-31"/>
      <use x="63.623047" xlink:href="#DejaVuSans-39"/>
     </g>
    </g>
   </g>
   <g id="text_22">
    <g clip-path="url(#p40412a7338)">
     <!-- 20 -->
     <g transform="translate(151.950858 1187.359987)scale(0.13 -0.13)">
      <use xlink:href="#DejaVuSans-32"/>
      <use x="63.623047" xlink:href="#DejaVuSans-30"/>
     </g>
    </g>
   </g>
   <g id="text_23">
    <g clip-path="url(#p40412a7338)">
     <!-- 21 -->
     <g transform="translate(151.950858 1233.713987)scale(0.13 -0.13)">
      <use xlink:href="#DejaVuSans-32"/>
      <use x="63.623047" xlink:href="#DejaVuSans-31"/>
     </g>
    </g>
   </g>
   <g id="text_24">
    <g clip-path="url(#p40412a7338)">
     <!-- 22 -->
     <g transform="translate(151.950858 1280.067987)scale(0.13 -0.13)">
      <use xlink:href="#DejaVuSans-32"/>
      <use x="63.623047" xlink:href="#DejaVuSans-32"/>
     </g>
    </g>
   </g>
   <g id="text_25">
    <g clip-path="url(#p40412a7338)">
     <!-- 23 -->
     <g transform="translate(151.950858 1326.421987)scale(0.13 -0.13)">
      <use xlink:href="#DejaVuSans-32"/>
      <use x="63.623047" xlink:href="#DejaVuSans-33"/>
     </g>
    </g>
   </g>
   <g id="text_26">
    <g clip-path="url(#p40412a7338)">
     <!-- 24 -->
     <g transform="translate(151.950858 1372.775987)scale(0.13 -0.13)">
      <use xlink:href="#DejaVuSans-32"/>
      <use x="63.623047" xlink:href="#DejaVuSans-34"/>
     </g>
    </g>
   </g>
   <g id="text_27">
    <g clip-path="url(#p40412a7338)">
     <!-- 25 -->
     <g transform="translate(151.950858 1419.129987)scale(0.13 -0.13)">
      <use xlink:href="#DejaVuSans-32"/>
      <use x="63.623047" xlink:href="#DejaVuSans-35"/>
     </g>
    </g>
   </g>
   <g id="text_28">
    <g clip-path="url(#p40412a7338)">
     <!-- 26 -->
     <g transform="translate(151.950858 1465.483987)scale(0.13 -0.13)">
      <use xlink:href="#DejaVuSans-32"/>
      <use x="63.623047" xlink:href="#DejaVuSans-36"/>
     </g>
    </g>
   </g>
   <g id="text_29">
    <g clip-path="url(#p40412a7338)">
     <!-- 27 -->
     <g transform="translate(151.950858 1511.837987)scale(0.13 -0.13)">
      <use xlink:href="#DejaVuSans-32"/>
      <use x="63.623047" xlink:href="#DejaVuSans-37"/>
     </g>
    </g>
   </g>
   <g id="text_30">
    <g clip-path="url(#p40412a7338)">
     <!-- 28 -->
     <g transform="translate(151.950858 1558.191987)scale(0.13 -0.13)">
      <use xlink:href="#DejaVuSans-32"/>
      <use x="63.623047" xlink:href="#DejaVuSans-38"/>
     </g>
    </g>
   </g>
   <g id="text_31">
    <g clip-path="url(#p40412a7338)">
     <!-- QRAM -->
     <g transform="translate(160.293648 909.235987)scale(0.13 -0.13)">
      <defs>
       <path d="M 2522 4238 
Q 1834 4238 1429 3725 
Q 1025 3213 1025 2328 
Q 1025 1447 1429 934 
Q 1834 422 2522 422 
Q 3209 422 3611 934 
Q 4013 1447 4013 2328 
Q 4013 3213 3611 3725 
Q 3209 4238 2522 4238 
z
M 3406 84 
L 4238 -825 
L 3475 -825 
L 2784 -78 
Q 2681 -84 2626 -87 
Q 2572 -91 2522 -91 
Q 1538 -91 948 567 
Q 359 1225 359 2328 
Q 359 3434 948 4092 
Q 1538 4750 2522 4750 
Q 3503 4750 4090 4092 
Q 4678 3434 4678 2328 
Q 4678 1516 4351 937 
Q 4025 359 3406 84 
z
" id="DejaVuSans-51" transform="scale(0.015625)"/>
       <path d="M 628 4666 
L 1569 4666 
L 2759 1491 
L 3956 4666 
L 4897 4666 
L 4897 0 
L 4281 0 
L 4281 4097 
L 3078 897 
L 2444 897 
L 1241 4097 
L 1241 0 
L 628 0 
L 628 4666 
z
" id="DejaVuSans-4d" transform="scale(0.015625)"/>
      </defs>
      <use xlink:href="#DejaVuSans-51"/>
      <use x="78.710938" xlink:href="#DejaVuSans-52"/>
      <use x="144.193359" xlink:href="#DejaVuSans-41"/>
      <use x="212.601562" xlink:href="#DejaVuSans-4d"/>
     </g>
    </g>
   </g>
   <g id="text_32">
    <g clip-path="url(#p40412a7338)">
     <!-- 0 -->
     <g transform="translate(248.230433 1511.837987)scale(0.13 -0.13)">
      <use xlink:href="#DejaVuSans-30"/>
     </g>
    </g>
   </g>
   <g id="text_33">
    <g clip-path="url(#p40412a7338)">
     <!-- 1 -->
     <g transform="translate(248.230433 1558.191987)scale(0.13 -0.13)">
      <use xlink:href="#DejaVuSans-31"/>
     </g>
    </g>
   </g>
   <g id="text_34">
    <g clip-path="url(#p40412a7338)">
     <!-- 2 -->
     <g transform="translate(248.230433 1604.545987)scale(0.13 -0.13)">
      <use xlink:href="#DejaVuSans-32"/>
     </g>
    </g>
   </g>
   <g id="text_35">
    <g clip-path="url(#p40412a7338)">
     <!-- VC_0 -->
     <g transform="translate(256.05868 1557.896441)scale(0.13 -0.13)">
      <defs>
       <path d="M 1831 0 
L 50 4666 
L 709 4666 
L 2188 738 
L 3669 4666 
L 4325 4666 
L 2547 0 
L 1831 0 
z
" id="DejaVuSans-56" transform="scale(0.015625)"/>
       <path d="M 3263 -1063 
L 3263 -1509 
L -63 -1509 
L -63 -1063 
L 3263 -1063 
z
" id="DejaVuSans-5f" transform="scale(0.015625)"/>
      </defs>
      <use xlink:href="#DejaVuSans-56"/>
      <use x="68.408203" xlink:href="#DejaVuSans-43"/>
      <use x="138.232422" xlink:href="#DejaVuSans-5f"/>
      <use x="188.232422" xlink:href="#DejaVuSans-30"/>
     </g>
    </g>
   </g>
   <g id="text_36">
    <g clip-path="url(#p40412a7338)">
     <!-- 0 -->
     <g transform="translate(337.366858 260.279988)scale(0.13 -0.13)">
      <use xlink:href="#DejaVuSans-30"/>
     </g>
    </g>
   </g>
   <g id="text_37">
    <g clip-path="url(#p40412a7338)">
     <!-- 1 -->
     <g transform="translate(337.366858 306.633988)scale(0.13 -0.13)">
      <use xlink:href="#DejaVuSans-31"/>
     </g>
    </g>
   </g>
   <g id="text_38">
    <g clip-path="url(#p40412a7338)">
     <!-- 2 -->
     <g transform="translate(337.366858 352.987988)scale(0.13 -0.13)">
      <use xlink:href="#DejaVuSans-32"/>
     </g>
    </g>
   </g>
   <g id="text_39">
    <g clip-path="url(#p40412a7338)">
     <!-- 3 -->
     <g transform="translate(337.366858 399.341987)scale(0.13 -0.13)">
      <use xlink:href="#DejaVuSans-33"/>
     </g>
    </g>
   </g>
   <g id="text_40">
    <g clip-path="url(#p40412a7338)">
     <!-- 4 -->
     <g transform="translate(337.366858 445.695988)scale(0.13 -0.13)">
      <use xlink:href="#DejaVuSans-34"/>
     </g>
    </g>
   </g>
   <g id="text_41">
    <g clip-path="url(#p40412a7338)">
     <!-- 5 -->
     <g transform="translate(337.366858 492.049988)scale(0.13 -0.13)">
      <use xlink:href="#DejaVuSans-35"/>
     </g>
    </g>
   </g>
   <g id="text_42">
    <g clip-path="url(#p40412a7338)">
     <!-- 6 -->
     <g transform="translate(337.366858 538.403988)scale(0.13 -0.13)">
      <use xlink:href="#DejaVuSans-36"/>
     </g>
    </g>
   </g>
   <g id="text_43">
    <g clip-path="url(#p40412a7338)">
     <!-- 7 -->
     <g transform="translate(337.366858 584.757987)scale(0.13 -0.13)">
      <use xlink:href="#DejaVuSans-37"/>
     </g>
    </g>
   </g>
   <g id="text_44">
    <g clip-path="url(#p40412a7338)">
     <!-- 8 -->
     <g transform="translate(337.366858 631.111987)scale(0.13 -0.13)">
      <use xlink:href="#DejaVuSans-38"/>
     </g>
    </g>
   </g>
   <g id="text_45">
    <g clip-path="url(#p40412a7338)">
     <!-- 9 -->
     <g transform="translate(337.366858 677.465987)scale(0.13 -0.13)">
      <use xlink:href="#DejaVuSans-39"/>
     </g>
    </g>
   </g>
   <g id="text_46">
    <g clip-path="url(#p40412a7338)">
     <!-- 10 -->
     <g transform="translate(337.366858 723.819988)scale(0.13 -0.13)">
      <use xlink:href="#DejaVuSans-31"/>
      <use x="63.623047" xlink:href="#DejaVuSans-30"/>
     </g>
    </g>
   </g>
   <g id="text_47">
    <g clip-path="url(#p40412a7338)">
     <!-- 11 -->
     <g transform="translate(337.366858 770.173988)scale(0.13 -0.13)">
      <use xlink:href="#DejaVuSans-31"/>
      <use x="63.623047" xlink:href="#DejaVuSans-31"/>
     </g>
    </g>
   </g>
   <g id="text_48">
    <g clip-path="url(#p40412a7338)">
     <!-- 12 -->
     <g transform="translate(337.366858 816.527987)scale(0.13 -0.13)">
      <use xlink:href="#DejaVuSans-31"/>
      <use x="63.623047" xlink:href="#DejaVuSans-32"/>
     </g>
    </g>
   </g>
   <g id="text_49">
    <g clip-path="url(#p40412a7338)">
     <!-- 13 -->
     <g transform="translate(337.366858 862.881987)scale(0.13 -0.13)">
      <use xlink:href="#DejaVuSans-31"/>
      <use x="63.623047" xlink:href="#DejaVuSans-33"/>
     </g>
    </g>
   </g>
   <g id="text_50">
    <g clip-path="url(#p40412a7338)">
     <!-- 14 -->
     <g transform="translate(337.366858 909.235987)scale(0.13 -0.13)">
      <use xlink:href="#DejaVuSans-31"/>
      <use x="63.623047" xlink:href="#DejaVuSans-34"/>
     </g>
    </g>
   </g>
   <g id="text_51">
    <g clip-path="url(#p40412a7338)">
     <!-- 15 -->
     <g transform="translate(337.366858 955.589987)scale(0.13 -0.13)">
      <use xlink:href="#DejaVuSans-31"/>
      <use x="63.623047" xlink:href="#DejaVuSans-35"/>
     </g>
    </g>
   </g>
   <g id="text_52">
    <g clip-path="url(#p40412a7338)">
     <!-- 16 -->
     <g transform="translate(337.366858 1001.943987)scale(0.13 -0.13)">
      <use xlink:href="#DejaVuSans-31"/>
      <use x="63.623047" xlink:href="#DejaVuSans-36"/>
     </g>
    </g>
   </g>
   <g id="text_53">
    <g clip-path="url(#p40412a7338)">
     <!-- 17 -->
     <g transform="translate(337.366858 1048.297988)scale(0.13 -0.13)">
      <use xlink:href="#DejaVuSans-31"/>
      <use x="63.623047" xlink:href="#DejaVuSans-37"/>
     </g>
    </g>
   </g>
   <g id="text_54">
    <g clip-path="url(#p40412a7338)">
     <!-- 18 -->
     <g transform="translate(337.366858 1094.651987)scale(0.13 -0.13)">
      <use xlink:href="#DejaVuSans-31"/>
      <use x="63.623047" xlink:href="#DejaVuSans-38"/>
     </g>
    </g>
   </g>
   <g id="text_55">
    <g clip-path="url(#p40412a7338)">
     <!-- 19 -->
     <g transform="translate(337.366858 1141.005987)scale(0.13 -0.13)">
      <use xlink:href="#DejaVuSans-31"/>
      <use x="63.623047" xlink:href="#DejaVuSans-39"/>
     </g>
    </g>
   </g>
   <g id="text_56">
    <g clip-path="url(#p40412a7338)">
     <!-- 20 -->
     <g transform="translate(337.366858 1187.359987)scale(0.13 -0.13)">
      <use xlink:href="#DejaVuSans-32"/>
      <use x="63.623047" xlink:href="#DejaVuSans-30"/>
     </g>
    </g>
   </g>
   <g id="text_57">
    <g clip-path="url(#p40412a7338)">
     <!-- 21 -->
     <g transform="translate(337.366858 1233.713987)scale(0.13 -0.13)">
      <use xlink:href="#DejaVuSans-32"/>
      <use x="63.623047" xlink:href="#DejaVuSans-31"/>
     </g>
    </g>
   </g>
   <g id="text_58">
    <g clip-path="url(#p40412a7338)">
     <!-- 22 -->
     <g transform="translate(337.366858 1280.067987)scale(0.13 -0.13)">
      <use xlink:href="#DejaVuSans-32"/>
      <use x="63.623047" xlink:href="#DejaVuSans-32"/>
     </g>
    </g>
   </g>
   <g id="text_59">
    <g clip-path="url(#p40412a7338)">
     <!-- 23 -->
     <g transform="translate(337.366858 1326.421987)scale(0.13 -0.13)">
      <use xlink:href="#DejaVuSans-32"/>
      <use x="63.623047" xlink:href="#DejaVuSans-33"/>
     </g>
    </g>
   </g>
   <g id="text_60">
    <g clip-path="url(#p40412a7338)">
     <!-- 24 -->
     <g transform="translate(337.366858 1372.775987)scale(0.13 -0.13)">
      <use xlink:href="#DejaVuSans-32"/>
      <use x="63.623047" xlink:href="#DejaVuSans-34"/>
     </g>
    </g>
   </g>
   <g id="text_61">
    <g clip-path="url(#p40412a7338)">
     <!-- 25 -->
     <g transform="translate(337.366858 1419.129987)scale(0.13 -0.13)">
      <use xlink:href="#DejaVuSans-32"/>
      <use x="63.623047" xlink:href="#DejaVuSans-35"/>
     </g>
    </g>
   </g>
   <g id="text_62">
    <g clip-path="url(#p40412a7338)">
     <!-- 26 -->
     <g transform="translate(337.366858 1465.483987)scale(0.13 -0.13)">
      <use xlink:href="#DejaVuSans-32"/>
      <use x="63.623047" xlink:href="#DejaVuSans-36"/>
     </g>
    </g>
   </g>
   <g id="text_63">
    <g clip-path="url(#p40412a7338)">
     <!-- 27 -->
     <g transform="translate(337.366858 1511.837987)scale(0.13 -0.13)">
      <use xlink:href="#DejaVuSans-32"/>
      <use x="63.623047" xlink:href="#DejaVuSans-37"/>
     </g>
    </g>
   </g>
   <g id="text_64">
    <g clip-path="url(#p40412a7338)">
     <!-- 28 -->
     <g transform="translate(337.366858 1558.191987)scale(0.13 -0.13)">
      <use xlink:href="#DejaVuSans-32"/>
      <use x="63.623047" xlink:href="#DejaVuSans-38"/>
     </g>
    </g>
   </g>
   <g id="text_65">
    <g clip-path="url(#p40412a7338)">
     <!-- QRAM -->
     <g transform="translate(345.709648 909.235987)scale(0.13 -0.13)">
      <use xlink:href="#DejaVuSans-51"/>
      <use x="78.710938" xlink:href="#DejaVuSans-52"/>
      <use x="144.193359" xlink:href="#DejaVuSans-41"/>
      <use x="212.601562" xlink:href="#DejaVuSans-4d"/>
     </g>
    </g>
   </g>
   <g id="text_66">
    <g clip-path="url(#p40412a7338)">
     <!-- ${q}_{0}$ -->
     <g transform="translate(99.106139 261.143777)scale(0.1625 -0.1625)">
      <defs>
       <path d="M 2669 525 
Q 2438 222 2123 65 
Q 1809 -91 1428 -91 
Q 897 -91 595 267 
Q 294 625 294 1253 
Q 294 1759 480 2231 
Q 666 2703 1013 3078 
Q 1238 3322 1530 3453 
Q 1822 3584 2144 3584 
Q 2531 3584 2781 3431 
Q 3031 3278 3144 2969 
L 3244 3494 
L 3822 3494 
L 2888 -1319 
L 2309 -1319 
L 2669 525 
z
M 891 1338 
Q 891 875 1084 633 
Q 1278 391 1644 391 
Q 2188 391 2572 911 
Q 2956 1431 2956 2175 
Q 2956 2625 2757 2864 
Q 2559 3103 2188 3103 
Q 1916 3103 1684 2976 
Q 1453 2850 1281 2606 
Q 1100 2350 995 2006 
Q 891 1663 891 1338 
z
" id="DejaVuSans-Oblique-71" transform="scale(0.015625)"/>
      </defs>
      <use xlink:href="#DejaVuSans-Oblique-71"/>
      <use transform="translate(63.476562 -16.40625)scale(0.7)" xlink:href="#DejaVuSans-30"/>
     </g>
    </g>
   </g>
   <g id="text_67">
    <g clip-path="url(#p40412a7338)">
     <!-- ${q}_{1}$ -->
     <g transform="translate(99.106139 307.497777)scale(0.1625 -0.1625)">
      <use xlink:href="#DejaVuSans-Oblique-71"/>
      <use transform="translate(63.476562 -16.40625)scale(0.7)" xlink:href="#DejaVuSans-31"/>
     </g>
    </g>
   </g>
   <g id="text_68">
    <g clip-path="url(#p40412a7338)">
     <!-- ${q}_{2}$ -->
     <g transform="translate(99.106139 353.851777)scale(0.1625 -0.1625)">
      <use xlink:href="#DejaVuSans-Oblique-71"/>
      <use transform="translate(63.476562 -16.40625)scale(0.7)" xlink:href="#DejaVuSans-32"/>
     </g>
    </g>
   </g>
   <g id="text_69">
    <g clip-path="url(#p40412a7338)">
     <!-- ${q}_{3}$ -->
     <g transform="translate(99.106139 400.205777)scale(0.1625 -0.1625)">
      <use xlink:href="#DejaVuSans-Oblique-71"/>
      <use transform="translate(63.476562 -16.40625)scale(0.7)" xlink:href="#DejaVuSans-33"/>
     </g>
    </g>
   </g>
   <g id="text_70">
    <g clip-path="url(#p40412a7338)">
     <!-- ${q}_{4}$ -->
     <g transform="translate(99.106139 446.559777)scale(0.1625 -0.1625)">
      <use xlink:href="#DejaVuSans-Oblique-71"/>
      <use transform="translate(63.476562 -16.40625)scale(0.7)" xlink:href="#DejaVuSans-34"/>
     </g>
    </g>
   </g>
   <g id="text_71">
    <g clip-path="url(#p40412a7338)">
     <!-- ${q}_{5}$ -->
     <g transform="translate(99.106139 492.913777)scale(0.1625 -0.1625)">
      <use xlink:href="#DejaVuSans-Oblique-71"/>
      <use transform="translate(63.476562 -16.40625)scale(0.7)" xlink:href="#DejaVuSans-35"/>
     </g>
    </g>
   </g>
   <g id="text_72">
    <g clip-path="url(#p40412a7338)">
     <!-- ${q}_{6}$ -->
     <g transform="translate(99.106139 539.267777)scale(0.1625 -0.1625)">
      <use xlink:href="#DejaVuSans-Oblique-71"/>
      <use transform="translate(63.476562 -16.40625)scale(0.7)" xlink:href="#DejaVuSans-36"/>
     </g>
    </g>
   </g>
   <g id="text_73">
    <g clip-path="url(#p40412a7338)">
     <!-- ${q}_{7}$ -->
     <g transform="translate(99.106139 585.621777)scale(0.1625 -0.1625)">
      <use xlink:href="#DejaVuSans-Oblique-71"/>
      <use transform="translate(63.476562 -16.40625)scale(0.7)" xlink:href="#DejaVuSans-37"/>
     </g>
    </g>
   </g>
   <g id="text_74">
    <g clip-path="url(#p40412a7338)">
     <!-- ${q}_{8}$ -->
     <g transform="translate(99.106139 631.975777)scale(0.1625 -0.1625)">
      <use xlink:href="#DejaVuSans-Oblique-71"/>
      <use transform="translate(63.476562 -16.40625)scale(0.7)" xlink:href="#DejaVuSans-38"/>
     </g>
    </g>
   </g>
   <g id="text_75">
    <g clip-path="url(#p40412a7338)">
     <!-- ${q}_{9}$ -->
     <g transform="translate(99.106139 678.329777)scale(0.1625 -0.1625)">
      <use xlink:href="#DejaVuSans-Oblique-71"/>
      <use transform="translate(63.476562 -16.40625)scale(0.7)" xlink:href="#DejaVuSans-39"/>
     </g>
    </g>
   </g>
   <g id="text_76">
    <g clip-path="url(#p40412a7338)">
     <!-- ${q}_{10}$ -->
     <g transform="translate(91.793639 724.683777)scale(0.1625 -0.1625)">
      <use xlink:href="#DejaVuSans-Oblique-71"/>
      <use transform="translate(63.476562 -16.40625)scale(0.7)" xlink:href="#DejaVuSans-31"/>
      <use transform="translate(108.012695 -16.40625)scale(0.7)" xlink:href="#DejaVuSans-30"/>
     </g>
    </g>
   </g>
   <g id="text_77">
    <g clip-path="url(#p40412a7338)">
     <!-- ${q}_{11}$ -->
     <g transform="translate(91.793639 771.037777)scale(0.1625 -0.1625)">
      <use xlink:href="#DejaVuSans-Oblique-71"/>
      <use transform="translate(63.476562 -16.40625)scale(0.7)" xlink:href="#DejaVuSans-31"/>
      <use transform="translate(108.012695 -16.40625)scale(0.7)" xlink:href="#DejaVuSans-31"/>
     </g>
    </g>
   </g>
   <g id="text_78">
    <g clip-path="url(#p40412a7338)">
     <!-- ${q}_{12}$ -->
     <g transform="translate(91.793639 817.391777)scale(0.1625 -0.1625)">
      <use xlink:href="#DejaVuSans-Oblique-71"/>
      <use transform="translate(63.476562 -16.40625)scale(0.7)" xlink:href="#DejaVuSans-31"/>
      <use transform="translate(108.012695 -16.40625)scale(0.7)" xlink:href="#DejaVuSans-32"/>
     </g>
    </g>
   </g>
   <g id="text_79">
    <g clip-path="url(#p40412a7338)">
     <!-- ${q}_{13}$ -->
     <g transform="translate(91.793639 863.745777)scale(0.1625 -0.1625)">
      <use xlink:href="#DejaVuSans-Oblique-71"/>
      <use transform="translate(63.476562 -16.40625)scale(0.7)" xlink:href="#DejaVuSans-31"/>
      <use transform="translate(108.012695 -16.40625)scale(0.7)" xlink:href="#DejaVuSans-33"/>
     </g>
    </g>
   </g>
   <g id="text_80">
    <g clip-path="url(#p40412a7338)">
     <!-- ${q}_{14}$ -->
     <g transform="translate(91.793639 910.099777)scale(0.1625 -0.1625)">
      <use xlink:href="#DejaVuSans-Oblique-71"/>
      <use transform="translate(63.476562 -16.40625)scale(0.7)" xlink:href="#DejaVuSans-31"/>
      <use transform="translate(108.012695 -16.40625)scale(0.7)" xlink:href="#DejaVuSans-34"/>
     </g>
    </g>
   </g>
   <g id="text_81">
    <g clip-path="url(#p40412a7338)">
     <!-- ${q}_{15}$ -->
     <g transform="translate(91.793639 956.453777)scale(0.1625 -0.1625)">
      <use xlink:href="#DejaVuSans-Oblique-71"/>
      <use transform="translate(63.476562 -16.40625)scale(0.7)" xlink:href="#DejaVuSans-31"/>
      <use transform="translate(108.012695 -16.40625)scale(0.7)" xlink:href="#DejaVuSans-35"/>
     </g>
    </g>
   </g>
   <g id="text_82">
    <g clip-path="url(#p40412a7338)">
     <!-- ${q}_{16}$ -->
     <g transform="translate(91.793639 1002.807777)scale(0.1625 -0.1625)">
      <use xlink:href="#DejaVuSans-Oblique-71"/>
      <use transform="translate(63.476562 -16.40625)scale(0.7)" xlink:href="#DejaVuSans-31"/>
      <use transform="translate(108.012695 -16.40625)scale(0.7)" xlink:href="#DejaVuSans-36"/>
     </g>
    </g>
   </g>
   <g id="text_83">
    <g clip-path="url(#p40412a7338)">
     <!-- ${q}_{17}$ -->
     <g transform="translate(91.793639 1049.161777)scale(0.1625 -0.1625)">
      <use xlink:href="#DejaVuSans-Oblique-71"/>
      <use transform="translate(63.476562 -16.40625)scale(0.7)" xlink:href="#DejaVuSans-31"/>
      <use transform="translate(108.012695 -16.40625)scale(0.7)" xlink:href="#DejaVuSans-37"/>
     </g>
    </g>
   </g>
   <g id="text_84">
    <g clip-path="url(#p40412a7338)">
     <!-- ${q}_{18}$ -->
     <g transform="translate(91.793639 1095.515777)scale(0.1625 -0.1625)">
      <use xlink:href="#DejaVuSans-Oblique-71"/>
      <use transform="translate(63.476562 -16.40625)scale(0.7)" xlink:href="#DejaVuSans-31"/>
      <use transform="translate(108.012695 -16.40625)scale(0.7)" xlink:href="#DejaVuSans-38"/>
     </g>
    </g>
   </g>
   <g id="text_85">
    <g clip-path="url(#p40412a7338)">
     <!-- ${q}_{19}$ -->
     <g transform="translate(91.793639 1141.869777)scale(0.1625 -0.1625)">
      <use xlink:href="#DejaVuSans-Oblique-71"/>
      <use transform="translate(63.476562 -16.40625)scale(0.7)" xlink:href="#DejaVuSans-31"/>
      <use transform="translate(108.012695 -16.40625)scale(0.7)" xlink:href="#DejaVuSans-39"/>
     </g>
    </g>
   </g>
   <g id="text_86">
    <g clip-path="url(#p40412a7338)">
     <!-- ${q}_{20}$ -->
     <g transform="translate(91.793639 1188.223777)scale(0.1625 -0.1625)">
      <use xlink:href="#DejaVuSans-Oblique-71"/>
      <use transform="translate(63.476562 -16.40625)scale(0.7)" xlink:href="#DejaVuSans-32"/>
      <use transform="translate(108.012695 -16.40625)scale(0.7)" xlink:href="#DejaVuSans-30"/>
     </g>
    </g>
   </g>
   <g id="text_87">
    <g clip-path="url(#p40412a7338)">
     <!-- ${q}_{21}$ -->
     <g transform="translate(91.793639 1234.577777)scale(0.1625 -0.1625)">
      <use xlink:href="#DejaVuSans-Oblique-71"/>
      <use transform="translate(63.476562 -16.40625)scale(0.7)" xlink:href="#DejaVuSans-32"/>
      <use transform="translate(108.012695 -16.40625)scale(0.7)" xlink:href="#DejaVuSans-31"/>
     </g>
    </g>
   </g>
   <g id="text_88">
    <g clip-path="url(#p40412a7338)">
     <!-- ${q}_{22}$ -->
     <g transform="translate(91.793639 1280.931777)scale(0.1625 -0.1625)">
      <use xlink:href="#DejaVuSans-Oblique-71"/>
      <use transform="translate(63.476562 -16.40625)scale(0.7)" xlink:href="#DejaVuSans-32"/>
      <use transform="translate(108.012695 -16.40625)scale(0.7)" xlink:href="#DejaVuSans-32"/>
     </g>
    </g>
   </g>
   <g id="text_89">
    <g clip-path="url(#p40412a7338)">
     <!-- ${q}_{23}$ -->
     <g transform="translate(91.793639 1327.285777)scale(0.1625 -0.1625)">
      <use xlink:href="#DejaVuSans-Oblique-71"/>
      <use transform="translate(63.476562 -16.40625)scale(0.7)" xlink:href="#DejaVuSans-32"/>
      <use transform="translate(108.012695 -16.40625)scale(0.7)" xlink:href="#DejaVuSans-33"/>
     </g>
    </g>
   </g>
   <g id="text_90">
    <g clip-path="url(#p40412a7338)">
     <!-- ${q}_{24}$ -->
     <g transform="translate(91.793639 1373.639777)scale(0.1625 -0.1625)">
      <use xlink:href="#DejaVuSans-Oblique-71"/>
      <use transform="translate(63.476562 -16.40625)scale(0.7)" xlink:href="#DejaVuSans-32"/>
      <use transform="translate(108.012695 -16.40625)scale(0.7)" xlink:href="#DejaVuSans-34"/>
     </g>
    </g>
   </g>
   <g id="text_91">
    <g clip-path="url(#p40412a7338)">
     <!-- ${q}_{25}$ -->
     <g transform="translate(91.793639 1419.993777)scale(0.1625 -0.1625)">
      <use xlink:href="#DejaVuSans-Oblique-71"/>
      <use transform="translate(63.476562 -16.40625)scale(0.7)" xlink:href="#DejaVuSans-32"/>
      <use transform="translate(108.012695 -16.40625)scale(0.7)" xlink:href="#DejaVuSans-35"/>
     </g>
    </g>
   </g>
   <g id="text_92">
    <g clip-path="url(#p40412a7338)">
     <!-- ${q}_{26}$ -->
     <g transform="translate(91.793639 1466.347777)scale(0.1625 -0.1625)">
      <use xlink:href="#DejaVuSans-Oblique-71"/>
      <use transform="translate(63.476562 -16.40625)scale(0.7)" xlink:href="#DejaVuSans-32"/>
      <use transform="translate(108.012695 -16.40625)scale(0.7)" xlink:href="#DejaVuSans-36"/>
     </g>
    </g>
   </g>
   <g id="text_93">
    <g clip-path="url(#p40412a7338)">
     <!-- ${q}_{27}$ -->
     <g transform="translate(91.793639 1512.701777)scale(0.1625 -0.1625)">
      <use xlink:href="#DejaVuSans-Oblique-71"/>
      <use transform="translate(63.476562 -16.40625)scale(0.7)" xlink:href="#DejaVuSans-32"/>
      <use transform="translate(108.012695 -16.40625)scale(0.7)" xlink:href="#DejaVuSans-37"/>
     </g>
    </g>
   </g>
   <g id="text_94">
    <g clip-path="url(#p40412a7338)">
     <!-- ${q}_{28}$ -->
     <g transform="translate(91.793639 1559.055777)scale(0.1625 -0.1625)">
      <use xlink:href="#DejaVuSans-Oblique-71"/>
      <use transform="translate(63.476562 -16.40625)scale(0.7)" xlink:href="#DejaVuSans-32"/>
      <use transform="translate(108.012695 -16.40625)scale(0.7)" xlink:href="#DejaVuSans-38"/>
     </g>
    </g>
   </g>
   <g id="text_95">
    <g clip-path="url(#p40412a7338)">
     <!-- ${q}_{29}$ -->
     <g transform="translate(91.956139 1605.409777)scale(0.1625 -0.1625)">
      <use xlink:href="#DejaVuSans-Oblique-71"/>
      <use transform="translate(63.476562 -16.40625)scale(0.7)" xlink:href="#DejaVuSans-32"/>
      <use transform="translate(106.787695 -16.40625)scale(0.7)" xlink:href="#DejaVuSans-39"/>
     </g>
    </g>
   </g>
  </g>
 </g>
 <defs>
  <clipPath id="p40412a7338">
   <rect height="1409.1616" width="355.022968" x="58.786271" y="219.6096"/>
  </clipPath>
 </defs>
</svg>
