<?xml version="1.0" encoding="utf-8" standalone="no"?>
<!DOCTYPE svg PUBLIC "-//W3C//DTD SVG 1.1//EN"
  "http://www.w3.org/Graphics/SVG/1.1/DTD/svg11.dtd">
<svg height="1830.08pt" version="1.1" viewBox="0 0 1130.911782 1830.08" width="1130.911782pt" xmlns="http://www.w3.org/2000/svg" xmlns:xlink="http://www.w3.org/1999/xlink">
 <metadata>
  <rdf:RDF xmlns:cc="http://creativecommons.org/ns#" xmlns:dc="http://purl.org/dc/elements/1.1/" xmlns:rdf="http://www.w3.org/1999/02/22-rdf-syntax-ns#">
   <cc:Work>
    <dc:type rdf:resource="http://purl.org/dc/dcmitype/StillImage"/>
    <dc:date>2021-09-15T12:49:54.582725</dc:date>
    <dc:format>image/svg+xml</dc:format>
    <dc:creator>
     <cc:Agent>
      <dc:title>Matplotlib v3.4.3, https://matplotlib.org/</dc:title>
     </cc:Agent>
    </dc:creator>
   </cc:Work>
  </rdf:RDF>
 </metadata>
 <defs>
  <style type="text/css">*{stroke-linecap:butt;stroke-linejoin:round;}</style>
 </defs>
 <g id="figure_1">
  <g id="patch_1">
   <path d="M 0 1830.08 
L 1130.911782 1830.08 
L 1130.911782 0 
L 0 0 
z
" style="fill:#ffffff;"/>
  </g>
  <g id="axes_1">
   <g id="line2d_1">
    <path clip-path="url(#p50478e9081)" d="M 217.704524 256.6928 
L 1010.357924 256.6928 
" style="fill:none;stroke:#000000;stroke-linecap:square;stroke-width:2;"/>
   </g>
   <g id="line2d_2">
    <path clip-path="url(#p50478e9081)" d="M 217.704524 303.0468 
L 1010.357924 303.0468 
" style="fill:none;stroke:#000000;stroke-linecap:square;stroke-width:2;"/>
   </g>
   <g id="line2d_3">
    <path clip-path="url(#p50478e9081)" d="M 217.704524 349.4008 
L 1010.357924 349.4008 
" style="fill:none;stroke:#000000;stroke-linecap:square;stroke-width:2;"/>
   </g>
   <g id="line2d_4">
    <path clip-path="url(#p50478e9081)" d="M 217.704524 395.7548 
L 1010.357924 395.7548 
" style="fill:none;stroke:#000000;stroke-linecap:square;stroke-width:2;"/>
   </g>
   <g id="line2d_5">
    <path clip-path="url(#p50478e9081)" d="M 217.704524 442.1088 
L 1010.357924 442.1088 
" style="fill:none;stroke:#000000;stroke-linecap:square;stroke-width:2;"/>
   </g>
   <g id="line2d_6">
    <path clip-path="url(#p50478e9081)" d="M 217.704524 488.4628 
L 1010.357924 488.4628 
" style="fill:none;stroke:#000000;stroke-linecap:square;stroke-width:2;"/>
   </g>
   <g id="line2d_7">
    <path clip-path="url(#p50478e9081)" d="M 217.704524 534.8168 
L 1010.357924 534.8168 
" style="fill:none;stroke:#000000;stroke-linecap:square;stroke-width:2;"/>
   </g>
   <g id="line2d_8">
    <path clip-path="url(#p50478e9081)" d="M 217.704524 581.1708 
L 1010.357924 581.1708 
" style="fill:none;stroke:#000000;stroke-linecap:square;stroke-width:2;"/>
   </g>
   <g id="line2d_9">
    <path clip-path="url(#p50478e9081)" d="M 217.704524 627.5248 
L 1010.357924 627.5248 
" style="fill:none;stroke:#000000;stroke-linecap:square;stroke-width:2;"/>
   </g>
   <g id="line2d_10">
    <path clip-path="url(#p50478e9081)" d="M 217.704524 673.8788 
L 1010.357924 673.8788 
" style="fill:none;stroke:#000000;stroke-linecap:square;stroke-width:2;"/>
   </g>
   <g id="line2d_11">
    <path clip-path="url(#p50478e9081)" d="M 217.704524 720.2328 
L 1010.357924 720.2328 
" style="fill:none;stroke:#000000;stroke-linecap:square;stroke-width:2;"/>
   </g>
   <g id="line2d_12">
    <path clip-path="url(#p50478e9081)" d="M 217.704524 766.5868 
L 1010.357924 766.5868 
" style="fill:none;stroke:#000000;stroke-linecap:square;stroke-width:2;"/>
   </g>
   <g id="line2d_13">
    <path clip-path="url(#p50478e9081)" d="M 217.704524 812.9408 
L 1010.357924 812.9408 
" style="fill:none;stroke:#000000;stroke-linecap:square;stroke-width:2;"/>
   </g>
   <g id="line2d_14">
    <path clip-path="url(#p50478e9081)" d="M 217.704524 859.2948 
L 1010.357924 859.2948 
" style="fill:none;stroke:#000000;stroke-linecap:square;stroke-width:2;"/>
   </g>
   <g id="line2d_15">
    <path clip-path="url(#p50478e9081)" d="M 217.704524 905.6488 
L 1010.357924 905.6488 
" style="fill:none;stroke:#000000;stroke-linecap:square;stroke-width:2;"/>
   </g>
   <g id="line2d_16">
    <path clip-path="url(#p50478e9081)" d="M 217.704524 952.0028 
L 1010.357924 952.0028 
" style="fill:none;stroke:#000000;stroke-linecap:square;stroke-width:2;"/>
   </g>
   <g id="line2d_17">
    <path clip-path="url(#p50478e9081)" d="M 217.704524 998.3568 
L 1010.357924 998.3568 
" style="fill:none;stroke:#000000;stroke-linecap:square;stroke-width:2;"/>
   </g>
   <g id="line2d_18">
    <path clip-path="url(#p50478e9081)" d="M 217.704524 1044.7108 
L 1010.357924 1044.7108 
" style="fill:none;stroke:#000000;stroke-linecap:square;stroke-width:2;"/>
   </g>
   <g id="line2d_19">
    <path clip-path="url(#p50478e9081)" d="M 217.704524 1091.0648 
L 1010.357924 1091.0648 
" style="fill:none;stroke:#000000;stroke-linecap:square;stroke-width:2;"/>
   </g>
   <g id="line2d_20">
    <path clip-path="url(#p50478e9081)" d="M 217.704524 1137.4188 
L 1010.357924 1137.4188 
" style="fill:none;stroke:#000000;stroke-linecap:square;stroke-width:2;"/>
   </g>
   <g id="line2d_21">
    <path clip-path="url(#p50478e9081)" d="M 217.704524 1183.7728 
L 1010.357924 1183.7728 
" style="fill:none;stroke:#000000;stroke-linecap:square;stroke-width:2;"/>
   </g>
   <g id="line2d_22">
    <path clip-path="url(#p50478e9081)" d="M 217.704524 1230.1268 
L 1010.357924 1230.1268 
" style="fill:none;stroke:#000000;stroke-linecap:square;stroke-width:2;"/>
   </g>
   <g id="line2d_23">
    <path clip-path="url(#p50478e9081)" d="M 217.704524 1276.4808 
L 1010.357924 1276.4808 
" style="fill:none;stroke:#000000;stroke-linecap:square;stroke-width:2;"/>
   </g>
   <g id="line2d_24">
    <path clip-path="url(#p50478e9081)" d="M 217.704524 1322.8348 
L 1010.357924 1322.8348 
" style="fill:none;stroke:#000000;stroke-linecap:square;stroke-width:2;"/>
   </g>
   <g id="line2d_25">
    <path clip-path="url(#p50478e9081)" d="M 217.704524 1369.1888 
L 1010.357924 1369.1888 
" style="fill:none;stroke:#000000;stroke-linecap:square;stroke-width:2;"/>
   </g>
   <g id="line2d_26">
    <path clip-path="url(#p50478e9081)" d="M 217.704524 1415.5428 
L 1010.357924 1415.5428 
" style="fill:none;stroke:#000000;stroke-linecap:square;stroke-width:2;"/>
   </g>
   <g id="line2d_27">
    <path clip-path="url(#p50478e9081)" d="M 217.704524 1461.8968 
L 1010.357924 1461.8968 
" style="fill:none;stroke:#000000;stroke-linecap:square;stroke-width:2;"/>
   </g>
   <g id="line2d_28">
    <path clip-path="url(#p50478e9081)" d="M 217.704524 1508.2508 
L 1010.357924 1508.2508 
" style="fill:none;stroke:#000000;stroke-linecap:square;stroke-width:2;"/>
   </g>
   <g id="line2d_29">
    <path clip-path="url(#p50478e9081)" d="M 217.704524 1554.6048 
L 1010.357924 1554.6048 
" style="fill:none;stroke:#000000;stroke-linecap:square;stroke-width:2;"/>
   </g>
   <g id="line2d_30">
    <path clip-path="url(#p50478e9081)" d="M 217.704524 1600.9588 
L 1010.357924 1600.9588 
" style="fill:none;stroke:#000000;stroke-linecap:square;stroke-width:2;"/>
   </g>
   <g id="text_1">
    <!-- Overall circuit for input_vector [1, 5, 7, 10] , with n = 2, m = 4 -->
    <g transform="translate(392.042601 213.6096)scale(0.12 -0.12)">
     <defs>
      <path d="M 2522 4238 
Q 1834 4238 1429 3725 
Q 1025 3213 1025 2328 
Q 1025 1447 1429 934 
Q 1834 422 2522 422 
Q 3209 422 3611 934 
Q 4013 1447 4013 2328 
Q 4013 3213 3611 3725 
Q 3209 4238 2522 4238 
z
M 2522 4750 
Q 3503 4750 4090 4092 
Q 4678 3434 4678 2328 
Q 4678 1225 4090 567 
Q 3503 -91 2522 -91 
Q 1538 -91 948 565 
Q 359 1222 359 2328 
Q 359 3434 948 4092 
Q 1538 4750 2522 4750 
z
" id="DejaVuSans-4f" transform="scale(0.015625)"/>
      <path d="M 191 3500 
L 800 3500 
L 1894 563 
L 2988 3500 
L 3597 3500 
L 2284 0 
L 1503 0 
L 191 3500 
z
" id="DejaVuSans-76" transform="scale(0.015625)"/>
      <path d="M 3597 1894 
L 3597 1613 
L 953 1613 
Q 991 1019 1311 708 
Q 1631 397 2203 397 
Q 2534 397 2845 478 
Q 3156 559 3463 722 
L 3463 178 
Q 3153 47 2828 -22 
Q 2503 -91 2169 -91 
Q 1331 -91 842 396 
Q 353 884 353 1716 
Q 353 2575 817 3079 
Q 1281 3584 2069 3584 
Q 2775 3584 3186 3129 
Q 3597 2675 3597 1894 
z
M 3022 2063 
Q 3016 2534 2758 2815 
Q 2500 3097 2075 3097 
Q 1594 3097 1305 2825 
Q 1016 2553 972 2059 
L 3022 2063 
z
" id="DejaVuSans-65" transform="scale(0.015625)"/>
      <path d="M 2631 2963 
Q 2534 3019 2420 3045 
Q 2306 3072 2169 3072 
Q 1681 3072 1420 2755 
Q 1159 2438 1159 1844 
L 1159 0 
L 581 0 
L 581 3500 
L 1159 3500 
L 1159 2956 
Q 1341 3275 1631 3429 
Q 1922 3584 2338 3584 
Q 2397 3584 2469 3576 
Q 2541 3569 2628 3553 
L 2631 2963 
z
" id="DejaVuSans-72" transform="scale(0.015625)"/>
      <path d="M 2194 1759 
Q 1497 1759 1228 1600 
Q 959 1441 959 1056 
Q 959 750 1161 570 
Q 1363 391 1709 391 
Q 2188 391 2477 730 
Q 2766 1069 2766 1631 
L 2766 1759 
L 2194 1759 
z
M 3341 1997 
L 3341 0 
L 2766 0 
L 2766 531 
Q 2569 213 2275 61 
Q 1981 -91 1556 -91 
Q 1019 -91 701 211 
Q 384 513 384 1019 
Q 384 1609 779 1909 
Q 1175 2209 1959 2209 
L 2766 2209 
L 2766 2266 
Q 2766 2663 2505 2880 
Q 2244 3097 1772 3097 
Q 1472 3097 1187 3025 
Q 903 2953 641 2809 
L 641 3341 
Q 956 3463 1253 3523 
Q 1550 3584 1831 3584 
Q 2591 3584 2966 3190 
Q 3341 2797 3341 1997 
z
" id="DejaVuSans-61" transform="scale(0.015625)"/>
      <path d="M 603 4863 
L 1178 4863 
L 1178 0 
L 603 0 
L 603 4863 
z
" id="DejaVuSans-6c" transform="scale(0.015625)"/>
      <path id="DejaVuSans-20" transform="scale(0.015625)"/>
      <path d="M 3122 3366 
L 3122 2828 
Q 2878 2963 2633 3030 
Q 2388 3097 2138 3097 
Q 1578 3097 1268 2742 
Q 959 2388 959 1747 
Q 959 1106 1268 751 
Q 1578 397 2138 397 
Q 2388 397 2633 464 
Q 2878 531 3122 666 
L 3122 134 
Q 2881 22 2623 -34 
Q 2366 -91 2075 -91 
Q 1284 -91 818 406 
Q 353 903 353 1747 
Q 353 2603 823 3093 
Q 1294 3584 2113 3584 
Q 2378 3584 2631 3529 
Q 2884 3475 3122 3366 
z
" id="DejaVuSans-63" transform="scale(0.015625)"/>
      <path d="M 603 3500 
L 1178 3500 
L 1178 0 
L 603 0 
L 603 3500 
z
M 603 4863 
L 1178 4863 
L 1178 4134 
L 603 4134 
L 603 4863 
z
" id="DejaVuSans-69" transform="scale(0.015625)"/>
      <path d="M 544 1381 
L 544 3500 
L 1119 3500 
L 1119 1403 
Q 1119 906 1312 657 
Q 1506 409 1894 409 
Q 2359 409 2629 706 
Q 2900 1003 2900 1516 
L 2900 3500 
L 3475 3500 
L 3475 0 
L 2900 0 
L 2900 538 
Q 2691 219 2414 64 
Q 2138 -91 1772 -91 
Q 1169 -91 856 284 
Q 544 659 544 1381 
z
M 1991 3584 
L 1991 3584 
z
" id="DejaVuSans-75" transform="scale(0.015625)"/>
      <path d="M 1172 4494 
L 1172 3500 
L 2356 3500 
L 2356 3053 
L 1172 3053 
L 1172 1153 
Q 1172 725 1289 603 
Q 1406 481 1766 481 
L 2356 481 
L 2356 0 
L 1766 0 
Q 1100 0 847 248 
Q 594 497 594 1153 
L 594 3053 
L 172 3053 
L 172 3500 
L 594 3500 
L 594 4494 
L 1172 4494 
z
" id="DejaVuSans-74" transform="scale(0.015625)"/>
      <path d="M 2375 4863 
L 2375 4384 
L 1825 4384 
Q 1516 4384 1395 4259 
Q 1275 4134 1275 3809 
L 1275 3500 
L 2222 3500 
L 2222 3053 
L 1275 3053 
L 1275 0 
L 697 0 
L 697 3053 
L 147 3053 
L 147 3500 
L 697 3500 
L 697 3744 
Q 697 4328 969 4595 
Q 1241 4863 1831 4863 
L 2375 4863 
z
" id="DejaVuSans-66" transform="scale(0.015625)"/>
      <path d="M 1959 3097 
Q 1497 3097 1228 2736 
Q 959 2375 959 1747 
Q 959 1119 1226 758 
Q 1494 397 1959 397 
Q 2419 397 2687 759 
Q 2956 1122 2956 1747 
Q 2956 2369 2687 2733 
Q 2419 3097 1959 3097 
z
M 1959 3584 
Q 2709 3584 3137 3096 
Q 3566 2609 3566 1747 
Q 3566 888 3137 398 
Q 2709 -91 1959 -91 
Q 1206 -91 779 398 
Q 353 888 353 1747 
Q 353 2609 779 3096 
Q 1206 3584 1959 3584 
z
" id="DejaVuSans-6f" transform="scale(0.015625)"/>
      <path d="M 3513 2113 
L 3513 0 
L 2938 0 
L 2938 2094 
Q 2938 2591 2744 2837 
Q 2550 3084 2163 3084 
Q 1697 3084 1428 2787 
Q 1159 2491 1159 1978 
L 1159 0 
L 581 0 
L 581 3500 
L 1159 3500 
L 1159 2956 
Q 1366 3272 1645 3428 
Q 1925 3584 2291 3584 
Q 2894 3584 3203 3211 
Q 3513 2838 3513 2113 
z
" id="DejaVuSans-6e" transform="scale(0.015625)"/>
      <path d="M 1159 525 
L 1159 -1331 
L 581 -1331 
L 581 3500 
L 1159 3500 
L 1159 2969 
Q 1341 3281 1617 3432 
Q 1894 3584 2278 3584 
Q 2916 3584 3314 3078 
Q 3713 2572 3713 1747 
Q 3713 922 3314 415 
Q 2916 -91 2278 -91 
Q 1894 -91 1617 61 
Q 1341 213 1159 525 
z
M 3116 1747 
Q 3116 2381 2855 2742 
Q 2594 3103 2138 3103 
Q 1681 3103 1420 2742 
Q 1159 2381 1159 1747 
Q 1159 1113 1420 752 
Q 1681 391 2138 391 
Q 2594 391 2855 752 
Q 3116 1113 3116 1747 
z
" id="DejaVuSans-70" transform="scale(0.015625)"/>
      <path d="M 3263 -1063 
L 3263 -1509 
L -63 -1509 
L -63 -1063 
L 3263 -1063 
z
" id="DejaVuSans-5f" transform="scale(0.015625)"/>
      <path d="M 550 4863 
L 1875 4863 
L 1875 4416 
L 1125 4416 
L 1125 -397 
L 1875 -397 
L 1875 -844 
L 550 -844 
L 550 4863 
z
" id="DejaVuSans-5b" transform="scale(0.015625)"/>
      <path d="M 794 531 
L 1825 531 
L 1825 4091 
L 703 3866 
L 703 4441 
L 1819 4666 
L 2450 4666 
L 2450 531 
L 3481 531 
L 3481 0 
L 794 0 
L 794 531 
z
" id="DejaVuSans-31" transform="scale(0.015625)"/>
      <path d="M 750 794 
L 1409 794 
L 1409 256 
L 897 -744 
L 494 -744 
L 750 256 
L 750 794 
z
" id="DejaVuSans-2c" transform="scale(0.015625)"/>
      <path d="M 691 4666 
L 3169 4666 
L 3169 4134 
L 1269 4134 
L 1269 2991 
Q 1406 3038 1543 3061 
Q 1681 3084 1819 3084 
Q 2600 3084 3056 2656 
Q 3513 2228 3513 1497 
Q 3513 744 3044 326 
Q 2575 -91 1722 -91 
Q 1428 -91 1123 -41 
Q 819 9 494 109 
L 494 744 
Q 775 591 1075 516 
Q 1375 441 1709 441 
Q 2250 441 2565 725 
Q 2881 1009 2881 1497 
Q 2881 1984 2565 2268 
Q 2250 2553 1709 2553 
Q 1456 2553 1204 2497 
Q 953 2441 691 2322 
L 691 4666 
z
" id="DejaVuSans-35" transform="scale(0.015625)"/>
      <path d="M 525 4666 
L 3525 4666 
L 3525 4397 
L 1831 0 
L 1172 0 
L 2766 4134 
L 525 4134 
L 525 4666 
z
" id="DejaVuSans-37" transform="scale(0.015625)"/>
      <path d="M 2034 4250 
Q 1547 4250 1301 3770 
Q 1056 3291 1056 2328 
Q 1056 1369 1301 889 
Q 1547 409 2034 409 
Q 2525 409 2770 889 
Q 3016 1369 3016 2328 
Q 3016 3291 2770 3770 
Q 2525 4250 2034 4250 
z
M 2034 4750 
Q 2819 4750 3233 4129 
Q 3647 3509 3647 2328 
Q 3647 1150 3233 529 
Q 2819 -91 2034 -91 
Q 1250 -91 836 529 
Q 422 1150 422 2328 
Q 422 3509 836 4129 
Q 1250 4750 2034 4750 
z
" id="DejaVuSans-30" transform="scale(0.015625)"/>
      <path d="M 1947 4863 
L 1947 -844 
L 622 -844 
L 622 -397 
L 1369 -397 
L 1369 4416 
L 622 4416 
L 622 4863 
L 1947 4863 
z
" id="DejaVuSans-5d" transform="scale(0.015625)"/>
      <path d="M 269 3500 
L 844 3500 
L 1563 769 
L 2278 3500 
L 2956 3500 
L 3675 769 
L 4391 3500 
L 4966 3500 
L 4050 0 
L 3372 0 
L 2619 2869 
L 1863 0 
L 1184 0 
L 269 3500 
z
" id="DejaVuSans-77" transform="scale(0.015625)"/>
      <path d="M 3513 2113 
L 3513 0 
L 2938 0 
L 2938 2094 
Q 2938 2591 2744 2837 
Q 2550 3084 2163 3084 
Q 1697 3084 1428 2787 
Q 1159 2491 1159 1978 
L 1159 0 
L 581 0 
L 581 4863 
L 1159 4863 
L 1159 2956 
Q 1366 3272 1645 3428 
Q 1925 3584 2291 3584 
Q 2894 3584 3203 3211 
Q 3513 2838 3513 2113 
z
" id="DejaVuSans-68" transform="scale(0.015625)"/>
      <path d="M 678 2906 
L 4684 2906 
L 4684 2381 
L 678 2381 
L 678 2906 
z
M 678 1631 
L 4684 1631 
L 4684 1100 
L 678 1100 
L 678 1631 
z
" id="DejaVuSans-3d" transform="scale(0.015625)"/>
      <path d="M 1228 531 
L 3431 531 
L 3431 0 
L 469 0 
L 469 531 
Q 828 903 1448 1529 
Q 2069 2156 2228 2338 
Q 2531 2678 2651 2914 
Q 2772 3150 2772 3378 
Q 2772 3750 2511 3984 
Q 2250 4219 1831 4219 
Q 1534 4219 1204 4116 
Q 875 4013 500 3803 
L 500 4441 
Q 881 4594 1212 4672 
Q 1544 4750 1819 4750 
Q 2544 4750 2975 4387 
Q 3406 4025 3406 3419 
Q 3406 3131 3298 2873 
Q 3191 2616 2906 2266 
Q 2828 2175 2409 1742 
Q 1991 1309 1228 531 
z
" id="DejaVuSans-32" transform="scale(0.015625)"/>
      <path d="M 3328 2828 
Q 3544 3216 3844 3400 
Q 4144 3584 4550 3584 
Q 5097 3584 5394 3201 
Q 5691 2819 5691 2113 
L 5691 0 
L 5113 0 
L 5113 2094 
Q 5113 2597 4934 2840 
Q 4756 3084 4391 3084 
Q 3944 3084 3684 2787 
Q 3425 2491 3425 1978 
L 3425 0 
L 2847 0 
L 2847 2094 
Q 2847 2600 2669 2842 
Q 2491 3084 2119 3084 
Q 1678 3084 1418 2786 
Q 1159 2488 1159 1978 
L 1159 0 
L 581 0 
L 581 3500 
L 1159 3500 
L 1159 2956 
Q 1356 3278 1631 3431 
Q 1906 3584 2284 3584 
Q 2666 3584 2933 3390 
Q 3200 3197 3328 2828 
z
" id="DejaVuSans-6d" transform="scale(0.015625)"/>
      <path d="M 2419 4116 
L 825 1625 
L 2419 1625 
L 2419 4116 
z
M 2253 4666 
L 3047 4666 
L 3047 1625 
L 3713 1625 
L 3713 1100 
L 3047 1100 
L 3047 0 
L 2419 0 
L 2419 1100 
L 313 1100 
L 313 1709 
L 2253 4666 
z
" id="DejaVuSans-34" transform="scale(0.015625)"/>
     </defs>
     <use xlink:href="#DejaVuSans-4f"/>
     <use x="78.710938" xlink:href="#DejaVuSans-76"/>
     <use x="137.890625" xlink:href="#DejaVuSans-65"/>
     <use x="199.414062" xlink:href="#DejaVuSans-72"/>
     <use x="240.527344" xlink:href="#DejaVuSans-61"/>
     <use x="301.806641" xlink:href="#DejaVuSans-6c"/>
     <use x="329.589844" xlink:href="#DejaVuSans-6c"/>
     <use x="357.373047" xlink:href="#DejaVuSans-20"/>
     <use x="389.160156" xlink:href="#DejaVuSans-63"/>
     <use x="444.140625" xlink:href="#DejaVuSans-69"/>
     <use x="471.923828" xlink:href="#DejaVuSans-72"/>
     <use x="510.787109" xlink:href="#DejaVuSans-63"/>
     <use x="565.767578" xlink:href="#DejaVuSans-75"/>
     <use x="629.146484" xlink:href="#DejaVuSans-69"/>
     <use x="656.929688" xlink:href="#DejaVuSans-74"/>
     <use x="696.138672" xlink:href="#DejaVuSans-20"/>
     <use x="727.925781" xlink:href="#DejaVuSans-66"/>
     <use x="763.130859" xlink:href="#DejaVuSans-6f"/>
     <use x="824.3125" xlink:href="#DejaVuSans-72"/>
     <use x="865.425781" xlink:href="#DejaVuSans-20"/>
     <use x="897.212891" xlink:href="#DejaVuSans-69"/>
     <use x="924.996094" xlink:href="#DejaVuSans-6e"/>
     <use x="988.375" xlink:href="#DejaVuSans-70"/>
     <use x="1051.851562" xlink:href="#DejaVuSans-75"/>
     <use x="1115.230469" xlink:href="#DejaVuSans-74"/>
     <use x="1154.439453" xlink:href="#DejaVuSans-5f"/>
     <use x="1204.439453" xlink:href="#DejaVuSans-76"/>
     <use x="1263.619141" xlink:href="#DejaVuSans-65"/>
     <use x="1325.142578" xlink:href="#DejaVuSans-63"/>
     <use x="1380.123047" xlink:href="#DejaVuSans-74"/>
     <use x="1419.332031" xlink:href="#DejaVuSans-6f"/>
     <use x="1480.513672" xlink:href="#DejaVuSans-72"/>
     <use x="1521.626953" xlink:href="#DejaVuSans-20"/>
     <use x="1553.414062" xlink:href="#DejaVuSans-5b"/>
     <use x="1592.427734" xlink:href="#DejaVuSans-31"/>
     <use x="1656.050781" xlink:href="#DejaVuSans-2c"/>
     <use x="1687.837891" xlink:href="#DejaVuSans-20"/>
     <use x="1719.625" xlink:href="#DejaVuSans-35"/>
     <use x="1783.248047" xlink:href="#DejaVuSans-2c"/>
     <use x="1815.035156" xlink:href="#DejaVuSans-20"/>
     <use x="1846.822266" xlink:href="#DejaVuSans-37"/>
     <use x="1910.445312" xlink:href="#DejaVuSans-2c"/>
     <use x="1942.232422" xlink:href="#DejaVuSans-20"/>
     <use x="1974.019531" xlink:href="#DejaVuSans-31"/>
     <use x="2037.642578" xlink:href="#DejaVuSans-30"/>
     <use x="2101.265625" xlink:href="#DejaVuSans-5d"/>
     <use x="2140.279297" xlink:href="#DejaVuSans-20"/>
     <use x="2172.066406" xlink:href="#DejaVuSans-2c"/>
     <use x="2203.853516" xlink:href="#DejaVuSans-20"/>
     <use x="2235.640625" xlink:href="#DejaVuSans-77"/>
     <use x="2317.427734" xlink:href="#DejaVuSans-69"/>
     <use x="2345.210938" xlink:href="#DejaVuSans-74"/>
     <use x="2384.419922" xlink:href="#DejaVuSans-68"/>
     <use x="2447.798828" xlink:href="#DejaVuSans-20"/>
     <use x="2479.585938" xlink:href="#DejaVuSans-6e"/>
     <use x="2542.964844" xlink:href="#DejaVuSans-20"/>
     <use x="2574.751953" xlink:href="#DejaVuSans-3d"/>
     <use x="2658.541016" xlink:href="#DejaVuSans-20"/>
     <use x="2690.328125" xlink:href="#DejaVuSans-32"/>
     <use x="2753.951172" xlink:href="#DejaVuSans-2c"/>
     <use x="2785.738281" xlink:href="#DejaVuSans-20"/>
     <use x="2817.525391" xlink:href="#DejaVuSans-6d"/>
     <use x="2914.9375" xlink:href="#DejaVuSans-20"/>
     <use x="2946.724609" xlink:href="#DejaVuSans-3d"/>
     <use x="3030.513672" xlink:href="#DejaVuSans-20"/>
     <use x="3062.300781" xlink:href="#DejaVuSans-34"/>
    </g>
   </g>
   <g id="patch_2">
    <path clip-path="url(#p50478e9081)" d="M 227.670634 364.46585 
L 257.800734 364.46585 
L 257.800734 334.33575 
L 227.670634 334.33575 
z
" style="fill:#6fa4ff;stroke:#6fa4ff;stroke-linejoin:miter;stroke-width:1.5;"/>
   </g>
   <g id="patch_3">
    <path clip-path="url(#p50478e9081)" d="M 227.670634 410.81985 
L 257.800734 410.81985 
L 257.800734 380.68975 
L 227.670634 380.68975 
z
" style="fill:#6fa4ff;stroke:#6fa4ff;stroke-linejoin:miter;stroke-width:1.5;"/>
   </g>
   <g id="patch_4">
    <path clip-path="url(#p50478e9081)" d="M 227.670634 271.75785 
L 257.800734 271.75785 
L 257.800734 241.62775 
L 227.670634 241.62775 
z
" style="fill:#6fa4ff;stroke:#6fa4ff;stroke-linejoin:miter;stroke-width:1.5;"/>
   </g>
   <g id="patch_5">
    <path clip-path="url(#p50478e9081)" d="M 227.670634 318.11185 
L 257.800734 318.11185 
L 257.800734 287.98175 
L 227.670634 287.98175 
z
" style="fill:#6fa4ff;stroke:#6fa4ff;stroke-linejoin:miter;stroke-width:1.5;"/>
   </g>
   <g id="patch_6">
    <path clip-path="url(#p50478e9081)" d="M 227.670634 1569.66985 
L 257.800734 1569.66985 
L 257.800734 1539.53975 
L 227.670634 1539.53975 
z
" style="fill:#05bab6;stroke:#05bab6;stroke-linejoin:miter;stroke-width:1.5;"/>
   </g>
   <g id="patch_7">
    <path clip-path="url(#p50478e9081)" d="M 227.670634 1616.02385 
L 257.800734 1616.02385 
L 257.800734 1585.89375 
L 227.670634 1585.89375 
z
" style="fill:#05bab6;stroke:#05bab6;stroke-linejoin:miter;stroke-width:1.5;"/>
   </g>
   <g id="patch_8">
    <path clip-path="url(#p50478e9081)" d="M 297.201634 1569.66985 
L 327.331734 1569.66985 
L 327.331734 1539.53975 
L 297.201634 1539.53975 
z
" style="fill:#6fa4ff;stroke:#6fa4ff;stroke-linejoin:miter;stroke-width:1.5;"/>
   </g>
   <g id="patch_9">
    <path clip-path="url(#p50478e9081)" d="M 297.201634 1616.02385 
L 327.331734 1616.02385 
L 327.331734 1585.89375 
L 297.201634 1585.89375 
z
" style="fill:#6fa4ff;stroke:#6fa4ff;stroke-linejoin:miter;stroke-width:1.5;"/>
   </g>
   <g id="patch_10">
    <path clip-path="url(#p50478e9081)" d="M 286.350163 1523.31585 
L 338.183206 1523.31585 
L 338.183206 334.33575 
L 286.350163 334.33575 
z
" style="fill:#bb8bff;stroke:#bb8bff;stroke-linejoin:miter;stroke-width:1.5;"/>
   </g>
   <g id="patch_11">
    <path clip-path="url(#p50478e9081)" d="M 382.581067 1569.66985 
L 427.368302 1569.66985 
L 427.368302 1354.12375 
L 382.581067 1354.12375 
z
" style="fill:#bb8bff;stroke:#bb8bff;stroke-linejoin:miter;stroke-width:1.5;"/>
   </g>
   <g id="patch_12">
    <path clip-path="url(#p50478e9081)" d="M 471.766163 1523.31585 
L 523.599206 1523.31585 
L 523.599206 334.33575 
L 471.766163 334.33575 
z
" style="fill:#bb8bff;stroke:#bb8bff;stroke-linejoin:miter;stroke-width:1.5;"/>
   </g>
   <g id="patch_13">
    <path clip-path="url(#p50478e9081)" d="M 551.001373 1569.66985 
L 583.425996 1569.66985 
L 583.425996 334.33575 
L 551.001373 334.33575 
z
" style="fill:#bb8bff;stroke:#bb8bff;stroke-linejoin:miter;stroke-width:1.5;"/>
   </g>
   <g id="patch_14">
    <path clip-path="url(#p50478e9081)" d="M 610.828163 1523.31585 
L 662.661206 1523.31585 
L 662.661206 241.62775 
L 610.828163 241.62775 
z
" style="fill:#bb8bff;stroke:#bb8bff;stroke-linejoin:miter;stroke-width:1.5;"/>
   </g>
   <g id="patch_15">
    <path clip-path="url(#p50478e9081)" d="M 707.010395 1616.02385 
L 751.894973 1616.02385 
L 751.894973 1354.12375 
L 707.010395 1354.12375 
z
" style="fill:#bb8bff;stroke:#bb8bff;stroke-linejoin:miter;stroke-width:1.5;"/>
   </g>
   <g id="patch_16">
    <path clip-path="url(#p50478e9081)" d="M 796.244163 1523.31585 
L 848.077206 1523.31585 
L 848.077206 241.62775 
L 796.244163 241.62775 
z
" style="fill:#bb8bff;stroke:#bb8bff;stroke-linejoin:miter;stroke-width:1.5;"/>
   </g>
   <g id="patch_17">
    <path clip-path="url(#p50478e9081)" d="M 875.479373 1616.02385 
L 907.903996 1616.02385 
L 907.903996 241.62775 
L 875.479373 241.62775 
z
" style="fill:#bb8bff;stroke:#bb8bff;stroke-linejoin:miter;stroke-width:1.5;"/>
   </g>
   <g id="patch_18">
    <path clip-path="url(#p50478e9081)" d="M 934.675749 1616.02385 
L 987.76962 1616.02385 
L 987.76962 241.62775 
L 934.675749 241.62775 
z
" style="fill:#bb8bff;stroke:#bb8bff;stroke-linejoin:miter;stroke-width:1.5;"/>
   </g>
   <g id="text_2">
    <g clip-path="url(#p50478e9081)">
     <!-- H -->
     <g transform="translate(237.847481 352.987988)scale(0.13 -0.13)">
      <defs>
       <path d="M 628 4666 
L 1259 4666 
L 1259 2753 
L 3553 2753 
L 3553 4666 
L 4184 4666 
L 4184 0 
L 3553 0 
L 3553 2222 
L 1259 2222 
L 1259 0 
L 628 0 
L 628 4666 
z
" id="DejaVuSans-48" transform="scale(0.015625)"/>
      </defs>
      <use xlink:href="#DejaVuSans-48"/>
     </g>
    </g>
   </g>
   <g id="text_3">
    <g clip-path="url(#p50478e9081)">
     <!-- H -->
     <g transform="translate(237.847481 399.341987)scale(0.13 -0.13)">
      <use xlink:href="#DejaVuSans-48"/>
     </g>
    </g>
   </g>
   <g id="text_4">
    <g clip-path="url(#p50478e9081)">
     <!-- H -->
     <g transform="translate(237.847481 260.279988)scale(0.13 -0.13)">
      <use xlink:href="#DejaVuSans-48"/>
     </g>
    </g>
   </g>
   <g id="text_5">
    <g clip-path="url(#p50478e9081)">
     <!-- H -->
     <g transform="translate(237.847481 306.633988)scale(0.13 -0.13)">
      <use xlink:href="#DejaVuSans-48"/>
     </g>
    </g>
   </g>
   <g id="text_6">
    <g clip-path="url(#p50478e9081)">
     <!-- X -->
     <g transform="translate(238.283184 1558.191988)scale(0.13 -0.13)">
      <defs>
       <path d="M 403 4666 
L 1081 4666 
L 2241 2931 
L 3406 4666 
L 4084 4666 
L 2584 2425 
L 4184 0 
L 3506 0 
L 2194 1984 
L 872 0 
L 191 0 
L 1856 2491 
L 403 4666 
z
" id="DejaVuSans-58" transform="scale(0.015625)"/>
      </defs>
      <use xlink:href="#DejaVuSans-58"/>
     </g>
    </g>
   </g>
   <g id="text_7">
    <g clip-path="url(#p50478e9081)">
     <!-- X -->
     <g transform="translate(238.283184 1604.545988)scale(0.13 -0.13)">
      <use xlink:href="#DejaVuSans-58"/>
     </g>
    </g>
   </g>
   <g id="text_8">
    <g clip-path="url(#p50478e9081)">
     <!-- H -->
     <g transform="translate(307.378481 1558.191988)scale(0.13 -0.13)">
      <use xlink:href="#DejaVuSans-48"/>
     </g>
    </g>
   </g>
   <g id="text_9">
    <g clip-path="url(#p50478e9081)">
     <!-- H -->
     <g transform="translate(307.378481 1604.545988)scale(0.13 -0.13)">
      <use xlink:href="#DejaVuSans-48"/>
     </g>
    </g>
   </g>
   <g id="text_10">
    <g clip-path="url(#p50478e9081)">
     <!-- 0 -->
     <g transform="translate(289.594943 352.987988)scale(0.13 -0.13)">
      <use xlink:href="#DejaVuSans-30"/>
     </g>
    </g>
   </g>
   <g id="text_11">
    <g clip-path="url(#p50478e9081)">
     <!-- 1 -->
     <g transform="translate(289.594943 399.341987)scale(0.13 -0.13)">
      <use xlink:href="#DejaVuSans-31"/>
     </g>
    </g>
   </g>
   <g id="text_12">
    <g clip-path="url(#p50478e9081)">
     <!-- 2 -->
     <g transform="translate(289.594943 445.695988)scale(0.13 -0.13)">
      <use xlink:href="#DejaVuSans-32"/>
     </g>
    </g>
   </g>
   <g id="text_13">
    <g clip-path="url(#p50478e9081)">
     <!-- 3 -->
     <g transform="translate(289.594943 492.049988)scale(0.13 -0.13)">
      <defs>
       <path d="M 2597 2516 
Q 3050 2419 3304 2112 
Q 3559 1806 3559 1356 
Q 3559 666 3084 287 
Q 2609 -91 1734 -91 
Q 1441 -91 1130 -33 
Q 819 25 488 141 
L 488 750 
Q 750 597 1062 519 
Q 1375 441 1716 441 
Q 2309 441 2620 675 
Q 2931 909 2931 1356 
Q 2931 1769 2642 2001 
Q 2353 2234 1838 2234 
L 1294 2234 
L 1294 2753 
L 1863 2753 
Q 2328 2753 2575 2939 
Q 2822 3125 2822 3475 
Q 2822 3834 2567 4026 
Q 2313 4219 1838 4219 
Q 1578 4219 1281 4162 
Q 984 4106 628 3988 
L 628 4550 
Q 988 4650 1302 4700 
Q 1616 4750 1894 4750 
Q 2613 4750 3031 4423 
Q 3450 4097 3450 3541 
Q 3450 3153 3228 2886 
Q 3006 2619 2597 2516 
z
" id="DejaVuSans-33" transform="scale(0.015625)"/>
      </defs>
      <use xlink:href="#DejaVuSans-33"/>
     </g>
    </g>
   </g>
   <g id="text_14">
    <g clip-path="url(#p50478e9081)">
     <!-- 4 -->
     <g transform="translate(289.594943 538.403988)scale(0.13 -0.13)">
      <use xlink:href="#DejaVuSans-34"/>
     </g>
    </g>
   </g>
   <g id="text_15">
    <g clip-path="url(#p50478e9081)">
     <!-- 5 -->
     <g transform="translate(289.594943 584.757988)scale(0.13 -0.13)">
      <use xlink:href="#DejaVuSans-35"/>
     </g>
    </g>
   </g>
   <g id="text_16">
    <g clip-path="url(#p50478e9081)">
     <!-- 6 -->
     <g transform="translate(289.594943 631.111987)scale(0.13 -0.13)">
      <defs>
       <path d="M 2113 2584 
Q 1688 2584 1439 2293 
Q 1191 2003 1191 1497 
Q 1191 994 1439 701 
Q 1688 409 2113 409 
Q 2538 409 2786 701 
Q 3034 994 3034 1497 
Q 3034 2003 2786 2293 
Q 2538 2584 2113 2584 
z
M 3366 4563 
L 3366 3988 
Q 3128 4100 2886 4159 
Q 2644 4219 2406 4219 
Q 1781 4219 1451 3797 
Q 1122 3375 1075 2522 
Q 1259 2794 1537 2939 
Q 1816 3084 2150 3084 
Q 2853 3084 3261 2657 
Q 3669 2231 3669 1497 
Q 3669 778 3244 343 
Q 2819 -91 2113 -91 
Q 1303 -91 875 529 
Q 447 1150 447 2328 
Q 447 3434 972 4092 
Q 1497 4750 2381 4750 
Q 2619 4750 2861 4703 
Q 3103 4656 3366 4563 
z
" id="DejaVuSans-36" transform="scale(0.015625)"/>
      </defs>
      <use xlink:href="#DejaVuSans-36"/>
     </g>
    </g>
   </g>
   <g id="text_17">
    <g clip-path="url(#p50478e9081)">
     <!-- 7 -->
     <g transform="translate(289.594943 677.465987)scale(0.13 -0.13)">
      <use xlink:href="#DejaVuSans-37"/>
     </g>
    </g>
   </g>
   <g id="text_18">
    <g clip-path="url(#p50478e9081)">
     <!-- 8 -->
     <g transform="translate(289.594943 723.819988)scale(0.13 -0.13)">
      <defs>
       <path d="M 2034 2216 
Q 1584 2216 1326 1975 
Q 1069 1734 1069 1313 
Q 1069 891 1326 650 
Q 1584 409 2034 409 
Q 2484 409 2743 651 
Q 3003 894 3003 1313 
Q 3003 1734 2745 1975 
Q 2488 2216 2034 2216 
z
M 1403 2484 
Q 997 2584 770 2862 
Q 544 3141 544 3541 
Q 544 4100 942 4425 
Q 1341 4750 2034 4750 
Q 2731 4750 3128 4425 
Q 3525 4100 3525 3541 
Q 3525 3141 3298 2862 
Q 3072 2584 2669 2484 
Q 3125 2378 3379 2068 
Q 3634 1759 3634 1313 
Q 3634 634 3220 271 
Q 2806 -91 2034 -91 
Q 1263 -91 848 271 
Q 434 634 434 1313 
Q 434 1759 690 2068 
Q 947 2378 1403 2484 
z
M 1172 3481 
Q 1172 3119 1398 2916 
Q 1625 2713 2034 2713 
Q 2441 2713 2670 2916 
Q 2900 3119 2900 3481 
Q 2900 3844 2670 4047 
Q 2441 4250 2034 4250 
Q 1625 4250 1398 4047 
Q 1172 3844 1172 3481 
z
" id="DejaVuSans-38" transform="scale(0.015625)"/>
      </defs>
      <use xlink:href="#DejaVuSans-38"/>
     </g>
    </g>
   </g>
   <g id="text_19">
    <g clip-path="url(#p50478e9081)">
     <!-- 9 -->
     <g transform="translate(289.594943 770.173988)scale(0.13 -0.13)">
      <defs>
       <path d="M 703 97 
L 703 672 
Q 941 559 1184 500 
Q 1428 441 1663 441 
Q 2288 441 2617 861 
Q 2947 1281 2994 2138 
Q 2813 1869 2534 1725 
Q 2256 1581 1919 1581 
Q 1219 1581 811 2004 
Q 403 2428 403 3163 
Q 403 3881 828 4315 
Q 1253 4750 1959 4750 
Q 2769 4750 3195 4129 
Q 3622 3509 3622 2328 
Q 3622 1225 3098 567 
Q 2575 -91 1691 -91 
Q 1453 -91 1209 -44 
Q 966 3 703 97 
z
M 1959 2075 
Q 2384 2075 2632 2365 
Q 2881 2656 2881 3163 
Q 2881 3666 2632 3958 
Q 2384 4250 1959 4250 
Q 1534 4250 1286 3958 
Q 1038 3666 1038 3163 
Q 1038 2656 1286 2365 
Q 1534 2075 1959 2075 
z
" id="DejaVuSans-39" transform="scale(0.015625)"/>
      </defs>
      <use xlink:href="#DejaVuSans-39"/>
     </g>
    </g>
   </g>
   <g id="text_20">
    <g clip-path="url(#p50478e9081)">
     <!-- 10 -->
     <g transform="translate(289.594943 816.527988)scale(0.13 -0.13)">
      <use xlink:href="#DejaVuSans-31"/>
      <use x="63.623047" xlink:href="#DejaVuSans-30"/>
     </g>
    </g>
   </g>
   <g id="text_21">
    <g clip-path="url(#p50478e9081)">
     <!-- 11 -->
     <g transform="translate(289.594943 862.881988)scale(0.13 -0.13)">
      <use xlink:href="#DejaVuSans-31"/>
      <use x="63.623047" xlink:href="#DejaVuSans-31"/>
     </g>
    </g>
   </g>
   <g id="text_22">
    <g clip-path="url(#p50478e9081)">
     <!-- 12 -->
     <g transform="translate(289.594943 909.235988)scale(0.13 -0.13)">
      <use xlink:href="#DejaVuSans-31"/>
      <use x="63.623047" xlink:href="#DejaVuSans-32"/>
     </g>
    </g>
   </g>
   <g id="text_23">
    <g clip-path="url(#p50478e9081)">
     <!-- 13 -->
     <g transform="translate(289.594943 955.589988)scale(0.13 -0.13)">
      <use xlink:href="#DejaVuSans-31"/>
      <use x="63.623047" xlink:href="#DejaVuSans-33"/>
     </g>
    </g>
   </g>
   <g id="text_24">
    <g clip-path="url(#p50478e9081)">
     <!-- 14 -->
     <g transform="translate(289.594943 1001.943988)scale(0.13 -0.13)">
      <use xlink:href="#DejaVuSans-31"/>
      <use x="63.623047" xlink:href="#DejaVuSans-34"/>
     </g>
    </g>
   </g>
   <g id="text_25">
    <g clip-path="url(#p50478e9081)">
     <!-- 15 -->
     <g transform="translate(289.594943 1048.297988)scale(0.13 -0.13)">
      <use xlink:href="#DejaVuSans-31"/>
      <use x="63.623047" xlink:href="#DejaVuSans-35"/>
     </g>
    </g>
   </g>
   <g id="text_26">
    <g clip-path="url(#p50478e9081)">
     <!-- 16 -->
     <g transform="translate(289.594943 1094.651987)scale(0.13 -0.13)">
      <use xlink:href="#DejaVuSans-31"/>
      <use x="63.623047" xlink:href="#DejaVuSans-36"/>
     </g>
    </g>
   </g>
   <g id="text_27">
    <g clip-path="url(#p50478e9081)">
     <!-- 17 -->
     <g transform="translate(289.594943 1141.005988)scale(0.13 -0.13)">
      <use xlink:href="#DejaVuSans-31"/>
      <use x="63.623047" xlink:href="#DejaVuSans-37"/>
     </g>
    </g>
   </g>
   <g id="text_28">
    <g clip-path="url(#p50478e9081)">
     <!-- 18 -->
     <g transform="translate(289.594943 1187.359987)scale(0.13 -0.13)">
      <use xlink:href="#DejaVuSans-31"/>
      <use x="63.623047" xlink:href="#DejaVuSans-38"/>
     </g>
    </g>
   </g>
   <g id="text_29">
    <g clip-path="url(#p50478e9081)">
     <!-- 19 -->
     <g transform="translate(289.594943 1233.713988)scale(0.13 -0.13)">
      <use xlink:href="#DejaVuSans-31"/>
      <use x="63.623047" xlink:href="#DejaVuSans-39"/>
     </g>
    </g>
   </g>
   <g id="text_30">
    <g clip-path="url(#p50478e9081)">
     <!-- 20 -->
     <g transform="translate(289.594943 1280.067988)scale(0.13 -0.13)">
      <use xlink:href="#DejaVuSans-32"/>
      <use x="63.623047" xlink:href="#DejaVuSans-30"/>
     </g>
    </g>
   </g>
   <g id="text_31">
    <g clip-path="url(#p50478e9081)">
     <!-- 21 -->
     <g transform="translate(289.594943 1326.421988)scale(0.13 -0.13)">
      <use xlink:href="#DejaVuSans-32"/>
      <use x="63.623047" xlink:href="#DejaVuSans-31"/>
     </g>
    </g>
   </g>
   <g id="text_32">
    <g clip-path="url(#p50478e9081)">
     <!-- 22 -->
     <g transform="translate(289.594943 1372.775988)scale(0.13 -0.13)">
      <use xlink:href="#DejaVuSans-32"/>
      <use x="63.623047" xlink:href="#DejaVuSans-32"/>
     </g>
    </g>
   </g>
   <g id="text_33">
    <g clip-path="url(#p50478e9081)">
     <!-- 23 -->
     <g transform="translate(289.594943 1419.129987)scale(0.13 -0.13)">
      <use xlink:href="#DejaVuSans-32"/>
      <use x="63.623047" xlink:href="#DejaVuSans-33"/>
     </g>
    </g>
   </g>
   <g id="text_34">
    <g clip-path="url(#p50478e9081)">
     <!-- 24 -->
     <g transform="translate(289.594943 1465.483988)scale(0.13 -0.13)">
      <use xlink:href="#DejaVuSans-32"/>
      <use x="63.623047" xlink:href="#DejaVuSans-34"/>
     </g>
    </g>
   </g>
   <g id="text_35">
    <g clip-path="url(#p50478e9081)">
     <!-- 25 -->
     <g transform="translate(289.594943 1511.837988)scale(0.13 -0.13)">
      <use xlink:href="#DejaVuSans-32"/>
      <use x="63.623047" xlink:href="#DejaVuSans-35"/>
     </g>
    </g>
   </g>
   <g id="text_36">
    <g clip-path="url(#p50478e9081)">
     <!-- QRAM -->
     <g transform="translate(297.937734 932.412988)scale(0.13 -0.13)">
      <defs>
       <path d="M 2522 4238 
Q 1834 4238 1429 3725 
Q 1025 3213 1025 2328 
Q 1025 1447 1429 934 
Q 1834 422 2522 422 
Q 3209 422 3611 934 
Q 4013 1447 4013 2328 
Q 4013 3213 3611 3725 
Q 3209 4238 2522 4238 
z
M 3406 84 
L 4238 -825 
L 3475 -825 
L 2784 -78 
Q 2681 -84 2626 -87 
Q 2572 -91 2522 -91 
Q 1538 -91 948 567 
Q 359 1225 359 2328 
Q 359 3434 948 4092 
Q 1538 4750 2522 4750 
Q 3503 4750 4090 4092 
Q 4678 3434 4678 2328 
Q 4678 1516 4351 937 
Q 4025 359 3406 84 
z
" id="DejaVuSans-51" transform="scale(0.015625)"/>
       <path d="M 2841 2188 
Q 3044 2119 3236 1894 
Q 3428 1669 3622 1275 
L 4263 0 
L 3584 0 
L 2988 1197 
Q 2756 1666 2539 1819 
Q 2322 1972 1947 1972 
L 1259 1972 
L 1259 0 
L 628 0 
L 628 4666 
L 2053 4666 
Q 2853 4666 3247 4331 
Q 3641 3997 3641 3322 
Q 3641 2881 3436 2590 
Q 3231 2300 2841 2188 
z
M 1259 4147 
L 1259 2491 
L 2053 2491 
Q 2509 2491 2742 2702 
Q 2975 2913 2975 3322 
Q 2975 3731 2742 3939 
Q 2509 4147 2053 4147 
L 1259 4147 
z
" id="DejaVuSans-52" transform="scale(0.015625)"/>
       <path d="M 2188 4044 
L 1331 1722 
L 3047 1722 
L 2188 4044 
z
M 1831 4666 
L 2547 4666 
L 4325 0 
L 3669 0 
L 3244 1197 
L 1141 1197 
L 716 0 
L 50 0 
L 1831 4666 
z
" id="DejaVuSans-41" transform="scale(0.015625)"/>
       <path d="M 628 4666 
L 1569 4666 
L 2759 1491 
L 3956 4666 
L 4897 4666 
L 4897 0 
L 4281 0 
L 4281 4097 
L 3078 897 
L 2444 897 
L 1241 4097 
L 1241 0 
L 628 0 
L 628 4666 
z
" id="DejaVuSans-4d" transform="scale(0.015625)"/>
      </defs>
      <use xlink:href="#DejaVuSans-51"/>
      <use x="78.710938" xlink:href="#DejaVuSans-52"/>
      <use x="144.193359" xlink:href="#DejaVuSans-41"/>
      <use x="212.601562" xlink:href="#DejaVuSans-4d"/>
     </g>
    </g>
   </g>
   <g id="text_37">
    <g clip-path="url(#p50478e9081)">
     <!-- 0 -->
     <g transform="translate(385.825847 1372.775988)scale(0.13 -0.13)">
      <use xlink:href="#DejaVuSans-30"/>
     </g>
    </g>
   </g>
   <g id="text_38">
    <g clip-path="url(#p50478e9081)">
     <!-- 1 -->
     <g transform="translate(385.825847 1419.129987)scale(0.13 -0.13)">
      <use xlink:href="#DejaVuSans-31"/>
     </g>
    </g>
   </g>
   <g id="text_39">
    <g clip-path="url(#p50478e9081)">
     <!-- 2 -->
     <g transform="translate(385.825847 1465.483988)scale(0.13 -0.13)">
      <use xlink:href="#DejaVuSans-32"/>
     </g>
    </g>
   </g>
   <g id="text_40">
    <g clip-path="url(#p50478e9081)">
     <!-- 3 -->
     <g transform="translate(385.825847 1511.837988)scale(0.13 -0.13)">
      <use xlink:href="#DejaVuSans-33"/>
     </g>
    </g>
   </g>
   <g id="text_41">
    <g clip-path="url(#p50478e9081)">
     <!-- 4 -->
     <g transform="translate(385.825847 1558.191988)scale(0.13 -0.13)">
      <use xlink:href="#DejaVuSans-34"/>
     </g>
    </g>
   </g>
   <g id="text_42">
    <g clip-path="url(#p50478e9081)">
     <!-- VC_1 -->
     <g transform="translate(393.702765 1465.188441)scale(0.13 -0.13)">
      <defs>
       <path d="M 1831 0 
L 50 4666 
L 709 4666 
L 2188 738 
L 3669 4666 
L 4325 4666 
L 2547 0 
L 1831 0 
z
" id="DejaVuSans-56" transform="scale(0.015625)"/>
       <path d="M 4122 4306 
L 4122 3641 
Q 3803 3938 3442 4084 
Q 3081 4231 2675 4231 
Q 1875 4231 1450 3742 
Q 1025 3253 1025 2328 
Q 1025 1406 1450 917 
Q 1875 428 2675 428 
Q 3081 428 3442 575 
Q 3803 722 4122 1019 
L 4122 359 
Q 3791 134 3420 21 
Q 3050 -91 2638 -91 
Q 1578 -91 968 557 
Q 359 1206 359 2328 
Q 359 3453 968 4101 
Q 1578 4750 2638 4750 
Q 3056 4750 3426 4639 
Q 3797 4528 4122 4306 
z
" id="DejaVuSans-43" transform="scale(0.015625)"/>
      </defs>
      <use xlink:href="#DejaVuSans-56"/>
      <use x="68.408203" xlink:href="#DejaVuSans-43"/>
      <use x="138.232422" xlink:href="#DejaVuSans-5f"/>
      <use x="188.232422" xlink:href="#DejaVuSans-31"/>
     </g>
    </g>
   </g>
   <g id="text_43">
    <g clip-path="url(#p50478e9081)">
     <!-- 0 -->
     <g transform="translate(475.010943 352.987988)scale(0.13 -0.13)">
      <use xlink:href="#DejaVuSans-30"/>
     </g>
    </g>
   </g>
   <g id="text_44">
    <g clip-path="url(#p50478e9081)">
     <!-- 1 -->
     <g transform="translate(475.010943 399.341987)scale(0.13 -0.13)">
      <use xlink:href="#DejaVuSans-31"/>
     </g>
    </g>
   </g>
   <g id="text_45">
    <g clip-path="url(#p50478e9081)">
     <!-- 2 -->
     <g transform="translate(475.010943 445.695988)scale(0.13 -0.13)">
      <use xlink:href="#DejaVuSans-32"/>
     </g>
    </g>
   </g>
   <g id="text_46">
    <g clip-path="url(#p50478e9081)">
     <!-- 3 -->
     <g transform="translate(475.010943 492.049988)scale(0.13 -0.13)">
      <use xlink:href="#DejaVuSans-33"/>
     </g>
    </g>
   </g>
   <g id="text_47">
    <g clip-path="url(#p50478e9081)">
     <!-- 4 -->
     <g transform="translate(475.010943 538.403988)scale(0.13 -0.13)">
      <use xlink:href="#DejaVuSans-34"/>
     </g>
    </g>
   </g>
   <g id="text_48">
    <g clip-path="url(#p50478e9081)">
     <!-- 5 -->
     <g transform="translate(475.010943 584.757988)scale(0.13 -0.13)">
      <use xlink:href="#DejaVuSans-35"/>
     </g>
    </g>
   </g>
   <g id="text_49">
    <g clip-path="url(#p50478e9081)">
     <!-- 6 -->
     <g transform="translate(475.010943 631.111987)scale(0.13 -0.13)">
      <use xlink:href="#DejaVuSans-36"/>
     </g>
    </g>
   </g>
   <g id="text_50">
    <g clip-path="url(#p50478e9081)">
     <!-- 7 -->
     <g transform="translate(475.010943 677.465987)scale(0.13 -0.13)">
      <use xlink:href="#DejaVuSans-37"/>
     </g>
    </g>
   </g>
   <g id="text_51">
    <g clip-path="url(#p50478e9081)">
     <!-- 8 -->
     <g transform="translate(475.010943 723.819988)scale(0.13 -0.13)">
      <use xlink:href="#DejaVuSans-38"/>
     </g>
    </g>
   </g>
   <g id="text_52">
    <g clip-path="url(#p50478e9081)">
     <!-- 9 -->
     <g transform="translate(475.010943 770.173988)scale(0.13 -0.13)">
      <use xlink:href="#DejaVuSans-39"/>
     </g>
    </g>
   </g>
   <g id="text_53">
    <g clip-path="url(#p50478e9081)">
     <!-- 10 -->
     <g transform="translate(475.010943 816.527988)scale(0.13 -0.13)">
      <use xlink:href="#DejaVuSans-31"/>
      <use x="63.623047" xlink:href="#DejaVuSans-30"/>
     </g>
    </g>
   </g>
   <g id="text_54">
    <g clip-path="url(#p50478e9081)">
     <!-- 11 -->
     <g transform="translate(475.010943 862.881988)scale(0.13 -0.13)">
      <use xlink:href="#DejaVuSans-31"/>
      <use x="63.623047" xlink:href="#DejaVuSans-31"/>
     </g>
    </g>
   </g>
   <g id="text_55">
    <g clip-path="url(#p50478e9081)">
     <!-- 12 -->
     <g transform="translate(475.010943 909.235988)scale(0.13 -0.13)">
      <use xlink:href="#DejaVuSans-31"/>
      <use x="63.623047" xlink:href="#DejaVuSans-32"/>
     </g>
    </g>
   </g>
   <g id="text_56">
    <g clip-path="url(#p50478e9081)">
     <!-- 13 -->
     <g transform="translate(475.010943 955.589988)scale(0.13 -0.13)">
      <use xlink:href="#DejaVuSans-31"/>
      <use x="63.623047" xlink:href="#DejaVuSans-33"/>
     </g>
    </g>
   </g>
   <g id="text_57">
    <g clip-path="url(#p50478e9081)">
     <!-- 14 -->
     <g transform="translate(475.010943 1001.943988)scale(0.13 -0.13)">
      <use xlink:href="#DejaVuSans-31"/>
      <use x="63.623047" xlink:href="#DejaVuSans-34"/>
     </g>
    </g>
   </g>
   <g id="text_58">
    <g clip-path="url(#p50478e9081)">
     <!-- 15 -->
     <g transform="translate(475.010943 1048.297988)scale(0.13 -0.13)">
      <use xlink:href="#DejaVuSans-31"/>
      <use x="63.623047" xlink:href="#DejaVuSans-35"/>
     </g>
    </g>
   </g>
   <g id="text_59">
    <g clip-path="url(#p50478e9081)">
     <!-- 16 -->
     <g transform="translate(475.010943 1094.651987)scale(0.13 -0.13)">
      <use xlink:href="#DejaVuSans-31"/>
      <use x="63.623047" xlink:href="#DejaVuSans-36"/>
     </g>
    </g>
   </g>
   <g id="text_60">
    <g clip-path="url(#p50478e9081)">
     <!-- 17 -->
     <g transform="translate(475.010943 1141.005988)scale(0.13 -0.13)">
      <use xlink:href="#DejaVuSans-31"/>
      <use x="63.623047" xlink:href="#DejaVuSans-37"/>
     </g>
    </g>
   </g>
   <g id="text_61">
    <g clip-path="url(#p50478e9081)">
     <!-- 18 -->
     <g transform="translate(475.010943 1187.359987)scale(0.13 -0.13)">
      <use xlink:href="#DejaVuSans-31"/>
      <use x="63.623047" xlink:href="#DejaVuSans-38"/>
     </g>
    </g>
   </g>
   <g id="text_62">
    <g clip-path="url(#p50478e9081)">
     <!-- 19 -->
     <g transform="translate(475.010943 1233.713988)scale(0.13 -0.13)">
      <use xlink:href="#DejaVuSans-31"/>
      <use x="63.623047" xlink:href="#DejaVuSans-39"/>
     </g>
    </g>
   </g>
   <g id="text_63">
    <g clip-path="url(#p50478e9081)">
     <!-- 20 -->
     <g transform="translate(475.010943 1280.067988)scale(0.13 -0.13)">
      <use xlink:href="#DejaVuSans-32"/>
      <use x="63.623047" xlink:href="#DejaVuSans-30"/>
     </g>
    </g>
   </g>
   <g id="text_64">
    <g clip-path="url(#p50478e9081)">
     <!-- 21 -->
     <g transform="translate(475.010943 1326.421988)scale(0.13 -0.13)">
      <use xlink:href="#DejaVuSans-32"/>
      <use x="63.623047" xlink:href="#DejaVuSans-31"/>
     </g>
    </g>
   </g>
   <g id="text_65">
    <g clip-path="url(#p50478e9081)">
     <!-- 22 -->
     <g transform="translate(475.010943 1372.775988)scale(0.13 -0.13)">
      <use xlink:href="#DejaVuSans-32"/>
      <use x="63.623047" xlink:href="#DejaVuSans-32"/>
     </g>
    </g>
   </g>
   <g id="text_66">
    <g clip-path="url(#p50478e9081)">
     <!-- 23 -->
     <g transform="translate(475.010943 1419.129987)scale(0.13 -0.13)">
      <use xlink:href="#DejaVuSans-32"/>
      <use x="63.623047" xlink:href="#DejaVuSans-33"/>
     </g>
    </g>
   </g>
   <g id="text_67">
    <g clip-path="url(#p50478e9081)">
     <!-- 24 -->
     <g transform="translate(475.010943 1465.483988)scale(0.13 -0.13)">
      <use xlink:href="#DejaVuSans-32"/>
      <use x="63.623047" xlink:href="#DejaVuSans-34"/>
     </g>
    </g>
   </g>
   <g id="text_68">
    <g clip-path="url(#p50478e9081)">
     <!-- 25 -->
     <g transform="translate(475.010943 1511.837988)scale(0.13 -0.13)">
      <use xlink:href="#DejaVuSans-32"/>
      <use x="63.623047" xlink:href="#DejaVuSans-35"/>
     </g>
    </g>
   </g>
   <g id="text_69">
    <g clip-path="url(#p50478e9081)">
     <!-- QRAM -->
     <g transform="translate(483.353734 932.412988)scale(0.13 -0.13)">
      <use xlink:href="#DejaVuSans-51"/>
      <use x="78.710938" xlink:href="#DejaVuSans-52"/>
      <use x="144.193359" xlink:href="#DejaVuSans-41"/>
      <use x="212.601562" xlink:href="#DejaVuSans-4d"/>
     </g>
    </g>
   </g>
   <g id="text_70">
    <g clip-path="url(#p50478e9081)">
     <!-- 0 -->
     <g transform="translate(554.246153 352.987988)scale(0.13 -0.13)">
      <use xlink:href="#DejaVuSans-30"/>
     </g>
    </g>
   </g>
   <g id="text_71">
    <g clip-path="url(#p50478e9081)">
     <!-- 1 -->
     <g transform="translate(554.246153 399.341987)scale(0.13 -0.13)">
      <use xlink:href="#DejaVuSans-31"/>
     </g>
    </g>
   </g>
   <g id="text_72">
    <g clip-path="url(#p50478e9081)">
     <!-- 2 -->
     <g transform="translate(554.246153 1558.191988)scale(0.13 -0.13)">
      <use xlink:href="#DejaVuSans-32"/>
     </g>
    </g>
   </g>
   <g id="text_73">
    <g clip-path="url(#p50478e9081)">
     <!-- DIF -->
     <g transform="translate(561.651609 955.589988)scale(0.13 -0.13)">
      <defs>
       <path d="M 1259 4147 
L 1259 519 
L 2022 519 
Q 2988 519 3436 956 
Q 3884 1394 3884 2338 
Q 3884 3275 3436 3711 
Q 2988 4147 2022 4147 
L 1259 4147 
z
M 628 4666 
L 1925 4666 
Q 3281 4666 3915 4102 
Q 4550 3538 4550 2338 
Q 4550 1131 3912 565 
Q 3275 0 1925 0 
L 628 0 
L 628 4666 
z
" id="DejaVuSans-44" transform="scale(0.015625)"/>
       <path d="M 628 4666 
L 1259 4666 
L 1259 0 
L 628 0 
L 628 4666 
z
" id="DejaVuSans-49" transform="scale(0.015625)"/>
       <path d="M 628 4666 
L 3309 4666 
L 3309 4134 
L 1259 4134 
L 1259 2759 
L 3109 2759 
L 3109 2228 
L 1259 2228 
L 1259 0 
L 628 0 
L 628 4666 
z
" id="DejaVuSans-46" transform="scale(0.015625)"/>
      </defs>
      <use xlink:href="#DejaVuSans-44"/>
      <use x="77.001953" xlink:href="#DejaVuSans-49"/>
      <use x="106.494141" xlink:href="#DejaVuSans-46"/>
     </g>
    </g>
   </g>
   <g id="text_74">
    <g clip-path="url(#p50478e9081)">
     <!-- 0 -->
     <g transform="translate(614.072943 260.279988)scale(0.13 -0.13)">
      <use xlink:href="#DejaVuSans-30"/>
     </g>
    </g>
   </g>
   <g id="text_75">
    <g clip-path="url(#p50478e9081)">
     <!-- 1 -->
     <g transform="translate(614.072943 306.633988)scale(0.13 -0.13)">
      <use xlink:href="#DejaVuSans-31"/>
     </g>
    </g>
   </g>
   <g id="text_76">
    <g clip-path="url(#p50478e9081)">
     <!-- 2 -->
     <g transform="translate(614.072943 445.695988)scale(0.13 -0.13)">
      <use xlink:href="#DejaVuSans-32"/>
     </g>
    </g>
   </g>
   <g id="text_77">
    <g clip-path="url(#p50478e9081)">
     <!-- 3 -->
     <g transform="translate(614.072943 492.049988)scale(0.13 -0.13)">
      <use xlink:href="#DejaVuSans-33"/>
     </g>
    </g>
   </g>
   <g id="text_78">
    <g clip-path="url(#p50478e9081)">
     <!-- 4 -->
     <g transform="translate(614.072943 538.403988)scale(0.13 -0.13)">
      <use xlink:href="#DejaVuSans-34"/>
     </g>
    </g>
   </g>
   <g id="text_79">
    <g clip-path="url(#p50478e9081)">
     <!-- 5 -->
     <g transform="translate(614.072943 584.757988)scale(0.13 -0.13)">
      <use xlink:href="#DejaVuSans-35"/>
     </g>
    </g>
   </g>
   <g id="text_80">
    <g clip-path="url(#p50478e9081)">
     <!-- 6 -->
     <g transform="translate(614.072943 631.111987)scale(0.13 -0.13)">
      <use xlink:href="#DejaVuSans-36"/>
     </g>
    </g>
   </g>
   <g id="text_81">
    <g clip-path="url(#p50478e9081)">
     <!-- 7 -->
     <g transform="translate(614.072943 677.465987)scale(0.13 -0.13)">
      <use xlink:href="#DejaVuSans-37"/>
     </g>
    </g>
   </g>
   <g id="text_82">
    <g clip-path="url(#p50478e9081)">
     <!-- 8 -->
     <g transform="translate(614.072943 723.819988)scale(0.13 -0.13)">
      <use xlink:href="#DejaVuSans-38"/>
     </g>
    </g>
   </g>
   <g id="text_83">
    <g clip-path="url(#p50478e9081)">
     <!-- 9 -->
     <g transform="translate(614.072943 770.173988)scale(0.13 -0.13)">
      <use xlink:href="#DejaVuSans-39"/>
     </g>
    </g>
   </g>
   <g id="text_84">
    <g clip-path="url(#p50478e9081)">
     <!-- 10 -->
     <g transform="translate(614.072943 816.527988)scale(0.13 -0.13)">
      <use xlink:href="#DejaVuSans-31"/>
      <use x="63.623047" xlink:href="#DejaVuSans-30"/>
     </g>
    </g>
   </g>
   <g id="text_85">
    <g clip-path="url(#p50478e9081)">
     <!-- 11 -->
     <g transform="translate(614.072943 862.881988)scale(0.13 -0.13)">
      <use xlink:href="#DejaVuSans-31"/>
      <use x="63.623047" xlink:href="#DejaVuSans-31"/>
     </g>
    </g>
   </g>
   <g id="text_86">
    <g clip-path="url(#p50478e9081)">
     <!-- 12 -->
     <g transform="translate(614.072943 909.235988)scale(0.13 -0.13)">
      <use xlink:href="#DejaVuSans-31"/>
      <use x="63.623047" xlink:href="#DejaVuSans-32"/>
     </g>
    </g>
   </g>
   <g id="text_87">
    <g clip-path="url(#p50478e9081)">
     <!-- 13 -->
     <g transform="translate(614.072943 955.589988)scale(0.13 -0.13)">
      <use xlink:href="#DejaVuSans-31"/>
      <use x="63.623047" xlink:href="#DejaVuSans-33"/>
     </g>
    </g>
   </g>
   <g id="text_88">
    <g clip-path="url(#p50478e9081)">
     <!-- 14 -->
     <g transform="translate(614.072943 1001.943988)scale(0.13 -0.13)">
      <use xlink:href="#DejaVuSans-31"/>
      <use x="63.623047" xlink:href="#DejaVuSans-34"/>
     </g>
    </g>
   </g>
   <g id="text_89">
    <g clip-path="url(#p50478e9081)">
     <!-- 15 -->
     <g transform="translate(614.072943 1048.297988)scale(0.13 -0.13)">
      <use xlink:href="#DejaVuSans-31"/>
      <use x="63.623047" xlink:href="#DejaVuSans-35"/>
     </g>
    </g>
   </g>
   <g id="text_90">
    <g clip-path="url(#p50478e9081)">
     <!-- 16 -->
     <g transform="translate(614.072943 1094.651987)scale(0.13 -0.13)">
      <use xlink:href="#DejaVuSans-31"/>
      <use x="63.623047" xlink:href="#DejaVuSans-36"/>
     </g>
    </g>
   </g>
   <g id="text_91">
    <g clip-path="url(#p50478e9081)">
     <!-- 17 -->
     <g transform="translate(614.072943 1141.005988)scale(0.13 -0.13)">
      <use xlink:href="#DejaVuSans-31"/>
      <use x="63.623047" xlink:href="#DejaVuSans-37"/>
     </g>
    </g>
   </g>
   <g id="text_92">
    <g clip-path="url(#p50478e9081)">
     <!-- 18 -->
     <g transform="translate(614.072943 1187.359987)scale(0.13 -0.13)">
      <use xlink:href="#DejaVuSans-31"/>
      <use x="63.623047" xlink:href="#DejaVuSans-38"/>
     </g>
    </g>
   </g>
   <g id="text_93">
    <g clip-path="url(#p50478e9081)">
     <!-- 19 -->
     <g transform="translate(614.072943 1233.713988)scale(0.13 -0.13)">
      <use xlink:href="#DejaVuSans-31"/>
      <use x="63.623047" xlink:href="#DejaVuSans-39"/>
     </g>
    </g>
   </g>
   <g id="text_94">
    <g clip-path="url(#p50478e9081)">
     <!-- 20 -->
     <g transform="translate(614.072943 1280.067988)scale(0.13 -0.13)">
      <use xlink:href="#DejaVuSans-32"/>
      <use x="63.623047" xlink:href="#DejaVuSans-30"/>
     </g>
    </g>
   </g>
   <g id="text_95">
    <g clip-path="url(#p50478e9081)">
     <!-- 21 -->
     <g transform="translate(614.072943 1326.421988)scale(0.13 -0.13)">
      <use xlink:href="#DejaVuSans-32"/>
      <use x="63.623047" xlink:href="#DejaVuSans-31"/>
     </g>
    </g>
   </g>
   <g id="text_96">
    <g clip-path="url(#p50478e9081)">
     <!-- 22 -->
     <g transform="translate(614.072943 1372.775988)scale(0.13 -0.13)">
      <use xlink:href="#DejaVuSans-32"/>
      <use x="63.623047" xlink:href="#DejaVuSans-32"/>
     </g>
    </g>
   </g>
   <g id="text_97">
    <g clip-path="url(#p50478e9081)">
     <!-- 23 -->
     <g transform="translate(614.072943 1419.129987)scale(0.13 -0.13)">
      <use xlink:href="#DejaVuSans-32"/>
      <use x="63.623047" xlink:href="#DejaVuSans-33"/>
     </g>
    </g>
   </g>
   <g id="text_98">
    <g clip-path="url(#p50478e9081)">
     <!-- 24 -->
     <g transform="translate(614.072943 1465.483988)scale(0.13 -0.13)">
      <use xlink:href="#DejaVuSans-32"/>
      <use x="63.623047" xlink:href="#DejaVuSans-34"/>
     </g>
    </g>
   </g>
   <g id="text_99">
    <g clip-path="url(#p50478e9081)">
     <!-- 25 -->
     <g transform="translate(614.072943 1511.837988)scale(0.13 -0.13)">
      <use xlink:href="#DejaVuSans-32"/>
      <use x="63.623047" xlink:href="#DejaVuSans-35"/>
     </g>
    </g>
   </g>
   <g id="text_100">
    <g clip-path="url(#p50478e9081)">
     <!-- QRAM -->
     <g transform="translate(622.415734 886.058988)scale(0.13 -0.13)">
      <use xlink:href="#DejaVuSans-51"/>
      <use x="78.710938" xlink:href="#DejaVuSans-52"/>
      <use x="144.193359" xlink:href="#DejaVuSans-41"/>
      <use x="212.601562" xlink:href="#DejaVuSans-4d"/>
     </g>
    </g>
   </g>
   <g id="text_101">
    <g clip-path="url(#p50478e9081)">
     <!-- 0 -->
     <g transform="translate(710.255175 1372.775988)scale(0.13 -0.13)">
      <use xlink:href="#DejaVuSans-30"/>
     </g>
    </g>
   </g>
   <g id="text_102">
    <g clip-path="url(#p50478e9081)">
     <!-- 1 -->
     <g transform="translate(710.255175 1419.129987)scale(0.13 -0.13)">
      <use xlink:href="#DejaVuSans-31"/>
     </g>
    </g>
   </g>
   <g id="text_103">
    <g clip-path="url(#p50478e9081)">
     <!-- 2 -->
     <g transform="translate(710.255175 1465.483988)scale(0.13 -0.13)">
      <use xlink:href="#DejaVuSans-32"/>
     </g>
    </g>
   </g>
   <g id="text_104">
    <g clip-path="url(#p50478e9081)">
     <!-- 3 -->
     <g transform="translate(710.255175 1511.837988)scale(0.13 -0.13)">
      <use xlink:href="#DejaVuSans-33"/>
     </g>
    </g>
   </g>
   <g id="text_105">
    <g clip-path="url(#p50478e9081)">
     <!-- 4 -->
     <g transform="translate(710.255175 1604.545988)scale(0.13 -0.13)">
      <use xlink:href="#DejaVuSans-34"/>
     </g>
    </g>
   </g>
   <g id="text_106">
    <g clip-path="url(#p50478e9081)">
     <!-- VC_2 -->
     <g transform="translate(718.180765 1488.365441)scale(0.13 -0.13)">
      <use xlink:href="#DejaVuSans-56"/>
      <use x="68.408203" xlink:href="#DejaVuSans-43"/>
      <use x="138.232422" xlink:href="#DejaVuSans-5f"/>
      <use x="188.232422" xlink:href="#DejaVuSans-32"/>
     </g>
    </g>
   </g>
   <g id="text_107">
    <g clip-path="url(#p50478e9081)">
     <!-- 0 -->
     <g transform="translate(799.488943 260.279988)scale(0.13 -0.13)">
      <use xlink:href="#DejaVuSans-30"/>
     </g>
    </g>
   </g>
   <g id="text_108">
    <g clip-path="url(#p50478e9081)">
     <!-- 1 -->
     <g transform="translate(799.488943 306.633988)scale(0.13 -0.13)">
      <use xlink:href="#DejaVuSans-31"/>
     </g>
    </g>
   </g>
   <g id="text_109">
    <g clip-path="url(#p50478e9081)">
     <!-- 2 -->
     <g transform="translate(799.488943 445.695988)scale(0.13 -0.13)">
      <use xlink:href="#DejaVuSans-32"/>
     </g>
    </g>
   </g>
   <g id="text_110">
    <g clip-path="url(#p50478e9081)">
     <!-- 3 -->
     <g transform="translate(799.488943 492.049988)scale(0.13 -0.13)">
      <use xlink:href="#DejaVuSans-33"/>
     </g>
    </g>
   </g>
   <g id="text_111">
    <g clip-path="url(#p50478e9081)">
     <!-- 4 -->
     <g transform="translate(799.488943 538.403988)scale(0.13 -0.13)">
      <use xlink:href="#DejaVuSans-34"/>
     </g>
    </g>
   </g>
   <g id="text_112">
    <g clip-path="url(#p50478e9081)">
     <!-- 5 -->
     <g transform="translate(799.488943 584.757988)scale(0.13 -0.13)">
      <use xlink:href="#DejaVuSans-35"/>
     </g>
    </g>
   </g>
   <g id="text_113">
    <g clip-path="url(#p50478e9081)">
     <!-- 6 -->
     <g transform="translate(799.488943 631.111987)scale(0.13 -0.13)">
      <use xlink:href="#DejaVuSans-36"/>
     </g>
    </g>
   </g>
   <g id="text_114">
    <g clip-path="url(#p50478e9081)">
     <!-- 7 -->
     <g transform="translate(799.488943 677.465987)scale(0.13 -0.13)">
      <use xlink:href="#DejaVuSans-37"/>
     </g>
    </g>
   </g>
   <g id="text_115">
    <g clip-path="url(#p50478e9081)">
     <!-- 8 -->
     <g transform="translate(799.488943 723.819988)scale(0.13 -0.13)">
      <use xlink:href="#DejaVuSans-38"/>
     </g>
    </g>
   </g>
   <g id="text_116">
    <g clip-path="url(#p50478e9081)">
     <!-- 9 -->
     <g transform="translate(799.488943 770.173988)scale(0.13 -0.13)">
      <use xlink:href="#DejaVuSans-39"/>
     </g>
    </g>
   </g>
   <g id="text_117">
    <g clip-path="url(#p50478e9081)">
     <!-- 10 -->
     <g transform="translate(799.488943 816.527988)scale(0.13 -0.13)">
      <use xlink:href="#DejaVuSans-31"/>
      <use x="63.623047" xlink:href="#DejaVuSans-30"/>
     </g>
    </g>
   </g>
   <g id="text_118">
    <g clip-path="url(#p50478e9081)">
     <!-- 11 -->
     <g transform="translate(799.488943 862.881988)scale(0.13 -0.13)">
      <use xlink:href="#DejaVuSans-31"/>
      <use x="63.623047" xlink:href="#DejaVuSans-31"/>
     </g>
    </g>
   </g>
   <g id="text_119">
    <g clip-path="url(#p50478e9081)">
     <!-- 12 -->
     <g transform="translate(799.488943 909.235988)scale(0.13 -0.13)">
      <use xlink:href="#DejaVuSans-31"/>
      <use x="63.623047" xlink:href="#DejaVuSans-32"/>
     </g>
    </g>
   </g>
   <g id="text_120">
    <g clip-path="url(#p50478e9081)">
     <!-- 13 -->
     <g transform="translate(799.488943 955.589988)scale(0.13 -0.13)">
      <use xlink:href="#DejaVuSans-31"/>
      <use x="63.623047" xlink:href="#DejaVuSans-33"/>
     </g>
    </g>
   </g>
   <g id="text_121">
    <g clip-path="url(#p50478e9081)">
     <!-- 14 -->
     <g transform="translate(799.488943 1001.943988)scale(0.13 -0.13)">
      <use xlink:href="#DejaVuSans-31"/>
      <use x="63.623047" xlink:href="#DejaVuSans-34"/>
     </g>
    </g>
   </g>
   <g id="text_122">
    <g clip-path="url(#p50478e9081)">
     <!-- 15 -->
     <g transform="translate(799.488943 1048.297988)scale(0.13 -0.13)">
      <use xlink:href="#DejaVuSans-31"/>
      <use x="63.623047" xlink:href="#DejaVuSans-35"/>
     </g>
    </g>
   </g>
   <g id="text_123">
    <g clip-path="url(#p50478e9081)">
     <!-- 16 -->
     <g transform="translate(799.488943 1094.651987)scale(0.13 -0.13)">
      <use xlink:href="#DejaVuSans-31"/>
      <use x="63.623047" xlink:href="#DejaVuSans-36"/>
     </g>
    </g>
   </g>
   <g id="text_124">
    <g clip-path="url(#p50478e9081)">
     <!-- 17 -->
     <g transform="translate(799.488943 1141.005988)scale(0.13 -0.13)">
      <use xlink:href="#DejaVuSans-31"/>
      <use x="63.623047" xlink:href="#DejaVuSans-37"/>
     </g>
    </g>
   </g>
   <g id="text_125">
    <g clip-path="url(#p50478e9081)">
     <!-- 18 -->
     <g transform="translate(799.488943 1187.359987)scale(0.13 -0.13)">
      <use xlink:href="#DejaVuSans-31"/>
      <use x="63.623047" xlink:href="#DejaVuSans-38"/>
     </g>
    </g>
   </g>
   <g id="text_126">
    <g clip-path="url(#p50478e9081)">
     <!-- 19 -->
     <g transform="translate(799.488943 1233.713988)scale(0.13 -0.13)">
      <use xlink:href="#DejaVuSans-31"/>
      <use x="63.623047" xlink:href="#DejaVuSans-39"/>
     </g>
    </g>
   </g>
   <g id="text_127">
    <g clip-path="url(#p50478e9081)">
     <!-- 20 -->
     <g transform="translate(799.488943 1280.067988)scale(0.13 -0.13)">
      <use xlink:href="#DejaVuSans-32"/>
      <use x="63.623047" xlink:href="#DejaVuSans-30"/>
     </g>
    </g>
   </g>
   <g id="text_128">
    <g clip-path="url(#p50478e9081)">
     <!-- 21 -->
     <g transform="translate(799.488943 1326.421988)scale(0.13 -0.13)">
      <use xlink:href="#DejaVuSans-32"/>
      <use x="63.623047" xlink:href="#DejaVuSans-31"/>
     </g>
    </g>
   </g>
   <g id="text_129">
    <g clip-path="url(#p50478e9081)">
     <!-- 22 -->
     <g transform="translate(799.488943 1372.775988)scale(0.13 -0.13)">
      <use xlink:href="#DejaVuSans-32"/>
      <use x="63.623047" xlink:href="#DejaVuSans-32"/>
     </g>
    </g>
   </g>
   <g id="text_130">
    <g clip-path="url(#p50478e9081)">
     <!-- 23 -->
     <g transform="translate(799.488943 1419.129987)scale(0.13 -0.13)">
      <use xlink:href="#DejaVuSans-32"/>
      <use x="63.623047" xlink:href="#DejaVuSans-33"/>
     </g>
    </g>
   </g>
   <g id="text_131">
    <g clip-path="url(#p50478e9081)">
     <!-- 24 -->
     <g transform="translate(799.488943 1465.483988)scale(0.13 -0.13)">
      <use xlink:href="#DejaVuSans-32"/>
      <use x="63.623047" xlink:href="#DejaVuSans-34"/>
     </g>
    </g>
   </g>
   <g id="text_132">
    <g clip-path="url(#p50478e9081)">
     <!-- 25 -->
     <g transform="translate(799.488943 1511.837988)scale(0.13 -0.13)">
      <use xlink:href="#DejaVuSans-32"/>
      <use x="63.623047" xlink:href="#DejaVuSans-35"/>
     </g>
    </g>
   </g>
   <g id="text_133">
    <g clip-path="url(#p50478e9081)">
     <!-- QRAM -->
     <g transform="translate(807.831734 886.058988)scale(0.13 -0.13)">
      <use xlink:href="#DejaVuSans-51"/>
      <use x="78.710938" xlink:href="#DejaVuSans-52"/>
      <use x="144.193359" xlink:href="#DejaVuSans-41"/>
      <use x="212.601562" xlink:href="#DejaVuSans-4d"/>
     </g>
    </g>
   </g>
   <g id="text_134">
    <g clip-path="url(#p50478e9081)">
     <!-- 0 -->
     <g transform="translate(878.724153 260.279988)scale(0.13 -0.13)">
      <use xlink:href="#DejaVuSans-30"/>
     </g>
    </g>
   </g>
   <g id="text_135">
    <g clip-path="url(#p50478e9081)">
     <!-- 1 -->
     <g transform="translate(878.724153 306.633988)scale(0.13 -0.13)">
      <use xlink:href="#DejaVuSans-31"/>
     </g>
    </g>
   </g>
   <g id="text_136">
    <g clip-path="url(#p50478e9081)">
     <!-- 2 -->
     <g transform="translate(878.724153 1604.545988)scale(0.13 -0.13)">
      <use xlink:href="#DejaVuSans-32"/>
     </g>
    </g>
   </g>
   <g id="text_137">
    <g clip-path="url(#p50478e9081)">
     <!-- DIF -->
     <g transform="translate(886.129609 932.412988)scale(0.13 -0.13)">
      <use xlink:href="#DejaVuSans-44"/>
      <use x="77.001953" xlink:href="#DejaVuSans-49"/>
      <use x="106.494141" xlink:href="#DejaVuSans-46"/>
     </g>
    </g>
   </g>
   <g id="text_138">
    <g clip-path="url(#p50478e9081)">
     <!-- 0 -->
     <g transform="translate(937.920529 352.987988)scale(0.13 -0.13)">
      <use xlink:href="#DejaVuSans-30"/>
     </g>
    </g>
   </g>
   <g id="text_139">
    <g clip-path="url(#p50478e9081)">
     <!-- 1 -->
     <g transform="translate(937.920529 399.341987)scale(0.13 -0.13)">
      <use xlink:href="#DejaVuSans-31"/>
     </g>
    </g>
   </g>
   <g id="text_140">
    <g clip-path="url(#p50478e9081)">
     <!-- 2 -->
     <g transform="translate(937.920529 260.279988)scale(0.13 -0.13)">
      <use xlink:href="#DejaVuSans-32"/>
     </g>
    </g>
   </g>
   <g id="text_141">
    <g clip-path="url(#p50478e9081)">
     <!-- 3 -->
     <g transform="translate(937.920529 306.633988)scale(0.13 -0.13)">
      <use xlink:href="#DejaVuSans-33"/>
     </g>
    </g>
   </g>
   <g id="text_142">
    <g clip-path="url(#p50478e9081)">
     <!-- 4 -->
     <g transform="translate(937.920529 1558.191988)scale(0.13 -0.13)">
      <use xlink:href="#DejaVuSans-34"/>
     </g>
    </g>
   </g>
   <g id="text_143">
    <g clip-path="url(#p50478e9081)">
     <!-- 5 -->
     <g transform="translate(937.920529 1604.545988)scale(0.13 -0.13)">
      <use xlink:href="#DejaVuSans-35"/>
     </g>
    </g>
   </g>
   <g id="text_144">
    <g clip-path="url(#p50478e9081)">
     <!-- SUP_2 -->
     <g transform="translate(946.133031 932.117441)scale(0.13 -0.13)">
      <defs>
       <path d="M 3425 4513 
L 3425 3897 
Q 3066 4069 2747 4153 
Q 2428 4238 2131 4238 
Q 1616 4238 1336 4038 
Q 1056 3838 1056 3469 
Q 1056 3159 1242 3001 
Q 1428 2844 1947 2747 
L 2328 2669 
Q 3034 2534 3370 2195 
Q 3706 1856 3706 1288 
Q 3706 609 3251 259 
Q 2797 -91 1919 -91 
Q 1588 -91 1214 -16 
Q 841 59 441 206 
L 441 856 
Q 825 641 1194 531 
Q 1563 422 1919 422 
Q 2459 422 2753 634 
Q 3047 847 3047 1241 
Q 3047 1584 2836 1778 
Q 2625 1972 2144 2069 
L 1759 2144 
Q 1053 2284 737 2584 
Q 422 2884 422 3419 
Q 422 4038 858 4394 
Q 1294 4750 2059 4750 
Q 2388 4750 2728 4690 
Q 3069 4631 3425 4513 
z
" id="DejaVuSans-53" transform="scale(0.015625)"/>
       <path d="M 556 4666 
L 1191 4666 
L 1191 1831 
Q 1191 1081 1462 751 
Q 1734 422 2344 422 
Q 2950 422 3222 751 
Q 3494 1081 3494 1831 
L 3494 4666 
L 4128 4666 
L 4128 1753 
Q 4128 841 3676 375 
Q 3225 -91 2344 -91 
Q 1459 -91 1007 375 
Q 556 841 556 1753 
L 556 4666 
z
" id="DejaVuSans-55" transform="scale(0.015625)"/>
       <path d="M 1259 4147 
L 1259 2394 
L 2053 2394 
Q 2494 2394 2734 2622 
Q 2975 2850 2975 3272 
Q 2975 3691 2734 3919 
Q 2494 4147 2053 4147 
L 1259 4147 
z
M 628 4666 
L 2053 4666 
Q 2838 4666 3239 4311 
Q 3641 3956 3641 3272 
Q 3641 2581 3239 2228 
Q 2838 1875 2053 1875 
L 1259 1875 
L 1259 0 
L 628 0 
L 628 4666 
z
" id="DejaVuSans-50" transform="scale(0.015625)"/>
      </defs>
      <use xlink:href="#DejaVuSans-53"/>
      <use x="63.476562" xlink:href="#DejaVuSans-55"/>
      <use x="136.669922" xlink:href="#DejaVuSans-50"/>
      <use x="196.972656" xlink:href="#DejaVuSans-5f"/>
      <use x="246.972656" xlink:href="#DejaVuSans-32"/>
     </g>
    </g>
   </g>
   <g id="text_145">
    <g clip-path="url(#p50478e9081)">
     <!-- ${b}_{0}$ -->
     <g transform="translate(190.396224 261.176784)scale(0.1625 -0.1625)">
      <defs>
       <path d="M 3169 2138 
Q 3169 2591 2961 2847 
Q 2753 3103 2388 3103 
Q 2122 3103 1889 2973 
Q 1656 2844 1484 2597 
Q 1303 2338 1198 1995 
Q 1094 1653 1094 1313 
Q 1094 881 1298 636 
Q 1503 391 1863 391 
Q 2134 391 2365 517 
Q 2597 644 2772 891 
Q 2950 1147 3059 1487 
Q 3169 1828 3169 2138 
z
M 1381 2969 
Q 1594 3256 1914 3420 
Q 2234 3584 2584 3584 
Q 3122 3584 3439 3221 
Q 3756 2859 3756 2241 
Q 3756 1734 3570 1259 
Q 3384 784 3041 416 
Q 2816 172 2522 40 
Q 2228 -91 1906 -91 
Q 1566 -91 1316 65 
Q 1066 222 909 531 
L 806 0 
L 231 0 
L 1178 4863 
L 1753 4863 
L 1381 2969 
z
" id="DejaVuSans-Oblique-62" transform="scale(0.015625)"/>
      </defs>
      <use transform="translate(0 0.015625)" xlink:href="#DejaVuSans-Oblique-62"/>
      <use transform="translate(63.476562 -16.390625)scale(0.7)" xlink:href="#DejaVuSans-30"/>
     </g>
    </g>
   </g>
   <g id="text_146">
    <g clip-path="url(#p50478e9081)">
     <!-- ${b}_{1}$ -->
     <g transform="translate(190.396224 307.530784)scale(0.1625 -0.1625)">
      <use transform="translate(0 0.015625)" xlink:href="#DejaVuSans-Oblique-62"/>
      <use transform="translate(63.476562 -16.390625)scale(0.7)" xlink:href="#DejaVuSans-31"/>
     </g>
    </g>
   </g>
   <g id="text_147">
    <g clip-path="url(#p50478e9081)">
     <!-- ${a}_{0}$ -->
     <g transform="translate(190.721224 353.884784)scale(0.1625 -0.1625)">
      <defs>
       <path d="M 3438 1997 
L 3047 0 
L 2472 0 
L 2578 531 
Q 2325 219 2001 64 
Q 1678 -91 1281 -91 
Q 834 -91 548 182 
Q 263 456 263 884 
Q 263 1497 752 1853 
Q 1241 2209 2100 2209 
L 2900 2209 
L 2931 2363 
Q 2938 2388 2941 2417 
Q 2944 2447 2944 2509 
Q 2944 2788 2717 2942 
Q 2491 3097 2081 3097 
Q 1800 3097 1504 3025 
Q 1209 2953 897 2809 
L 997 3341 
Q 1322 3463 1633 3523 
Q 1944 3584 2234 3584 
Q 2853 3584 3176 3315 
Q 3500 3047 3500 2534 
Q 3500 2431 3484 2292 
Q 3469 2153 3438 1997 
z
M 2816 1759 
L 2241 1759 
Q 1534 1759 1195 1570 
Q 856 1381 856 984 
Q 856 709 1029 553 
Q 1203 397 1509 397 
Q 1978 397 2328 733 
Q 2678 1069 2791 1631 
L 2816 1759 
z
" id="DejaVuSans-Oblique-61" transform="scale(0.015625)"/>
      </defs>
      <use xlink:href="#DejaVuSans-Oblique-61"/>
      <use transform="translate(61.279297 -16.40625)scale(0.7)" xlink:href="#DejaVuSans-30"/>
     </g>
    </g>
   </g>
   <g id="text_148">
    <g clip-path="url(#p50478e9081)">
     <!-- ${a}_{1}$ -->
     <g transform="translate(190.721224 400.238784)scale(0.1625 -0.1625)">
      <use xlink:href="#DejaVuSans-Oblique-61"/>
      <use transform="translate(61.279297 -16.40625)scale(0.7)" xlink:href="#DejaVuSans-31"/>
     </g>
    </g>
   </g>
   <g id="text_149">
    <g clip-path="url(#p50478e9081)">
     <!-- ${tau}_{0}$ -->
     <g transform="translate(173.983724 446.592784)scale(0.1625 -0.1625)">
      <defs>
       <path d="M 2706 3500 
L 2619 3053 
L 1472 3053 
L 1100 1153 
Q 1081 1047 1072 975 
Q 1063 903 1063 863 
Q 1063 663 1183 572 
Q 1303 481 1569 481 
L 2150 481 
L 2053 0 
L 1503 0 
Q 991 0 739 200 
Q 488 400 488 806 
Q 488 878 497 964 
Q 506 1050 525 1153 
L 897 3053 
L 409 3053 
L 500 3500 
L 978 3500 
L 1172 4494 
L 1747 4494 
L 1556 3500 
L 2706 3500 
z
" id="DejaVuSans-Oblique-74" transform="scale(0.015625)"/>
       <path d="M 428 1388 
L 838 3500 
L 1416 3500 
L 1006 1409 
Q 975 1256 961 1147 
Q 947 1038 947 966 
Q 947 700 1109 554 
Q 1272 409 1569 409 
Q 2031 409 2368 721 
Q 2706 1034 2809 1563 
L 3194 3500 
L 3769 3500 
L 3091 0 
L 2516 0 
L 2631 550 
Q 2388 244 2052 76 
Q 1716 -91 1338 -91 
Q 878 -91 622 161 
Q 366 413 366 863 
Q 366 956 381 1097 
Q 397 1238 428 1388 
z
" id="DejaVuSans-Oblique-75" transform="scale(0.015625)"/>
      </defs>
      <use transform="translate(0 0.78125)" xlink:href="#DejaVuSans-Oblique-74"/>
      <use transform="translate(39.208984 0.78125)" xlink:href="#DejaVuSans-Oblique-61"/>
      <use transform="translate(100.488281 0.78125)" xlink:href="#DejaVuSans-Oblique-75"/>
      <use transform="translate(163.867188 -15.625)scale(0.7)" xlink:href="#DejaVuSans-30"/>
     </g>
    </g>
   </g>
   <g id="text_150">
    <g clip-path="url(#p50478e9081)">
     <!-- ${tau}_{1}$ -->
     <g transform="translate(173.983724 492.946784)scale(0.1625 -0.1625)">
      <use transform="translate(0 0.78125)" xlink:href="#DejaVuSans-Oblique-74"/>
      <use transform="translate(39.208984 0.78125)" xlink:href="#DejaVuSans-Oblique-61"/>
      <use transform="translate(100.488281 0.78125)" xlink:href="#DejaVuSans-Oblique-75"/>
      <use transform="translate(163.867188 -15.625)scale(0.7)" xlink:href="#DejaVuSans-31"/>
     </g>
    </g>
   </g>
   <g id="text_151">
    <g clip-path="url(#p50478e9081)">
     <!-- ${tau}_{2}$ -->
     <g transform="translate(173.983724 539.300784)scale(0.1625 -0.1625)">
      <use transform="translate(0 0.78125)" xlink:href="#DejaVuSans-Oblique-74"/>
      <use transform="translate(39.208984 0.78125)" xlink:href="#DejaVuSans-Oblique-61"/>
      <use transform="translate(100.488281 0.78125)" xlink:href="#DejaVuSans-Oblique-75"/>
      <use transform="translate(163.867188 -15.625)scale(0.7)" xlink:href="#DejaVuSans-32"/>
     </g>
    </g>
   </g>
   <g id="text_152">
    <g clip-path="url(#p50478e9081)">
     <!-- ${tau}_{3}$ -->
     <g transform="translate(173.983724 585.654784)scale(0.1625 -0.1625)">
      <use transform="translate(0 0.78125)" xlink:href="#DejaVuSans-Oblique-74"/>
      <use transform="translate(39.208984 0.78125)" xlink:href="#DejaVuSans-Oblique-61"/>
      <use transform="translate(100.488281 0.78125)" xlink:href="#DejaVuSans-Oblique-75"/>
      <use transform="translate(163.867188 -15.625)scale(0.7)" xlink:href="#DejaVuSans-33"/>
     </g>
    </g>
   </g>
   <g id="text_153">
    <g clip-path="url(#p50478e9081)">
     <!-- ${m}_{0}$ -->
     <g transform="translate(184.871224 632.008784)scale(0.1625 -0.1625)">
      <defs>
       <path d="M 5747 2113 
L 5338 0 
L 4763 0 
L 5166 2094 
Q 5191 2228 5203 2325 
Q 5216 2422 5216 2491 
Q 5216 2772 5059 2928 
Q 4903 3084 4622 3084 
Q 4203 3084 3875 2770 
Q 3547 2456 3450 1953 
L 3066 0 
L 2491 0 
L 2900 2094 
Q 2925 2209 2937 2307 
Q 2950 2406 2950 2484 
Q 2950 2769 2794 2926 
Q 2638 3084 2363 3084 
Q 1938 3084 1609 2770 
Q 1281 2456 1184 1953 
L 800 0 
L 225 0 
L 909 3500 
L 1484 3500 
L 1375 2956 
Q 1609 3263 1923 3423 
Q 2238 3584 2597 3584 
Q 2978 3584 3223 3384 
Q 3469 3184 3519 2828 
Q 3781 3197 4126 3390 
Q 4472 3584 4856 3584 
Q 5306 3584 5551 3325 
Q 5797 3066 5797 2591 
Q 5797 2488 5784 2364 
Q 5772 2241 5747 2113 
z
" id="DejaVuSans-Oblique-6d" transform="scale(0.015625)"/>
      </defs>
      <use xlink:href="#DejaVuSans-Oblique-6d"/>
      <use transform="translate(97.412109 -16.40625)scale(0.7)" xlink:href="#DejaVuSans-30"/>
     </g>
    </g>
   </g>
   <g id="text_154">
    <g clip-path="url(#p50478e9081)">
     <!-- ${m}_{1}$ -->
     <g transform="translate(184.871224 678.362784)scale(0.1625 -0.1625)">
      <use xlink:href="#DejaVuSans-Oblique-6d"/>
      <use transform="translate(97.412109 -16.40625)scale(0.7)" xlink:href="#DejaVuSans-31"/>
     </g>
    </g>
   </g>
   <g id="text_155">
    <g clip-path="url(#p50478e9081)">
     <!-- ${m}_{2}$ -->
     <g transform="translate(184.871224 724.716784)scale(0.1625 -0.1625)">
      <use xlink:href="#DejaVuSans-Oblique-6d"/>
      <use transform="translate(97.412109 -16.40625)scale(0.7)" xlink:href="#DejaVuSans-32"/>
     </g>
    </g>
   </g>
   <g id="text_156">
    <g clip-path="url(#p50478e9081)">
     <!-- ${m}_{3}$ -->
     <g transform="translate(184.871224 771.070784)scale(0.1625 -0.1625)">
      <use xlink:href="#DejaVuSans-Oblique-6d"/>
      <use transform="translate(97.412109 -16.40625)scale(0.7)" xlink:href="#DejaVuSans-33"/>
     </g>
    </g>
   </g>
   <g id="text_157">
    <g clip-path="url(#p50478e9081)">
     <!-- ${m}_{4}$ -->
     <g transform="translate(184.871224 817.424784)scale(0.1625 -0.1625)">
      <use xlink:href="#DejaVuSans-Oblique-6d"/>
      <use transform="translate(97.412109 -16.40625)scale(0.7)" xlink:href="#DejaVuSans-34"/>
     </g>
    </g>
   </g>
   <g id="text_158">
    <g clip-path="url(#p50478e9081)">
     <!-- ${m}_{5}$ -->
     <g transform="translate(184.871224 863.778784)scale(0.1625 -0.1625)">
      <use xlink:href="#DejaVuSans-Oblique-6d"/>
      <use transform="translate(97.412109 -16.40625)scale(0.7)" xlink:href="#DejaVuSans-35"/>
     </g>
    </g>
   </g>
   <g id="text_159">
    <g clip-path="url(#p50478e9081)">
     <!-- ${m}_{6}$ -->
     <g transform="translate(184.871224 910.132784)scale(0.1625 -0.1625)">
      <use xlink:href="#DejaVuSans-Oblique-6d"/>
      <use transform="translate(97.412109 -16.40625)scale(0.7)" xlink:href="#DejaVuSans-36"/>
     </g>
    </g>
   </g>
   <g id="text_160">
    <g clip-path="url(#p50478e9081)">
     <!-- ${m}_{7}$ -->
     <g transform="translate(184.871224 956.486784)scale(0.1625 -0.1625)">
      <use xlink:href="#DejaVuSans-Oblique-6d"/>
      <use transform="translate(97.412109 -16.40625)scale(0.7)" xlink:href="#DejaVuSans-37"/>
     </g>
    </g>
   </g>
   <g id="text_161">
    <g clip-path="url(#p50478e9081)">
     <!-- ${m}_{8}$ -->
     <g transform="translate(184.871224 1002.840784)scale(0.1625 -0.1625)">
      <use xlink:href="#DejaVuSans-Oblique-6d"/>
      <use transform="translate(97.412109 -16.40625)scale(0.7)" xlink:href="#DejaVuSans-38"/>
     </g>
    </g>
   </g>
   <g id="text_162">
    <g clip-path="url(#p50478e9081)">
     <!-- ${m}_{9}$ -->
     <g transform="translate(184.871224 1049.194784)scale(0.1625 -0.1625)">
      <use xlink:href="#DejaVuSans-Oblique-6d"/>
      <use transform="translate(97.412109 -16.40625)scale(0.7)" xlink:href="#DejaVuSans-39"/>
     </g>
    </g>
   </g>
   <g id="text_163">
    <g clip-path="url(#p50478e9081)">
     <!-- ${m}_{10}$ -->
     <g transform="translate(177.558724 1095.548784)scale(0.1625 -0.1625)">
      <use xlink:href="#DejaVuSans-Oblique-6d"/>
      <use transform="translate(97.412109 -16.40625)scale(0.7)" xlink:href="#DejaVuSans-31"/>
      <use transform="translate(141.948242 -16.40625)scale(0.7)" xlink:href="#DejaVuSans-30"/>
     </g>
    </g>
   </g>
   <g id="text_164">
    <g clip-path="url(#p50478e9081)">
     <!-- ${m}_{11}$ -->
     <g transform="translate(177.558724 1141.902784)scale(0.1625 -0.1625)">
      <use xlink:href="#DejaVuSans-Oblique-6d"/>
      <use transform="translate(97.412109 -16.40625)scale(0.7)" xlink:href="#DejaVuSans-31"/>
      <use transform="translate(141.948242 -16.40625)scale(0.7)" xlink:href="#DejaVuSans-31"/>
     </g>
    </g>
   </g>
   <g id="text_165">
    <g clip-path="url(#p50478e9081)">
     <!-- ${m}_{12}$ -->
     <g transform="translate(177.558724 1188.256784)scale(0.1625 -0.1625)">
      <use xlink:href="#DejaVuSans-Oblique-6d"/>
      <use transform="translate(97.412109 -16.40625)scale(0.7)" xlink:href="#DejaVuSans-31"/>
      <use transform="translate(141.948242 -16.40625)scale(0.7)" xlink:href="#DejaVuSans-32"/>
     </g>
    </g>
   </g>
   <g id="text_166">
    <g clip-path="url(#p50478e9081)">
     <!-- ${m}_{13}$ -->
     <g transform="translate(177.558724 1234.610784)scale(0.1625 -0.1625)">
      <use xlink:href="#DejaVuSans-Oblique-6d"/>
      <use transform="translate(97.412109 -16.40625)scale(0.7)" xlink:href="#DejaVuSans-31"/>
      <use transform="translate(141.948242 -16.40625)scale(0.7)" xlink:href="#DejaVuSans-33"/>
     </g>
    </g>
   </g>
   <g id="text_167">
    <g clip-path="url(#p50478e9081)">
     <!-- ${m}_{14}$ -->
     <g transform="translate(177.558724 1280.964784)scale(0.1625 -0.1625)">
      <use xlink:href="#DejaVuSans-Oblique-6d"/>
      <use transform="translate(97.412109 -16.40625)scale(0.7)" xlink:href="#DejaVuSans-31"/>
      <use transform="translate(141.948242 -16.40625)scale(0.7)" xlink:href="#DejaVuSans-34"/>
     </g>
    </g>
   </g>
   <g id="text_168">
    <g clip-path="url(#p50478e9081)">
     <!-- ${m}_{15}$ -->
     <g transform="translate(177.558724 1327.318784)scale(0.1625 -0.1625)">
      <use xlink:href="#DejaVuSans-Oblique-6d"/>
      <use transform="translate(97.412109 -16.40625)scale(0.7)" xlink:href="#DejaVuSans-31"/>
      <use transform="translate(141.948242 -16.40625)scale(0.7)" xlink:href="#DejaVuSans-35"/>
     </g>
    </g>
   </g>
   <g id="text_169">
    <g clip-path="url(#p50478e9081)">
     <!-- ${t}_{0}$ -->
     <g transform="translate(194.296224 1373.672784)scale(0.1625 -0.1625)">
      <use transform="translate(0 0.78125)" xlink:href="#DejaVuSans-Oblique-74"/>
      <use transform="translate(39.208984 -15.625)scale(0.7)" xlink:href="#DejaVuSans-30"/>
     </g>
    </g>
   </g>
   <g id="text_170">
    <g clip-path="url(#p50478e9081)">
     <!-- ${t}_{1}$ -->
     <g transform="translate(194.296224 1420.026784)scale(0.1625 -0.1625)">
      <use transform="translate(0 0.78125)" xlink:href="#DejaVuSans-Oblique-74"/>
      <use transform="translate(39.208984 -15.625)scale(0.7)" xlink:href="#DejaVuSans-31"/>
     </g>
    </g>
   </g>
   <g id="text_171">
    <g clip-path="url(#p50478e9081)">
     <!-- ${t}_{2}$ -->
     <g transform="translate(194.296224 1466.380784)scale(0.1625 -0.1625)">
      <use transform="translate(0 0.78125)" xlink:href="#DejaVuSans-Oblique-74"/>
      <use transform="translate(39.208984 -15.625)scale(0.7)" xlink:href="#DejaVuSans-32"/>
     </g>
    </g>
   </g>
   <g id="text_172">
    <g clip-path="url(#p50478e9081)">
     <!-- ${t}_{3}$ -->
     <g transform="translate(194.296224 1512.734784)scale(0.1625 -0.1625)">
      <use transform="translate(0 0.78125)" xlink:href="#DejaVuSans-Oblique-74"/>
      <use transform="translate(39.208984 -15.625)scale(0.7)" xlink:href="#DejaVuSans-33"/>
     </g>
    </g>
   </g>
   <g id="text_173">
    <g clip-path="url(#p50478e9081)">
     <!-- ${j}_{0}$ -->
     <g transform="translate(196.083724 1559.07355)scale(0.1625 -0.1625)">
      <defs>
       <path d="M 928 3500 
L 1503 3500 
L 813 -63 
L 809 -78 
Q 694 -675 544 -897 
Q 403 -1106 132 -1218 
Q -138 -1331 -506 -1331 
L -722 -1331 
L -628 -844 
L -481 -844 
Q -144 -844 -1 -703 
Q 141 -563 238 -63 
L 928 3500 
z
M 1197 4863 
L 1772 4863 
L 1631 4134 
L 1056 4134 
L 1197 4863 
z
" id="DejaVuSans-Oblique-6a" transform="scale(0.015625)"/>
      </defs>
      <use transform="translate(0 0.015625)" xlink:href="#DejaVuSans-Oblique-6a"/>
      <use transform="translate(27.783203 -16.390625)scale(0.7)" xlink:href="#DejaVuSans-30"/>
     </g>
    </g>
   </g>
   <g id="text_174">
    <g clip-path="url(#p50478e9081)">
     <!-- ${j}_{1}$ -->
     <g transform="translate(196.083724 1605.42755)scale(0.1625 -0.1625)">
      <use transform="translate(0 0.015625)" xlink:href="#DejaVuSans-Oblique-6a"/>
      <use transform="translate(27.783203 -16.390625)scale(0.7)" xlink:href="#DejaVuSans-31"/>
     </g>
    </g>
   </g>
  </g>
 </g>
 <defs>
  <clipPath id="p50478e9081">
   <rect height="1409.1616" width="870.802072" x="144.191252" y="219.6096"/>
  </clipPath>
 </defs>
</svg>
