<?xml version="1.0" encoding="utf-8" standalone="no"?>
<!DOCTYPE svg PUBLIC "-//W3C//DTD SVG 1.1//EN"
  "http://www.w3.org/Graphics/SVG/1.1/DTD/svg11.dtd">
<svg height="385.28pt" version="1.1" viewBox="0 0 1410.997399 385.28" width="1410.997399pt" xmlns="http://www.w3.org/2000/svg" xmlns:xlink="http://www.w3.org/1999/xlink">
 <metadata>
  <rdf:RDF xmlns:cc="http://creativecommons.org/ns#" xmlns:dc="http://purl.org/dc/elements/1.1/" xmlns:rdf="http://www.w3.org/1999/02/22-rdf-syntax-ns#">
   <cc:Work>
    <dc:type rdf:resource="http://purl.org/dc/dcmitype/StillImage"/>
    <dc:date>2021-09-11T17:29:30.346382</dc:date>
    <dc:format>image/svg+xml</dc:format>
    <dc:creator>
     <cc:Agent>
      <dc:title>Matplotlib v3.4.3, https://matplotlib.org/</dc:title>
     </cc:Agent>
    </dc:creator>
   </cc:Work>
  </rdf:RDF>
 </metadata>
 <defs>
  <style type="text/css">*{stroke-linecap:butt;stroke-linejoin:round;}</style>
 </defs>
 <g id="figure_1">
  <g id="patch_1">
   <path d="M 0 385.28 
L 1410.997399 385.28 
L 1410.997399 0 
L 0 0 
z
" style="fill:#ffffff;"/>
  </g>
  <g id="axes_1">
   <g id="line2d_1">
    <path clip-path="url(#p61d159adbb)" d="M 237.311366 83.3168 
L 1261.734766 83.3168 
" style="fill:none;stroke:#000000;stroke-linecap:square;stroke-width:2;"/>
   </g>
   <g id="line2d_2">
    <path clip-path="url(#p61d159adbb)" d="M 237.311366 129.6708 
L 1261.734766 129.6708 
" style="fill:none;stroke:#000000;stroke-linecap:square;stroke-width:2;"/>
   </g>
   <g id="line2d_3">
    <path clip-path="url(#p61d159adbb)" d="M 237.311366 176.0248 
L 1261.734766 176.0248 
" style="fill:none;stroke:#000000;stroke-linecap:square;stroke-width:2;"/>
   </g>
   <g id="line2d_4">
    <path clip-path="url(#p61d159adbb)" d="M 237.311366 222.3788 
L 1261.734766 222.3788 
" style="fill:none;stroke:#000000;stroke-linecap:square;stroke-width:2;"/>
   </g>
   <g id="line2d_5">
    <path clip-path="url(#p61d159adbb)" d="M 237.311366 268.7328 
L 1261.734766 268.7328 
" style="fill:none;stroke:#000000;stroke-linecap:square;stroke-width:2;"/>
   </g>
   <g id="line2d_6">
    <path clip-path="url(#p61d159adbb)" d="M 237.311366 315.0868 
L 1261.734766 315.0868 
" style="fill:none;stroke:#000000;stroke-linecap:square;stroke-width:2;"/>
   </g>
   <g id="patch_2">
    <path clip-path="url(#p61d159adbb)" d="M 299.657496 106.4938 
L 317.735556 106.4938 
L 317.735556 60.1398 
L 299.657496 60.1398 
z
" style="fill:#bdbdbd;opacity:0.6;"/>
   </g>
   <g id="patch_3">
    <path clip-path="url(#p61d159adbb)" d="M 299.657496 152.8478 
L 317.735556 152.8478 
L 317.735556 106.4938 
L 299.657496 106.4938 
z
" style="fill:#bdbdbd;opacity:0.6;"/>
   </g>
   <g id="patch_4">
    <path clip-path="url(#p61d159adbb)" d="M 299.657496 199.2018 
L 317.735556 199.2018 
L 317.735556 152.8478 
L 299.657496 152.8478 
z
" style="fill:#bdbdbd;opacity:0.6;"/>
   </g>
   <g id="patch_5">
    <path clip-path="url(#p61d159adbb)" d="M 299.657496 245.5558 
L 317.735556 245.5558 
L 317.735556 199.2018 
L 299.657496 199.2018 
z
" style="fill:#bdbdbd;opacity:0.6;"/>
   </g>
   <g id="patch_6">
    <path clip-path="url(#p61d159adbb)" d="M 299.657496 291.9098 
L 317.735556 291.9098 
L 317.735556 245.5558 
L 299.657496 245.5558 
z
" style="fill:#bdbdbd;opacity:0.6;"/>
   </g>
   <g id="patch_7">
    <path clip-path="url(#p61d159adbb)" d="M 299.657496 338.2638 
L 317.735556 338.2638 
L 317.735556 291.9098 
L 299.657496 291.9098 
z
" style="fill:#bdbdbd;opacity:0.6;"/>
   </g>
   <g id="patch_8">
    <path clip-path="url(#p61d159adbb)" d="M 670.489496 106.4938 
L 688.567556 106.4938 
L 688.567556 60.1398 
L 670.489496 60.1398 
z
" style="fill:#bdbdbd;opacity:0.6;"/>
   </g>
   <g id="patch_9">
    <path clip-path="url(#p61d159adbb)" d="M 670.489496 152.8478 
L 688.567556 152.8478 
L 688.567556 106.4938 
L 670.489496 106.4938 
z
" style="fill:#bdbdbd;opacity:0.6;"/>
   </g>
   <g id="patch_10">
    <path clip-path="url(#p61d159adbb)" d="M 670.489496 199.2018 
L 688.567556 199.2018 
L 688.567556 152.8478 
L 670.489496 152.8478 
z
" style="fill:#bdbdbd;opacity:0.6;"/>
   </g>
   <g id="patch_11">
    <path clip-path="url(#p61d159adbb)" d="M 670.489496 245.5558 
L 688.567556 245.5558 
L 688.567556 199.2018 
L 670.489496 199.2018 
z
" style="fill:#bdbdbd;opacity:0.6;"/>
   </g>
   <g id="patch_12">
    <path clip-path="url(#p61d159adbb)" d="M 670.489496 291.9098 
L 688.567556 291.9098 
L 688.567556 245.5558 
L 670.489496 245.5558 
z
" style="fill:#bdbdbd;opacity:0.6;"/>
   </g>
   <g id="patch_13">
    <path clip-path="url(#p61d159adbb)" d="M 670.489496 338.2638 
L 688.567556 338.2638 
L 688.567556 291.9098 
L 670.489496 291.9098 
z
" style="fill:#bdbdbd;opacity:0.6;"/>
   </g>
   <g id="patch_14">
    <path clip-path="url(#p61d159adbb)" d="M 902.259496 106.4938 
L 920.337556 106.4938 
L 920.337556 60.1398 
L 902.259496 60.1398 
z
" style="fill:#bdbdbd;opacity:0.6;"/>
   </g>
   <g id="patch_15">
    <path clip-path="url(#p61d159adbb)" d="M 902.259496 152.8478 
L 920.337556 152.8478 
L 920.337556 106.4938 
L 902.259496 106.4938 
z
" style="fill:#bdbdbd;opacity:0.6;"/>
   </g>
   <g id="patch_16">
    <path clip-path="url(#p61d159adbb)" d="M 902.259496 199.2018 
L 920.337556 199.2018 
L 920.337556 152.8478 
L 902.259496 152.8478 
z
" style="fill:#bdbdbd;opacity:0.6;"/>
   </g>
   <g id="patch_17">
    <path clip-path="url(#p61d159adbb)" d="M 902.259496 245.5558 
L 920.337556 245.5558 
L 920.337556 199.2018 
L 902.259496 199.2018 
z
" style="fill:#bdbdbd;opacity:0.6;"/>
   </g>
   <g id="patch_18">
    <path clip-path="url(#p61d159adbb)" d="M 902.259496 291.9098 
L 920.337556 291.9098 
L 920.337556 245.5558 
L 902.259496 245.5558 
z
" style="fill:#bdbdbd;opacity:0.6;"/>
   </g>
   <g id="patch_19">
    <path clip-path="url(#p61d159adbb)" d="M 902.259496 338.2638 
L 920.337556 338.2638 
L 920.337556 291.9098 
L 902.259496 291.9098 
z
" style="fill:#bdbdbd;opacity:0.6;"/>
   </g>
   <g id="patch_20">
    <path clip-path="url(#p61d159adbb)" d="M 1226.737496 106.4938 
L 1244.815556 106.4938 
L 1244.815556 60.1398 
L 1226.737496 60.1398 
z
" style="fill:#bdbdbd;opacity:0.6;"/>
   </g>
   <g id="patch_21">
    <path clip-path="url(#p61d159adbb)" d="M 1226.737496 152.8478 
L 1244.815556 152.8478 
L 1244.815556 106.4938 
L 1226.737496 106.4938 
z
" style="fill:#bdbdbd;opacity:0.6;"/>
   </g>
   <g id="patch_22">
    <path clip-path="url(#p61d159adbb)" d="M 1226.737496 199.2018 
L 1244.815556 199.2018 
L 1244.815556 152.8478 
L 1226.737496 152.8478 
z
" style="fill:#bdbdbd;opacity:0.6;"/>
   </g>
   <g id="patch_23">
    <path clip-path="url(#p61d159adbb)" d="M 1226.737496 245.5558 
L 1244.815556 245.5558 
L 1244.815556 199.2018 
L 1226.737496 199.2018 
z
" style="fill:#bdbdbd;opacity:0.6;"/>
   </g>
   <g id="patch_24">
    <path clip-path="url(#p61d159adbb)" d="M 1226.737496 291.9098 
L 1244.815556 291.9098 
L 1244.815556 245.5558 
L 1226.737496 245.5558 
z
" style="fill:#bdbdbd;opacity:0.6;"/>
   </g>
   <g id="patch_25">
    <path clip-path="url(#p61d159adbb)" d="M 1226.737496 338.2638 
L 1244.815556 338.2638 
L 1244.815556 291.9098 
L 1226.737496 291.9098 
z
" style="fill:#bdbdbd;opacity:0.6;"/>
   </g>
   <g id="line2d_7">
    <path clip-path="url(#p61d159adbb)" d="M 355.050526 176.0248 
L 355.050526 83.3168 
" style="fill:none;stroke:#6fa4ff;stroke-linecap:square;stroke-width:2;"/>
   </g>
   <g id="line2d_8">
    <path clip-path="url(#p61d159adbb)" d="M 401.404526 222.3788 
L 401.404526 129.6708 
" style="fill:none;stroke:#6fa4ff;stroke-linecap:square;stroke-width:2;"/>
   </g>
   <g id="line2d_9">
    <path clip-path="url(#p61d159adbb)" d="M 494.112526 268.7328 
L 494.112526 176.0248 
" style="fill:none;stroke:#6fa4ff;stroke-linecap:square;stroke-width:2;"/>
   </g>
   <g id="line2d_10">
    <path clip-path="url(#p61d159adbb)" d="M 540.466526 315.0868 
L 540.466526 222.3788 
" style="fill:none;stroke:#6fa4ff;stroke-linecap:square;stroke-width:2;"/>
   </g>
   <g id="line2d_11">
    <path clip-path="url(#p61d159adbb)" d="M 586.820526 176.0248 
L 586.820526 83.3168 
" style="fill:none;stroke:#6fa4ff;stroke-linecap:square;stroke-width:2;"/>
   </g>
   <g id="line2d_12">
    <path clip-path="url(#p61d159adbb)" d="M 633.174526 222.3788 
L 633.174526 129.6708 
" style="fill:none;stroke:#6fa4ff;stroke-linecap:square;stroke-width:2;"/>
   </g>
   <g id="line2d_13">
    <path clip-path="url(#p61d159adbb)" d="M 772.236526 315.0868 
L 772.236526 83.3168 
" style="fill:none;stroke:#bb8bff;stroke-linecap:square;stroke-width:2;"/>
   </g>
   <g id="line2d_14">
    <path clip-path="url(#p61d159adbb)" d="M 818.590526 268.7328 
L 818.590526 129.6708 
" style="fill:none;stroke:#bb8bff;stroke-linecap:square;stroke-width:2;"/>
   </g>
   <g id="line2d_15">
    <path clip-path="url(#p61d159adbb)" d="M 957.652526 315.0868 
L 957.652526 83.3168 
" style="fill:none;stroke:#bb8bff;stroke-linecap:square;stroke-width:2;"/>
   </g>
   <g id="line2d_16">
    <path clip-path="url(#p61d159adbb)" d="M 1004.006526 176.0248 
L 1004.006526 83.3168 
" style="fill:none;stroke:#6fa4ff;stroke-linecap:square;stroke-width:2;"/>
   </g>
   <g id="line2d_17">
    <path clip-path="url(#p61d159adbb)" d="M 1096.714526 315.0868 
L 1096.714526 83.3168 
" style="fill:none;stroke:#bb8bff;stroke-linecap:square;stroke-width:2;"/>
   </g>
   <g id="line2d_18">
    <path clip-path="url(#p61d159adbb)" d="M 1189.422526 176.0248 
L 1189.422526 83.3168 
" style="fill:none;stroke:#6fa4ff;stroke-linecap:square;stroke-width:2;"/>
   </g>
   <g id="text_1">
    <!-- Circuit diagram for two-qubit superposition -->
    <g transform="translate(593.691792 40.2336)scale(0.12 -0.12)">
     <defs>
      <path d="M 4122 4306 
L 4122 3641 
Q 3803 3938 3442 4084 
Q 3081 4231 2675 4231 
Q 1875 4231 1450 3742 
Q 1025 3253 1025 2328 
Q 1025 1406 1450 917 
Q 1875 428 2675 428 
Q 3081 428 3442 575 
Q 3803 722 4122 1019 
L 4122 359 
Q 3791 134 3420 21 
Q 3050 -91 2638 -91 
Q 1578 -91 968 557 
Q 359 1206 359 2328 
Q 359 3453 968 4101 
Q 1578 4750 2638 4750 
Q 3056 4750 3426 4639 
Q 3797 4528 4122 4306 
z
" id="DejaVuSans-43" transform="scale(0.015625)"/>
      <path d="M 603 3500 
L 1178 3500 
L 1178 0 
L 603 0 
L 603 3500 
z
M 603 4863 
L 1178 4863 
L 1178 4134 
L 603 4134 
L 603 4863 
z
" id="DejaVuSans-69" transform="scale(0.015625)"/>
      <path d="M 2631 2963 
Q 2534 3019 2420 3045 
Q 2306 3072 2169 3072 
Q 1681 3072 1420 2755 
Q 1159 2438 1159 1844 
L 1159 0 
L 581 0 
L 581 3500 
L 1159 3500 
L 1159 2956 
Q 1341 3275 1631 3429 
Q 1922 3584 2338 3584 
Q 2397 3584 2469 3576 
Q 2541 3569 2628 3553 
L 2631 2963 
z
" id="DejaVuSans-72" transform="scale(0.015625)"/>
      <path d="M 3122 3366 
L 3122 2828 
Q 2878 2963 2633 3030 
Q 2388 3097 2138 3097 
Q 1578 3097 1268 2742 
Q 959 2388 959 1747 
Q 959 1106 1268 751 
Q 1578 397 2138 397 
Q 2388 397 2633 464 
Q 2878 531 3122 666 
L 3122 134 
Q 2881 22 2623 -34 
Q 2366 -91 2075 -91 
Q 1284 -91 818 406 
Q 353 903 353 1747 
Q 353 2603 823 3093 
Q 1294 3584 2113 3584 
Q 2378 3584 2631 3529 
Q 2884 3475 3122 3366 
z
" id="DejaVuSans-63" transform="scale(0.015625)"/>
      <path d="M 544 1381 
L 544 3500 
L 1119 3500 
L 1119 1403 
Q 1119 906 1312 657 
Q 1506 409 1894 409 
Q 2359 409 2629 706 
Q 2900 1003 2900 1516 
L 2900 3500 
L 3475 3500 
L 3475 0 
L 2900 0 
L 2900 538 
Q 2691 219 2414 64 
Q 2138 -91 1772 -91 
Q 1169 -91 856 284 
Q 544 659 544 1381 
z
M 1991 3584 
L 1991 3584 
z
" id="DejaVuSans-75" transform="scale(0.015625)"/>
      <path d="M 1172 4494 
L 1172 3500 
L 2356 3500 
L 2356 3053 
L 1172 3053 
L 1172 1153 
Q 1172 725 1289 603 
Q 1406 481 1766 481 
L 2356 481 
L 2356 0 
L 1766 0 
Q 1100 0 847 248 
Q 594 497 594 1153 
L 594 3053 
L 172 3053 
L 172 3500 
L 594 3500 
L 594 4494 
L 1172 4494 
z
" id="DejaVuSans-74" transform="scale(0.015625)"/>
      <path id="DejaVuSans-20" transform="scale(0.015625)"/>
      <path d="M 2906 2969 
L 2906 4863 
L 3481 4863 
L 3481 0 
L 2906 0 
L 2906 525 
Q 2725 213 2448 61 
Q 2172 -91 1784 -91 
Q 1150 -91 751 415 
Q 353 922 353 1747 
Q 353 2572 751 3078 
Q 1150 3584 1784 3584 
Q 2172 3584 2448 3432 
Q 2725 3281 2906 2969 
z
M 947 1747 
Q 947 1113 1208 752 
Q 1469 391 1925 391 
Q 2381 391 2643 752 
Q 2906 1113 2906 1747 
Q 2906 2381 2643 2742 
Q 2381 3103 1925 3103 
Q 1469 3103 1208 2742 
Q 947 2381 947 1747 
z
" id="DejaVuSans-64" transform="scale(0.015625)"/>
      <path d="M 2194 1759 
Q 1497 1759 1228 1600 
Q 959 1441 959 1056 
Q 959 750 1161 570 
Q 1363 391 1709 391 
Q 2188 391 2477 730 
Q 2766 1069 2766 1631 
L 2766 1759 
L 2194 1759 
z
M 3341 1997 
L 3341 0 
L 2766 0 
L 2766 531 
Q 2569 213 2275 61 
Q 1981 -91 1556 -91 
Q 1019 -91 701 211 
Q 384 513 384 1019 
Q 384 1609 779 1909 
Q 1175 2209 1959 2209 
L 2766 2209 
L 2766 2266 
Q 2766 2663 2505 2880 
Q 2244 3097 1772 3097 
Q 1472 3097 1187 3025 
Q 903 2953 641 2809 
L 641 3341 
Q 956 3463 1253 3523 
Q 1550 3584 1831 3584 
Q 2591 3584 2966 3190 
Q 3341 2797 3341 1997 
z
" id="DejaVuSans-61" transform="scale(0.015625)"/>
      <path d="M 2906 1791 
Q 2906 2416 2648 2759 
Q 2391 3103 1925 3103 
Q 1463 3103 1205 2759 
Q 947 2416 947 1791 
Q 947 1169 1205 825 
Q 1463 481 1925 481 
Q 2391 481 2648 825 
Q 2906 1169 2906 1791 
z
M 3481 434 
Q 3481 -459 3084 -895 
Q 2688 -1331 1869 -1331 
Q 1566 -1331 1297 -1286 
Q 1028 -1241 775 -1147 
L 775 -588 
Q 1028 -725 1275 -790 
Q 1522 -856 1778 -856 
Q 2344 -856 2625 -561 
Q 2906 -266 2906 331 
L 2906 616 
Q 2728 306 2450 153 
Q 2172 0 1784 0 
Q 1141 0 747 490 
Q 353 981 353 1791 
Q 353 2603 747 3093 
Q 1141 3584 1784 3584 
Q 2172 3584 2450 3431 
Q 2728 3278 2906 2969 
L 2906 3500 
L 3481 3500 
L 3481 434 
z
" id="DejaVuSans-67" transform="scale(0.015625)"/>
      <path d="M 3328 2828 
Q 3544 3216 3844 3400 
Q 4144 3584 4550 3584 
Q 5097 3584 5394 3201 
Q 5691 2819 5691 2113 
L 5691 0 
L 5113 0 
L 5113 2094 
Q 5113 2597 4934 2840 
Q 4756 3084 4391 3084 
Q 3944 3084 3684 2787 
Q 3425 2491 3425 1978 
L 3425 0 
L 2847 0 
L 2847 2094 
Q 2847 2600 2669 2842 
Q 2491 3084 2119 3084 
Q 1678 3084 1418 2786 
Q 1159 2488 1159 1978 
L 1159 0 
L 581 0 
L 581 3500 
L 1159 3500 
L 1159 2956 
Q 1356 3278 1631 3431 
Q 1906 3584 2284 3584 
Q 2666 3584 2933 3390 
Q 3200 3197 3328 2828 
z
" id="DejaVuSans-6d" transform="scale(0.015625)"/>
      <path d="M 2375 4863 
L 2375 4384 
L 1825 4384 
Q 1516 4384 1395 4259 
Q 1275 4134 1275 3809 
L 1275 3500 
L 2222 3500 
L 2222 3053 
L 1275 3053 
L 1275 0 
L 697 0 
L 697 3053 
L 147 3053 
L 147 3500 
L 697 3500 
L 697 3744 
Q 697 4328 969 4595 
Q 1241 4863 1831 4863 
L 2375 4863 
z
" id="DejaVuSans-66" transform="scale(0.015625)"/>
      <path d="M 1959 3097 
Q 1497 3097 1228 2736 
Q 959 2375 959 1747 
Q 959 1119 1226 758 
Q 1494 397 1959 397 
Q 2419 397 2687 759 
Q 2956 1122 2956 1747 
Q 2956 2369 2687 2733 
Q 2419 3097 1959 3097 
z
M 1959 3584 
Q 2709 3584 3137 3096 
Q 3566 2609 3566 1747 
Q 3566 888 3137 398 
Q 2709 -91 1959 -91 
Q 1206 -91 779 398 
Q 353 888 353 1747 
Q 353 2609 779 3096 
Q 1206 3584 1959 3584 
z
" id="DejaVuSans-6f" transform="scale(0.015625)"/>
      <path d="M 269 3500 
L 844 3500 
L 1563 769 
L 2278 3500 
L 2956 3500 
L 3675 769 
L 4391 3500 
L 4966 3500 
L 4050 0 
L 3372 0 
L 2619 2869 
L 1863 0 
L 1184 0 
L 269 3500 
z
" id="DejaVuSans-77" transform="scale(0.015625)"/>
      <path d="M 313 2009 
L 1997 2009 
L 1997 1497 
L 313 1497 
L 313 2009 
z
" id="DejaVuSans-2d" transform="scale(0.015625)"/>
      <path d="M 947 1747 
Q 947 1113 1208 752 
Q 1469 391 1925 391 
Q 2381 391 2643 752 
Q 2906 1113 2906 1747 
Q 2906 2381 2643 2742 
Q 2381 3103 1925 3103 
Q 1469 3103 1208 2742 
Q 947 2381 947 1747 
z
M 2906 525 
Q 2725 213 2448 61 
Q 2172 -91 1784 -91 
Q 1150 -91 751 415 
Q 353 922 353 1747 
Q 353 2572 751 3078 
Q 1150 3584 1784 3584 
Q 2172 3584 2448 3432 
Q 2725 3281 2906 2969 
L 2906 3500 
L 3481 3500 
L 3481 -1331 
L 2906 -1331 
L 2906 525 
z
" id="DejaVuSans-71" transform="scale(0.015625)"/>
      <path d="M 3116 1747 
Q 3116 2381 2855 2742 
Q 2594 3103 2138 3103 
Q 1681 3103 1420 2742 
Q 1159 2381 1159 1747 
Q 1159 1113 1420 752 
Q 1681 391 2138 391 
Q 2594 391 2855 752 
Q 3116 1113 3116 1747 
z
M 1159 2969 
Q 1341 3281 1617 3432 
Q 1894 3584 2278 3584 
Q 2916 3584 3314 3078 
Q 3713 2572 3713 1747 
Q 3713 922 3314 415 
Q 2916 -91 2278 -91 
Q 1894 -91 1617 61 
Q 1341 213 1159 525 
L 1159 0 
L 581 0 
L 581 4863 
L 1159 4863 
L 1159 2969 
z
" id="DejaVuSans-62" transform="scale(0.015625)"/>
      <path d="M 2834 3397 
L 2834 2853 
Q 2591 2978 2328 3040 
Q 2066 3103 1784 3103 
Q 1356 3103 1142 2972 
Q 928 2841 928 2578 
Q 928 2378 1081 2264 
Q 1234 2150 1697 2047 
L 1894 2003 
Q 2506 1872 2764 1633 
Q 3022 1394 3022 966 
Q 3022 478 2636 193 
Q 2250 -91 1575 -91 
Q 1294 -91 989 -36 
Q 684 19 347 128 
L 347 722 
Q 666 556 975 473 
Q 1284 391 1588 391 
Q 1994 391 2212 530 
Q 2431 669 2431 922 
Q 2431 1156 2273 1281 
Q 2116 1406 1581 1522 
L 1381 1569 
Q 847 1681 609 1914 
Q 372 2147 372 2553 
Q 372 3047 722 3315 
Q 1072 3584 1716 3584 
Q 2034 3584 2315 3537 
Q 2597 3491 2834 3397 
z
" id="DejaVuSans-73" transform="scale(0.015625)"/>
      <path d="M 1159 525 
L 1159 -1331 
L 581 -1331 
L 581 3500 
L 1159 3500 
L 1159 2969 
Q 1341 3281 1617 3432 
Q 1894 3584 2278 3584 
Q 2916 3584 3314 3078 
Q 3713 2572 3713 1747 
Q 3713 922 3314 415 
Q 2916 -91 2278 -91 
Q 1894 -91 1617 61 
Q 1341 213 1159 525 
z
M 3116 1747 
Q 3116 2381 2855 2742 
Q 2594 3103 2138 3103 
Q 1681 3103 1420 2742 
Q 1159 2381 1159 1747 
Q 1159 1113 1420 752 
Q 1681 391 2138 391 
Q 2594 391 2855 752 
Q 3116 1113 3116 1747 
z
" id="DejaVuSans-70" transform="scale(0.015625)"/>
      <path d="M 3597 1894 
L 3597 1613 
L 953 1613 
Q 991 1019 1311 708 
Q 1631 397 2203 397 
Q 2534 397 2845 478 
Q 3156 559 3463 722 
L 3463 178 
Q 3153 47 2828 -22 
Q 2503 -91 2169 -91 
Q 1331 -91 842 396 
Q 353 884 353 1716 
Q 353 2575 817 3079 
Q 1281 3584 2069 3584 
Q 2775 3584 3186 3129 
Q 3597 2675 3597 1894 
z
M 3022 2063 
Q 3016 2534 2758 2815 
Q 2500 3097 2075 3097 
Q 1594 3097 1305 2825 
Q 1016 2553 972 2059 
L 3022 2063 
z
" id="DejaVuSans-65" transform="scale(0.015625)"/>
      <path d="M 3513 2113 
L 3513 0 
L 2938 0 
L 2938 2094 
Q 2938 2591 2744 2837 
Q 2550 3084 2163 3084 
Q 1697 3084 1428 2787 
Q 1159 2491 1159 1978 
L 1159 0 
L 581 0 
L 581 3500 
L 1159 3500 
L 1159 2956 
Q 1366 3272 1645 3428 
Q 1925 3584 2291 3584 
Q 2894 3584 3203 3211 
Q 3513 2838 3513 2113 
z
" id="DejaVuSans-6e" transform="scale(0.015625)"/>
     </defs>
     <use xlink:href="#DejaVuSans-43"/>
     <use x="69.824219" xlink:href="#DejaVuSans-69"/>
     <use x="97.607422" xlink:href="#DejaVuSans-72"/>
     <use x="136.470703" xlink:href="#DejaVuSans-63"/>
     <use x="191.451172" xlink:href="#DejaVuSans-75"/>
     <use x="254.830078" xlink:href="#DejaVuSans-69"/>
     <use x="282.613281" xlink:href="#DejaVuSans-74"/>
     <use x="321.822266" xlink:href="#DejaVuSans-20"/>
     <use x="353.609375" xlink:href="#DejaVuSans-64"/>
     <use x="417.085938" xlink:href="#DejaVuSans-69"/>
     <use x="444.869141" xlink:href="#DejaVuSans-61"/>
     <use x="506.148438" xlink:href="#DejaVuSans-67"/>
     <use x="569.625" xlink:href="#DejaVuSans-72"/>
     <use x="610.738281" xlink:href="#DejaVuSans-61"/>
     <use x="672.017578" xlink:href="#DejaVuSans-6d"/>
     <use x="769.429688" xlink:href="#DejaVuSans-20"/>
     <use x="801.216797" xlink:href="#DejaVuSans-66"/>
     <use x="836.421875" xlink:href="#DejaVuSans-6f"/>
     <use x="897.603516" xlink:href="#DejaVuSans-72"/>
     <use x="938.716797" xlink:href="#DejaVuSans-20"/>
     <use x="970.503906" xlink:href="#DejaVuSans-74"/>
     <use x="1009.712891" xlink:href="#DejaVuSans-77"/>
     <use x="1091.5" xlink:href="#DejaVuSans-6f"/>
     <use x="1154.556641" xlink:href="#DejaVuSans-2d"/>
     <use x="1190.640625" xlink:href="#DejaVuSans-71"/>
     <use x="1254.117188" xlink:href="#DejaVuSans-75"/>
     <use x="1317.496094" xlink:href="#DejaVuSans-62"/>
     <use x="1380.972656" xlink:href="#DejaVuSans-69"/>
     <use x="1408.755859" xlink:href="#DejaVuSans-74"/>
     <use x="1447.964844" xlink:href="#DejaVuSans-20"/>
     <use x="1479.751953" xlink:href="#DejaVuSans-73"/>
     <use x="1531.851562" xlink:href="#DejaVuSans-75"/>
     <use x="1595.230469" xlink:href="#DejaVuSans-70"/>
     <use x="1658.707031" xlink:href="#DejaVuSans-65"/>
     <use x="1720.230469" xlink:href="#DejaVuSans-72"/>
     <use x="1761.34375" xlink:href="#DejaVuSans-70"/>
     <use x="1824.820312" xlink:href="#DejaVuSans-6f"/>
     <use x="1886.001953" xlink:href="#DejaVuSans-73"/>
     <use x="1938.101562" xlink:href="#DejaVuSans-69"/>
     <use x="1965.884766" xlink:href="#DejaVuSans-74"/>
     <use x="2005.09375" xlink:href="#DejaVuSans-69"/>
     <use x="2032.876953" xlink:href="#DejaVuSans-6f"/>
     <use x="2094.058594" xlink:href="#DejaVuSans-6e"/>
    </g>
   </g>
   <g id="patch_26">
    <path clip-path="url(#p61d159adbb)" d="M 247.277476 283.79785 
L 277.407576 283.79785 
L 277.407576 253.66775 
L 247.277476 253.66775 
z
" style="fill:#6fa4ff;stroke:#6fa4ff;stroke-linejoin:miter;stroke-width:1.5;"/>
   </g>
   <g id="patch_27">
    <path clip-path="url(#p61d159adbb)" d="M 247.277476 330.15185 
L 277.407576 330.15185 
L 277.407576 300.02175 
L 247.277476 300.02175 
z
" style="fill:#6fa4ff;stroke:#6fa4ff;stroke-linejoin:miter;stroke-width:1.5;"/>
   </g>
   <g id="patch_28">
    <path clip-path="url(#p61d159adbb)" d="M 355.050526 87.836315 
C 356.249115 87.836315 357.398775 87.36011 358.246305 86.51258 
C 359.093836 85.665049 359.570041 84.515389 359.570041 83.3168 
C 359.570041 82.118211 359.093836 80.968551 358.246305 80.12102 
C 357.398775 79.27349 356.249115 78.797285 355.050526 78.797285 
C 353.851936 78.797285 352.702277 79.27349 351.854746 80.12102 
C 351.007215 80.968551 350.531011 82.118211 350.531011 83.3168 
C 350.531011 84.515389 351.007215 85.665049 351.854746 86.51258 
C 352.702277 87.36011 353.851936 87.836315 355.050526 87.836315 
z
" style="fill:#6fa4ff;stroke:#6fa4ff;stroke-linejoin:miter;stroke-width:1.5;"/>
   </g>
   <g id="patch_29">
    <path clip-path="url(#p61d159adbb)" d="M 355.050526 186.570335 
C 357.847234 186.570335 360.529773 185.459191 362.507345 183.481619 
C 364.484917 181.504048 365.596061 178.821509 365.596061 176.0248 
C 365.596061 173.228091 364.484917 170.545552 362.507345 168.567981 
C 360.529773 166.590409 357.847234 165.479265 355.050526 165.479265 
C 352.253817 165.479265 349.571278 166.590409 347.593706 168.567981 
C 345.616135 170.545552 344.504991 173.228091 344.504991 176.0248 
C 344.504991 178.821509 345.616135 181.504048 347.593706 183.481619 
C 349.571278 185.459191 352.253817 186.570335 355.050526 186.570335 
z
" style="fill:#6fa4ff;stroke:#6fa4ff;stroke-linejoin:miter;stroke-width:2;"/>
   </g>
   <g id="patch_30">
    <path clip-path="url(#p61d159adbb)" d="M 401.404526 134.190315 
C 402.603115 134.190315 403.752775 133.71411 404.600305 132.86658 
C 405.447836 132.019049 405.924041 130.869389 405.924041 129.6708 
C 405.924041 128.472211 405.447836 127.322551 404.600305 126.47502 
C 403.752775 125.62749 402.603115 125.151285 401.404526 125.151285 
C 400.205936 125.151285 399.056277 125.62749 398.208746 126.47502 
C 397.361215 127.322551 396.885011 128.472211 396.885011 129.6708 
C 396.885011 130.869389 397.361215 132.019049 398.208746 132.86658 
C 399.056277 133.71411 400.205936 134.190315 401.404526 134.190315 
z
" style="fill:#6fa4ff;stroke:#6fa4ff;stroke-linejoin:miter;stroke-width:1.5;"/>
   </g>
   <g id="patch_31">
    <path clip-path="url(#p61d159adbb)" d="M 401.404526 232.924335 
C 404.201234 232.924335 406.883773 231.813191 408.861345 229.835619 
C 410.838917 227.858048 411.950061 225.175509 411.950061 222.3788 
C 411.950061 219.582091 410.838917 216.899552 408.861345 214.921981 
C 406.883773 212.944409 404.201234 211.833265 401.404526 211.833265 
C 398.607817 211.833265 395.925278 212.944409 393.947706 214.921981 
C 391.970135 216.899552 390.858991 219.582091 390.858991 222.3788 
C 390.858991 225.175509 391.970135 227.858048 393.947706 229.835619 
C 395.925278 231.813191 398.607817 232.924335 401.404526 232.924335 
z
" style="fill:#6fa4ff;stroke:#6fa4ff;stroke-linejoin:miter;stroke-width:2;"/>
   </g>
   <g id="patch_32">
    <path clip-path="url(#p61d159adbb)" d="M 432.693476 191.08985 
L 462.823576 191.08985 
L 462.823576 160.95975 
L 432.693476 160.95975 
z
" style="fill:#05bab6;stroke:#05bab6;stroke-linejoin:miter;stroke-width:1.5;"/>
   </g>
   <g id="patch_33">
    <path clip-path="url(#p61d159adbb)" d="M 432.693476 237.44385 
L 462.823576 237.44385 
L 462.823576 207.31375 
L 432.693476 207.31375 
z
" style="fill:#05bab6;stroke:#05bab6;stroke-linejoin:miter;stroke-width:1.5;"/>
   </g>
   <g id="patch_34">
    <path clip-path="url(#p61d159adbb)" d="M 494.112526 180.544315 
C 495.311115 180.544315 496.460775 180.06811 497.308305 179.22058 
C 498.155836 178.373049 498.632041 177.223389 498.632041 176.0248 
C 498.632041 174.826211 498.155836 173.676551 497.308305 172.82902 
C 496.460775 171.98149 495.311115 171.505285 494.112526 171.505285 
C 492.913936 171.505285 491.764277 171.98149 490.916746 172.82902 
C 490.069215 173.676551 489.593011 174.826211 489.593011 176.0248 
C 489.593011 177.223389 490.069215 178.373049 490.916746 179.22058 
C 491.764277 180.06811 492.913936 180.544315 494.112526 180.544315 
z
" style="fill:#6fa4ff;stroke:#6fa4ff;stroke-linejoin:miter;stroke-width:1.5;"/>
   </g>
   <g id="patch_35">
    <path clip-path="url(#p61d159adbb)" d="M 494.112526 279.278335 
C 496.909234 279.278335 499.591773 278.167191 501.569345 276.189619 
C 503.546917 274.212048 504.658061 271.529509 504.658061 268.7328 
C 504.658061 265.936091 503.546917 263.253552 501.569345 261.275981 
C 499.591773 259.298409 496.909234 258.187265 494.112526 258.187265 
C 491.315817 258.187265 488.633278 259.298409 486.655706 261.275981 
C 484.678135 263.253552 483.566991 265.936091 483.566991 268.7328 
C 483.566991 271.529509 484.678135 274.212048 486.655706 276.189619 
C 488.633278 278.167191 491.315817 279.278335 494.112526 279.278335 
z
" style="fill:#6fa4ff;stroke:#6fa4ff;stroke-linejoin:miter;stroke-width:2;"/>
   </g>
   <g id="patch_36">
    <path clip-path="url(#p61d159adbb)" d="M 540.466526 226.898315 
C 541.665115 226.898315 542.814775 226.42211 543.662305 225.57458 
C 544.509836 224.727049 544.986041 223.577389 544.986041 222.3788 
C 544.986041 221.180211 544.509836 220.030551 543.662305 219.18302 
C 542.814775 218.33549 541.665115 217.859285 540.466526 217.859285 
C 539.267936 217.859285 538.118277 218.33549 537.270746 219.18302 
C 536.423215 220.030551 535.947011 221.180211 535.947011 222.3788 
C 535.947011 223.577389 536.423215 224.727049 537.270746 225.57458 
C 538.118277 226.42211 539.267936 226.898315 540.466526 226.898315 
z
" style="fill:#6fa4ff;stroke:#6fa4ff;stroke-linejoin:miter;stroke-width:1.5;"/>
   </g>
   <g id="patch_37">
    <path clip-path="url(#p61d159adbb)" d="M 540.466526 325.632335 
C 543.263234 325.632335 545.945773 324.521191 547.923345 322.543619 
C 549.900917 320.566048 551.012061 317.883509 551.012061 315.0868 
C 551.012061 312.290091 549.900917 309.607552 547.923345 307.629981 
C 545.945773 305.652409 543.263234 304.541265 540.466526 304.541265 
C 537.669817 304.541265 534.987278 305.652409 533.009706 307.629981 
C 531.032135 309.607552 529.920991 312.290091 529.920991 315.0868 
C 529.920991 317.883509 531.032135 320.566048 533.009706 322.543619 
C 534.987278 324.521191 537.669817 325.632335 540.466526 325.632335 
z
" style="fill:#6fa4ff;stroke:#6fa4ff;stroke-linejoin:miter;stroke-width:2;"/>
   </g>
   <g id="patch_38">
    <path clip-path="url(#p61d159adbb)" d="M 525.401476 191.08985 
L 555.531576 191.08985 
L 555.531576 160.95975 
L 525.401476 160.95975 
z
" style="fill:#05bab6;stroke:#05bab6;stroke-linejoin:miter;stroke-width:1.5;"/>
   </g>
   <g id="patch_39">
    <path clip-path="url(#p61d159adbb)" d="M 571.755476 237.44385 
L 601.885576 237.44385 
L 601.885576 207.31375 
L 571.755476 207.31375 
z
" style="fill:#05bab6;stroke:#05bab6;stroke-linejoin:miter;stroke-width:1.5;"/>
   </g>
   <g id="patch_40">
    <path clip-path="url(#p61d159adbb)" d="M 586.820526 87.836315 
C 588.019115 87.836315 589.168775 87.36011 590.016305 86.51258 
C 590.863836 85.665049 591.340041 84.515389 591.340041 83.3168 
C 591.340041 82.118211 590.863836 80.968551 590.016305 80.12102 
C 589.168775 79.27349 588.019115 78.797285 586.820526 78.797285 
C 585.621936 78.797285 584.472277 79.27349 583.624746 80.12102 
C 582.777215 80.968551 582.301011 82.118211 582.301011 83.3168 
C 582.301011 84.515389 582.777215 85.665049 583.624746 86.51258 
C 584.472277 87.36011 585.621936 87.836315 586.820526 87.836315 
z
" style="fill:#6fa4ff;stroke:#6fa4ff;stroke-linejoin:miter;stroke-width:1.5;"/>
   </g>
   <g id="patch_41">
    <path clip-path="url(#p61d159adbb)" d="M 586.820526 186.570335 
C 589.617234 186.570335 592.299773 185.459191 594.277345 183.481619 
C 596.254917 181.504048 597.366061 178.821509 597.366061 176.0248 
C 597.366061 173.228091 596.254917 170.545552 594.277345 168.567981 
C 592.299773 166.590409 589.617234 165.479265 586.820526 165.479265 
C 584.023817 165.479265 581.341278 166.590409 579.363706 168.567981 
C 577.386135 170.545552 576.274991 173.228091 576.274991 176.0248 
C 576.274991 178.821509 577.386135 181.504048 579.363706 183.481619 
C 581.341278 185.459191 584.023817 186.570335 586.820526 186.570335 
z
" style="fill:#6fa4ff;stroke:#6fa4ff;stroke-linejoin:miter;stroke-width:2;"/>
   </g>
   <g id="patch_42">
    <path clip-path="url(#p61d159adbb)" d="M 633.174526 134.190315 
C 634.373115 134.190315 635.522775 133.71411 636.370305 132.86658 
C 637.217836 132.019049 637.694041 130.869389 637.694041 129.6708 
C 637.694041 128.472211 637.217836 127.322551 636.370305 126.47502 
C 635.522775 125.62749 634.373115 125.151285 633.174526 125.151285 
C 631.975936 125.151285 630.826277 125.62749 629.978746 126.47502 
C 629.131215 127.322551 628.655011 128.472211 628.655011 129.6708 
C 628.655011 130.869389 629.131215 132.019049 629.978746 132.86658 
C 630.826277 133.71411 631.975936 134.190315 633.174526 134.190315 
z
" style="fill:#6fa4ff;stroke:#6fa4ff;stroke-linejoin:miter;stroke-width:1.5;"/>
   </g>
   <g id="patch_43">
    <path clip-path="url(#p61d159adbb)" d="M 633.174526 232.924335 
C 635.971234 232.924335 638.653773 231.813191 640.631345 229.835619 
C 642.608917 227.858048 643.720061 225.175509 643.720061 222.3788 
C 643.720061 219.582091 642.608917 216.899552 640.631345 214.921981 
C 638.653773 212.944409 635.971234 211.833265 633.174526 211.833265 
C 630.377817 211.833265 627.695278 212.944409 625.717706 214.921981 
C 623.740135 216.899552 622.628991 219.582091 622.628991 222.3788 
C 622.628991 225.175509 623.740135 227.858048 625.717706 229.835619 
C 627.695278 231.813191 630.377817 232.924335 633.174526 232.924335 
z
" style="fill:#6fa4ff;stroke:#6fa4ff;stroke-linejoin:miter;stroke-width:2;"/>
   </g>
   <g id="patch_44">
    <path clip-path="url(#p61d159adbb)" d="M 710.817476 330.15185 
L 740.947576 330.15185 
L 740.947576 300.02175 
L 710.817476 300.02175 
z
" style="fill:#05bab6;stroke:#05bab6;stroke-linejoin:miter;stroke-width:1.5;"/>
   </g>
   <g id="patch_45">
    <path clip-path="url(#p61d159adbb)" d="M 710.817476 283.79785 
L 740.947576 283.79785 
L 740.947576 253.66775 
L 710.817476 253.66775 
z
" style="fill:#05bab6;stroke:#05bab6;stroke-linejoin:miter;stroke-width:1.5;"/>
   </g>
   <g id="patch_46">
    <path clip-path="url(#p61d159adbb)" d="M 772.236526 319.606315 
C 773.435115 319.606315 774.584775 319.13011 775.432305 318.28258 
C 776.279836 317.435049 776.756041 316.285389 776.756041 315.0868 
C 776.756041 313.888211 776.279836 312.738551 775.432305 311.89102 
C 774.584775 311.04349 773.435115 310.567285 772.236526 310.567285 
C 771.037936 310.567285 769.888277 311.04349 769.040746 311.89102 
C 768.193215 312.738551 767.717011 313.888211 767.717011 315.0868 
C 767.717011 316.285389 768.193215 317.435049 769.040746 318.28258 
C 769.888277 319.13011 771.037936 319.606315 772.236526 319.606315 
z
" style="fill:#bb8bff;stroke:#bb8bff;stroke-linejoin:miter;stroke-width:1.5;"/>
   </g>
   <g id="patch_47">
    <path clip-path="url(#p61d159adbb)" d="M 753.657842 191.08985 
L 790.815209 191.08985 
L 790.815209 68.25175 
L 753.657842 68.25175 
z
" style="fill:#bb8bff;stroke:#bb8bff;stroke-linejoin:miter;stroke-width:1.5;"/>
   </g>
   <g id="patch_48">
    <path clip-path="url(#p61d159adbb)" d="M 818.590526 273.252315 
C 819.789115 273.252315 820.938775 272.77611 821.786305 271.92858 
C 822.633836 271.081049 823.110041 269.931389 823.110041 268.7328 
C 823.110041 267.534211 822.633836 266.384551 821.786305 265.53702 
C 820.938775 264.68949 819.789115 264.213285 818.590526 264.213285 
C 817.391936 264.213285 816.242277 264.68949 815.394746 265.53702 
C 814.547215 266.384551 814.071011 267.534211 814.071011 268.7328 
C 814.071011 269.931389 814.547215 271.081049 815.394746 271.92858 
C 816.242277 272.77611 817.391936 273.252315 818.590526 273.252315 
z
" style="fill:#bb8bff;stroke:#bb8bff;stroke-linejoin:miter;stroke-width:1.5;"/>
   </g>
   <g id="patch_49">
    <path clip-path="url(#p61d159adbb)" d="M 800.011842 237.44385 
L 837.169209 237.44385 
L 837.169209 114.60575 
L 800.011842 114.60575 
z
" style="fill:#bb8bff;stroke:#bb8bff;stroke-linejoin:miter;stroke-width:1.5;"/>
   </g>
   <g id="patch_50">
    <path clip-path="url(#p61d159adbb)" d="M 803.525476 330.15185 
L 833.655576 330.15185 
L 833.655576 300.02175 
L 803.525476 300.02175 
z
" style="fill:#05bab6;stroke:#05bab6;stroke-linejoin:miter;stroke-width:1.5;"/>
   </g>
   <g id="patch_51">
    <path clip-path="url(#p61d159adbb)" d="M 849.879476 283.79785 
L 880.009576 283.79785 
L 880.009576 253.66775 
L 849.879476 253.66775 
z
" style="fill:#05bab6;stroke:#05bab6;stroke-linejoin:miter;stroke-width:1.5;"/>
   </g>
   <g id="patch_52">
    <path clip-path="url(#p61d159adbb)" d="M 957.652526 273.252315 
C 958.851115 273.252315 960.000775 272.77611 960.848305 271.92858 
C 961.695836 271.081049 962.172041 269.931389 962.172041 268.7328 
C 962.172041 267.534211 961.695836 266.384551 960.848305 265.53702 
C 960.000775 264.68949 958.851115 264.213285 957.652526 264.213285 
C 956.453936 264.213285 955.304277 264.68949 954.456746 265.53702 
C 953.609215 266.384551 953.133011 267.534211 953.133011 268.7328 
C 953.133011 269.931389 953.609215 271.081049 954.456746 271.92858 
C 955.304277 272.77611 956.453936 273.252315 957.652526 273.252315 
z
" style="fill:#bb8bff;stroke:#bb8bff;stroke-linejoin:miter;stroke-width:1.5;"/>
   </g>
   <g id="patch_53">
    <path clip-path="url(#p61d159adbb)" d="M 957.652526 319.606315 
C 958.851115 319.606315 960.000775 319.13011 960.848305 318.28258 
C 961.695836 317.435049 962.172041 316.285389 962.172041 315.0868 
C 962.172041 313.888211 961.695836 312.738551 960.848305 311.89102 
C 960.000775 311.04349 958.851115 310.567285 957.652526 310.567285 
C 956.453936 310.567285 955.304277 311.04349 954.456746 311.89102 
C 953.609215 312.738551 953.133011 313.888211 953.133011 315.0868 
C 953.133011 316.285389 953.609215 317.435049 954.456746 318.28258 
C 955.304277 319.13011 956.453936 319.606315 957.652526 319.606315 
z
" style="fill:#bb8bff;stroke:#bb8bff;stroke-linejoin:miter;stroke-width:1.5;"/>
   </g>
   <g id="patch_54">
    <path clip-path="url(#p61d159adbb)" d="M 939.073842 191.08985 
L 976.231209 191.08985 
L 976.231209 68.25175 
L 939.073842 68.25175 
z
" style="fill:#bb8bff;stroke:#bb8bff;stroke-linejoin:miter;stroke-width:1.5;"/>
   </g>
   <g id="patch_55">
    <path clip-path="url(#p61d159adbb)" d="M 1004.006526 180.544315 
C 1005.205115 180.544315 1006.354775 180.06811 1007.202305 179.22058 
C 1008.049836 178.373049 1008.526041 177.223389 1008.526041 176.0248 
C 1008.526041 174.826211 1008.049836 173.676551 1007.202305 172.82902 
C 1006.354775 171.98149 1005.205115 171.505285 1004.006526 171.505285 
C 1002.807936 171.505285 1001.658277 171.98149 1000.810746 172.82902 
C 999.963215 173.676551 999.487011 174.826211 999.487011 176.0248 
C 999.487011 177.223389 999.963215 178.373049 1000.810746 179.22058 
C 1001.658277 180.06811 1002.807936 180.544315 1004.006526 180.544315 
z
" style="fill:#6fa4ff;stroke:#6fa4ff;stroke-linejoin:miter;stroke-width:1.5;"/>
   </g>
   <g id="patch_56">
    <path clip-path="url(#p61d159adbb)" d="M 1004.006526 93.862335 
C 1006.803234 93.862335 1009.485773 92.751191 1011.463345 90.773619 
C 1013.440917 88.796048 1014.552061 86.113509 1014.552061 83.3168 
C 1014.552061 80.520091 1013.440917 77.837552 1011.463345 75.859981 
C 1009.485773 73.882409 1006.803234 72.771265 1004.006526 72.771265 
C 1001.209817 72.771265 998.527278 73.882409 996.549706 75.859981 
C 994.572135 77.837552 993.460991 80.520091 993.460991 83.3168 
C 993.460991 86.113509 994.572135 88.796048 996.549706 90.773619 
C 998.527278 92.751191 1001.209817 93.862335 1004.006526 93.862335 
z
" style="fill:#6fa4ff;stroke:#6fa4ff;stroke-linejoin:miter;stroke-width:2;"/>
   </g>
   <g id="patch_57">
    <path clip-path="url(#p61d159adbb)" d="M 1035.295476 98.38185 
L 1065.425576 98.38185 
L 1065.425576 68.25175 
L 1035.295476 68.25175 
z
" style="fill:#05bab6;stroke:#05bab6;stroke-linejoin:miter;stroke-width:1.5;"/>
   </g>
   <g id="patch_58">
    <path clip-path="url(#p61d159adbb)" d="M 1096.714526 87.836315 
C 1097.913115 87.836315 1099.062775 87.36011 1099.910305 86.51258 
C 1100.757836 85.665049 1101.234041 84.515389 1101.234041 83.3168 
C 1101.234041 82.118211 1100.757836 80.968551 1099.910305 80.12102 
C 1099.062775 79.27349 1097.913115 78.797285 1096.714526 78.797285 
C 1095.515936 78.797285 1094.366277 79.27349 1093.518746 80.12102 
C 1092.671215 80.968551 1092.195011 82.118211 1092.195011 83.3168 
C 1092.195011 84.515389 1092.671215 85.665049 1093.518746 86.51258 
C 1094.366277 87.36011 1095.515936 87.836315 1096.714526 87.836315 
z
" style="fill:#bb8bff;stroke:#bb8bff;stroke-linejoin:miter;stroke-width:1.5;"/>
   </g>
   <g id="patch_59">
    <path clip-path="url(#p61d159adbb)" d="M 1096.714526 273.252315 
C 1097.913115 273.252315 1099.062775 272.77611 1099.910305 271.92858 
C 1100.757836 271.081049 1101.234041 269.931389 1101.234041 268.7328 
C 1101.234041 267.534211 1100.757836 266.384551 1099.910305 265.53702 
C 1099.062775 264.68949 1097.913115 264.213285 1096.714526 264.213285 
C 1095.515936 264.213285 1094.366277 264.68949 1093.518746 265.53702 
C 1092.671215 266.384551 1092.195011 267.534211 1092.195011 268.7328 
C 1092.195011 269.931389 1092.671215 271.081049 1093.518746 271.92858 
C 1094.366277 272.77611 1095.515936 273.252315 1096.714526 273.252315 
z
" style="fill:#bb8bff;stroke:#bb8bff;stroke-linejoin:miter;stroke-width:1.5;"/>
   </g>
   <g id="patch_60">
    <path clip-path="url(#p61d159adbb)" d="M 1096.714526 319.606315 
C 1097.913115 319.606315 1099.062775 319.13011 1099.910305 318.28258 
C 1100.757836 317.435049 1101.234041 316.285389 1101.234041 315.0868 
C 1101.234041 313.888211 1100.757836 312.738551 1099.910305 311.89102 
C 1099.062775 311.04349 1097.913115 310.567285 1096.714526 310.567285 
C 1095.515936 310.567285 1094.366277 311.04349 1093.518746 311.89102 
C 1092.671215 312.738551 1092.195011 313.888211 1092.195011 315.0868 
C 1092.195011 316.285389 1092.671215 317.435049 1093.518746 318.28258 
C 1094.366277 319.13011 1095.515936 319.606315 1096.714526 319.606315 
z
" style="fill:#bb8bff;stroke:#bb8bff;stroke-linejoin:miter;stroke-width:1.5;"/>
   </g>
   <g id="patch_61">
    <path clip-path="url(#p61d159adbb)" d="M 1096.714526 232.924335 
C 1099.511234 232.924335 1102.193773 231.813191 1104.171345 229.835619 
C 1106.148917 227.858048 1107.260061 225.175509 1107.260061 222.3788 
C 1107.260061 219.582091 1106.148917 216.899552 1104.171345 214.921981 
C 1102.193773 212.944409 1099.511234 211.833265 1096.714526 211.833265 
C 1093.917817 211.833265 1091.235278 212.944409 1089.257706 214.921981 
C 1087.280135 216.899552 1086.168991 219.582091 1086.168991 222.3788 
C 1086.168991 225.175509 1087.280135 227.858048 1089.257706 229.835619 
C 1091.235278 231.813191 1093.917817 232.924335 1096.714526 232.924335 
z
" style="fill:#bb8bff;stroke:#bb8bff;stroke-linejoin:miter;stroke-width:2;"/>
   </g>
   <g id="patch_62">
    <path clip-path="url(#p61d159adbb)" d="M 1128.003476 98.38185 
L 1158.133576 98.38185 
L 1158.133576 68.25175 
L 1128.003476 68.25175 
z
" style="fill:#05bab6;stroke:#05bab6;stroke-linejoin:miter;stroke-width:1.5;"/>
   </g>
   <g id="patch_63">
    <path clip-path="url(#p61d159adbb)" d="M 1189.422526 180.544315 
C 1190.621115 180.544315 1191.770775 180.06811 1192.618305 179.22058 
C 1193.465836 178.373049 1193.942041 177.223389 1193.942041 176.0248 
C 1193.942041 174.826211 1193.465836 173.676551 1192.618305 172.82902 
C 1191.770775 171.98149 1190.621115 171.505285 1189.422526 171.505285 
C 1188.223936 171.505285 1187.074277 171.98149 1186.226746 172.82902 
C 1185.379215 173.676551 1184.903011 174.826211 1184.903011 176.0248 
C 1184.903011 177.223389 1185.379215 178.373049 1186.226746 179.22058 
C 1187.074277 180.06811 1188.223936 180.544315 1189.422526 180.544315 
z
" style="fill:#6fa4ff;stroke:#6fa4ff;stroke-linejoin:miter;stroke-width:1.5;"/>
   </g>
   <g id="patch_64">
    <path clip-path="url(#p61d159adbb)" d="M 1189.422526 93.862335 
C 1192.219234 93.862335 1194.901773 92.751191 1196.879345 90.773619 
C 1198.856917 88.796048 1199.968061 86.113509 1199.968061 83.3168 
C 1199.968061 80.520091 1198.856917 77.837552 1196.879345 75.859981 
C 1194.901773 73.882409 1192.219234 72.771265 1189.422526 72.771265 
C 1186.625817 72.771265 1183.943278 73.882409 1181.965706 75.859981 
C 1179.988135 77.837552 1178.876991 80.520091 1178.876991 83.3168 
C 1178.876991 86.113509 1179.988135 88.796048 1181.965706 90.773619 
C 1183.943278 92.751191 1186.625817 93.862335 1189.422526 93.862335 
z
" style="fill:#6fa4ff;stroke:#6fa4ff;stroke-linejoin:miter;stroke-width:2;"/>
   </g>
   <g id="line2d_19">
    <path clip-path="url(#p61d159adbb)" d="M 308.696526 60.1398 
L 308.696526 106.4938 
" style="fill:none;stroke:#000000;stroke-dasharray:3.7,1.6;stroke-dashoffset:0;"/>
   </g>
   <g id="line2d_20">
    <path clip-path="url(#p61d159adbb)" d="M 308.696526 106.4938 
L 308.696526 152.8478 
" style="fill:none;stroke:#000000;stroke-dasharray:3.7,1.6;stroke-dashoffset:0;"/>
   </g>
   <g id="line2d_21">
    <path clip-path="url(#p61d159adbb)" d="M 308.696526 152.8478 
L 308.696526 199.2018 
" style="fill:none;stroke:#000000;stroke-dasharray:3.7,1.6;stroke-dashoffset:0;"/>
   </g>
   <g id="line2d_22">
    <path clip-path="url(#p61d159adbb)" d="M 308.696526 199.2018 
L 308.696526 245.5558 
" style="fill:none;stroke:#000000;stroke-dasharray:3.7,1.6;stroke-dashoffset:0;"/>
   </g>
   <g id="line2d_23">
    <path clip-path="url(#p61d159adbb)" d="M 308.696526 245.5558 
L 308.696526 291.9098 
" style="fill:none;stroke:#000000;stroke-dasharray:3.7,1.6;stroke-dashoffset:0;"/>
   </g>
   <g id="line2d_24">
    <path clip-path="url(#p61d159adbb)" d="M 308.696526 291.9098 
L 308.696526 338.2638 
" style="fill:none;stroke:#000000;stroke-dasharray:3.7,1.6;stroke-dashoffset:0;"/>
   </g>
   <g id="line2d_25">
    <path clip-path="url(#p61d159adbb)" d="M 355.050526 182.05082 
L 355.050526 169.99878 
" style="fill:none;stroke:#ffffff;stroke-linecap:square;stroke-width:2;"/>
   </g>
   <g id="line2d_26">
    <path clip-path="url(#p61d159adbb)" d="M 349.024506 176.0248 
L 361.076546 176.0248 
" style="fill:none;stroke:#ffffff;stroke-linecap:square;stroke-width:2;"/>
   </g>
   <g id="line2d_27">
    <path clip-path="url(#p61d159adbb)" d="M 401.404526 228.40482 
L 401.404526 216.35278 
" style="fill:none;stroke:#ffffff;stroke-linecap:square;stroke-width:2;"/>
   </g>
   <g id="line2d_28">
    <path clip-path="url(#p61d159adbb)" d="M 395.378506 222.3788 
L 407.430546 222.3788 
" style="fill:none;stroke:#ffffff;stroke-linecap:square;stroke-width:2;"/>
   </g>
   <g id="line2d_29">
    <path clip-path="url(#p61d159adbb)" d="M 494.112526 274.75882 
L 494.112526 262.70678 
" style="fill:none;stroke:#ffffff;stroke-linecap:square;stroke-width:2;"/>
   </g>
   <g id="line2d_30">
    <path clip-path="url(#p61d159adbb)" d="M 488.086506 268.7328 
L 500.138546 268.7328 
" style="fill:none;stroke:#ffffff;stroke-linecap:square;stroke-width:2;"/>
   </g>
   <g id="line2d_31">
    <path clip-path="url(#p61d159adbb)" d="M 540.466526 321.11282 
L 540.466526 309.06078 
" style="fill:none;stroke:#ffffff;stroke-linecap:square;stroke-width:2;"/>
   </g>
   <g id="line2d_32">
    <path clip-path="url(#p61d159adbb)" d="M 534.440506 315.0868 
L 546.492546 315.0868 
" style="fill:none;stroke:#ffffff;stroke-linecap:square;stroke-width:2;"/>
   </g>
   <g id="line2d_33">
    <path clip-path="url(#p61d159adbb)" d="M 586.820526 182.05082 
L 586.820526 169.99878 
" style="fill:none;stroke:#ffffff;stroke-linecap:square;stroke-width:2;"/>
   </g>
   <g id="line2d_34">
    <path clip-path="url(#p61d159adbb)" d="M 580.794506 176.0248 
L 592.846546 176.0248 
" style="fill:none;stroke:#ffffff;stroke-linecap:square;stroke-width:2;"/>
   </g>
   <g id="line2d_35">
    <path clip-path="url(#p61d159adbb)" d="M 633.174526 228.40482 
L 633.174526 216.35278 
" style="fill:none;stroke:#ffffff;stroke-linecap:square;stroke-width:2;"/>
   </g>
   <g id="line2d_36">
    <path clip-path="url(#p61d159adbb)" d="M 627.148506 222.3788 
L 639.200546 222.3788 
" style="fill:none;stroke:#ffffff;stroke-linecap:square;stroke-width:2;"/>
   </g>
   <g id="line2d_37">
    <path clip-path="url(#p61d159adbb)" d="M 679.528526 60.1398 
L 679.528526 106.4938 
" style="fill:none;stroke:#000000;stroke-dasharray:3.7,1.6;stroke-dashoffset:0;"/>
   </g>
   <g id="line2d_38">
    <path clip-path="url(#p61d159adbb)" d="M 679.528526 106.4938 
L 679.528526 152.8478 
" style="fill:none;stroke:#000000;stroke-dasharray:3.7,1.6;stroke-dashoffset:0;"/>
   </g>
   <g id="line2d_39">
    <path clip-path="url(#p61d159adbb)" d="M 679.528526 152.8478 
L 679.528526 199.2018 
" style="fill:none;stroke:#000000;stroke-dasharray:3.7,1.6;stroke-dashoffset:0;"/>
   </g>
   <g id="line2d_40">
    <path clip-path="url(#p61d159adbb)" d="M 679.528526 199.2018 
L 679.528526 245.5558 
" style="fill:none;stroke:#000000;stroke-dasharray:3.7,1.6;stroke-dashoffset:0;"/>
   </g>
   <g id="line2d_41">
    <path clip-path="url(#p61d159adbb)" d="M 679.528526 245.5558 
L 679.528526 291.9098 
" style="fill:none;stroke:#000000;stroke-dasharray:3.7,1.6;stroke-dashoffset:0;"/>
   </g>
   <g id="line2d_42">
    <path clip-path="url(#p61d159adbb)" d="M 679.528526 291.9098 
L 679.528526 338.2638 
" style="fill:none;stroke:#000000;stroke-dasharray:3.7,1.6;stroke-dashoffset:0;"/>
   </g>
   <g id="line2d_43">
    <path clip-path="url(#p61d159adbb)" d="M 911.298526 60.1398 
L 911.298526 106.4938 
" style="fill:none;stroke:#000000;stroke-dasharray:3.7,1.6;stroke-dashoffset:0;"/>
   </g>
   <g id="line2d_44">
    <path clip-path="url(#p61d159adbb)" d="M 911.298526 106.4938 
L 911.298526 152.8478 
" style="fill:none;stroke:#000000;stroke-dasharray:3.7,1.6;stroke-dashoffset:0;"/>
   </g>
   <g id="line2d_45">
    <path clip-path="url(#p61d159adbb)" d="M 911.298526 152.8478 
L 911.298526 199.2018 
" style="fill:none;stroke:#000000;stroke-dasharray:3.7,1.6;stroke-dashoffset:0;"/>
   </g>
   <g id="line2d_46">
    <path clip-path="url(#p61d159adbb)" d="M 911.298526 199.2018 
L 911.298526 245.5558 
" style="fill:none;stroke:#000000;stroke-dasharray:3.7,1.6;stroke-dashoffset:0;"/>
   </g>
   <g id="line2d_47">
    <path clip-path="url(#p61d159adbb)" d="M 911.298526 245.5558 
L 911.298526 291.9098 
" style="fill:none;stroke:#000000;stroke-dasharray:3.7,1.6;stroke-dashoffset:0;"/>
   </g>
   <g id="line2d_48">
    <path clip-path="url(#p61d159adbb)" d="M 911.298526 291.9098 
L 911.298526 338.2638 
" style="fill:none;stroke:#000000;stroke-dasharray:3.7,1.6;stroke-dashoffset:0;"/>
   </g>
   <g id="line2d_49">
    <path clip-path="url(#p61d159adbb)" d="M 1004.006526 89.34282 
L 1004.006526 77.29078 
" style="fill:none;stroke:#ffffff;stroke-linecap:square;stroke-width:2;"/>
   </g>
   <g id="line2d_50">
    <path clip-path="url(#p61d159adbb)" d="M 997.980506 83.3168 
L 1010.032546 83.3168 
" style="fill:none;stroke:#ffffff;stroke-linecap:square;stroke-width:2;"/>
   </g>
   <g id="line2d_51">
    <path clip-path="url(#p61d159adbb)" d="M 1096.714526 228.40482 
L 1096.714526 216.35278 
" style="fill:none;stroke:#ffffff;stroke-linecap:square;stroke-width:2;"/>
   </g>
   <g id="line2d_52">
    <path clip-path="url(#p61d159adbb)" d="M 1090.688506 222.3788 
L 1102.740546 222.3788 
" style="fill:none;stroke:#ffffff;stroke-linecap:square;stroke-width:2;"/>
   </g>
   <g id="line2d_53">
    <path clip-path="url(#p61d159adbb)" d="M 1189.422526 89.34282 
L 1189.422526 77.29078 
" style="fill:none;stroke:#ffffff;stroke-linecap:square;stroke-width:2;"/>
   </g>
   <g id="line2d_54">
    <path clip-path="url(#p61d159adbb)" d="M 1183.396506 83.3168 
L 1195.448546 83.3168 
" style="fill:none;stroke:#ffffff;stroke-linecap:square;stroke-width:2;"/>
   </g>
   <g id="line2d_55">
    <path clip-path="url(#p61d159adbb)" d="M 1235.776526 60.1398 
L 1235.776526 106.4938 
" style="fill:none;stroke:#000000;stroke-dasharray:3.7,1.6;stroke-dashoffset:0;"/>
   </g>
   <g id="line2d_56">
    <path clip-path="url(#p61d159adbb)" d="M 1235.776526 106.4938 
L 1235.776526 152.8478 
" style="fill:none;stroke:#000000;stroke-dasharray:3.7,1.6;stroke-dashoffset:0;"/>
   </g>
   <g id="line2d_57">
    <path clip-path="url(#p61d159adbb)" d="M 1235.776526 152.8478 
L 1235.776526 199.2018 
" style="fill:none;stroke:#000000;stroke-dasharray:3.7,1.6;stroke-dashoffset:0;"/>
   </g>
   <g id="line2d_58">
    <path clip-path="url(#p61d159adbb)" d="M 1235.776526 199.2018 
L 1235.776526 245.5558 
" style="fill:none;stroke:#000000;stroke-dasharray:3.7,1.6;stroke-dashoffset:0;"/>
   </g>
   <g id="line2d_59">
    <path clip-path="url(#p61d159adbb)" d="M 1235.776526 245.5558 
L 1235.776526 291.9098 
" style="fill:none;stroke:#000000;stroke-dasharray:3.7,1.6;stroke-dashoffset:0;"/>
   </g>
   <g id="line2d_60">
    <path clip-path="url(#p61d159adbb)" d="M 1235.776526 291.9098 
L 1235.776526 338.2638 
" style="fill:none;stroke:#000000;stroke-dasharray:3.7,1.6;stroke-dashoffset:0;"/>
   </g>
   <g id="text_2">
    <g clip-path="url(#p61d159adbb)">
     <!-- H -->
     <g transform="translate(257.454322 272.319987)scale(0.13 -0.13)">
      <defs>
       <path d="M 628 4666 
L 1259 4666 
L 1259 2753 
L 3553 2753 
L 3553 4666 
L 4184 4666 
L 4184 0 
L 3553 0 
L 3553 2222 
L 1259 2222 
L 1259 0 
L 628 0 
L 628 4666 
z
" id="DejaVuSans-48" transform="scale(0.015625)"/>
      </defs>
      <use xlink:href="#DejaVuSans-48"/>
     </g>
    </g>
   </g>
   <g id="text_3">
    <g clip-path="url(#p61d159adbb)">
     <!-- H -->
     <g transform="translate(257.454322 318.673987)scale(0.13 -0.13)">
      <use xlink:href="#DejaVuSans-48"/>
     </g>
    </g>
   </g>
   <g id="text_4">
    <g clip-path="url(#p61d159adbb)">
     <!-- X -->
     <g transform="translate(443.306026 179.611987)scale(0.13 -0.13)">
      <defs>
       <path d="M 403 4666 
L 1081 4666 
L 2241 2931 
L 3406 4666 
L 4084 4666 
L 2584 2425 
L 4184 0 
L 3506 0 
L 2194 1984 
L 872 0 
L 191 0 
L 1856 2491 
L 403 4666 
z
" id="DejaVuSans-58" transform="scale(0.015625)"/>
      </defs>
      <use xlink:href="#DejaVuSans-58"/>
     </g>
    </g>
   </g>
   <g id="text_5">
    <g clip-path="url(#p61d159adbb)">
     <!-- X -->
     <g transform="translate(443.306026 225.965987)scale(0.13 -0.13)">
      <use xlink:href="#DejaVuSans-58"/>
     </g>
    </g>
   </g>
   <g id="text_6">
    <g clip-path="url(#p61d159adbb)">
     <!-- X -->
     <g transform="translate(536.014026 179.611987)scale(0.13 -0.13)">
      <use xlink:href="#DejaVuSans-58"/>
     </g>
    </g>
   </g>
   <g id="text_7">
    <g clip-path="url(#p61d159adbb)">
     <!-- X -->
     <g transform="translate(582.368026 225.965987)scale(0.13 -0.13)">
      <use xlink:href="#DejaVuSans-58"/>
     </g>
    </g>
   </g>
   <g id="text_8">
    <g clip-path="url(#p61d159adbb)">
     <!-- X -->
     <g transform="translate(721.430026 318.673987)scale(0.13 -0.13)">
      <use xlink:href="#DejaVuSans-58"/>
     </g>
    </g>
   </g>
   <g id="text_9">
    <g clip-path="url(#p61d159adbb)">
     <!-- X -->
     <g transform="translate(721.430026 272.319987)scale(0.13 -0.13)">
      <use xlink:href="#DejaVuSans-58"/>
     </g>
    </g>
   </g>
   <g id="text_10">
    <g clip-path="url(#p61d159adbb)">
     <!-- 0 -->
     <g transform="translate(756.902622 86.903987)scale(0.13 -0.13)">
      <defs>
       <path d="M 2034 4250 
Q 1547 4250 1301 3770 
Q 1056 3291 1056 2328 
Q 1056 1369 1301 889 
Q 1547 409 2034 409 
Q 2525 409 2770 889 
Q 3016 1369 3016 2328 
Q 3016 3291 2770 3770 
Q 2525 4250 2034 4250 
z
M 2034 4750 
Q 2819 4750 3233 4129 
Q 3647 3509 3647 2328 
Q 3647 1150 3233 529 
Q 2819 -91 2034 -91 
Q 1250 -91 836 529 
Q 422 1150 422 2328 
Q 422 3509 836 4129 
Q 1250 4750 2034 4750 
z
" id="DejaVuSans-30" transform="scale(0.015625)"/>
      </defs>
      <use xlink:href="#DejaVuSans-30"/>
     </g>
    </g>
   </g>
   <g id="text_11">
    <g clip-path="url(#p61d159adbb)">
     <!-- 1 -->
     <g transform="translate(756.902622 179.611987)scale(0.13 -0.13)">
      <defs>
       <path d="M 794 531 
L 1825 531 
L 1825 4091 
L 703 3866 
L 703 4441 
L 1819 4666 
L 2450 4666 
L 2450 531 
L 3481 531 
L 3481 0 
L 794 0 
L 794 531 
z
" id="DejaVuSans-31" transform="scale(0.015625)"/>
      </defs>
      <use xlink:href="#DejaVuSans-31"/>
     </g>
    </g>
   </g>
   <g id="text_12">
    <g clip-path="url(#p61d159adbb)">
     <!-- SUP -->
     <g transform="translate(764.532497 133.257987)scale(0.13 -0.13)">
      <defs>
       <path d="M 3425 4513 
L 3425 3897 
Q 3066 4069 2747 4153 
Q 2428 4238 2131 4238 
Q 1616 4238 1336 4038 
Q 1056 3838 1056 3469 
Q 1056 3159 1242 3001 
Q 1428 2844 1947 2747 
L 2328 2669 
Q 3034 2534 3370 2195 
Q 3706 1856 3706 1288 
Q 3706 609 3251 259 
Q 2797 -91 1919 -91 
Q 1588 -91 1214 -16 
Q 841 59 441 206 
L 441 856 
Q 825 641 1194 531 
Q 1563 422 1919 422 
Q 2459 422 2753 634 
Q 3047 847 3047 1241 
Q 3047 1584 2836 1778 
Q 2625 1972 2144 2069 
L 1759 2144 
Q 1053 2284 737 2584 
Q 422 2884 422 3419 
Q 422 4038 858 4394 
Q 1294 4750 2059 4750 
Q 2388 4750 2728 4690 
Q 3069 4631 3425 4513 
z
" id="DejaVuSans-53" transform="scale(0.015625)"/>
       <path d="M 556 4666 
L 1191 4666 
L 1191 1831 
Q 1191 1081 1462 751 
Q 1734 422 2344 422 
Q 2950 422 3222 751 
Q 3494 1081 3494 1831 
L 3494 4666 
L 4128 4666 
L 4128 1753 
Q 4128 841 3676 375 
Q 3225 -91 2344 -91 
Q 1459 -91 1007 375 
Q 556 841 556 1753 
L 556 4666 
z
" id="DejaVuSans-55" transform="scale(0.015625)"/>
       <path d="M 1259 4147 
L 1259 2394 
L 2053 2394 
Q 2494 2394 2734 2622 
Q 2975 2850 2975 3272 
Q 2975 3691 2734 3919 
Q 2494 4147 2053 4147 
L 1259 4147 
z
M 628 4666 
L 2053 4666 
Q 2838 4666 3239 4311 
Q 3641 3956 3641 3272 
Q 3641 2581 3239 2228 
Q 2838 1875 2053 1875 
L 1259 1875 
L 1259 0 
L 628 0 
L 628 4666 
z
" id="DejaVuSans-50" transform="scale(0.015625)"/>
      </defs>
      <use xlink:href="#DejaVuSans-53"/>
      <use x="63.476562" xlink:href="#DejaVuSans-55"/>
      <use x="136.669922" xlink:href="#DejaVuSans-50"/>
     </g>
    </g>
   </g>
   <g id="text_13">
    <g clip-path="url(#p61d159adbb)">
     <!-- 0 -->
     <g transform="translate(803.256622 133.257987)scale(0.13 -0.13)">
      <use xlink:href="#DejaVuSans-30"/>
     </g>
    </g>
   </g>
   <g id="text_14">
    <g clip-path="url(#p61d159adbb)">
     <!-- 1 -->
     <g transform="translate(803.256622 225.965987)scale(0.13 -0.13)">
      <use xlink:href="#DejaVuSans-31"/>
     </g>
    </g>
   </g>
   <g id="text_15">
    <g clip-path="url(#p61d159adbb)">
     <!-- SUP -->
     <g transform="translate(810.886497 179.611987)scale(0.13 -0.13)">
      <use xlink:href="#DejaVuSans-53"/>
      <use x="63.476562" xlink:href="#DejaVuSans-55"/>
      <use x="136.669922" xlink:href="#DejaVuSans-50"/>
     </g>
    </g>
   </g>
   <g id="text_16">
    <g clip-path="url(#p61d159adbb)">
     <!-- X -->
     <g transform="translate(814.138026 318.673987)scale(0.13 -0.13)">
      <use xlink:href="#DejaVuSans-58"/>
     </g>
    </g>
   </g>
   <g id="text_17">
    <g clip-path="url(#p61d159adbb)">
     <!-- X -->
     <g transform="translate(860.492026 272.319987)scale(0.13 -0.13)">
      <use xlink:href="#DejaVuSans-58"/>
     </g>
    </g>
   </g>
   <g id="text_18">
    <g clip-path="url(#p61d159adbb)">
     <!-- 0 -->
     <g transform="translate(942.318622 86.903987)scale(0.13 -0.13)">
      <use xlink:href="#DejaVuSans-30"/>
     </g>
    </g>
   </g>
   <g id="text_19">
    <g clip-path="url(#p61d159adbb)">
     <!-- 1 -->
     <g transform="translate(942.318622 179.611987)scale(0.13 -0.13)">
      <use xlink:href="#DejaVuSans-31"/>
     </g>
    </g>
   </g>
   <g id="text_20">
    <g clip-path="url(#p61d159adbb)">
     <!-- SUP -->
     <g transform="translate(949.948497 133.257987)scale(0.13 -0.13)">
      <use xlink:href="#DejaVuSans-53"/>
      <use x="63.476562" xlink:href="#DejaVuSans-55"/>
      <use x="136.669922" xlink:href="#DejaVuSans-50"/>
     </g>
    </g>
   </g>
   <g id="text_21">
    <g clip-path="url(#p61d159adbb)">
     <!-- X -->
     <g transform="translate(1045.908026 86.903987)scale(0.13 -0.13)">
      <use xlink:href="#DejaVuSans-58"/>
     </g>
    </g>
   </g>
   <g id="text_22">
    <g clip-path="url(#p61d159adbb)">
     <!-- X -->
     <g transform="translate(1138.616026 86.903987)scale(0.13 -0.13)">
      <use xlink:href="#DejaVuSans-58"/>
     </g>
    </g>
   </g>
   <g id="text_23">
    <g clip-path="url(#p61d159adbb)">
     <!-- ${a}_{0}$ -->
     <g transform="translate(210.328066 87.800784)scale(0.1625 -0.1625)">
      <defs>
       <path d="M 3438 1997 
L 3047 0 
L 2472 0 
L 2578 531 
Q 2325 219 2001 64 
Q 1678 -91 1281 -91 
Q 834 -91 548 182 
Q 263 456 263 884 
Q 263 1497 752 1853 
Q 1241 2209 2100 2209 
L 2900 2209 
L 2931 2363 
Q 2938 2388 2941 2417 
Q 2944 2447 2944 2509 
Q 2944 2788 2717 2942 
Q 2491 3097 2081 3097 
Q 1800 3097 1504 3025 
Q 1209 2953 897 2809 
L 997 3341 
Q 1322 3463 1633 3523 
Q 1944 3584 2234 3584 
Q 2853 3584 3176 3315 
Q 3500 3047 3500 2534 
Q 3500 2431 3484 2292 
Q 3469 2153 3438 1997 
z
M 2816 1759 
L 2241 1759 
Q 1534 1759 1195 1570 
Q 856 1381 856 984 
Q 856 709 1029 553 
Q 1203 397 1509 397 
Q 1978 397 2328 733 
Q 2678 1069 2791 1631 
L 2816 1759 
z
" id="DejaVuSans-Oblique-61" transform="scale(0.015625)"/>
      </defs>
      <use xlink:href="#DejaVuSans-Oblique-61"/>
      <use transform="translate(61.279297 -16.40625)scale(0.7)" xlink:href="#DejaVuSans-30"/>
     </g>
    </g>
   </g>
   <g id="text_24">
    <g clip-path="url(#p61d159adbb)">
     <!-- ${a}_{1}$ -->
     <g transform="translate(210.328066 134.154784)scale(0.1625 -0.1625)">
      <use xlink:href="#DejaVuSans-Oblique-61"/>
      <use transform="translate(61.279297 -16.40625)scale(0.7)" xlink:href="#DejaVuSans-31"/>
     </g>
    </g>
   </g>
   <g id="text_25">
    <g clip-path="url(#p61d159adbb)">
     <!-- ${b}_{0}$ -->
     <g transform="translate(210.003066 180.508784)scale(0.1625 -0.1625)">
      <defs>
       <path d="M 3169 2138 
Q 3169 2591 2961 2847 
Q 2753 3103 2388 3103 
Q 2122 3103 1889 2973 
Q 1656 2844 1484 2597 
Q 1303 2338 1198 1995 
Q 1094 1653 1094 1313 
Q 1094 881 1298 636 
Q 1503 391 1863 391 
Q 2134 391 2365 517 
Q 2597 644 2772 891 
Q 2950 1147 3059 1487 
Q 3169 1828 3169 2138 
z
M 1381 2969 
Q 1594 3256 1914 3420 
Q 2234 3584 2584 3584 
Q 3122 3584 3439 3221 
Q 3756 2859 3756 2241 
Q 3756 1734 3570 1259 
Q 3384 784 3041 416 
Q 2816 172 2522 40 
Q 2228 -91 1906 -91 
Q 1566 -91 1316 65 
Q 1066 222 909 531 
L 806 0 
L 231 0 
L 1178 4863 
L 1753 4863 
L 1381 2969 
z
" id="DejaVuSans-Oblique-62" transform="scale(0.015625)"/>
      </defs>
      <use transform="translate(0 0.015625)" xlink:href="#DejaVuSans-Oblique-62"/>
      <use transform="translate(63.476562 -16.390625)scale(0.7)" xlink:href="#DejaVuSans-30"/>
     </g>
    </g>
   </g>
   <g id="text_26">
    <g clip-path="url(#p61d159adbb)">
     <!-- ${b}_{1}$ -->
     <g transform="translate(210.003066 226.862784)scale(0.1625 -0.1625)">
      <use transform="translate(0 0.015625)" xlink:href="#DejaVuSans-Oblique-62"/>
      <use transform="translate(63.476562 -16.390625)scale(0.7)" xlink:href="#DejaVuSans-31"/>
     </g>
    </g>
   </g>
   <g id="text_27">
    <g clip-path="url(#p61d159adbb)">
     <!-- ${j}_{0}$ -->
     <g transform="translate(215.690566 273.20155)scale(0.1625 -0.1625)">
      <defs>
       <path d="M 928 3500 
L 1503 3500 
L 813 -63 
L 809 -78 
Q 694 -675 544 -897 
Q 403 -1106 132 -1218 
Q -138 -1331 -506 -1331 
L -722 -1331 
L -628 -844 
L -481 -844 
Q -144 -844 -1 -703 
Q 141 -563 238 -63 
L 928 3500 
z
M 1197 4863 
L 1772 4863 
L 1631 4134 
L 1056 4134 
L 1197 4863 
z
" id="DejaVuSans-Oblique-6a" transform="scale(0.015625)"/>
      </defs>
      <use transform="translate(0 0.015625)" xlink:href="#DejaVuSans-Oblique-6a"/>
      <use transform="translate(27.783203 -16.390625)scale(0.7)" xlink:href="#DejaVuSans-30"/>
     </g>
    </g>
   </g>
   <g id="text_28">
    <g clip-path="url(#p61d159adbb)">
     <!-- ${j}_{1}$ -->
     <g transform="translate(215.690566 319.55555)scale(0.1625 -0.1625)">
      <use transform="translate(0 0.015625)" xlink:href="#DejaVuSans-Oblique-6a"/>
      <use transform="translate(27.783203 -16.390625)scale(0.7)" xlink:href="#DejaVuSans-31"/>
     </g>
    </g>
   </g>
  </g>
 </g>
 <defs>
  <clipPath id="p61d159adbb">
   <rect height="296.6656" width="1086.467997" x="179.902168" y="46.2336"/>
  </clipPath>
 </defs>
</svg>
