<?xml version="1.0" encoding="utf-8" standalone="no"?>
<!DOCTYPE svg PUBLIC "-//W3C//DTD SVG 1.1//EN"
  "http://www.w3.org/Graphics/SVG/1.1/DTD/svg11.dtd">
<svg height="385.28pt" version="1.1" viewBox="0 0 1049.797399 385.28" width="1049.797399pt" xmlns="http://www.w3.org/2000/svg" xmlns:xlink="http://www.w3.org/1999/xlink">
 <metadata>
  <rdf:RDF xmlns:cc="http://creativecommons.org/ns#" xmlns:dc="http://purl.org/dc/elements/1.1/" xmlns:rdf="http://www.w3.org/1999/02/22-rdf-syntax-ns#">
   <cc:Work>
    <dc:type rdf:resource="http://purl.org/dc/dcmitype/StillImage"/>
    <dc:date>2021-09-15T12:49:54.277734</dc:date>
    <dc:format>image/svg+xml</dc:format>
    <dc:creator>
     <cc:Agent>
      <dc:title>Matplotlib v3.4.3, https://matplotlib.org/</dc:title>
     </cc:Agent>
    </dc:creator>
   </cc:Work>
  </rdf:RDF>
 </metadata>
 <defs>
  <style type="text/css">*{stroke-linecap:butt;stroke-linejoin:round;}</style>
 </defs>
 <g id="figure_1">
  <g id="patch_1">
   <path d="M 0 385.28 
L 1049.797399 385.28 
L 1049.797399 0 
L 0 0 
z
" style="fill:#ffffff;"/>
  </g>
  <g id="axes_1">
   <g id="line2d_1">
    <path clip-path="url(#pd3d69c9c06)" d="M 191.258366 83.3168 
L 937.557766 83.3168 
" style="fill:none;stroke:#000000;stroke-linecap:square;stroke-width:2;"/>
   </g>
   <g id="line2d_2">
    <path clip-path="url(#pd3d69c9c06)" d="M 191.258366 129.6708 
L 937.557766 129.6708 
" style="fill:none;stroke:#000000;stroke-linecap:square;stroke-width:2;"/>
   </g>
   <g id="line2d_3">
    <path clip-path="url(#pd3d69c9c06)" d="M 191.258366 176.0248 
L 937.557766 176.0248 
" style="fill:none;stroke:#000000;stroke-linecap:square;stroke-width:2;"/>
   </g>
   <g id="line2d_4">
    <path clip-path="url(#pd3d69c9c06)" d="M 191.258366 222.3788 
L 937.557766 222.3788 
" style="fill:none;stroke:#000000;stroke-linecap:square;stroke-width:2;"/>
   </g>
   <g id="line2d_5">
    <path clip-path="url(#pd3d69c9c06)" d="M 191.258366 268.7328 
L 937.557766 268.7328 
" style="fill:none;stroke:#000000;stroke-linecap:square;stroke-width:2;"/>
   </g>
   <g id="line2d_6">
    <path clip-path="url(#pd3d69c9c06)" d="M 191.258366 315.0868 
L 937.557766 315.0868 
" style="fill:none;stroke:#000000;stroke-linecap:square;stroke-width:2;"/>
   </g>
   <g id="line2d_7">
    <path clip-path="url(#pd3d69c9c06)" d="M 216.289526 176.0248 
L 216.289526 83.3168 
" style="fill:none;stroke:#6fa4ff;stroke-linecap:square;stroke-width:2;"/>
   </g>
   <g id="line2d_8">
    <path clip-path="url(#pd3d69c9c06)" d="M 262.643526 222.3788 
L 262.643526 129.6708 
" style="fill:none;stroke:#6fa4ff;stroke-linecap:square;stroke-width:2;"/>
   </g>
   <g id="line2d_9">
    <path clip-path="url(#pd3d69c9c06)" d="M 355.351526 268.7328 
L 355.351526 176.0248 
" style="fill:none;stroke:#6fa4ff;stroke-linecap:square;stroke-width:2;"/>
   </g>
   <g id="line2d_10">
    <path clip-path="url(#pd3d69c9c06)" d="M 401.705526 315.0868 
L 401.705526 222.3788 
" style="fill:none;stroke:#6fa4ff;stroke-linecap:square;stroke-width:2;"/>
   </g>
   <g id="line2d_11">
    <path clip-path="url(#pd3d69c9c06)" d="M 448.059526 176.0248 
L 448.059526 83.3168 
" style="fill:none;stroke:#6fa4ff;stroke-linecap:square;stroke-width:2;"/>
   </g>
   <g id="line2d_12">
    <path clip-path="url(#pd3d69c9c06)" d="M 494.413526 222.3788 
L 494.413526 129.6708 
" style="fill:none;stroke:#6fa4ff;stroke-linecap:square;stroke-width:2;"/>
   </g>
   <g id="line2d_13">
    <path clip-path="url(#pd3d69c9c06)" d="M 540.767526 315.0868 
L 540.767526 83.3168 
" style="fill:none;stroke:#bb8bff;stroke-linecap:square;stroke-width:2;"/>
   </g>
   <g id="line2d_14">
    <path clip-path="url(#pd3d69c9c06)" d="M 587.121526 268.7328 
L 587.121526 129.6708 
" style="fill:none;stroke:#bb8bff;stroke-linecap:square;stroke-width:2;"/>
   </g>
   <g id="line2d_15">
    <path clip-path="url(#pd3d69c9c06)" d="M 679.829526 315.0868 
L 679.829526 83.3168 
" style="fill:none;stroke:#bb8bff;stroke-linecap:square;stroke-width:2;"/>
   </g>
   <g id="line2d_16">
    <path clip-path="url(#pd3d69c9c06)" d="M 726.183526 176.0248 
L 726.183526 83.3168 
" style="fill:none;stroke:#6fa4ff;stroke-linecap:square;stroke-width:2;"/>
   </g>
   <g id="line2d_17">
    <path clip-path="url(#pd3d69c9c06)" d="M 818.891526 315.0868 
L 818.891526 83.3168 
" style="fill:none;stroke:#bb8bff;stroke-linecap:square;stroke-width:2;"/>
   </g>
   <g id="line2d_18">
    <path clip-path="url(#pd3d69c9c06)" d="M 911.599526 176.0248 
L 911.599526 83.3168 
" style="fill:none;stroke:#6fa4ff;stroke-linecap:square;stroke-width:2;"/>
   </g>
   <g id="text_1">
    <!-- Circuit diagram of 2-bit superposition circuit; 'SUP_2' gate -->
    <g transform="translate(364.256479 40.2336)scale(0.12 -0.12)">
     <defs>
      <path d="M 4122 4306 
L 4122 3641 
Q 3803 3938 3442 4084 
Q 3081 4231 2675 4231 
Q 1875 4231 1450 3742 
Q 1025 3253 1025 2328 
Q 1025 1406 1450 917 
Q 1875 428 2675 428 
Q 3081 428 3442 575 
Q 3803 722 4122 1019 
L 4122 359 
Q 3791 134 3420 21 
Q 3050 -91 2638 -91 
Q 1578 -91 968 557 
Q 359 1206 359 2328 
Q 359 3453 968 4101 
Q 1578 4750 2638 4750 
Q 3056 4750 3426 4639 
Q 3797 4528 4122 4306 
z
" id="DejaVuSans-43" transform="scale(0.015625)"/>
      <path d="M 603 3500 
L 1178 3500 
L 1178 0 
L 603 0 
L 603 3500 
z
M 603 4863 
L 1178 4863 
L 1178 4134 
L 603 4134 
L 603 4863 
z
" id="DejaVuSans-69" transform="scale(0.015625)"/>
      <path d="M 2631 2963 
Q 2534 3019 2420 3045 
Q 2306 3072 2169 3072 
Q 1681 3072 1420 2755 
Q 1159 2438 1159 1844 
L 1159 0 
L 581 0 
L 581 3500 
L 1159 3500 
L 1159 2956 
Q 1341 3275 1631 3429 
Q 1922 3584 2338 3584 
Q 2397 3584 2469 3576 
Q 2541 3569 2628 3553 
L 2631 2963 
z
" id="DejaVuSans-72" transform="scale(0.015625)"/>
      <path d="M 3122 3366 
L 3122 2828 
Q 2878 2963 2633 3030 
Q 2388 3097 2138 3097 
Q 1578 3097 1268 2742 
Q 959 2388 959 1747 
Q 959 1106 1268 751 
Q 1578 397 2138 397 
Q 2388 397 2633 464 
Q 2878 531 3122 666 
L 3122 134 
Q 2881 22 2623 -34 
Q 2366 -91 2075 -91 
Q 1284 -91 818 406 
Q 353 903 353 1747 
Q 353 2603 823 3093 
Q 1294 3584 2113 3584 
Q 2378 3584 2631 3529 
Q 2884 3475 3122 3366 
z
" id="DejaVuSans-63" transform="scale(0.015625)"/>
      <path d="M 544 1381 
L 544 3500 
L 1119 3500 
L 1119 1403 
Q 1119 906 1312 657 
Q 1506 409 1894 409 
Q 2359 409 2629 706 
Q 2900 1003 2900 1516 
L 2900 3500 
L 3475 3500 
L 3475 0 
L 2900 0 
L 2900 538 
Q 2691 219 2414 64 
Q 2138 -91 1772 -91 
Q 1169 -91 856 284 
Q 544 659 544 1381 
z
M 1991 3584 
L 1991 3584 
z
" id="DejaVuSans-75" transform="scale(0.015625)"/>
      <path d="M 1172 4494 
L 1172 3500 
L 2356 3500 
L 2356 3053 
L 1172 3053 
L 1172 1153 
Q 1172 725 1289 603 
Q 1406 481 1766 481 
L 2356 481 
L 2356 0 
L 1766 0 
Q 1100 0 847 248 
Q 594 497 594 1153 
L 594 3053 
L 172 3053 
L 172 3500 
L 594 3500 
L 594 4494 
L 1172 4494 
z
" id="DejaVuSans-74" transform="scale(0.015625)"/>
      <path id="DejaVuSans-20" transform="scale(0.015625)"/>
      <path d="M 2906 2969 
L 2906 4863 
L 3481 4863 
L 3481 0 
L 2906 0 
L 2906 525 
Q 2725 213 2448 61 
Q 2172 -91 1784 -91 
Q 1150 -91 751 415 
Q 353 922 353 1747 
Q 353 2572 751 3078 
Q 1150 3584 1784 3584 
Q 2172 3584 2448 3432 
Q 2725 3281 2906 2969 
z
M 947 1747 
Q 947 1113 1208 752 
Q 1469 391 1925 391 
Q 2381 391 2643 752 
Q 2906 1113 2906 1747 
Q 2906 2381 2643 2742 
Q 2381 3103 1925 3103 
Q 1469 3103 1208 2742 
Q 947 2381 947 1747 
z
" id="DejaVuSans-64" transform="scale(0.015625)"/>
      <path d="M 2194 1759 
Q 1497 1759 1228 1600 
Q 959 1441 959 1056 
Q 959 750 1161 570 
Q 1363 391 1709 391 
Q 2188 391 2477 730 
Q 2766 1069 2766 1631 
L 2766 1759 
L 2194 1759 
z
M 3341 1997 
L 3341 0 
L 2766 0 
L 2766 531 
Q 2569 213 2275 61 
Q 1981 -91 1556 -91 
Q 1019 -91 701 211 
Q 384 513 384 1019 
Q 384 1609 779 1909 
Q 1175 2209 1959 2209 
L 2766 2209 
L 2766 2266 
Q 2766 2663 2505 2880 
Q 2244 3097 1772 3097 
Q 1472 3097 1187 3025 
Q 903 2953 641 2809 
L 641 3341 
Q 956 3463 1253 3523 
Q 1550 3584 1831 3584 
Q 2591 3584 2966 3190 
Q 3341 2797 3341 1997 
z
" id="DejaVuSans-61" transform="scale(0.015625)"/>
      <path d="M 2906 1791 
Q 2906 2416 2648 2759 
Q 2391 3103 1925 3103 
Q 1463 3103 1205 2759 
Q 947 2416 947 1791 
Q 947 1169 1205 825 
Q 1463 481 1925 481 
Q 2391 481 2648 825 
Q 2906 1169 2906 1791 
z
M 3481 434 
Q 3481 -459 3084 -895 
Q 2688 -1331 1869 -1331 
Q 1566 -1331 1297 -1286 
Q 1028 -1241 775 -1147 
L 775 -588 
Q 1028 -725 1275 -790 
Q 1522 -856 1778 -856 
Q 2344 -856 2625 -561 
Q 2906 -266 2906 331 
L 2906 616 
Q 2728 306 2450 153 
Q 2172 0 1784 0 
Q 1141 0 747 490 
Q 353 981 353 1791 
Q 353 2603 747 3093 
Q 1141 3584 1784 3584 
Q 2172 3584 2450 3431 
Q 2728 3278 2906 2969 
L 2906 3500 
L 3481 3500 
L 3481 434 
z
" id="DejaVuSans-67" transform="scale(0.015625)"/>
      <path d="M 3328 2828 
Q 3544 3216 3844 3400 
Q 4144 3584 4550 3584 
Q 5097 3584 5394 3201 
Q 5691 2819 5691 2113 
L 5691 0 
L 5113 0 
L 5113 2094 
Q 5113 2597 4934 2840 
Q 4756 3084 4391 3084 
Q 3944 3084 3684 2787 
Q 3425 2491 3425 1978 
L 3425 0 
L 2847 0 
L 2847 2094 
Q 2847 2600 2669 2842 
Q 2491 3084 2119 3084 
Q 1678 3084 1418 2786 
Q 1159 2488 1159 1978 
L 1159 0 
L 581 0 
L 581 3500 
L 1159 3500 
L 1159 2956 
Q 1356 3278 1631 3431 
Q 1906 3584 2284 3584 
Q 2666 3584 2933 3390 
Q 3200 3197 3328 2828 
z
" id="DejaVuSans-6d" transform="scale(0.015625)"/>
      <path d="M 1959 3097 
Q 1497 3097 1228 2736 
Q 959 2375 959 1747 
Q 959 1119 1226 758 
Q 1494 397 1959 397 
Q 2419 397 2687 759 
Q 2956 1122 2956 1747 
Q 2956 2369 2687 2733 
Q 2419 3097 1959 3097 
z
M 1959 3584 
Q 2709 3584 3137 3096 
Q 3566 2609 3566 1747 
Q 3566 888 3137 398 
Q 2709 -91 1959 -91 
Q 1206 -91 779 398 
Q 353 888 353 1747 
Q 353 2609 779 3096 
Q 1206 3584 1959 3584 
z
" id="DejaVuSans-6f" transform="scale(0.015625)"/>
      <path d="M 2375 4863 
L 2375 4384 
L 1825 4384 
Q 1516 4384 1395 4259 
Q 1275 4134 1275 3809 
L 1275 3500 
L 2222 3500 
L 2222 3053 
L 1275 3053 
L 1275 0 
L 697 0 
L 697 3053 
L 147 3053 
L 147 3500 
L 697 3500 
L 697 3744 
Q 697 4328 969 4595 
Q 1241 4863 1831 4863 
L 2375 4863 
z
" id="DejaVuSans-66" transform="scale(0.015625)"/>
      <path d="M 1228 531 
L 3431 531 
L 3431 0 
L 469 0 
L 469 531 
Q 828 903 1448 1529 
Q 2069 2156 2228 2338 
Q 2531 2678 2651 2914 
Q 2772 3150 2772 3378 
Q 2772 3750 2511 3984 
Q 2250 4219 1831 4219 
Q 1534 4219 1204 4116 
Q 875 4013 500 3803 
L 500 4441 
Q 881 4594 1212 4672 
Q 1544 4750 1819 4750 
Q 2544 4750 2975 4387 
Q 3406 4025 3406 3419 
Q 3406 3131 3298 2873 
Q 3191 2616 2906 2266 
Q 2828 2175 2409 1742 
Q 1991 1309 1228 531 
z
" id="DejaVuSans-32" transform="scale(0.015625)"/>
      <path d="M 313 2009 
L 1997 2009 
L 1997 1497 
L 313 1497 
L 313 2009 
z
" id="DejaVuSans-2d" transform="scale(0.015625)"/>
      <path d="M 3116 1747 
Q 3116 2381 2855 2742 
Q 2594 3103 2138 3103 
Q 1681 3103 1420 2742 
Q 1159 2381 1159 1747 
Q 1159 1113 1420 752 
Q 1681 391 2138 391 
Q 2594 391 2855 752 
Q 3116 1113 3116 1747 
z
M 1159 2969 
Q 1341 3281 1617 3432 
Q 1894 3584 2278 3584 
Q 2916 3584 3314 3078 
Q 3713 2572 3713 1747 
Q 3713 922 3314 415 
Q 2916 -91 2278 -91 
Q 1894 -91 1617 61 
Q 1341 213 1159 525 
L 1159 0 
L 581 0 
L 581 4863 
L 1159 4863 
L 1159 2969 
z
" id="DejaVuSans-62" transform="scale(0.015625)"/>
      <path d="M 2834 3397 
L 2834 2853 
Q 2591 2978 2328 3040 
Q 2066 3103 1784 3103 
Q 1356 3103 1142 2972 
Q 928 2841 928 2578 
Q 928 2378 1081 2264 
Q 1234 2150 1697 2047 
L 1894 2003 
Q 2506 1872 2764 1633 
Q 3022 1394 3022 966 
Q 3022 478 2636 193 
Q 2250 -91 1575 -91 
Q 1294 -91 989 -36 
Q 684 19 347 128 
L 347 722 
Q 666 556 975 473 
Q 1284 391 1588 391 
Q 1994 391 2212 530 
Q 2431 669 2431 922 
Q 2431 1156 2273 1281 
Q 2116 1406 1581 1522 
L 1381 1569 
Q 847 1681 609 1914 
Q 372 2147 372 2553 
Q 372 3047 722 3315 
Q 1072 3584 1716 3584 
Q 2034 3584 2315 3537 
Q 2597 3491 2834 3397 
z
" id="DejaVuSans-73" transform="scale(0.015625)"/>
      <path d="M 1159 525 
L 1159 -1331 
L 581 -1331 
L 581 3500 
L 1159 3500 
L 1159 2969 
Q 1341 3281 1617 3432 
Q 1894 3584 2278 3584 
Q 2916 3584 3314 3078 
Q 3713 2572 3713 1747 
Q 3713 922 3314 415 
Q 2916 -91 2278 -91 
Q 1894 -91 1617 61 
Q 1341 213 1159 525 
z
M 3116 1747 
Q 3116 2381 2855 2742 
Q 2594 3103 2138 3103 
Q 1681 3103 1420 2742 
Q 1159 2381 1159 1747 
Q 1159 1113 1420 752 
Q 1681 391 2138 391 
Q 2594 391 2855 752 
Q 3116 1113 3116 1747 
z
" id="DejaVuSans-70" transform="scale(0.015625)"/>
      <path d="M 3597 1894 
L 3597 1613 
L 953 1613 
Q 991 1019 1311 708 
Q 1631 397 2203 397 
Q 2534 397 2845 478 
Q 3156 559 3463 722 
L 3463 178 
Q 3153 47 2828 -22 
Q 2503 -91 2169 -91 
Q 1331 -91 842 396 
Q 353 884 353 1716 
Q 353 2575 817 3079 
Q 1281 3584 2069 3584 
Q 2775 3584 3186 3129 
Q 3597 2675 3597 1894 
z
M 3022 2063 
Q 3016 2534 2758 2815 
Q 2500 3097 2075 3097 
Q 1594 3097 1305 2825 
Q 1016 2553 972 2059 
L 3022 2063 
z
" id="DejaVuSans-65" transform="scale(0.015625)"/>
      <path d="M 3513 2113 
L 3513 0 
L 2938 0 
L 2938 2094 
Q 2938 2591 2744 2837 
Q 2550 3084 2163 3084 
Q 1697 3084 1428 2787 
Q 1159 2491 1159 1978 
L 1159 0 
L 581 0 
L 581 3500 
L 1159 3500 
L 1159 2956 
Q 1366 3272 1645 3428 
Q 1925 3584 2291 3584 
Q 2894 3584 3203 3211 
Q 3513 2838 3513 2113 
z
" id="DejaVuSans-6e" transform="scale(0.015625)"/>
      <path d="M 750 3309 
L 1409 3309 
L 1409 2516 
L 750 2516 
L 750 3309 
z
M 750 794 
L 1409 794 
L 1409 256 
L 897 -744 
L 494 -744 
L 750 256 
L 750 794 
z
" id="DejaVuSans-3b" transform="scale(0.015625)"/>
      <path d="M 1147 4666 
L 1147 2931 
L 616 2931 
L 616 4666 
L 1147 4666 
z
" id="DejaVuSans-27" transform="scale(0.015625)"/>
      <path d="M 3425 4513 
L 3425 3897 
Q 3066 4069 2747 4153 
Q 2428 4238 2131 4238 
Q 1616 4238 1336 4038 
Q 1056 3838 1056 3469 
Q 1056 3159 1242 3001 
Q 1428 2844 1947 2747 
L 2328 2669 
Q 3034 2534 3370 2195 
Q 3706 1856 3706 1288 
Q 3706 609 3251 259 
Q 2797 -91 1919 -91 
Q 1588 -91 1214 -16 
Q 841 59 441 206 
L 441 856 
Q 825 641 1194 531 
Q 1563 422 1919 422 
Q 2459 422 2753 634 
Q 3047 847 3047 1241 
Q 3047 1584 2836 1778 
Q 2625 1972 2144 2069 
L 1759 2144 
Q 1053 2284 737 2584 
Q 422 2884 422 3419 
Q 422 4038 858 4394 
Q 1294 4750 2059 4750 
Q 2388 4750 2728 4690 
Q 3069 4631 3425 4513 
z
" id="DejaVuSans-53" transform="scale(0.015625)"/>
      <path d="M 556 4666 
L 1191 4666 
L 1191 1831 
Q 1191 1081 1462 751 
Q 1734 422 2344 422 
Q 2950 422 3222 751 
Q 3494 1081 3494 1831 
L 3494 4666 
L 4128 4666 
L 4128 1753 
Q 4128 841 3676 375 
Q 3225 -91 2344 -91 
Q 1459 -91 1007 375 
Q 556 841 556 1753 
L 556 4666 
z
" id="DejaVuSans-55" transform="scale(0.015625)"/>
      <path d="M 1259 4147 
L 1259 2394 
L 2053 2394 
Q 2494 2394 2734 2622 
Q 2975 2850 2975 3272 
Q 2975 3691 2734 3919 
Q 2494 4147 2053 4147 
L 1259 4147 
z
M 628 4666 
L 2053 4666 
Q 2838 4666 3239 4311 
Q 3641 3956 3641 3272 
Q 3641 2581 3239 2228 
Q 2838 1875 2053 1875 
L 1259 1875 
L 1259 0 
L 628 0 
L 628 4666 
z
" id="DejaVuSans-50" transform="scale(0.015625)"/>
      <path d="M 3263 -1063 
L 3263 -1509 
L -63 -1509 
L -63 -1063 
L 3263 -1063 
z
" id="DejaVuSans-5f" transform="scale(0.015625)"/>
     </defs>
     <use xlink:href="#DejaVuSans-43"/>
     <use x="69.824219" xlink:href="#DejaVuSans-69"/>
     <use x="97.607422" xlink:href="#DejaVuSans-72"/>
     <use x="136.470703" xlink:href="#DejaVuSans-63"/>
     <use x="191.451172" xlink:href="#DejaVuSans-75"/>
     <use x="254.830078" xlink:href="#DejaVuSans-69"/>
     <use x="282.613281" xlink:href="#DejaVuSans-74"/>
     <use x="321.822266" xlink:href="#DejaVuSans-20"/>
     <use x="353.609375" xlink:href="#DejaVuSans-64"/>
     <use x="417.085938" xlink:href="#DejaVuSans-69"/>
     <use x="444.869141" xlink:href="#DejaVuSans-61"/>
     <use x="506.148438" xlink:href="#DejaVuSans-67"/>
     <use x="569.625" xlink:href="#DejaVuSans-72"/>
     <use x="610.738281" xlink:href="#DejaVuSans-61"/>
     <use x="672.017578" xlink:href="#DejaVuSans-6d"/>
     <use x="769.429688" xlink:href="#DejaVuSans-20"/>
     <use x="801.216797" xlink:href="#DejaVuSans-6f"/>
     <use x="862.398438" xlink:href="#DejaVuSans-66"/>
     <use x="897.603516" xlink:href="#DejaVuSans-20"/>
     <use x="929.390625" xlink:href="#DejaVuSans-32"/>
     <use x="993.013672" xlink:href="#DejaVuSans-2d"/>
     <use x="1029.097656" xlink:href="#DejaVuSans-62"/>
     <use x="1092.574219" xlink:href="#DejaVuSans-69"/>
     <use x="1120.357422" xlink:href="#DejaVuSans-74"/>
     <use x="1159.566406" xlink:href="#DejaVuSans-20"/>
     <use x="1191.353516" xlink:href="#DejaVuSans-73"/>
     <use x="1243.453125" xlink:href="#DejaVuSans-75"/>
     <use x="1306.832031" xlink:href="#DejaVuSans-70"/>
     <use x="1370.308594" xlink:href="#DejaVuSans-65"/>
     <use x="1431.832031" xlink:href="#DejaVuSans-72"/>
     <use x="1472.945312" xlink:href="#DejaVuSans-70"/>
     <use x="1536.421875" xlink:href="#DejaVuSans-6f"/>
     <use x="1597.603516" xlink:href="#DejaVuSans-73"/>
     <use x="1649.703125" xlink:href="#DejaVuSans-69"/>
     <use x="1677.486328" xlink:href="#DejaVuSans-74"/>
     <use x="1716.695312" xlink:href="#DejaVuSans-69"/>
     <use x="1744.478516" xlink:href="#DejaVuSans-6f"/>
     <use x="1805.660156" xlink:href="#DejaVuSans-6e"/>
     <use x="1869.039062" xlink:href="#DejaVuSans-20"/>
     <use x="1900.826172" xlink:href="#DejaVuSans-63"/>
     <use x="1955.806641" xlink:href="#DejaVuSans-69"/>
     <use x="1983.589844" xlink:href="#DejaVuSans-72"/>
     <use x="2022.453125" xlink:href="#DejaVuSans-63"/>
     <use x="2077.433594" xlink:href="#DejaVuSans-75"/>
     <use x="2140.8125" xlink:href="#DejaVuSans-69"/>
     <use x="2168.595703" xlink:href="#DejaVuSans-74"/>
     <use x="2207.804688" xlink:href="#DejaVuSans-3b"/>
     <use x="2241.496094" xlink:href="#DejaVuSans-20"/>
     <use x="2273.283203" xlink:href="#DejaVuSans-27"/>
     <use x="2300.773438" xlink:href="#DejaVuSans-53"/>
     <use x="2364.25" xlink:href="#DejaVuSans-55"/>
     <use x="2437.443359" xlink:href="#DejaVuSans-50"/>
     <use x="2497.746094" xlink:href="#DejaVuSans-5f"/>
     <use x="2547.746094" xlink:href="#DejaVuSans-32"/>
     <use x="2611.369141" xlink:href="#DejaVuSans-27"/>
     <use x="2638.859375" xlink:href="#DejaVuSans-20"/>
     <use x="2670.646484" xlink:href="#DejaVuSans-67"/>
     <use x="2734.123047" xlink:href="#DejaVuSans-61"/>
     <use x="2795.402344" xlink:href="#DejaVuSans-74"/>
     <use x="2834.611328" xlink:href="#DejaVuSans-65"/>
    </g>
   </g>
   <g id="patch_2">
    <path clip-path="url(#pd3d69c9c06)" d="M 201.224476 283.79785 
L 231.354576 283.79785 
L 231.354576 253.66775 
L 201.224476 253.66775 
z
" style="fill:#6fa4ff;stroke:#6fa4ff;stroke-linejoin:miter;stroke-width:1.5;"/>
   </g>
   <g id="patch_3">
    <path clip-path="url(#pd3d69c9c06)" d="M 201.224476 330.15185 
L 231.354576 330.15185 
L 231.354576 300.02175 
L 201.224476 300.02175 
z
" style="fill:#6fa4ff;stroke:#6fa4ff;stroke-linejoin:miter;stroke-width:1.5;"/>
   </g>
   <g id="patch_4">
    <path clip-path="url(#pd3d69c9c06)" d="M 216.289526 87.836315 
C 217.488115 87.836315 218.637775 87.36011 219.485305 86.51258 
C 220.332836 85.665049 220.809041 84.515389 220.809041 83.3168 
C 220.809041 82.118211 220.332836 80.968551 219.485305 80.12102 
C 218.637775 79.27349 217.488115 78.797285 216.289526 78.797285 
C 215.090936 78.797285 213.941277 79.27349 213.093746 80.12102 
C 212.246215 80.968551 211.770011 82.118211 211.770011 83.3168 
C 211.770011 84.515389 212.246215 85.665049 213.093746 86.51258 
C 213.941277 87.36011 215.090936 87.836315 216.289526 87.836315 
z
" style="fill:#6fa4ff;stroke:#6fa4ff;stroke-linejoin:miter;stroke-width:1.5;"/>
   </g>
   <g id="patch_5">
    <path clip-path="url(#pd3d69c9c06)" d="M 216.289526 186.570335 
C 219.086234 186.570335 221.768773 185.459191 223.746345 183.481619 
C 225.723917 181.504048 226.835061 178.821509 226.835061 176.0248 
C 226.835061 173.228091 225.723917 170.545552 223.746345 168.567981 
C 221.768773 166.590409 219.086234 165.479265 216.289526 165.479265 
C 213.492817 165.479265 210.810278 166.590409 208.832706 168.567981 
C 206.855135 170.545552 205.743991 173.228091 205.743991 176.0248 
C 205.743991 178.821509 206.855135 181.504048 208.832706 183.481619 
C 210.810278 185.459191 213.492817 186.570335 216.289526 186.570335 
z
" style="fill:#6fa4ff;stroke:#6fa4ff;stroke-linejoin:miter;stroke-width:2;"/>
   </g>
   <g id="patch_6">
    <path clip-path="url(#pd3d69c9c06)" d="M 262.643526 134.190315 
C 263.842115 134.190315 264.991775 133.71411 265.839305 132.86658 
C 266.686836 132.019049 267.163041 130.869389 267.163041 129.6708 
C 267.163041 128.472211 266.686836 127.322551 265.839305 126.47502 
C 264.991775 125.62749 263.842115 125.151285 262.643526 125.151285 
C 261.444936 125.151285 260.295277 125.62749 259.447746 126.47502 
C 258.600215 127.322551 258.124011 128.472211 258.124011 129.6708 
C 258.124011 130.869389 258.600215 132.019049 259.447746 132.86658 
C 260.295277 133.71411 261.444936 134.190315 262.643526 134.190315 
z
" style="fill:#6fa4ff;stroke:#6fa4ff;stroke-linejoin:miter;stroke-width:1.5;"/>
   </g>
   <g id="patch_7">
    <path clip-path="url(#pd3d69c9c06)" d="M 262.643526 232.924335 
C 265.440234 232.924335 268.122773 231.813191 270.100345 229.835619 
C 272.077917 227.858048 273.189061 225.175509 273.189061 222.3788 
C 273.189061 219.582091 272.077917 216.899552 270.100345 214.921981 
C 268.122773 212.944409 265.440234 211.833265 262.643526 211.833265 
C 259.846817 211.833265 257.164278 212.944409 255.186706 214.921981 
C 253.209135 216.899552 252.097991 219.582091 252.097991 222.3788 
C 252.097991 225.175509 253.209135 227.858048 255.186706 229.835619 
C 257.164278 231.813191 259.846817 232.924335 262.643526 232.924335 
z
" style="fill:#6fa4ff;stroke:#6fa4ff;stroke-linejoin:miter;stroke-width:2;"/>
   </g>
   <g id="patch_8">
    <path clip-path="url(#pd3d69c9c06)" d="M 293.932476 191.08985 
L 324.062576 191.08985 
L 324.062576 160.95975 
L 293.932476 160.95975 
z
" style="fill:#05bab6;stroke:#05bab6;stroke-linejoin:miter;stroke-width:1.5;"/>
   </g>
   <g id="patch_9">
    <path clip-path="url(#pd3d69c9c06)" d="M 293.932476 237.44385 
L 324.062576 237.44385 
L 324.062576 207.31375 
L 293.932476 207.31375 
z
" style="fill:#05bab6;stroke:#05bab6;stroke-linejoin:miter;stroke-width:1.5;"/>
   </g>
   <g id="patch_10">
    <path clip-path="url(#pd3d69c9c06)" d="M 355.351526 180.544315 
C 356.550115 180.544315 357.699775 180.06811 358.547305 179.22058 
C 359.394836 178.373049 359.871041 177.223389 359.871041 176.0248 
C 359.871041 174.826211 359.394836 173.676551 358.547305 172.82902 
C 357.699775 171.98149 356.550115 171.505285 355.351526 171.505285 
C 354.152936 171.505285 353.003277 171.98149 352.155746 172.82902 
C 351.308215 173.676551 350.832011 174.826211 350.832011 176.0248 
C 350.832011 177.223389 351.308215 178.373049 352.155746 179.22058 
C 353.003277 180.06811 354.152936 180.544315 355.351526 180.544315 
z
" style="fill:#6fa4ff;stroke:#6fa4ff;stroke-linejoin:miter;stroke-width:1.5;"/>
   </g>
   <g id="patch_11">
    <path clip-path="url(#pd3d69c9c06)" d="M 355.351526 279.278335 
C 358.148234 279.278335 360.830773 278.167191 362.808345 276.189619 
C 364.785917 274.212048 365.897061 271.529509 365.897061 268.7328 
C 365.897061 265.936091 364.785917 263.253552 362.808345 261.275981 
C 360.830773 259.298409 358.148234 258.187265 355.351526 258.187265 
C 352.554817 258.187265 349.872278 259.298409 347.894706 261.275981 
C 345.917135 263.253552 344.805991 265.936091 344.805991 268.7328 
C 344.805991 271.529509 345.917135 274.212048 347.894706 276.189619 
C 349.872278 278.167191 352.554817 279.278335 355.351526 279.278335 
z
" style="fill:#6fa4ff;stroke:#6fa4ff;stroke-linejoin:miter;stroke-width:2;"/>
   </g>
   <g id="patch_12">
    <path clip-path="url(#pd3d69c9c06)" d="M 401.705526 226.898315 
C 402.904115 226.898315 404.053775 226.42211 404.901305 225.57458 
C 405.748836 224.727049 406.225041 223.577389 406.225041 222.3788 
C 406.225041 221.180211 405.748836 220.030551 404.901305 219.18302 
C 404.053775 218.33549 402.904115 217.859285 401.705526 217.859285 
C 400.506936 217.859285 399.357277 218.33549 398.509746 219.18302 
C 397.662215 220.030551 397.186011 221.180211 397.186011 222.3788 
C 397.186011 223.577389 397.662215 224.727049 398.509746 225.57458 
C 399.357277 226.42211 400.506936 226.898315 401.705526 226.898315 
z
" style="fill:#6fa4ff;stroke:#6fa4ff;stroke-linejoin:miter;stroke-width:1.5;"/>
   </g>
   <g id="patch_13">
    <path clip-path="url(#pd3d69c9c06)" d="M 401.705526 325.632335 
C 404.502234 325.632335 407.184773 324.521191 409.162345 322.543619 
C 411.139917 320.566048 412.251061 317.883509 412.251061 315.0868 
C 412.251061 312.290091 411.139917 309.607552 409.162345 307.629981 
C 407.184773 305.652409 404.502234 304.541265 401.705526 304.541265 
C 398.908817 304.541265 396.226278 305.652409 394.248706 307.629981 
C 392.271135 309.607552 391.159991 312.290091 391.159991 315.0868 
C 391.159991 317.883509 392.271135 320.566048 394.248706 322.543619 
C 396.226278 324.521191 398.908817 325.632335 401.705526 325.632335 
z
" style="fill:#6fa4ff;stroke:#6fa4ff;stroke-linejoin:miter;stroke-width:2;"/>
   </g>
   <g id="patch_14">
    <path clip-path="url(#pd3d69c9c06)" d="M 386.640476 191.08985 
L 416.770576 191.08985 
L 416.770576 160.95975 
L 386.640476 160.95975 
z
" style="fill:#05bab6;stroke:#05bab6;stroke-linejoin:miter;stroke-width:1.5;"/>
   </g>
   <g id="patch_15">
    <path clip-path="url(#pd3d69c9c06)" d="M 432.994476 237.44385 
L 463.124576 237.44385 
L 463.124576 207.31375 
L 432.994476 207.31375 
z
" style="fill:#05bab6;stroke:#05bab6;stroke-linejoin:miter;stroke-width:1.5;"/>
   </g>
   <g id="patch_16">
    <path clip-path="url(#pd3d69c9c06)" d="M 432.994476 330.15185 
L 463.124576 330.15185 
L 463.124576 300.02175 
L 432.994476 300.02175 
z
" style="fill:#05bab6;stroke:#05bab6;stroke-linejoin:miter;stroke-width:1.5;"/>
   </g>
   <g id="patch_17">
    <path clip-path="url(#pd3d69c9c06)" d="M 432.994476 283.79785 
L 463.124576 283.79785 
L 463.124576 253.66775 
L 432.994476 253.66775 
z
" style="fill:#05bab6;stroke:#05bab6;stroke-linejoin:miter;stroke-width:1.5;"/>
   </g>
   <g id="patch_18">
    <path clip-path="url(#pd3d69c9c06)" d="M 448.059526 87.836315 
C 449.258115 87.836315 450.407775 87.36011 451.255305 86.51258 
C 452.102836 85.665049 452.579041 84.515389 452.579041 83.3168 
C 452.579041 82.118211 452.102836 80.968551 451.255305 80.12102 
C 450.407775 79.27349 449.258115 78.797285 448.059526 78.797285 
C 446.860936 78.797285 445.711277 79.27349 444.863746 80.12102 
C 444.016215 80.968551 443.540011 82.118211 443.540011 83.3168 
C 443.540011 84.515389 444.016215 85.665049 444.863746 86.51258 
C 445.711277 87.36011 446.860936 87.836315 448.059526 87.836315 
z
" style="fill:#6fa4ff;stroke:#6fa4ff;stroke-linejoin:miter;stroke-width:1.5;"/>
   </g>
   <g id="patch_19">
    <path clip-path="url(#pd3d69c9c06)" d="M 448.059526 186.570335 
C 450.856234 186.570335 453.538773 185.459191 455.516345 183.481619 
C 457.493917 181.504048 458.605061 178.821509 458.605061 176.0248 
C 458.605061 173.228091 457.493917 170.545552 455.516345 168.567981 
C 453.538773 166.590409 450.856234 165.479265 448.059526 165.479265 
C 445.262817 165.479265 442.580278 166.590409 440.602706 168.567981 
C 438.625135 170.545552 437.513991 173.228091 437.513991 176.0248 
C 437.513991 178.821509 438.625135 181.504048 440.602706 183.481619 
C 442.580278 185.459191 445.262817 186.570335 448.059526 186.570335 
z
" style="fill:#6fa4ff;stroke:#6fa4ff;stroke-linejoin:miter;stroke-width:2;"/>
   </g>
   <g id="patch_20">
    <path clip-path="url(#pd3d69c9c06)" d="M 494.413526 134.190315 
C 495.612115 134.190315 496.761775 133.71411 497.609305 132.86658 
C 498.456836 132.019049 498.933041 130.869389 498.933041 129.6708 
C 498.933041 128.472211 498.456836 127.322551 497.609305 126.47502 
C 496.761775 125.62749 495.612115 125.151285 494.413526 125.151285 
C 493.214936 125.151285 492.065277 125.62749 491.217746 126.47502 
C 490.370215 127.322551 489.894011 128.472211 489.894011 129.6708 
C 489.894011 130.869389 490.370215 132.019049 491.217746 132.86658 
C 492.065277 133.71411 493.214936 134.190315 494.413526 134.190315 
z
" style="fill:#6fa4ff;stroke:#6fa4ff;stroke-linejoin:miter;stroke-width:1.5;"/>
   </g>
   <g id="patch_21">
    <path clip-path="url(#pd3d69c9c06)" d="M 494.413526 232.924335 
C 497.210234 232.924335 499.892773 231.813191 501.870345 229.835619 
C 503.847917 227.858048 504.959061 225.175509 504.959061 222.3788 
C 504.959061 219.582091 503.847917 216.899552 501.870345 214.921981 
C 499.892773 212.944409 497.210234 211.833265 494.413526 211.833265 
C 491.616817 211.833265 488.934278 212.944409 486.956706 214.921981 
C 484.979135 216.899552 483.867991 219.582091 483.867991 222.3788 
C 483.867991 225.175509 484.979135 227.858048 486.956706 229.835619 
C 488.934278 231.813191 491.616817 232.924335 494.413526 232.924335 
z
" style="fill:#6fa4ff;stroke:#6fa4ff;stroke-linejoin:miter;stroke-width:2;"/>
   </g>
   <g id="patch_22">
    <path clip-path="url(#pd3d69c9c06)" d="M 540.767526 319.606315 
C 541.966115 319.606315 543.115775 319.13011 543.963305 318.28258 
C 544.810836 317.435049 545.287041 316.285389 545.287041 315.0868 
C 545.287041 313.888211 544.810836 312.738551 543.963305 311.89102 
C 543.115775 311.04349 541.966115 310.567285 540.767526 310.567285 
C 539.568936 310.567285 538.419277 311.04349 537.571746 311.89102 
C 536.724215 312.738551 536.248011 313.888211 536.248011 315.0868 
C 536.248011 316.285389 536.724215 317.435049 537.571746 318.28258 
C 538.419277 319.13011 539.568936 319.606315 540.767526 319.606315 
z
" style="fill:#bb8bff;stroke:#bb8bff;stroke-linejoin:miter;stroke-width:1.5;"/>
   </g>
   <g id="patch_23">
    <path clip-path="url(#pd3d69c9c06)" d="M 522.188842 191.08985 
L 559.346209 191.08985 
L 559.346209 68.25175 
L 522.188842 68.25175 
z
" style="fill:#bb8bff;stroke:#bb8bff;stroke-linejoin:miter;stroke-width:1.5;"/>
   </g>
   <g id="patch_24">
    <path clip-path="url(#pd3d69c9c06)" d="M 587.121526 273.252315 
C 588.320115 273.252315 589.469775 272.77611 590.317305 271.92858 
C 591.164836 271.081049 591.641041 269.931389 591.641041 268.7328 
C 591.641041 267.534211 591.164836 266.384551 590.317305 265.53702 
C 589.469775 264.68949 588.320115 264.213285 587.121526 264.213285 
C 585.922936 264.213285 584.773277 264.68949 583.925746 265.53702 
C 583.078215 266.384551 582.602011 267.534211 582.602011 268.7328 
C 582.602011 269.931389 583.078215 271.081049 583.925746 271.92858 
C 584.773277 272.77611 585.922936 273.252315 587.121526 273.252315 
z
" style="fill:#bb8bff;stroke:#bb8bff;stroke-linejoin:miter;stroke-width:1.5;"/>
   </g>
   <g id="patch_25">
    <path clip-path="url(#pd3d69c9c06)" d="M 568.542842 237.44385 
L 605.700209 237.44385 
L 605.700209 114.60575 
L 568.542842 114.60575 
z
" style="fill:#bb8bff;stroke:#bb8bff;stroke-linejoin:miter;stroke-width:1.5;"/>
   </g>
   <g id="patch_26">
    <path clip-path="url(#pd3d69c9c06)" d="M 572.056476 330.15185 
L 602.186576 330.15185 
L 602.186576 300.02175 
L 572.056476 300.02175 
z
" style="fill:#05bab6;stroke:#05bab6;stroke-linejoin:miter;stroke-width:1.5;"/>
   </g>
   <g id="patch_27">
    <path clip-path="url(#pd3d69c9c06)" d="M 618.410476 283.79785 
L 648.540576 283.79785 
L 648.540576 253.66775 
L 618.410476 253.66775 
z
" style="fill:#05bab6;stroke:#05bab6;stroke-linejoin:miter;stroke-width:1.5;"/>
   </g>
   <g id="patch_28">
    <path clip-path="url(#pd3d69c9c06)" d="M 679.829526 273.252315 
C 681.028115 273.252315 682.177775 272.77611 683.025305 271.92858 
C 683.872836 271.081049 684.349041 269.931389 684.349041 268.7328 
C 684.349041 267.534211 683.872836 266.384551 683.025305 265.53702 
C 682.177775 264.68949 681.028115 264.213285 679.829526 264.213285 
C 678.630936 264.213285 677.481277 264.68949 676.633746 265.53702 
C 675.786215 266.384551 675.310011 267.534211 675.310011 268.7328 
C 675.310011 269.931389 675.786215 271.081049 676.633746 271.92858 
C 677.481277 272.77611 678.630936 273.252315 679.829526 273.252315 
z
" style="fill:#bb8bff;stroke:#bb8bff;stroke-linejoin:miter;stroke-width:1.5;"/>
   </g>
   <g id="patch_29">
    <path clip-path="url(#pd3d69c9c06)" d="M 679.829526 319.606315 
C 681.028115 319.606315 682.177775 319.13011 683.025305 318.28258 
C 683.872836 317.435049 684.349041 316.285389 684.349041 315.0868 
C 684.349041 313.888211 683.872836 312.738551 683.025305 311.89102 
C 682.177775 311.04349 681.028115 310.567285 679.829526 310.567285 
C 678.630936 310.567285 677.481277 311.04349 676.633746 311.89102 
C 675.786215 312.738551 675.310011 313.888211 675.310011 315.0868 
C 675.310011 316.285389 675.786215 317.435049 676.633746 318.28258 
C 677.481277 319.13011 678.630936 319.606315 679.829526 319.606315 
z
" style="fill:#bb8bff;stroke:#bb8bff;stroke-linejoin:miter;stroke-width:1.5;"/>
   </g>
   <g id="patch_30">
    <path clip-path="url(#pd3d69c9c06)" d="M 661.250842 191.08985 
L 698.408209 191.08985 
L 698.408209 68.25175 
L 661.250842 68.25175 
z
" style="fill:#bb8bff;stroke:#bb8bff;stroke-linejoin:miter;stroke-width:1.5;"/>
   </g>
   <g id="patch_31">
    <path clip-path="url(#pd3d69c9c06)" d="M 726.183526 180.544315 
C 727.382115 180.544315 728.531775 180.06811 729.379305 179.22058 
C 730.226836 178.373049 730.703041 177.223389 730.703041 176.0248 
C 730.703041 174.826211 730.226836 173.676551 729.379305 172.82902 
C 728.531775 171.98149 727.382115 171.505285 726.183526 171.505285 
C 724.984936 171.505285 723.835277 171.98149 722.987746 172.82902 
C 722.140215 173.676551 721.664011 174.826211 721.664011 176.0248 
C 721.664011 177.223389 722.140215 178.373049 722.987746 179.22058 
C 723.835277 180.06811 724.984936 180.544315 726.183526 180.544315 
z
" style="fill:#6fa4ff;stroke:#6fa4ff;stroke-linejoin:miter;stroke-width:1.5;"/>
   </g>
   <g id="patch_32">
    <path clip-path="url(#pd3d69c9c06)" d="M 726.183526 93.862335 
C 728.980234 93.862335 731.662773 92.751191 733.640345 90.773619 
C 735.617917 88.796048 736.729061 86.113509 736.729061 83.3168 
C 736.729061 80.520091 735.617917 77.837552 733.640345 75.859981 
C 731.662773 73.882409 728.980234 72.771265 726.183526 72.771265 
C 723.386817 72.771265 720.704278 73.882409 718.726706 75.859981 
C 716.749135 77.837552 715.637991 80.520091 715.637991 83.3168 
C 715.637991 86.113509 716.749135 88.796048 718.726706 90.773619 
C 720.704278 92.751191 723.386817 93.862335 726.183526 93.862335 
z
" style="fill:#6fa4ff;stroke:#6fa4ff;stroke-linejoin:miter;stroke-width:2;"/>
   </g>
   <g id="patch_33">
    <path clip-path="url(#pd3d69c9c06)" d="M 757.472476 98.38185 
L 787.602576 98.38185 
L 787.602576 68.25175 
L 757.472476 68.25175 
z
" style="fill:#05bab6;stroke:#05bab6;stroke-linejoin:miter;stroke-width:1.5;"/>
   </g>
   <g id="patch_34">
    <path clip-path="url(#pd3d69c9c06)" d="M 818.891526 87.836315 
C 820.090115 87.836315 821.239775 87.36011 822.087305 86.51258 
C 822.934836 85.665049 823.411041 84.515389 823.411041 83.3168 
C 823.411041 82.118211 822.934836 80.968551 822.087305 80.12102 
C 821.239775 79.27349 820.090115 78.797285 818.891526 78.797285 
C 817.692936 78.797285 816.543277 79.27349 815.695746 80.12102 
C 814.848215 80.968551 814.372011 82.118211 814.372011 83.3168 
C 814.372011 84.515389 814.848215 85.665049 815.695746 86.51258 
C 816.543277 87.36011 817.692936 87.836315 818.891526 87.836315 
z
" style="fill:#bb8bff;stroke:#bb8bff;stroke-linejoin:miter;stroke-width:1.5;"/>
   </g>
   <g id="patch_35">
    <path clip-path="url(#pd3d69c9c06)" d="M 818.891526 273.252315 
C 820.090115 273.252315 821.239775 272.77611 822.087305 271.92858 
C 822.934836 271.081049 823.411041 269.931389 823.411041 268.7328 
C 823.411041 267.534211 822.934836 266.384551 822.087305 265.53702 
C 821.239775 264.68949 820.090115 264.213285 818.891526 264.213285 
C 817.692936 264.213285 816.543277 264.68949 815.695746 265.53702 
C 814.848215 266.384551 814.372011 267.534211 814.372011 268.7328 
C 814.372011 269.931389 814.848215 271.081049 815.695746 271.92858 
C 816.543277 272.77611 817.692936 273.252315 818.891526 273.252315 
z
" style="fill:#bb8bff;stroke:#bb8bff;stroke-linejoin:miter;stroke-width:1.5;"/>
   </g>
   <g id="patch_36">
    <path clip-path="url(#pd3d69c9c06)" d="M 818.891526 319.606315 
C 820.090115 319.606315 821.239775 319.13011 822.087305 318.28258 
C 822.934836 317.435049 823.411041 316.285389 823.411041 315.0868 
C 823.411041 313.888211 822.934836 312.738551 822.087305 311.89102 
C 821.239775 311.04349 820.090115 310.567285 818.891526 310.567285 
C 817.692936 310.567285 816.543277 311.04349 815.695746 311.89102 
C 814.848215 312.738551 814.372011 313.888211 814.372011 315.0868 
C 814.372011 316.285389 814.848215 317.435049 815.695746 318.28258 
C 816.543277 319.13011 817.692936 319.606315 818.891526 319.606315 
z
" style="fill:#bb8bff;stroke:#bb8bff;stroke-linejoin:miter;stroke-width:1.5;"/>
   </g>
   <g id="patch_37">
    <path clip-path="url(#pd3d69c9c06)" d="M 818.891526 232.924335 
C 821.688234 232.924335 824.370773 231.813191 826.348345 229.835619 
C 828.325917 227.858048 829.437061 225.175509 829.437061 222.3788 
C 829.437061 219.582091 828.325917 216.899552 826.348345 214.921981 
C 824.370773 212.944409 821.688234 211.833265 818.891526 211.833265 
C 816.094817 211.833265 813.412278 212.944409 811.434706 214.921981 
C 809.457135 216.899552 808.345991 219.582091 808.345991 222.3788 
C 808.345991 225.175509 809.457135 227.858048 811.434706 229.835619 
C 813.412278 231.813191 816.094817 232.924335 818.891526 232.924335 
z
" style="fill:#bb8bff;stroke:#bb8bff;stroke-linejoin:miter;stroke-width:2;"/>
   </g>
   <g id="patch_38">
    <path clip-path="url(#pd3d69c9c06)" d="M 850.180476 98.38185 
L 880.310576 98.38185 
L 880.310576 68.25175 
L 850.180476 68.25175 
z
" style="fill:#05bab6;stroke:#05bab6;stroke-linejoin:miter;stroke-width:1.5;"/>
   </g>
   <g id="patch_39">
    <path clip-path="url(#pd3d69c9c06)" d="M 911.599526 180.544315 
C 912.798115 180.544315 913.947775 180.06811 914.795305 179.22058 
C 915.642836 178.373049 916.119041 177.223389 916.119041 176.0248 
C 916.119041 174.826211 915.642836 173.676551 914.795305 172.82902 
C 913.947775 171.98149 912.798115 171.505285 911.599526 171.505285 
C 910.400936 171.505285 909.251277 171.98149 908.403746 172.82902 
C 907.556215 173.676551 907.080011 174.826211 907.080011 176.0248 
C 907.080011 177.223389 907.556215 178.373049 908.403746 179.22058 
C 909.251277 180.06811 910.400936 180.544315 911.599526 180.544315 
z
" style="fill:#6fa4ff;stroke:#6fa4ff;stroke-linejoin:miter;stroke-width:1.5;"/>
   </g>
   <g id="patch_40">
    <path clip-path="url(#pd3d69c9c06)" d="M 911.599526 93.862335 
C 914.396234 93.862335 917.078773 92.751191 919.056345 90.773619 
C 921.033917 88.796048 922.145061 86.113509 922.145061 83.3168 
C 922.145061 80.520091 921.033917 77.837552 919.056345 75.859981 
C 917.078773 73.882409 914.396234 72.771265 911.599526 72.771265 
C 908.802817 72.771265 906.120278 73.882409 904.142706 75.859981 
C 902.165135 77.837552 901.053991 80.520091 901.053991 83.3168 
C 901.053991 86.113509 902.165135 88.796048 904.142706 90.773619 
C 906.120278 92.751191 908.802817 93.862335 911.599526 93.862335 
z
" style="fill:#6fa4ff;stroke:#6fa4ff;stroke-linejoin:miter;stroke-width:2;"/>
   </g>
   <g id="line2d_19">
    <path clip-path="url(#pd3d69c9c06)" d="M 216.289526 182.05082 
L 216.289526 169.99878 
" style="fill:none;stroke:#ffffff;stroke-linecap:square;stroke-width:2;"/>
   </g>
   <g id="line2d_20">
    <path clip-path="url(#pd3d69c9c06)" d="M 210.263506 176.0248 
L 222.315546 176.0248 
" style="fill:none;stroke:#ffffff;stroke-linecap:square;stroke-width:2;"/>
   </g>
   <g id="line2d_21">
    <path clip-path="url(#pd3d69c9c06)" d="M 262.643526 228.40482 
L 262.643526 216.35278 
" style="fill:none;stroke:#ffffff;stroke-linecap:square;stroke-width:2;"/>
   </g>
   <g id="line2d_22">
    <path clip-path="url(#pd3d69c9c06)" d="M 256.617506 222.3788 
L 268.669546 222.3788 
" style="fill:none;stroke:#ffffff;stroke-linecap:square;stroke-width:2;"/>
   </g>
   <g id="line2d_23">
    <path clip-path="url(#pd3d69c9c06)" d="M 355.351526 274.75882 
L 355.351526 262.70678 
" style="fill:none;stroke:#ffffff;stroke-linecap:square;stroke-width:2;"/>
   </g>
   <g id="line2d_24">
    <path clip-path="url(#pd3d69c9c06)" d="M 349.325506 268.7328 
L 361.377546 268.7328 
" style="fill:none;stroke:#ffffff;stroke-linecap:square;stroke-width:2;"/>
   </g>
   <g id="line2d_25">
    <path clip-path="url(#pd3d69c9c06)" d="M 401.705526 321.11282 
L 401.705526 309.06078 
" style="fill:none;stroke:#ffffff;stroke-linecap:square;stroke-width:2;"/>
   </g>
   <g id="line2d_26">
    <path clip-path="url(#pd3d69c9c06)" d="M 395.679506 315.0868 
L 407.731546 315.0868 
" style="fill:none;stroke:#ffffff;stroke-linecap:square;stroke-width:2;"/>
   </g>
   <g id="line2d_27">
    <path clip-path="url(#pd3d69c9c06)" d="M 448.059526 182.05082 
L 448.059526 169.99878 
" style="fill:none;stroke:#ffffff;stroke-linecap:square;stroke-width:2;"/>
   </g>
   <g id="line2d_28">
    <path clip-path="url(#pd3d69c9c06)" d="M 442.033506 176.0248 
L 454.085546 176.0248 
" style="fill:none;stroke:#ffffff;stroke-linecap:square;stroke-width:2;"/>
   </g>
   <g id="line2d_29">
    <path clip-path="url(#pd3d69c9c06)" d="M 494.413526 228.40482 
L 494.413526 216.35278 
" style="fill:none;stroke:#ffffff;stroke-linecap:square;stroke-width:2;"/>
   </g>
   <g id="line2d_30">
    <path clip-path="url(#pd3d69c9c06)" d="M 488.387506 222.3788 
L 500.439546 222.3788 
" style="fill:none;stroke:#ffffff;stroke-linecap:square;stroke-width:2;"/>
   </g>
   <g id="line2d_31">
    <path clip-path="url(#pd3d69c9c06)" d="M 726.183526 89.34282 
L 726.183526 77.29078 
" style="fill:none;stroke:#ffffff;stroke-linecap:square;stroke-width:2;"/>
   </g>
   <g id="line2d_32">
    <path clip-path="url(#pd3d69c9c06)" d="M 720.157506 83.3168 
L 732.209546 83.3168 
" style="fill:none;stroke:#ffffff;stroke-linecap:square;stroke-width:2;"/>
   </g>
   <g id="line2d_33">
    <path clip-path="url(#pd3d69c9c06)" d="M 818.891526 228.40482 
L 818.891526 216.35278 
" style="fill:none;stroke:#ffffff;stroke-linecap:square;stroke-width:2;"/>
   </g>
   <g id="line2d_34">
    <path clip-path="url(#pd3d69c9c06)" d="M 812.865506 222.3788 
L 824.917546 222.3788 
" style="fill:none;stroke:#ffffff;stroke-linecap:square;stroke-width:2;"/>
   </g>
   <g id="line2d_35">
    <path clip-path="url(#pd3d69c9c06)" d="M 911.599526 89.34282 
L 911.599526 77.29078 
" style="fill:none;stroke:#ffffff;stroke-linecap:square;stroke-width:2;"/>
   </g>
   <g id="line2d_36">
    <path clip-path="url(#pd3d69c9c06)" d="M 905.573506 83.3168 
L 917.625546 83.3168 
" style="fill:none;stroke:#ffffff;stroke-linecap:square;stroke-width:2;"/>
   </g>
   <g id="text_2">
    <g clip-path="url(#pd3d69c9c06)">
     <!-- H -->
     <g transform="translate(211.401322 272.319987)scale(0.13 -0.13)">
      <defs>
       <path d="M 628 4666 
L 1259 4666 
L 1259 2753 
L 3553 2753 
L 3553 4666 
L 4184 4666 
L 4184 0 
L 3553 0 
L 3553 2222 
L 1259 2222 
L 1259 0 
L 628 0 
L 628 4666 
z
" id="DejaVuSans-48" transform="scale(0.015625)"/>
      </defs>
      <use xlink:href="#DejaVuSans-48"/>
     </g>
    </g>
   </g>
   <g id="text_3">
    <g clip-path="url(#pd3d69c9c06)">
     <!-- H -->
     <g transform="translate(211.401322 318.673987)scale(0.13 -0.13)">
      <use xlink:href="#DejaVuSans-48"/>
     </g>
    </g>
   </g>
   <g id="text_4">
    <g clip-path="url(#pd3d69c9c06)">
     <!-- X -->
     <g transform="translate(304.545026 179.611987)scale(0.13 -0.13)">
      <defs>
       <path d="M 403 4666 
L 1081 4666 
L 2241 2931 
L 3406 4666 
L 4084 4666 
L 2584 2425 
L 4184 0 
L 3506 0 
L 2194 1984 
L 872 0 
L 191 0 
L 1856 2491 
L 403 4666 
z
" id="DejaVuSans-58" transform="scale(0.015625)"/>
      </defs>
      <use xlink:href="#DejaVuSans-58"/>
     </g>
    </g>
   </g>
   <g id="text_5">
    <g clip-path="url(#pd3d69c9c06)">
     <!-- X -->
     <g transform="translate(304.545026 225.965987)scale(0.13 -0.13)">
      <use xlink:href="#DejaVuSans-58"/>
     </g>
    </g>
   </g>
   <g id="text_6">
    <g clip-path="url(#pd3d69c9c06)">
     <!-- X -->
     <g transform="translate(397.253026 179.611987)scale(0.13 -0.13)">
      <use xlink:href="#DejaVuSans-58"/>
     </g>
    </g>
   </g>
   <g id="text_7">
    <g clip-path="url(#pd3d69c9c06)">
     <!-- X -->
     <g transform="translate(443.607026 225.965987)scale(0.13 -0.13)">
      <use xlink:href="#DejaVuSans-58"/>
     </g>
    </g>
   </g>
   <g id="text_8">
    <g clip-path="url(#pd3d69c9c06)">
     <!-- X -->
     <g transform="translate(443.607026 318.673987)scale(0.13 -0.13)">
      <use xlink:href="#DejaVuSans-58"/>
     </g>
    </g>
   </g>
   <g id="text_9">
    <g clip-path="url(#pd3d69c9c06)">
     <!-- X -->
     <g transform="translate(443.607026 272.319987)scale(0.13 -0.13)">
      <use xlink:href="#DejaVuSans-58"/>
     </g>
    </g>
   </g>
   <g id="text_10">
    <g clip-path="url(#pd3d69c9c06)">
     <!-- 0 -->
     <g transform="translate(525.433622 86.903987)scale(0.13 -0.13)">
      <defs>
       <path d="M 2034 4250 
Q 1547 4250 1301 3770 
Q 1056 3291 1056 2328 
Q 1056 1369 1301 889 
Q 1547 409 2034 409 
Q 2525 409 2770 889 
Q 3016 1369 3016 2328 
Q 3016 3291 2770 3770 
Q 2525 4250 2034 4250 
z
M 2034 4750 
Q 2819 4750 3233 4129 
Q 3647 3509 3647 2328 
Q 3647 1150 3233 529 
Q 2819 -91 2034 -91 
Q 1250 -91 836 529 
Q 422 1150 422 2328 
Q 422 3509 836 4129 
Q 1250 4750 2034 4750 
z
" id="DejaVuSans-30" transform="scale(0.015625)"/>
      </defs>
      <use xlink:href="#DejaVuSans-30"/>
     </g>
    </g>
   </g>
   <g id="text_11">
    <g clip-path="url(#pd3d69c9c06)">
     <!-- 1 -->
     <g transform="translate(525.433622 179.611987)scale(0.13 -0.13)">
      <defs>
       <path d="M 794 531 
L 1825 531 
L 1825 4091 
L 703 3866 
L 703 4441 
L 1819 4666 
L 2450 4666 
L 2450 531 
L 3481 531 
L 3481 0 
L 794 0 
L 794 531 
z
" id="DejaVuSans-31" transform="scale(0.015625)"/>
      </defs>
      <use xlink:href="#DejaVuSans-31"/>
     </g>
    </g>
   </g>
   <g id="text_12">
    <g clip-path="url(#pd3d69c9c06)">
     <!-- SUP -->
     <g transform="translate(533.063497 133.257987)scale(0.13 -0.13)">
      <use xlink:href="#DejaVuSans-53"/>
      <use x="63.476562" xlink:href="#DejaVuSans-55"/>
      <use x="136.669922" xlink:href="#DejaVuSans-50"/>
     </g>
    </g>
   </g>
   <g id="text_13">
    <g clip-path="url(#pd3d69c9c06)">
     <!-- 0 -->
     <g transform="translate(571.787622 133.257987)scale(0.13 -0.13)">
      <use xlink:href="#DejaVuSans-30"/>
     </g>
    </g>
   </g>
   <g id="text_14">
    <g clip-path="url(#pd3d69c9c06)">
     <!-- 1 -->
     <g transform="translate(571.787622 225.965987)scale(0.13 -0.13)">
      <use xlink:href="#DejaVuSans-31"/>
     </g>
    </g>
   </g>
   <g id="text_15">
    <g clip-path="url(#pd3d69c9c06)">
     <!-- SUP -->
     <g transform="translate(579.417497 179.611987)scale(0.13 -0.13)">
      <use xlink:href="#DejaVuSans-53"/>
      <use x="63.476562" xlink:href="#DejaVuSans-55"/>
      <use x="136.669922" xlink:href="#DejaVuSans-50"/>
     </g>
    </g>
   </g>
   <g id="text_16">
    <g clip-path="url(#pd3d69c9c06)">
     <!-- X -->
     <g transform="translate(582.669026 318.673987)scale(0.13 -0.13)">
      <use xlink:href="#DejaVuSans-58"/>
     </g>
    </g>
   </g>
   <g id="text_17">
    <g clip-path="url(#pd3d69c9c06)">
     <!-- X -->
     <g transform="translate(629.023026 272.319987)scale(0.13 -0.13)">
      <use xlink:href="#DejaVuSans-58"/>
     </g>
    </g>
   </g>
   <g id="text_18">
    <g clip-path="url(#pd3d69c9c06)">
     <!-- 0 -->
     <g transform="translate(664.495622 86.903987)scale(0.13 -0.13)">
      <use xlink:href="#DejaVuSans-30"/>
     </g>
    </g>
   </g>
   <g id="text_19">
    <g clip-path="url(#pd3d69c9c06)">
     <!-- 1 -->
     <g transform="translate(664.495622 179.611987)scale(0.13 -0.13)">
      <use xlink:href="#DejaVuSans-31"/>
     </g>
    </g>
   </g>
   <g id="text_20">
    <g clip-path="url(#pd3d69c9c06)">
     <!-- SUP -->
     <g transform="translate(672.125497 133.257987)scale(0.13 -0.13)">
      <use xlink:href="#DejaVuSans-53"/>
      <use x="63.476562" xlink:href="#DejaVuSans-55"/>
      <use x="136.669922" xlink:href="#DejaVuSans-50"/>
     </g>
    </g>
   </g>
   <g id="text_21">
    <g clip-path="url(#pd3d69c9c06)">
     <!-- X -->
     <g transform="translate(768.085026 86.903987)scale(0.13 -0.13)">
      <use xlink:href="#DejaVuSans-58"/>
     </g>
    </g>
   </g>
   <g id="text_22">
    <g clip-path="url(#pd3d69c9c06)">
     <!-- X -->
     <g transform="translate(860.793026 86.903987)scale(0.13 -0.13)">
      <use xlink:href="#DejaVuSans-58"/>
     </g>
    </g>
   </g>
   <g id="text_23">
    <g clip-path="url(#pd3d69c9c06)">
     <!-- ${a}_{0}$ -->
     <g transform="translate(164.275066 87.800784)scale(0.1625 -0.1625)">
      <defs>
       <path d="M 3438 1997 
L 3047 0 
L 2472 0 
L 2578 531 
Q 2325 219 2001 64 
Q 1678 -91 1281 -91 
Q 834 -91 548 182 
Q 263 456 263 884 
Q 263 1497 752 1853 
Q 1241 2209 2100 2209 
L 2900 2209 
L 2931 2363 
Q 2938 2388 2941 2417 
Q 2944 2447 2944 2509 
Q 2944 2788 2717 2942 
Q 2491 3097 2081 3097 
Q 1800 3097 1504 3025 
Q 1209 2953 897 2809 
L 997 3341 
Q 1322 3463 1633 3523 
Q 1944 3584 2234 3584 
Q 2853 3584 3176 3315 
Q 3500 3047 3500 2534 
Q 3500 2431 3484 2292 
Q 3469 2153 3438 1997 
z
M 2816 1759 
L 2241 1759 
Q 1534 1759 1195 1570 
Q 856 1381 856 984 
Q 856 709 1029 553 
Q 1203 397 1509 397 
Q 1978 397 2328 733 
Q 2678 1069 2791 1631 
L 2816 1759 
z
" id="DejaVuSans-Oblique-61" transform="scale(0.015625)"/>
      </defs>
      <use xlink:href="#DejaVuSans-Oblique-61"/>
      <use transform="translate(61.279297 -16.40625)scale(0.7)" xlink:href="#DejaVuSans-30"/>
     </g>
    </g>
   </g>
   <g id="text_24">
    <g clip-path="url(#pd3d69c9c06)">
     <!-- ${a}_{1}$ -->
     <g transform="translate(164.275066 134.154784)scale(0.1625 -0.1625)">
      <use xlink:href="#DejaVuSans-Oblique-61"/>
      <use transform="translate(61.279297 -16.40625)scale(0.7)" xlink:href="#DejaVuSans-31"/>
     </g>
    </g>
   </g>
   <g id="text_25">
    <g clip-path="url(#pd3d69c9c06)">
     <!-- ${b}_{0}$ -->
     <g transform="translate(163.950066 180.508784)scale(0.1625 -0.1625)">
      <defs>
       <path d="M 3169 2138 
Q 3169 2591 2961 2847 
Q 2753 3103 2388 3103 
Q 2122 3103 1889 2973 
Q 1656 2844 1484 2597 
Q 1303 2338 1198 1995 
Q 1094 1653 1094 1313 
Q 1094 881 1298 636 
Q 1503 391 1863 391 
Q 2134 391 2365 517 
Q 2597 644 2772 891 
Q 2950 1147 3059 1487 
Q 3169 1828 3169 2138 
z
M 1381 2969 
Q 1594 3256 1914 3420 
Q 2234 3584 2584 3584 
Q 3122 3584 3439 3221 
Q 3756 2859 3756 2241 
Q 3756 1734 3570 1259 
Q 3384 784 3041 416 
Q 2816 172 2522 40 
Q 2228 -91 1906 -91 
Q 1566 -91 1316 65 
Q 1066 222 909 531 
L 806 0 
L 231 0 
L 1178 4863 
L 1753 4863 
L 1381 2969 
z
" id="DejaVuSans-Oblique-62" transform="scale(0.015625)"/>
      </defs>
      <use transform="translate(0 0.015625)" xlink:href="#DejaVuSans-Oblique-62"/>
      <use transform="translate(63.476562 -16.390625)scale(0.7)" xlink:href="#DejaVuSans-30"/>
     </g>
    </g>
   </g>
   <g id="text_26">
    <g clip-path="url(#pd3d69c9c06)">
     <!-- ${b}_{1}$ -->
     <g transform="translate(163.950066 226.862784)scale(0.1625 -0.1625)">
      <use transform="translate(0 0.015625)" xlink:href="#DejaVuSans-Oblique-62"/>
      <use transform="translate(63.476562 -16.390625)scale(0.7)" xlink:href="#DejaVuSans-31"/>
     </g>
    </g>
   </g>
   <g id="text_27">
    <g clip-path="url(#pd3d69c9c06)">
     <!-- ${j}_{0}$ -->
     <g transform="translate(169.637566 273.20155)scale(0.1625 -0.1625)">
      <defs>
       <path d="M 928 3500 
L 1503 3500 
L 813 -63 
L 809 -78 
Q 694 -675 544 -897 
Q 403 -1106 132 -1218 
Q -138 -1331 -506 -1331 
L -722 -1331 
L -628 -844 
L -481 -844 
Q -144 -844 -1 -703 
Q 141 -563 238 -63 
L 928 3500 
z
M 1197 4863 
L 1772 4863 
L 1631 4134 
L 1056 4134 
L 1197 4863 
z
" id="DejaVuSans-Oblique-6a" transform="scale(0.015625)"/>
      </defs>
      <use transform="translate(0 0.015625)" xlink:href="#DejaVuSans-Oblique-6a"/>
      <use transform="translate(27.783203 -16.390625)scale(0.7)" xlink:href="#DejaVuSans-30"/>
     </g>
    </g>
   </g>
   <g id="text_28">
    <g clip-path="url(#pd3d69c9c06)">
     <!-- ${j}_{1}$ -->
     <g transform="translate(169.637566 319.55555)scale(0.1625 -0.1625)">
      <use transform="translate(0 0.015625)" xlink:href="#DejaVuSans-Oblique-6a"/>
      <use transform="translate(27.783203 -16.390625)scale(0.7)" xlink:href="#DejaVuSans-31"/>
     </g>
    </g>
   </g>
  </g>
 </g>
 <defs>
  <clipPath id="pd3d69c9c06">
   <rect height="296.6656" width="808.343997" x="133.849168" y="46.2336"/>
  </clipPath>
 </defs>
</svg>
