<?xml version="1.0" encoding="utf-8" standalone="no"?>
<!DOCTYPE svg PUBLIC "-//W3C//DTD SVG 1.1//EN"
  "http://www.w3.org/Graphics/SVG/1.1/DTD/svg11.dtd">
<svg height="565.88pt" version="1.1" viewBox="0 0 688.597399 565.88" width="688.597399pt" xmlns="http://www.w3.org/2000/svg" xmlns:xlink="http://www.w3.org/1999/xlink">
 <metadata>
  <rdf:RDF xmlns:cc="http://creativecommons.org/ns#" xmlns:dc="http://purl.org/dc/elements/1.1/" xmlns:rdf="http://www.w3.org/1999/02/22-rdf-syntax-ns#">
   <cc:Work>
    <dc:type rdf:resource="http://purl.org/dc/dcmitype/StillImage"/>
    <dc:date>2021-09-08T15:12:28.511741</dc:date>
    <dc:format>image/svg+xml</dc:format>
    <dc:creator>
     <cc:Agent>
      <dc:title>Matplotlib v3.4.3, https://matplotlib.org/</dc:title>
     </cc:Agent>
    </dc:creator>
   </cc:Work>
  </rdf:RDF>
 </metadata>
 <defs>
  <style type="text/css">*{stroke-linecap:butt;stroke-linejoin:round;}</style>
 </defs>
 <g id="figure_1">
  <g id="patch_1">
   <path d="M 0 565.88 
L 688.597399 565.88 
L 688.597399 0 
L 0 0 
z
" style="fill:#ffffff;"/>
  </g>
  <g id="axes_1">
   <g id="line2d_1">
    <path clip-path="url(#p0ee68c8fb1)" d="M 145.205366 104.9888 
L 613.380766 104.9888 
" style="fill:none;stroke:#000000;stroke-linecap:square;stroke-width:2;"/>
   </g>
   <g id="line2d_2">
    <path clip-path="url(#p0ee68c8fb1)" d="M 145.205366 151.3428 
L 613.380766 151.3428 
" style="fill:none;stroke:#000000;stroke-linecap:square;stroke-width:2;"/>
   </g>
   <g id="line2d_3">
    <path clip-path="url(#p0ee68c8fb1)" d="M 145.205366 197.6968 
L 613.380766 197.6968 
" style="fill:none;stroke:#000000;stroke-linecap:square;stroke-width:2;"/>
   </g>
   <g id="line2d_4">
    <path clip-path="url(#p0ee68c8fb1)" d="M 145.205366 244.0508 
L 613.380766 244.0508 
" style="fill:none;stroke:#000000;stroke-linecap:square;stroke-width:2;"/>
   </g>
   <g id="line2d_5">
    <path clip-path="url(#p0ee68c8fb1)" d="M 145.205366 290.4048 
L 613.380766 290.4048 
" style="fill:none;stroke:#000000;stroke-linecap:square;stroke-width:2;"/>
   </g>
   <g id="line2d_6">
    <path clip-path="url(#p0ee68c8fb1)" d="M 145.205366 336.7588 
L 613.380766 336.7588 
" style="fill:none;stroke:#000000;stroke-linecap:square;stroke-width:2;"/>
   </g>
   <g id="line2d_7">
    <path clip-path="url(#p0ee68c8fb1)" d="M 145.205366 383.1128 
L 613.380766 383.1128 
" style="fill:none;stroke:#000000;stroke-linecap:square;stroke-width:2;"/>
   </g>
   <g id="line2d_8">
    <path clip-path="url(#p0ee68c8fb1)" d="M 145.205366 429.4668 
L 613.380766 429.4668 
" style="fill:none;stroke:#000000;stroke-linecap:square;stroke-width:2;"/>
   </g>
   <g id="line2d_9">
    <path clip-path="url(#p0ee68c8fb1)" d="M 145.205366 475.8208 
L 613.380766 475.8208 
" style="fill:none;stroke:#000000;stroke-linecap:square;stroke-width:2;"/>
   </g>
   <g id="patch_2">
    <path clip-path="url(#p0ee68c8fb1)" d="M 578.383496 128.1658 
L 596.461556 128.1658 
L 596.461556 81.8118 
L 578.383496 81.8118 
z
" style="fill:#bdbdbd;opacity:0.6;"/>
   </g>
   <g id="patch_3">
    <path clip-path="url(#p0ee68c8fb1)" d="M 578.383496 174.5198 
L 596.461556 174.5198 
L 596.461556 128.1658 
L 578.383496 128.1658 
z
" style="fill:#bdbdbd;opacity:0.6;"/>
   </g>
   <g id="patch_4">
    <path clip-path="url(#p0ee68c8fb1)" d="M 578.383496 220.8738 
L 596.461556 220.8738 
L 596.461556 174.5198 
L 578.383496 174.5198 
z
" style="fill:#bdbdbd;opacity:0.6;"/>
   </g>
   <g id="patch_5">
    <path clip-path="url(#p0ee68c8fb1)" d="M 578.383496 267.2278 
L 596.461556 267.2278 
L 596.461556 220.8738 
L 578.383496 220.8738 
z
" style="fill:#bdbdbd;opacity:0.6;"/>
   </g>
   <g id="patch_6">
    <path clip-path="url(#p0ee68c8fb1)" d="M 578.383496 313.5818 
L 596.461556 313.5818 
L 596.461556 267.2278 
L 578.383496 267.2278 
z
" style="fill:#bdbdbd;opacity:0.6;"/>
   </g>
   <g id="patch_7">
    <path clip-path="url(#p0ee68c8fb1)" d="M 578.383496 359.9358 
L 596.461556 359.9358 
L 596.461556 313.5818 
L 578.383496 313.5818 
z
" style="fill:#bdbdbd;opacity:0.6;"/>
   </g>
   <g id="patch_8">
    <path clip-path="url(#p0ee68c8fb1)" d="M 578.383496 406.2898 
L 596.461556 406.2898 
L 596.461556 359.9358 
L 578.383496 359.9358 
z
" style="fill:#bdbdbd;opacity:0.6;"/>
   </g>
   <g id="patch_9">
    <path clip-path="url(#p0ee68c8fb1)" d="M 578.383496 452.6438 
L 596.461556 452.6438 
L 596.461556 406.2898 
L 578.383496 406.2898 
z
" style="fill:#bdbdbd;opacity:0.6;"/>
   </g>
   <g id="patch_10">
    <path clip-path="url(#p0ee68c8fb1)" d="M 578.383496 498.9978 
L 596.461556 498.9978 
L 596.461556 452.6438 
L 578.383496 452.6438 
z
" style="fill:#bdbdbd;opacity:0.6;"/>
   </g>
   <g id="line2d_10">
    <path clip-path="url(#p0ee68c8fb1)" d="M 216.590526 151.3428 
L 216.590526 104.9888 
" style="fill:none;stroke:#6fa4ff;stroke-linecap:square;stroke-width:2;"/>
   </g>
   <g id="line2d_11">
    <path clip-path="url(#p0ee68c8fb1)" d="M 262.944526 197.6968 
L 262.944526 151.3428 
" style="fill:none;stroke:#6fa4ff;stroke-linecap:square;stroke-width:2;"/>
   </g>
   <g id="line2d_12">
    <path clip-path="url(#p0ee68c8fb1)" d="M 309.298526 244.0508 
L 309.298526 197.6968 
" style="fill:none;stroke:#6fa4ff;stroke-linecap:square;stroke-width:2;"/>
   </g>
   <g id="line2d_13">
    <path clip-path="url(#p0ee68c8fb1)" d="M 355.652526 290.4048 
L 355.652526 244.0508 
" style="fill:none;stroke:#6fa4ff;stroke-linecap:square;stroke-width:2;"/>
   </g>
   <g id="line2d_14">
    <path clip-path="url(#p0ee68c8fb1)" d="M 402.006526 336.7588 
L 402.006526 290.4048 
" style="fill:none;stroke:#6fa4ff;stroke-linecap:square;stroke-width:2;"/>
   </g>
   <g id="line2d_15">
    <path clip-path="url(#p0ee68c8fb1)" d="M 448.360526 383.1128 
L 448.360526 336.7588 
" style="fill:none;stroke:#6fa4ff;stroke-linecap:square;stroke-width:2;"/>
   </g>
   <g id="line2d_16">
    <path clip-path="url(#p0ee68c8fb1)" d="M 494.714526 429.4668 
L 494.714526 383.1128 
" style="fill:none;stroke:#6fa4ff;stroke-linecap:square;stroke-width:2;"/>
   </g>
   <g id="line2d_17">
    <path clip-path="url(#p0ee68c8fb1)" d="M 541.068526 475.8208 
L 541.068526 104.9888 
" style="fill:none;stroke:#bb8bff;stroke-linecap:square;stroke-width:2;"/>
   </g>
   <g id="patch_11">
    <path clip-path="url(#p0ee68c8fb1)" d="M 155.171476 120.05385 
L 185.301576 120.05385 
L 185.301576 89.92375 
L 155.171476 89.92375 
z
" style="fill:#6fa4ff;stroke:#6fa4ff;stroke-linejoin:miter;stroke-width:1.5;"/>
   </g>
   <g id="patch_12">
    <path clip-path="url(#p0ee68c8fb1)" d="M 155.171476 166.40785 
L 185.301576 166.40785 
L 185.301576 136.27775 
L 155.171476 136.27775 
z
" style="fill:#6fa4ff;stroke:#6fa4ff;stroke-linejoin:miter;stroke-width:1.5;"/>
   </g>
   <g id="patch_13">
    <path clip-path="url(#p0ee68c8fb1)" d="M 155.171476 212.76185 
L 185.301576 212.76185 
L 185.301576 182.63175 
L 155.171476 182.63175 
z
" style="fill:#6fa4ff;stroke:#6fa4ff;stroke-linejoin:miter;stroke-width:1.5;"/>
   </g>
   <g id="patch_14">
    <path clip-path="url(#p0ee68c8fb1)" d="M 155.171476 259.11585 
L 185.301576 259.11585 
L 185.301576 228.98575 
L 155.171476 228.98575 
z
" style="fill:#6fa4ff;stroke:#6fa4ff;stroke-linejoin:miter;stroke-width:1.5;"/>
   </g>
   <g id="patch_15">
    <path clip-path="url(#p0ee68c8fb1)" d="M 155.171476 305.46985 
L 185.301576 305.46985 
L 185.301576 275.33975 
L 155.171476 275.33975 
z
" style="fill:#6fa4ff;stroke:#6fa4ff;stroke-linejoin:miter;stroke-width:1.5;"/>
   </g>
   <g id="patch_16">
    <path clip-path="url(#p0ee68c8fb1)" d="M 155.171476 351.82385 
L 185.301576 351.82385 
L 185.301576 321.69375 
L 155.171476 321.69375 
z
" style="fill:#6fa4ff;stroke:#6fa4ff;stroke-linejoin:miter;stroke-width:1.5;"/>
   </g>
   <g id="patch_17">
    <path clip-path="url(#p0ee68c8fb1)" d="M 155.171476 398.17785 
L 185.301576 398.17785 
L 185.301576 368.04775 
L 155.171476 368.04775 
z
" style="fill:#6fa4ff;stroke:#6fa4ff;stroke-linejoin:miter;stroke-width:1.5;"/>
   </g>
   <g id="patch_18">
    <path clip-path="url(#p0ee68c8fb1)" d="M 155.171476 444.53185 
L 185.301576 444.53185 
L 185.301576 414.40175 
L 155.171476 414.40175 
z
" style="fill:#6fa4ff;stroke:#6fa4ff;stroke-linejoin:miter;stroke-width:1.5;"/>
   </g>
   <g id="patch_19">
    <path clip-path="url(#p0ee68c8fb1)" d="M 155.171476 490.88585 
L 185.301576 490.88585 
L 185.301576 460.75575 
L 155.171476 460.75575 
z
" style="fill:#05bab6;stroke:#05bab6;stroke-linejoin:miter;stroke-width:1.5;"/>
   </g>
   <g id="patch_20">
    <path clip-path="url(#p0ee68c8fb1)" d="M 216.590526 155.862315 
C 217.789115 155.862315 218.938775 155.38611 219.786305 154.53858 
C 220.633836 153.691049 221.110041 152.541389 221.110041 151.3428 
C 221.110041 150.144211 220.633836 148.994551 219.786305 148.14702 
C 218.938775 147.29949 217.789115 146.823285 216.590526 146.823285 
C 215.391936 146.823285 214.242277 147.29949 213.394746 148.14702 
C 212.547215 148.994551 212.071011 150.144211 212.071011 151.3428 
C 212.071011 152.541389 212.547215 153.691049 213.394746 154.53858 
C 214.242277 155.38611 215.391936 155.862315 216.590526 155.862315 
z
" style="fill:#6fa4ff;stroke:#6fa4ff;stroke-linejoin:miter;stroke-width:1.5;"/>
   </g>
   <g id="patch_21">
    <path clip-path="url(#p0ee68c8fb1)" d="M 216.590526 115.534335 
C 219.387234 115.534335 222.069773 114.423191 224.047345 112.445619 
C 226.024917 110.468048 227.136061 107.785509 227.136061 104.9888 
C 227.136061 102.192091 226.024917 99.509552 224.047345 97.531981 
C 222.069773 95.554409 219.387234 94.443265 216.590526 94.443265 
C 213.793817 94.443265 211.111278 95.554409 209.133706 97.531981 
C 207.156135 99.509552 206.044991 102.192091 206.044991 104.9888 
C 206.044991 107.785509 207.156135 110.468048 209.133706 112.445619 
C 211.111278 114.423191 213.793817 115.534335 216.590526 115.534335 
z
" style="fill:#6fa4ff;stroke:#6fa4ff;stroke-linejoin:miter;stroke-width:2;"/>
   </g>
   <g id="patch_22">
    <path clip-path="url(#p0ee68c8fb1)" d="M 201.525476 490.88585 
L 231.655576 490.88585 
L 231.655576 460.75575 
L 201.525476 460.75575 
z
" style="fill:#6fa4ff;stroke:#6fa4ff;stroke-linejoin:miter;stroke-width:1.5;"/>
   </g>
   <g id="patch_23">
    <path clip-path="url(#p0ee68c8fb1)" d="M 262.944526 202.216315 
C 264.143115 202.216315 265.292775 201.74011 266.140305 200.89258 
C 266.987836 200.045049 267.464041 198.895389 267.464041 197.6968 
C 267.464041 196.498211 266.987836 195.348551 266.140305 194.50102 
C 265.292775 193.65349 264.143115 193.177285 262.944526 193.177285 
C 261.745936 193.177285 260.596277 193.65349 259.748746 194.50102 
C 258.901215 195.348551 258.425011 196.498211 258.425011 197.6968 
C 258.425011 198.895389 258.901215 200.045049 259.748746 200.89258 
C 260.596277 201.74011 261.745936 202.216315 262.944526 202.216315 
z
" style="fill:#6fa4ff;stroke:#6fa4ff;stroke-linejoin:miter;stroke-width:1.5;"/>
   </g>
   <g id="patch_24">
    <path clip-path="url(#p0ee68c8fb1)" d="M 262.944526 161.888335 
C 265.741234 161.888335 268.423773 160.777191 270.401345 158.799619 
C 272.378917 156.822048 273.490061 154.139509 273.490061 151.3428 
C 273.490061 148.546091 272.378917 145.863552 270.401345 143.885981 
C 268.423773 141.908409 265.741234 140.797265 262.944526 140.797265 
C 260.147817 140.797265 257.465278 141.908409 255.487706 143.885981 
C 253.510135 145.863552 252.398991 148.546091 252.398991 151.3428 
C 252.398991 154.139509 253.510135 156.822048 255.487706 158.799619 
C 257.465278 160.777191 260.147817 161.888335 262.944526 161.888335 
z
" style="fill:#6fa4ff;stroke:#6fa4ff;stroke-linejoin:miter;stroke-width:2;"/>
   </g>
   <g id="patch_25">
    <path clip-path="url(#p0ee68c8fb1)" d="M 309.298526 248.570315 
C 310.497115 248.570315 311.646775 248.09411 312.494305 247.24658 
C 313.341836 246.399049 313.818041 245.249389 313.818041 244.0508 
C 313.818041 242.852211 313.341836 241.702551 312.494305 240.85502 
C 311.646775 240.00749 310.497115 239.531285 309.298526 239.531285 
C 308.099936 239.531285 306.950277 240.00749 306.102746 240.85502 
C 305.255215 241.702551 304.779011 242.852211 304.779011 244.0508 
C 304.779011 245.249389 305.255215 246.399049 306.102746 247.24658 
C 306.950277 248.09411 308.099936 248.570315 309.298526 248.570315 
z
" style="fill:#6fa4ff;stroke:#6fa4ff;stroke-linejoin:miter;stroke-width:1.5;"/>
   </g>
   <g id="patch_26">
    <path clip-path="url(#p0ee68c8fb1)" d="M 309.298526 208.242335 
C 312.095234 208.242335 314.777773 207.131191 316.755345 205.153619 
C 318.732917 203.176048 319.844061 200.493509 319.844061 197.6968 
C 319.844061 194.900091 318.732917 192.217552 316.755345 190.239981 
C 314.777773 188.262409 312.095234 187.151265 309.298526 187.151265 
C 306.501817 187.151265 303.819278 188.262409 301.841706 190.239981 
C 299.864135 192.217552 298.752991 194.900091 298.752991 197.6968 
C 298.752991 200.493509 299.864135 203.176048 301.841706 205.153619 
C 303.819278 207.131191 306.501817 208.242335 309.298526 208.242335 
z
" style="fill:#6fa4ff;stroke:#6fa4ff;stroke-linejoin:miter;stroke-width:2;"/>
   </g>
   <g id="patch_27">
    <path clip-path="url(#p0ee68c8fb1)" d="M 355.652526 294.924315 
C 356.851115 294.924315 358.000775 294.44811 358.848305 293.60058 
C 359.695836 292.753049 360.172041 291.603389 360.172041 290.4048 
C 360.172041 289.206211 359.695836 288.056551 358.848305 287.20902 
C 358.000775 286.36149 356.851115 285.885285 355.652526 285.885285 
C 354.453936 285.885285 353.304277 286.36149 352.456746 287.20902 
C 351.609215 288.056551 351.133011 289.206211 351.133011 290.4048 
C 351.133011 291.603389 351.609215 292.753049 352.456746 293.60058 
C 353.304277 294.44811 354.453936 294.924315 355.652526 294.924315 
z
" style="fill:#6fa4ff;stroke:#6fa4ff;stroke-linejoin:miter;stroke-width:1.5;"/>
   </g>
   <g id="patch_28">
    <path clip-path="url(#p0ee68c8fb1)" d="M 355.652526 254.596335 
C 358.449234 254.596335 361.131773 253.485191 363.109345 251.507619 
C 365.086917 249.530048 366.198061 246.847509 366.198061 244.0508 
C 366.198061 241.254091 365.086917 238.571552 363.109345 236.593981 
C 361.131773 234.616409 358.449234 233.505265 355.652526 233.505265 
C 352.855817 233.505265 350.173278 234.616409 348.195706 236.593981 
C 346.218135 238.571552 345.106991 241.254091 345.106991 244.0508 
C 345.106991 246.847509 346.218135 249.530048 348.195706 251.507619 
C 350.173278 253.485191 352.855817 254.596335 355.652526 254.596335 
z
" style="fill:#6fa4ff;stroke:#6fa4ff;stroke-linejoin:miter;stroke-width:2;"/>
   </g>
   <g id="patch_29">
    <path clip-path="url(#p0ee68c8fb1)" d="M 402.006526 341.278315 
C 403.205115 341.278315 404.354775 340.80211 405.202305 339.95458 
C 406.049836 339.107049 406.526041 337.957389 406.526041 336.7588 
C 406.526041 335.560211 406.049836 334.410551 405.202305 333.56302 
C 404.354775 332.71549 403.205115 332.239285 402.006526 332.239285 
C 400.807936 332.239285 399.658277 332.71549 398.810746 333.56302 
C 397.963215 334.410551 397.487011 335.560211 397.487011 336.7588 
C 397.487011 337.957389 397.963215 339.107049 398.810746 339.95458 
C 399.658277 340.80211 400.807936 341.278315 402.006526 341.278315 
z
" style="fill:#6fa4ff;stroke:#6fa4ff;stroke-linejoin:miter;stroke-width:1.5;"/>
   </g>
   <g id="patch_30">
    <path clip-path="url(#p0ee68c8fb1)" d="M 402.006526 300.950335 
C 404.803234 300.950335 407.485773 299.839191 409.463345 297.861619 
C 411.440917 295.884048 412.552061 293.201509 412.552061 290.4048 
C 412.552061 287.608091 411.440917 284.925552 409.463345 282.947981 
C 407.485773 280.970409 404.803234 279.859265 402.006526 279.859265 
C 399.209817 279.859265 396.527278 280.970409 394.549706 282.947981 
C 392.572135 284.925552 391.460991 287.608091 391.460991 290.4048 
C 391.460991 293.201509 392.572135 295.884048 394.549706 297.861619 
C 396.527278 299.839191 399.209817 300.950335 402.006526 300.950335 
z
" style="fill:#6fa4ff;stroke:#6fa4ff;stroke-linejoin:miter;stroke-width:2;"/>
   </g>
   <g id="patch_31">
    <path clip-path="url(#p0ee68c8fb1)" d="M 448.360526 387.632315 
C 449.559115 387.632315 450.708775 387.15611 451.556305 386.30858 
C 452.403836 385.461049 452.880041 384.311389 452.880041 383.1128 
C 452.880041 381.914211 452.403836 380.764551 451.556305 379.91702 
C 450.708775 379.06949 449.559115 378.593285 448.360526 378.593285 
C 447.161936 378.593285 446.012277 379.06949 445.164746 379.91702 
C 444.317215 380.764551 443.841011 381.914211 443.841011 383.1128 
C 443.841011 384.311389 444.317215 385.461049 445.164746 386.30858 
C 446.012277 387.15611 447.161936 387.632315 448.360526 387.632315 
z
" style="fill:#6fa4ff;stroke:#6fa4ff;stroke-linejoin:miter;stroke-width:1.5;"/>
   </g>
   <g id="patch_32">
    <path clip-path="url(#p0ee68c8fb1)" d="M 448.360526 347.304335 
C 451.157234 347.304335 453.839773 346.193191 455.817345 344.215619 
C 457.794917 342.238048 458.906061 339.555509 458.906061 336.7588 
C 458.906061 333.962091 457.794917 331.279552 455.817345 329.301981 
C 453.839773 327.324409 451.157234 326.213265 448.360526 326.213265 
C 445.563817 326.213265 442.881278 327.324409 440.903706 329.301981 
C 438.926135 331.279552 437.814991 333.962091 437.814991 336.7588 
C 437.814991 339.555509 438.926135 342.238048 440.903706 344.215619 
C 442.881278 346.193191 445.563817 347.304335 448.360526 347.304335 
z
" style="fill:#6fa4ff;stroke:#6fa4ff;stroke-linejoin:miter;stroke-width:2;"/>
   </g>
   <g id="patch_33">
    <path clip-path="url(#p0ee68c8fb1)" d="M 494.714526 433.986315 
C 495.913115 433.986315 497.062775 433.51011 497.910305 432.66258 
C 498.757836 431.815049 499.234041 430.665389 499.234041 429.4668 
C 499.234041 428.268211 498.757836 427.118551 497.910305 426.27102 
C 497.062775 425.42349 495.913115 424.947285 494.714526 424.947285 
C 493.515936 424.947285 492.366277 425.42349 491.518746 426.27102 
C 490.671215 427.118551 490.195011 428.268211 490.195011 429.4668 
C 490.195011 430.665389 490.671215 431.815049 491.518746 432.66258 
C 492.366277 433.51011 493.515936 433.986315 494.714526 433.986315 
z
" style="fill:#6fa4ff;stroke:#6fa4ff;stroke-linejoin:miter;stroke-width:1.5;"/>
   </g>
   <g id="patch_34">
    <path clip-path="url(#p0ee68c8fb1)" d="M 494.714526 393.658335 
C 497.511234 393.658335 500.193773 392.547191 502.171345 390.569619 
C 504.148917 388.592048 505.260061 385.909509 505.260061 383.1128 
C 505.260061 380.316091 504.148917 377.633552 502.171345 375.655981 
C 500.193773 373.678409 497.511234 372.567265 494.714526 372.567265 
C 491.917817 372.567265 489.235278 373.678409 487.257706 375.655981 
C 485.280135 377.633552 484.168991 380.316091 484.168991 383.1128 
C 484.168991 385.909509 485.280135 388.592048 487.257706 390.569619 
C 489.235278 392.547191 491.917817 393.658335 494.714526 393.658335 
z
" style="fill:#6fa4ff;stroke:#6fa4ff;stroke-linejoin:miter;stroke-width:2;"/>
   </g>
   <g id="patch_35">
    <path clip-path="url(#p0ee68c8fb1)" d="M 541.068526 109.508315 
C 542.267115 109.508315 543.416775 109.03211 544.264305 108.18458 
C 545.111836 107.337049 545.588041 106.187389 545.588041 104.9888 
C 545.588041 103.790211 545.111836 102.640551 544.264305 101.79302 
C 543.416775 100.94549 542.267115 100.469285 541.068526 100.469285 
C 539.869936 100.469285 538.720277 100.94549 537.872746 101.79302 
C 537.025215 102.640551 536.549011 103.790211 536.549011 104.9888 
C 536.549011 106.187389 537.025215 107.337049 537.872746 108.18458 
C 538.720277 109.03211 539.869936 109.508315 541.068526 109.508315 
z
" style="fill:#bb8bff;stroke:#bb8bff;stroke-linejoin:miter;stroke-width:1.5;"/>
   </g>
   <g id="patch_36">
    <path clip-path="url(#p0ee68c8fb1)" d="M 541.068526 155.862315 
C 542.267115 155.862315 543.416775 155.38611 544.264305 154.53858 
C 545.111836 153.691049 545.588041 152.541389 545.588041 151.3428 
C 545.588041 150.144211 545.111836 148.994551 544.264305 148.14702 
C 543.416775 147.29949 542.267115 146.823285 541.068526 146.823285 
C 539.869936 146.823285 538.720277 147.29949 537.872746 148.14702 
C 537.025215 148.994551 536.549011 150.144211 536.549011 151.3428 
C 536.549011 152.541389 537.025215 153.691049 537.872746 154.53858 
C 538.720277 155.38611 539.869936 155.862315 541.068526 155.862315 
z
" style="fill:#bb8bff;stroke:#bb8bff;stroke-linejoin:miter;stroke-width:1.5;"/>
   </g>
   <g id="patch_37">
    <path clip-path="url(#p0ee68c8fb1)" d="M 541.068526 202.216315 
C 542.267115 202.216315 543.416775 201.74011 544.264305 200.89258 
C 545.111836 200.045049 545.588041 198.895389 545.588041 197.6968 
C 545.588041 196.498211 545.111836 195.348551 544.264305 194.50102 
C 543.416775 193.65349 542.267115 193.177285 541.068526 193.177285 
C 539.869936 193.177285 538.720277 193.65349 537.872746 194.50102 
C 537.025215 195.348551 536.549011 196.498211 536.549011 197.6968 
C 536.549011 198.895389 537.025215 200.045049 537.872746 200.89258 
C 538.720277 201.74011 539.869936 202.216315 541.068526 202.216315 
z
" style="fill:#bb8bff;stroke:#bb8bff;stroke-linejoin:miter;stroke-width:1.5;"/>
   </g>
   <g id="patch_38">
    <path clip-path="url(#p0ee68c8fb1)" d="M 541.068526 248.570315 
C 542.267115 248.570315 543.416775 248.09411 544.264305 247.24658 
C 545.111836 246.399049 545.588041 245.249389 545.588041 244.0508 
C 545.588041 242.852211 545.111836 241.702551 544.264305 240.85502 
C 543.416775 240.00749 542.267115 239.531285 541.068526 239.531285 
C 539.869936 239.531285 538.720277 240.00749 537.872746 240.85502 
C 537.025215 241.702551 536.549011 242.852211 536.549011 244.0508 
C 536.549011 245.249389 537.025215 246.399049 537.872746 247.24658 
C 538.720277 248.09411 539.869936 248.570315 541.068526 248.570315 
z
" style="fill:#bb8bff;stroke:#bb8bff;stroke-linejoin:miter;stroke-width:1.5;"/>
   </g>
   <g id="patch_39">
    <path clip-path="url(#p0ee68c8fb1)" d="M 541.068526 294.924315 
C 542.267115 294.924315 543.416775 294.44811 544.264305 293.60058 
C 545.111836 292.753049 545.588041 291.603389 545.588041 290.4048 
C 545.588041 289.206211 545.111836 288.056551 544.264305 287.20902 
C 543.416775 286.36149 542.267115 285.885285 541.068526 285.885285 
C 539.869936 285.885285 538.720277 286.36149 537.872746 287.20902 
C 537.025215 288.056551 536.549011 289.206211 536.549011 290.4048 
C 536.549011 291.603389 537.025215 292.753049 537.872746 293.60058 
C 538.720277 294.44811 539.869936 294.924315 541.068526 294.924315 
z
" style="fill:#bb8bff;stroke:#bb8bff;stroke-linejoin:miter;stroke-width:1.5;"/>
   </g>
   <g id="patch_40">
    <path clip-path="url(#p0ee68c8fb1)" d="M 541.068526 341.278315 
C 542.267115 341.278315 543.416775 340.80211 544.264305 339.95458 
C 545.111836 339.107049 545.588041 337.957389 545.588041 336.7588 
C 545.588041 335.560211 545.111836 334.410551 544.264305 333.56302 
C 543.416775 332.71549 542.267115 332.239285 541.068526 332.239285 
C 539.869936 332.239285 538.720277 332.71549 537.872746 333.56302 
C 537.025215 334.410551 536.549011 335.560211 536.549011 336.7588 
C 536.549011 337.957389 537.025215 339.107049 537.872746 339.95458 
C 538.720277 340.80211 539.869936 341.278315 541.068526 341.278315 
z
" style="fill:#bb8bff;stroke:#bb8bff;stroke-linejoin:miter;stroke-width:1.5;"/>
   </g>
   <g id="patch_41">
    <path clip-path="url(#p0ee68c8fb1)" d="M 541.068526 387.632315 
C 542.267115 387.632315 543.416775 387.15611 544.264305 386.30858 
C 545.111836 385.461049 545.588041 384.311389 545.588041 383.1128 
C 545.588041 381.914211 545.111836 380.764551 544.264305 379.91702 
C 543.416775 379.06949 542.267115 378.593285 541.068526 378.593285 
C 539.869936 378.593285 538.720277 379.06949 537.872746 379.91702 
C 537.025215 380.764551 536.549011 381.914211 536.549011 383.1128 
C 536.549011 384.311389 537.025215 385.461049 537.872746 386.30858 
C 538.720277 387.15611 539.869936 387.632315 541.068526 387.632315 
z
" style="fill:#bb8bff;stroke:#bb8bff;stroke-linejoin:miter;stroke-width:1.5;"/>
   </g>
   <g id="patch_42">
    <path clip-path="url(#p0ee68c8fb1)" d="M 541.068526 486.366335 
C 543.865234 486.366335 546.547773 485.255191 548.525345 483.277619 
C 550.502917 481.300048 551.614061 478.617509 551.614061 475.8208 
C 551.614061 473.024091 550.502917 470.341552 548.525345 468.363981 
C 546.547773 466.386409 543.865234 465.275265 541.068526 465.275265 
C 538.271817 465.275265 535.589278 466.386409 533.611706 468.363981 
C 531.634135 470.341552 530.522991 473.024091 530.522991 475.8208 
C 530.522991 478.617509 531.634135 481.300048 533.611706 483.277619 
C 535.589278 485.255191 538.271817 486.366335 541.068526 486.366335 
z
" style="fill:#bb8bff;stroke:#bb8bff;stroke-linejoin:miter;stroke-width:2;"/>
   </g>
   <g id="line2d_18">
    <path clip-path="url(#p0ee68c8fb1)" d="M 216.590526 111.01482 
L 216.590526 98.96278 
" style="fill:none;stroke:#ffffff;stroke-linecap:square;stroke-width:2;"/>
   </g>
   <g id="line2d_19">
    <path clip-path="url(#p0ee68c8fb1)" d="M 210.564506 104.9888 
L 222.616546 104.9888 
" style="fill:none;stroke:#ffffff;stroke-linecap:square;stroke-width:2;"/>
   </g>
   <g id="line2d_20">
    <path clip-path="url(#p0ee68c8fb1)" d="M 262.944526 157.36882 
L 262.944526 145.31678 
" style="fill:none;stroke:#ffffff;stroke-linecap:square;stroke-width:2;"/>
   </g>
   <g id="line2d_21">
    <path clip-path="url(#p0ee68c8fb1)" d="M 256.918506 151.3428 
L 268.970546 151.3428 
" style="fill:none;stroke:#ffffff;stroke-linecap:square;stroke-width:2;"/>
   </g>
   <g id="line2d_22">
    <path clip-path="url(#p0ee68c8fb1)" d="M 309.298526 203.72282 
L 309.298526 191.67078 
" style="fill:none;stroke:#ffffff;stroke-linecap:square;stroke-width:2;"/>
   </g>
   <g id="line2d_23">
    <path clip-path="url(#p0ee68c8fb1)" d="M 303.272506 197.6968 
L 315.324546 197.6968 
" style="fill:none;stroke:#ffffff;stroke-linecap:square;stroke-width:2;"/>
   </g>
   <g id="line2d_24">
    <path clip-path="url(#p0ee68c8fb1)" d="M 355.652526 250.07682 
L 355.652526 238.02478 
" style="fill:none;stroke:#ffffff;stroke-linecap:square;stroke-width:2;"/>
   </g>
   <g id="line2d_25">
    <path clip-path="url(#p0ee68c8fb1)" d="M 349.626506 244.0508 
L 361.678546 244.0508 
" style="fill:none;stroke:#ffffff;stroke-linecap:square;stroke-width:2;"/>
   </g>
   <g id="line2d_26">
    <path clip-path="url(#p0ee68c8fb1)" d="M 402.006526 296.43082 
L 402.006526 284.37878 
" style="fill:none;stroke:#ffffff;stroke-linecap:square;stroke-width:2;"/>
   </g>
   <g id="line2d_27">
    <path clip-path="url(#p0ee68c8fb1)" d="M 395.980506 290.4048 
L 408.032546 290.4048 
" style="fill:none;stroke:#ffffff;stroke-linecap:square;stroke-width:2;"/>
   </g>
   <g id="line2d_28">
    <path clip-path="url(#p0ee68c8fb1)" d="M 448.360526 342.78482 
L 448.360526 330.73278 
" style="fill:none;stroke:#ffffff;stroke-linecap:square;stroke-width:2;"/>
   </g>
   <g id="line2d_29">
    <path clip-path="url(#p0ee68c8fb1)" d="M 442.334506 336.7588 
L 454.386546 336.7588 
" style="fill:none;stroke:#ffffff;stroke-linecap:square;stroke-width:2;"/>
   </g>
   <g id="line2d_30">
    <path clip-path="url(#p0ee68c8fb1)" d="M 494.714526 389.13882 
L 494.714526 377.08678 
" style="fill:none;stroke:#ffffff;stroke-linecap:square;stroke-width:2;"/>
   </g>
   <g id="line2d_31">
    <path clip-path="url(#p0ee68c8fb1)" d="M 488.688506 383.1128 
L 500.740546 383.1128 
" style="fill:none;stroke:#ffffff;stroke-linecap:square;stroke-width:2;"/>
   </g>
   <g id="line2d_32">
    <path clip-path="url(#p0ee68c8fb1)" d="M 541.068526 481.84682 
L 541.068526 469.79478 
" style="fill:none;stroke:#ffffff;stroke-linecap:square;stroke-width:2;"/>
   </g>
   <g id="line2d_33">
    <path clip-path="url(#p0ee68c8fb1)" d="M 535.042506 475.8208 
L 547.094546 475.8208 
" style="fill:none;stroke:#ffffff;stroke-linecap:square;stroke-width:2;"/>
   </g>
   <g id="line2d_34">
    <path clip-path="url(#p0ee68c8fb1)" d="M 587.422526 81.8118 
L 587.422526 128.1658 
" style="fill:none;stroke:#000000;stroke-dasharray:3.7,1.6;stroke-dashoffset:0;"/>
   </g>
   <g id="line2d_35">
    <path clip-path="url(#p0ee68c8fb1)" d="M 587.422526 128.1658 
L 587.422526 174.5198 
" style="fill:none;stroke:#000000;stroke-dasharray:3.7,1.6;stroke-dashoffset:0;"/>
   </g>
   <g id="line2d_36">
    <path clip-path="url(#p0ee68c8fb1)" d="M 587.422526 174.5198 
L 587.422526 220.8738 
" style="fill:none;stroke:#000000;stroke-dasharray:3.7,1.6;stroke-dashoffset:0;"/>
   </g>
   <g id="line2d_37">
    <path clip-path="url(#p0ee68c8fb1)" d="M 587.422526 220.8738 
L 587.422526 267.2278 
" style="fill:none;stroke:#000000;stroke-dasharray:3.7,1.6;stroke-dashoffset:0;"/>
   </g>
   <g id="line2d_38">
    <path clip-path="url(#p0ee68c8fb1)" d="M 587.422526 267.2278 
L 587.422526 313.5818 
" style="fill:none;stroke:#000000;stroke-dasharray:3.7,1.6;stroke-dashoffset:0;"/>
   </g>
   <g id="line2d_39">
    <path clip-path="url(#p0ee68c8fb1)" d="M 587.422526 313.5818 
L 587.422526 359.9358 
" style="fill:none;stroke:#000000;stroke-dasharray:3.7,1.6;stroke-dashoffset:0;"/>
   </g>
   <g id="line2d_40">
    <path clip-path="url(#p0ee68c8fb1)" d="M 587.422526 359.9358 
L 587.422526 406.2898 
" style="fill:none;stroke:#000000;stroke-dasharray:3.7,1.6;stroke-dashoffset:0;"/>
   </g>
   <g id="line2d_41">
    <path clip-path="url(#p0ee68c8fb1)" d="M 587.422526 406.2898 
L 587.422526 452.6438 
" style="fill:none;stroke:#000000;stroke-dasharray:3.7,1.6;stroke-dashoffset:0;"/>
   </g>
   <g id="line2d_42">
    <path clip-path="url(#p0ee68c8fb1)" d="M 587.422526 452.6438 
L 587.422526 498.9978 
" style="fill:none;stroke:#000000;stroke-dasharray:3.7,1.6;stroke-dashoffset:0;"/>
   </g>
   <g id="text_1">
    <g clip-path="url(#p0ee68c8fb1)">
     <!-- H -->
     <g transform="translate(165.348322 108.575987)scale(0.13 -0.13)">
      <defs>
       <path d="M 628 4666 
L 1259 4666 
L 1259 2753 
L 3553 2753 
L 3553 4666 
L 4184 4666 
L 4184 0 
L 3553 0 
L 3553 2222 
L 1259 2222 
L 1259 0 
L 628 0 
L 628 4666 
z
" id="DejaVuSans-48" transform="scale(0.015625)"/>
      </defs>
      <use xlink:href="#DejaVuSans-48"/>
     </g>
    </g>
   </g>
   <g id="text_2">
    <g clip-path="url(#p0ee68c8fb1)">
     <!-- H -->
     <g transform="translate(165.348322 154.929987)scale(0.13 -0.13)">
      <use xlink:href="#DejaVuSans-48"/>
     </g>
    </g>
   </g>
   <g id="text_3">
    <g clip-path="url(#p0ee68c8fb1)">
     <!-- H -->
     <g transform="translate(165.348322 201.283987)scale(0.13 -0.13)">
      <use xlink:href="#DejaVuSans-48"/>
     </g>
    </g>
   </g>
   <g id="text_4">
    <g clip-path="url(#p0ee68c8fb1)">
     <!-- H -->
     <g transform="translate(165.348322 247.637988)scale(0.13 -0.13)">
      <use xlink:href="#DejaVuSans-48"/>
     </g>
    </g>
   </g>
   <g id="text_5">
    <g clip-path="url(#p0ee68c8fb1)">
     <!-- H -->
     <g transform="translate(165.348322 293.991987)scale(0.13 -0.13)">
      <use xlink:href="#DejaVuSans-48"/>
     </g>
    </g>
   </g>
   <g id="text_6">
    <g clip-path="url(#p0ee68c8fb1)">
     <!-- H -->
     <g transform="translate(165.348322 340.345987)scale(0.13 -0.13)">
      <use xlink:href="#DejaVuSans-48"/>
     </g>
    </g>
   </g>
   <g id="text_7">
    <g clip-path="url(#p0ee68c8fb1)">
     <!-- H -->
     <g transform="translate(165.348322 386.699988)scale(0.13 -0.13)">
      <use xlink:href="#DejaVuSans-48"/>
     </g>
    </g>
   </g>
   <g id="text_8">
    <g clip-path="url(#p0ee68c8fb1)">
     <!-- H -->
     <g transform="translate(165.348322 433.053987)scale(0.13 -0.13)">
      <use xlink:href="#DejaVuSans-48"/>
     </g>
    </g>
   </g>
   <g id="text_9">
    <g clip-path="url(#p0ee68c8fb1)">
     <!-- X -->
     <g transform="translate(165.784026 479.407987)scale(0.13 -0.13)">
      <defs>
       <path d="M 403 4666 
L 1081 4666 
L 2241 2931 
L 3406 4666 
L 4084 4666 
L 2584 2425 
L 4184 0 
L 3506 0 
L 2194 1984 
L 872 0 
L 191 0 
L 1856 2491 
L 403 4666 
z
" id="DejaVuSans-58" transform="scale(0.015625)"/>
      </defs>
      <use xlink:href="#DejaVuSans-58"/>
     </g>
    </g>
   </g>
   <g id="text_10">
    <g clip-path="url(#p0ee68c8fb1)">
     <!-- H -->
     <g transform="translate(211.702322 479.407987)scale(0.13 -0.13)">
      <use xlink:href="#DejaVuSans-48"/>
     </g>
    </g>
   </g>
   <g id="text_11">
    <g clip-path="url(#p0ee68c8fb1)">
     <!-- ${q}_{0}$ -->
     <g transform="translate(117.897066 109.439777)scale(0.1625 -0.1625)">
      <defs>
       <path d="M 2669 525 
Q 2438 222 2123 65 
Q 1809 -91 1428 -91 
Q 897 -91 595 267 
Q 294 625 294 1253 
Q 294 1759 480 2231 
Q 666 2703 1013 3078 
Q 1238 3322 1530 3453 
Q 1822 3584 2144 3584 
Q 2531 3584 2781 3431 
Q 3031 3278 3144 2969 
L 3244 3494 
L 3822 3494 
L 2888 -1319 
L 2309 -1319 
L 2669 525 
z
M 891 1338 
Q 891 875 1084 633 
Q 1278 391 1644 391 
Q 2188 391 2572 911 
Q 2956 1431 2956 2175 
Q 2956 2625 2757 2864 
Q 2559 3103 2188 3103 
Q 1916 3103 1684 2976 
Q 1453 2850 1281 2606 
Q 1100 2350 995 2006 
Q 891 1663 891 1338 
z
" id="DejaVuSans-Oblique-71" transform="scale(0.015625)"/>
       <path d="M 2034 4250 
Q 1547 4250 1301 3770 
Q 1056 3291 1056 2328 
Q 1056 1369 1301 889 
Q 1547 409 2034 409 
Q 2525 409 2770 889 
Q 3016 1369 3016 2328 
Q 3016 3291 2770 3770 
Q 2525 4250 2034 4250 
z
M 2034 4750 
Q 2819 4750 3233 4129 
Q 3647 3509 3647 2328 
Q 3647 1150 3233 529 
Q 2819 -91 2034 -91 
Q 1250 -91 836 529 
Q 422 1150 422 2328 
Q 422 3509 836 4129 
Q 1250 4750 2034 4750 
z
" id="DejaVuSans-30" transform="scale(0.015625)"/>
      </defs>
      <use xlink:href="#DejaVuSans-Oblique-71"/>
      <use transform="translate(63.476562 -16.40625)scale(0.7)" xlink:href="#DejaVuSans-30"/>
     </g>
    </g>
   </g>
   <g id="text_12">
    <g clip-path="url(#p0ee68c8fb1)">
     <!-- ${q}_{1}$ -->
     <g transform="translate(117.897066 155.793777)scale(0.1625 -0.1625)">
      <defs>
       <path d="M 794 531 
L 1825 531 
L 1825 4091 
L 703 3866 
L 703 4441 
L 1819 4666 
L 2450 4666 
L 2450 531 
L 3481 531 
L 3481 0 
L 794 0 
L 794 531 
z
" id="DejaVuSans-31" transform="scale(0.015625)"/>
      </defs>
      <use xlink:href="#DejaVuSans-Oblique-71"/>
      <use transform="translate(63.476562 -16.40625)scale(0.7)" xlink:href="#DejaVuSans-31"/>
     </g>
    </g>
   </g>
   <g id="text_13">
    <g clip-path="url(#p0ee68c8fb1)">
     <!-- ${q}_{2}$ -->
     <g transform="translate(117.897066 202.147777)scale(0.1625 -0.1625)">
      <defs>
       <path d="M 1228 531 
L 3431 531 
L 3431 0 
L 469 0 
L 469 531 
Q 828 903 1448 1529 
Q 2069 2156 2228 2338 
Q 2531 2678 2651 2914 
Q 2772 3150 2772 3378 
Q 2772 3750 2511 3984 
Q 2250 4219 1831 4219 
Q 1534 4219 1204 4116 
Q 875 4013 500 3803 
L 500 4441 
Q 881 4594 1212 4672 
Q 1544 4750 1819 4750 
Q 2544 4750 2975 4387 
Q 3406 4025 3406 3419 
Q 3406 3131 3298 2873 
Q 3191 2616 2906 2266 
Q 2828 2175 2409 1742 
Q 1991 1309 1228 531 
z
" id="DejaVuSans-32" transform="scale(0.015625)"/>
      </defs>
      <use xlink:href="#DejaVuSans-Oblique-71"/>
      <use transform="translate(63.476562 -16.40625)scale(0.7)" xlink:href="#DejaVuSans-32"/>
     </g>
    </g>
   </g>
   <g id="text_14">
    <g clip-path="url(#p0ee68c8fb1)">
     <!-- ${q}_{3}$ -->
     <g transform="translate(117.897066 248.501777)scale(0.1625 -0.1625)">
      <defs>
       <path d="M 2597 2516 
Q 3050 2419 3304 2112 
Q 3559 1806 3559 1356 
Q 3559 666 3084 287 
Q 2609 -91 1734 -91 
Q 1441 -91 1130 -33 
Q 819 25 488 141 
L 488 750 
Q 750 597 1062 519 
Q 1375 441 1716 441 
Q 2309 441 2620 675 
Q 2931 909 2931 1356 
Q 2931 1769 2642 2001 
Q 2353 2234 1838 2234 
L 1294 2234 
L 1294 2753 
L 1863 2753 
Q 2328 2753 2575 2939 
Q 2822 3125 2822 3475 
Q 2822 3834 2567 4026 
Q 2313 4219 1838 4219 
Q 1578 4219 1281 4162 
Q 984 4106 628 3988 
L 628 4550 
Q 988 4650 1302 4700 
Q 1616 4750 1894 4750 
Q 2613 4750 3031 4423 
Q 3450 4097 3450 3541 
Q 3450 3153 3228 2886 
Q 3006 2619 2597 2516 
z
" id="DejaVuSans-33" transform="scale(0.015625)"/>
      </defs>
      <use xlink:href="#DejaVuSans-Oblique-71"/>
      <use transform="translate(63.476562 -16.40625)scale(0.7)" xlink:href="#DejaVuSans-33"/>
     </g>
    </g>
   </g>
   <g id="text_15">
    <g clip-path="url(#p0ee68c8fb1)">
     <!-- ${q}_{4}$ -->
     <g transform="translate(117.897066 294.855777)scale(0.1625 -0.1625)">
      <defs>
       <path d="M 2419 4116 
L 825 1625 
L 2419 1625 
L 2419 4116 
z
M 2253 4666 
L 3047 4666 
L 3047 1625 
L 3713 1625 
L 3713 1100 
L 3047 1100 
L 3047 0 
L 2419 0 
L 2419 1100 
L 313 1100 
L 313 1709 
L 2253 4666 
z
" id="DejaVuSans-34" transform="scale(0.015625)"/>
      </defs>
      <use xlink:href="#DejaVuSans-Oblique-71"/>
      <use transform="translate(63.476562 -16.40625)scale(0.7)" xlink:href="#DejaVuSans-34"/>
     </g>
    </g>
   </g>
   <g id="text_16">
    <g clip-path="url(#p0ee68c8fb1)">
     <!-- ${q}_{5}$ -->
     <g transform="translate(117.897066 341.209777)scale(0.1625 -0.1625)">
      <defs>
       <path d="M 691 4666 
L 3169 4666 
L 3169 4134 
L 1269 4134 
L 1269 2991 
Q 1406 3038 1543 3061 
Q 1681 3084 1819 3084 
Q 2600 3084 3056 2656 
Q 3513 2228 3513 1497 
Q 3513 744 3044 326 
Q 2575 -91 1722 -91 
Q 1428 -91 1123 -41 
Q 819 9 494 109 
L 494 744 
Q 775 591 1075 516 
Q 1375 441 1709 441 
Q 2250 441 2565 725 
Q 2881 1009 2881 1497 
Q 2881 1984 2565 2268 
Q 2250 2553 1709 2553 
Q 1456 2553 1204 2497 
Q 953 2441 691 2322 
L 691 4666 
z
" id="DejaVuSans-35" transform="scale(0.015625)"/>
      </defs>
      <use xlink:href="#DejaVuSans-Oblique-71"/>
      <use transform="translate(63.476562 -16.40625)scale(0.7)" xlink:href="#DejaVuSans-35"/>
     </g>
    </g>
   </g>
   <g id="text_17">
    <g clip-path="url(#p0ee68c8fb1)">
     <!-- ${q}_{6}$ -->
     <g transform="translate(117.897066 387.563777)scale(0.1625 -0.1625)">
      <defs>
       <path d="M 2113 2584 
Q 1688 2584 1439 2293 
Q 1191 2003 1191 1497 
Q 1191 994 1439 701 
Q 1688 409 2113 409 
Q 2538 409 2786 701 
Q 3034 994 3034 1497 
Q 3034 2003 2786 2293 
Q 2538 2584 2113 2584 
z
M 3366 4563 
L 3366 3988 
Q 3128 4100 2886 4159 
Q 2644 4219 2406 4219 
Q 1781 4219 1451 3797 
Q 1122 3375 1075 2522 
Q 1259 2794 1537 2939 
Q 1816 3084 2150 3084 
Q 2853 3084 3261 2657 
Q 3669 2231 3669 1497 
Q 3669 778 3244 343 
Q 2819 -91 2113 -91 
Q 1303 -91 875 529 
Q 447 1150 447 2328 
Q 447 3434 972 4092 
Q 1497 4750 2381 4750 
Q 2619 4750 2861 4703 
Q 3103 4656 3366 4563 
z
" id="DejaVuSans-36" transform="scale(0.015625)"/>
      </defs>
      <use xlink:href="#DejaVuSans-Oblique-71"/>
      <use transform="translate(63.476562 -16.40625)scale(0.7)" xlink:href="#DejaVuSans-36"/>
     </g>
    </g>
   </g>
   <g id="text_18">
    <g clip-path="url(#p0ee68c8fb1)">
     <!-- ${q}_{7}$ -->
     <g transform="translate(117.897066 433.917777)scale(0.1625 -0.1625)">
      <defs>
       <path d="M 525 4666 
L 3525 4666 
L 3525 4397 
L 1831 0 
L 1172 0 
L 2766 4134 
L 525 4134 
L 525 4666 
z
" id="DejaVuSans-37" transform="scale(0.015625)"/>
      </defs>
      <use xlink:href="#DejaVuSans-Oblique-71"/>
      <use transform="translate(63.476562 -16.40625)scale(0.7)" xlink:href="#DejaVuSans-37"/>
     </g>
    </g>
   </g>
   <g id="text_19">
    <g clip-path="url(#p0ee68c8fb1)">
     <!-- ${q}_{8}$ -->
     <g transform="translate(117.897066 480.271777)scale(0.1625 -0.1625)">
      <defs>
       <path d="M 2034 2216 
Q 1584 2216 1326 1975 
Q 1069 1734 1069 1313 
Q 1069 891 1326 650 
Q 1584 409 2034 409 
Q 2484 409 2743 651 
Q 3003 894 3003 1313 
Q 3003 1734 2745 1975 
Q 2488 2216 2034 2216 
z
M 1403 2484 
Q 997 2584 770 2862 
Q 544 3141 544 3541 
Q 544 4100 942 4425 
Q 1341 4750 2034 4750 
Q 2731 4750 3128 4425 
Q 3525 4100 3525 3541 
Q 3525 3141 3298 2862 
Q 3072 2584 2669 2484 
Q 3125 2378 3379 2068 
Q 3634 1759 3634 1313 
Q 3634 634 3220 271 
Q 2806 -91 2034 -91 
Q 1263 -91 848 271 
Q 434 634 434 1313 
Q 434 1759 690 2068 
Q 947 2378 1403 2484 
z
M 1172 3481 
Q 1172 3119 1398 2916 
Q 1625 2713 2034 2713 
Q 2441 2713 2670 2916 
Q 2900 3119 2900 3481 
Q 2900 3844 2670 4047 
Q 2441 4250 2034 4250 
Q 1625 4250 1398 4047 
Q 1172 3844 1172 3481 
z
" id="DejaVuSans-38" transform="scale(0.015625)"/>
      </defs>
      <use xlink:href="#DejaVuSans-Oblique-71"/>
      <use transform="translate(63.476562 -16.40625)scale(0.7)" xlink:href="#DejaVuSans-38"/>
     </g>
    </g>
   </g>
  </g>
 </g>
 <defs>
  <clipPath id="p0ee68c8fb1">
   <rect height="435.7276" width="530.219997" x="87.796168" y="67.9056"/>
  </clipPath>
 </defs>
</svg>
