<?xml version="1.0" encoding="utf-8" standalone="no"?>
<!DOCTYPE svg PUBLIC "-//W3C//DTD SVG 1.1//EN"
  "http://www.w3.org/Graphics/SVG/1.1/DTD/svg11.dtd">
<svg height="325.08pt" version="1.1" viewBox="0 0 646.279508 325.08" width="646.279508pt" xmlns="http://www.w3.org/2000/svg" xmlns:xlink="http://www.w3.org/1999/xlink">
 <metadata>
  <rdf:RDF xmlns:cc="http://creativecommons.org/ns#" xmlns:dc="http://purl.org/dc/elements/1.1/" xmlns:rdf="http://www.w3.org/1999/02/22-rdf-syntax-ns#">
   <cc:Work>
    <dc:type rdf:resource="http://purl.org/dc/dcmitype/StillImage"/>
    <dc:date>2021-09-13T17:06:45.421541</dc:date>
    <dc:format>image/svg+xml</dc:format>
    <dc:creator>
     <cc:Agent>
      <dc:title>Matplotlib v3.4.3, https://matplotlib.org/</dc:title>
     </cc:Agent>
    </dc:creator>
   </cc:Work>
  </rdf:RDF>
 </metadata>
 <defs>
  <style type="text/css">*{stroke-linecap:butt;stroke-linejoin:round;}</style>
 </defs>
 <g id="figure_1">
  <g id="patch_1">
   <path d="M 0 325.08 
L 646.279508 325.08 
L 646.279508 0 
L 0 0 
z
" style="fill:#ffffff;"/>
  </g>
  <g id="axes_1">
   <g id="line2d_1">
    <path clip-path="url(#p08ca0416e0)" d="M 153.579058 76.0928 
L 575.400458 76.0928 
" style="fill:none;stroke:#000000;stroke-linecap:square;stroke-width:2;"/>
   </g>
   <g id="line2d_2">
    <path clip-path="url(#p08ca0416e0)" d="M 153.579058 122.4468 
L 575.400458 122.4468 
" style="fill:none;stroke:#000000;stroke-linecap:square;stroke-width:2;"/>
   </g>
   <g id="line2d_3">
    <path clip-path="url(#p08ca0416e0)" d="M 153.579058 168.8008 
L 575.400458 168.8008 
" style="fill:none;stroke:#000000;stroke-linecap:square;stroke-width:2;"/>
   </g>
   <g id="line2d_4">
    <path clip-path="url(#p08ca0416e0)" d="M 153.579058 215.1548 
L 575.400458 215.1548 
" style="fill:none;stroke:#000000;stroke-linecap:square;stroke-width:2;"/>
   </g>
   <g id="line2d_5">
    <path clip-path="url(#p08ca0416e0)" d="M 153.579058 261.5088 
L 575.400458 261.5088 
" style="fill:none;stroke:#000000;stroke-linecap:square;stroke-width:2;"/>
   </g>
   <g id="line2d_6">
    <path clip-path="url(#p08ca0416e0)" d="M 178.610218 122.4468 
L 178.610218 76.0928 
" style="fill:none;stroke:#6fa4ff;stroke-linecap:square;stroke-width:2;"/>
   </g>
   <g id="line2d_7">
    <path clip-path="url(#p08ca0416e0)" d="M 224.964218 168.8008 
L 224.964218 122.4468 
" style="fill:none;stroke:#6fa4ff;stroke-linecap:square;stroke-width:2;"/>
   </g>
   <g id="line2d_8">
    <path clip-path="url(#p08ca0416e0)" d="M 271.318218 215.1548 
L 271.318218 168.8008 
" style="fill:none;stroke:#6fa4ff;stroke-linecap:square;stroke-width:2;"/>
   </g>
   <g id="line2d_9">
    <path clip-path="url(#p08ca0416e0)" d="M 364.026218 261.5088 
L 364.026218 76.0928 
" style="fill:none;stroke:#bb8bff;stroke-linecap:square;stroke-width:2;"/>
   </g>
   <g id="line2d_10">
    <path clip-path="url(#p08ca0416e0)" d="M 456.734218 215.1548 
L 456.734218 168.8008 
" style="fill:none;stroke:#6fa4ff;stroke-linecap:square;stroke-width:2;"/>
   </g>
   <g id="line2d_11">
    <path clip-path="url(#p08ca0416e0)" d="M 503.088218 168.8008 
L 503.088218 122.4468 
" style="fill:none;stroke:#6fa4ff;stroke-linecap:square;stroke-width:2;"/>
   </g>
   <g id="line2d_12">
    <path clip-path="url(#p08ca0416e0)" d="M 549.442218 122.4468 
L 549.442218 76.0928 
" style="fill:none;stroke:#6fa4ff;stroke-linecap:square;stroke-width:2;"/>
   </g>
   <g id="text_1">
    <!-- Type 1 verification circuit, for input vector [1, 5, 7, 10]; 'VC_1' gate -->
    <g transform="translate(130.623248 33.0096)scale(0.12 -0.12)">
     <defs>
      <path d="M -19 4666 
L 3928 4666 
L 3928 4134 
L 2272 4134 
L 2272 0 
L 1638 0 
L 1638 4134 
L -19 4134 
L -19 4666 
z
" id="DejaVuSans-54" transform="scale(0.015625)"/>
      <path d="M 2059 -325 
Q 1816 -950 1584 -1140 
Q 1353 -1331 966 -1331 
L 506 -1331 
L 506 -850 
L 844 -850 
Q 1081 -850 1212 -737 
Q 1344 -625 1503 -206 
L 1606 56 
L 191 3500 
L 800 3500 
L 1894 763 
L 2988 3500 
L 3597 3500 
L 2059 -325 
z
" id="DejaVuSans-79" transform="scale(0.015625)"/>
      <path d="M 1159 525 
L 1159 -1331 
L 581 -1331 
L 581 3500 
L 1159 3500 
L 1159 2969 
Q 1341 3281 1617 3432 
Q 1894 3584 2278 3584 
Q 2916 3584 3314 3078 
Q 3713 2572 3713 1747 
Q 3713 922 3314 415 
Q 2916 -91 2278 -91 
Q 1894 -91 1617 61 
Q 1341 213 1159 525 
z
M 3116 1747 
Q 3116 2381 2855 2742 
Q 2594 3103 2138 3103 
Q 1681 3103 1420 2742 
Q 1159 2381 1159 1747 
Q 1159 1113 1420 752 
Q 1681 391 2138 391 
Q 2594 391 2855 752 
Q 3116 1113 3116 1747 
z
" id="DejaVuSans-70" transform="scale(0.015625)"/>
      <path d="M 3597 1894 
L 3597 1613 
L 953 1613 
Q 991 1019 1311 708 
Q 1631 397 2203 397 
Q 2534 397 2845 478 
Q 3156 559 3463 722 
L 3463 178 
Q 3153 47 2828 -22 
Q 2503 -91 2169 -91 
Q 1331 -91 842 396 
Q 353 884 353 1716 
Q 353 2575 817 3079 
Q 1281 3584 2069 3584 
Q 2775 3584 3186 3129 
Q 3597 2675 3597 1894 
z
M 3022 2063 
Q 3016 2534 2758 2815 
Q 2500 3097 2075 3097 
Q 1594 3097 1305 2825 
Q 1016 2553 972 2059 
L 3022 2063 
z
" id="DejaVuSans-65" transform="scale(0.015625)"/>
      <path id="DejaVuSans-20" transform="scale(0.015625)"/>
      <path d="M 794 531 
L 1825 531 
L 1825 4091 
L 703 3866 
L 703 4441 
L 1819 4666 
L 2450 4666 
L 2450 531 
L 3481 531 
L 3481 0 
L 794 0 
L 794 531 
z
" id="DejaVuSans-31" transform="scale(0.015625)"/>
      <path d="M 191 3500 
L 800 3500 
L 1894 563 
L 2988 3500 
L 3597 3500 
L 2284 0 
L 1503 0 
L 191 3500 
z
" id="DejaVuSans-76" transform="scale(0.015625)"/>
      <path d="M 2631 2963 
Q 2534 3019 2420 3045 
Q 2306 3072 2169 3072 
Q 1681 3072 1420 2755 
Q 1159 2438 1159 1844 
L 1159 0 
L 581 0 
L 581 3500 
L 1159 3500 
L 1159 2956 
Q 1341 3275 1631 3429 
Q 1922 3584 2338 3584 
Q 2397 3584 2469 3576 
Q 2541 3569 2628 3553 
L 2631 2963 
z
" id="DejaVuSans-72" transform="scale(0.015625)"/>
      <path d="M 603 3500 
L 1178 3500 
L 1178 0 
L 603 0 
L 603 3500 
z
M 603 4863 
L 1178 4863 
L 1178 4134 
L 603 4134 
L 603 4863 
z
" id="DejaVuSans-69" transform="scale(0.015625)"/>
      <path d="M 2375 4863 
L 2375 4384 
L 1825 4384 
Q 1516 4384 1395 4259 
Q 1275 4134 1275 3809 
L 1275 3500 
L 2222 3500 
L 2222 3053 
L 1275 3053 
L 1275 0 
L 697 0 
L 697 3053 
L 147 3053 
L 147 3500 
L 697 3500 
L 697 3744 
Q 697 4328 969 4595 
Q 1241 4863 1831 4863 
L 2375 4863 
z
" id="DejaVuSans-66" transform="scale(0.015625)"/>
      <path d="M 3122 3366 
L 3122 2828 
Q 2878 2963 2633 3030 
Q 2388 3097 2138 3097 
Q 1578 3097 1268 2742 
Q 959 2388 959 1747 
Q 959 1106 1268 751 
Q 1578 397 2138 397 
Q 2388 397 2633 464 
Q 2878 531 3122 666 
L 3122 134 
Q 2881 22 2623 -34 
Q 2366 -91 2075 -91 
Q 1284 -91 818 406 
Q 353 903 353 1747 
Q 353 2603 823 3093 
Q 1294 3584 2113 3584 
Q 2378 3584 2631 3529 
Q 2884 3475 3122 3366 
z
" id="DejaVuSans-63" transform="scale(0.015625)"/>
      <path d="M 2194 1759 
Q 1497 1759 1228 1600 
Q 959 1441 959 1056 
Q 959 750 1161 570 
Q 1363 391 1709 391 
Q 2188 391 2477 730 
Q 2766 1069 2766 1631 
L 2766 1759 
L 2194 1759 
z
M 3341 1997 
L 3341 0 
L 2766 0 
L 2766 531 
Q 2569 213 2275 61 
Q 1981 -91 1556 -91 
Q 1019 -91 701 211 
Q 384 513 384 1019 
Q 384 1609 779 1909 
Q 1175 2209 1959 2209 
L 2766 2209 
L 2766 2266 
Q 2766 2663 2505 2880 
Q 2244 3097 1772 3097 
Q 1472 3097 1187 3025 
Q 903 2953 641 2809 
L 641 3341 
Q 956 3463 1253 3523 
Q 1550 3584 1831 3584 
Q 2591 3584 2966 3190 
Q 3341 2797 3341 1997 
z
" id="DejaVuSans-61" transform="scale(0.015625)"/>
      <path d="M 1172 4494 
L 1172 3500 
L 2356 3500 
L 2356 3053 
L 1172 3053 
L 1172 1153 
Q 1172 725 1289 603 
Q 1406 481 1766 481 
L 2356 481 
L 2356 0 
L 1766 0 
Q 1100 0 847 248 
Q 594 497 594 1153 
L 594 3053 
L 172 3053 
L 172 3500 
L 594 3500 
L 594 4494 
L 1172 4494 
z
" id="DejaVuSans-74" transform="scale(0.015625)"/>
      <path d="M 1959 3097 
Q 1497 3097 1228 2736 
Q 959 2375 959 1747 
Q 959 1119 1226 758 
Q 1494 397 1959 397 
Q 2419 397 2687 759 
Q 2956 1122 2956 1747 
Q 2956 2369 2687 2733 
Q 2419 3097 1959 3097 
z
M 1959 3584 
Q 2709 3584 3137 3096 
Q 3566 2609 3566 1747 
Q 3566 888 3137 398 
Q 2709 -91 1959 -91 
Q 1206 -91 779 398 
Q 353 888 353 1747 
Q 353 2609 779 3096 
Q 1206 3584 1959 3584 
z
" id="DejaVuSans-6f" transform="scale(0.015625)"/>
      <path d="M 3513 2113 
L 3513 0 
L 2938 0 
L 2938 2094 
Q 2938 2591 2744 2837 
Q 2550 3084 2163 3084 
Q 1697 3084 1428 2787 
Q 1159 2491 1159 1978 
L 1159 0 
L 581 0 
L 581 3500 
L 1159 3500 
L 1159 2956 
Q 1366 3272 1645 3428 
Q 1925 3584 2291 3584 
Q 2894 3584 3203 3211 
Q 3513 2838 3513 2113 
z
" id="DejaVuSans-6e" transform="scale(0.015625)"/>
      <path d="M 544 1381 
L 544 3500 
L 1119 3500 
L 1119 1403 
Q 1119 906 1312 657 
Q 1506 409 1894 409 
Q 2359 409 2629 706 
Q 2900 1003 2900 1516 
L 2900 3500 
L 3475 3500 
L 3475 0 
L 2900 0 
L 2900 538 
Q 2691 219 2414 64 
Q 2138 -91 1772 -91 
Q 1169 -91 856 284 
Q 544 659 544 1381 
z
M 1991 3584 
L 1991 3584 
z
" id="DejaVuSans-75" transform="scale(0.015625)"/>
      <path d="M 750 794 
L 1409 794 
L 1409 256 
L 897 -744 
L 494 -744 
L 750 256 
L 750 794 
z
" id="DejaVuSans-2c" transform="scale(0.015625)"/>
      <path d="M 550 4863 
L 1875 4863 
L 1875 4416 
L 1125 4416 
L 1125 -397 
L 1875 -397 
L 1875 -844 
L 550 -844 
L 550 4863 
z
" id="DejaVuSans-5b" transform="scale(0.015625)"/>
      <path d="M 691 4666 
L 3169 4666 
L 3169 4134 
L 1269 4134 
L 1269 2991 
Q 1406 3038 1543 3061 
Q 1681 3084 1819 3084 
Q 2600 3084 3056 2656 
Q 3513 2228 3513 1497 
Q 3513 744 3044 326 
Q 2575 -91 1722 -91 
Q 1428 -91 1123 -41 
Q 819 9 494 109 
L 494 744 
Q 775 591 1075 516 
Q 1375 441 1709 441 
Q 2250 441 2565 725 
Q 2881 1009 2881 1497 
Q 2881 1984 2565 2268 
Q 2250 2553 1709 2553 
Q 1456 2553 1204 2497 
Q 953 2441 691 2322 
L 691 4666 
z
" id="DejaVuSans-35" transform="scale(0.015625)"/>
      <path d="M 525 4666 
L 3525 4666 
L 3525 4397 
L 1831 0 
L 1172 0 
L 2766 4134 
L 525 4134 
L 525 4666 
z
" id="DejaVuSans-37" transform="scale(0.015625)"/>
      <path d="M 2034 4250 
Q 1547 4250 1301 3770 
Q 1056 3291 1056 2328 
Q 1056 1369 1301 889 
Q 1547 409 2034 409 
Q 2525 409 2770 889 
Q 3016 1369 3016 2328 
Q 3016 3291 2770 3770 
Q 2525 4250 2034 4250 
z
M 2034 4750 
Q 2819 4750 3233 4129 
Q 3647 3509 3647 2328 
Q 3647 1150 3233 529 
Q 2819 -91 2034 -91 
Q 1250 -91 836 529 
Q 422 1150 422 2328 
Q 422 3509 836 4129 
Q 1250 4750 2034 4750 
z
" id="DejaVuSans-30" transform="scale(0.015625)"/>
      <path d="M 1947 4863 
L 1947 -844 
L 622 -844 
L 622 -397 
L 1369 -397 
L 1369 4416 
L 622 4416 
L 622 4863 
L 1947 4863 
z
" id="DejaVuSans-5d" transform="scale(0.015625)"/>
      <path d="M 750 3309 
L 1409 3309 
L 1409 2516 
L 750 2516 
L 750 3309 
z
M 750 794 
L 1409 794 
L 1409 256 
L 897 -744 
L 494 -744 
L 750 256 
L 750 794 
z
" id="DejaVuSans-3b" transform="scale(0.015625)"/>
      <path d="M 1147 4666 
L 1147 2931 
L 616 2931 
L 616 4666 
L 1147 4666 
z
" id="DejaVuSans-27" transform="scale(0.015625)"/>
      <path d="M 1831 0 
L 50 4666 
L 709 4666 
L 2188 738 
L 3669 4666 
L 4325 4666 
L 2547 0 
L 1831 0 
z
" id="DejaVuSans-56" transform="scale(0.015625)"/>
      <path d="M 4122 4306 
L 4122 3641 
Q 3803 3938 3442 4084 
Q 3081 4231 2675 4231 
Q 1875 4231 1450 3742 
Q 1025 3253 1025 2328 
Q 1025 1406 1450 917 
Q 1875 428 2675 428 
Q 3081 428 3442 575 
Q 3803 722 4122 1019 
L 4122 359 
Q 3791 134 3420 21 
Q 3050 -91 2638 -91 
Q 1578 -91 968 557 
Q 359 1206 359 2328 
Q 359 3453 968 4101 
Q 1578 4750 2638 4750 
Q 3056 4750 3426 4639 
Q 3797 4528 4122 4306 
z
" id="DejaVuSans-43" transform="scale(0.015625)"/>
      <path d="M 3263 -1063 
L 3263 -1509 
L -63 -1509 
L -63 -1063 
L 3263 -1063 
z
" id="DejaVuSans-5f" transform="scale(0.015625)"/>
      <path d="M 2906 1791 
Q 2906 2416 2648 2759 
Q 2391 3103 1925 3103 
Q 1463 3103 1205 2759 
Q 947 2416 947 1791 
Q 947 1169 1205 825 
Q 1463 481 1925 481 
Q 2391 481 2648 825 
Q 2906 1169 2906 1791 
z
M 3481 434 
Q 3481 -459 3084 -895 
Q 2688 -1331 1869 -1331 
Q 1566 -1331 1297 -1286 
Q 1028 -1241 775 -1147 
L 775 -588 
Q 1028 -725 1275 -790 
Q 1522 -856 1778 -856 
Q 2344 -856 2625 -561 
Q 2906 -266 2906 331 
L 2906 616 
Q 2728 306 2450 153 
Q 2172 0 1784 0 
Q 1141 0 747 490 
Q 353 981 353 1791 
Q 353 2603 747 3093 
Q 1141 3584 1784 3584 
Q 2172 3584 2450 3431 
Q 2728 3278 2906 2969 
L 2906 3500 
L 3481 3500 
L 3481 434 
z
" id="DejaVuSans-67" transform="scale(0.015625)"/>
     </defs>
     <use xlink:href="#DejaVuSans-54"/>
     <use x="45.458984" xlink:href="#DejaVuSans-79"/>
     <use x="104.638672" xlink:href="#DejaVuSans-70"/>
     <use x="168.115234" xlink:href="#DejaVuSans-65"/>
     <use x="229.638672" xlink:href="#DejaVuSans-20"/>
     <use x="261.425781" xlink:href="#DejaVuSans-31"/>
     <use x="325.048828" xlink:href="#DejaVuSans-20"/>
     <use x="356.835938" xlink:href="#DejaVuSans-76"/>
     <use x="416.015625" xlink:href="#DejaVuSans-65"/>
     <use x="477.539062" xlink:href="#DejaVuSans-72"/>
     <use x="518.652344" xlink:href="#DejaVuSans-69"/>
     <use x="546.435547" xlink:href="#DejaVuSans-66"/>
     <use x="581.640625" xlink:href="#DejaVuSans-69"/>
     <use x="609.423828" xlink:href="#DejaVuSans-63"/>
     <use x="664.404297" xlink:href="#DejaVuSans-61"/>
     <use x="725.683594" xlink:href="#DejaVuSans-74"/>
     <use x="764.892578" xlink:href="#DejaVuSans-69"/>
     <use x="792.675781" xlink:href="#DejaVuSans-6f"/>
     <use x="853.857422" xlink:href="#DejaVuSans-6e"/>
     <use x="917.236328" xlink:href="#DejaVuSans-20"/>
     <use x="949.023438" xlink:href="#DejaVuSans-63"/>
     <use x="1004.003906" xlink:href="#DejaVuSans-69"/>
     <use x="1031.787109" xlink:href="#DejaVuSans-72"/>
     <use x="1070.650391" xlink:href="#DejaVuSans-63"/>
     <use x="1125.630859" xlink:href="#DejaVuSans-75"/>
     <use x="1189.009766" xlink:href="#DejaVuSans-69"/>
     <use x="1216.792969" xlink:href="#DejaVuSans-74"/>
     <use x="1256.001953" xlink:href="#DejaVuSans-2c"/>
     <use x="1287.789062" xlink:href="#DejaVuSans-20"/>
     <use x="1319.576172" xlink:href="#DejaVuSans-66"/>
     <use x="1354.78125" xlink:href="#DejaVuSans-6f"/>
     <use x="1415.962891" xlink:href="#DejaVuSans-72"/>
     <use x="1457.076172" xlink:href="#DejaVuSans-20"/>
     <use x="1488.863281" xlink:href="#DejaVuSans-69"/>
     <use x="1516.646484" xlink:href="#DejaVuSans-6e"/>
     <use x="1580.025391" xlink:href="#DejaVuSans-70"/>
     <use x="1643.501953" xlink:href="#DejaVuSans-75"/>
     <use x="1706.880859" xlink:href="#DejaVuSans-74"/>
     <use x="1746.089844" xlink:href="#DejaVuSans-20"/>
     <use x="1777.876953" xlink:href="#DejaVuSans-76"/>
     <use x="1837.056641" xlink:href="#DejaVuSans-65"/>
     <use x="1898.580078" xlink:href="#DejaVuSans-63"/>
     <use x="1953.560547" xlink:href="#DejaVuSans-74"/>
     <use x="1992.769531" xlink:href="#DejaVuSans-6f"/>
     <use x="2053.951172" xlink:href="#DejaVuSans-72"/>
     <use x="2095.064453" xlink:href="#DejaVuSans-20"/>
     <use x="2126.851562" xlink:href="#DejaVuSans-5b"/>
     <use x="2165.865234" xlink:href="#DejaVuSans-31"/>
     <use x="2229.488281" xlink:href="#DejaVuSans-2c"/>
     <use x="2261.275391" xlink:href="#DejaVuSans-20"/>
     <use x="2293.0625" xlink:href="#DejaVuSans-35"/>
     <use x="2356.685547" xlink:href="#DejaVuSans-2c"/>
     <use x="2388.472656" xlink:href="#DejaVuSans-20"/>
     <use x="2420.259766" xlink:href="#DejaVuSans-37"/>
     <use x="2483.882812" xlink:href="#DejaVuSans-2c"/>
     <use x="2515.669922" xlink:href="#DejaVuSans-20"/>
     <use x="2547.457031" xlink:href="#DejaVuSans-31"/>
     <use x="2611.080078" xlink:href="#DejaVuSans-30"/>
     <use x="2674.703125" xlink:href="#DejaVuSans-5d"/>
     <use x="2713.716797" xlink:href="#DejaVuSans-3b"/>
     <use x="2747.408203" xlink:href="#DejaVuSans-20"/>
     <use x="2779.195312" xlink:href="#DejaVuSans-27"/>
     <use x="2806.685547" xlink:href="#DejaVuSans-56"/>
     <use x="2875.09375" xlink:href="#DejaVuSans-43"/>
     <use x="2944.917969" xlink:href="#DejaVuSans-5f"/>
     <use x="2994.917969" xlink:href="#DejaVuSans-31"/>
     <use x="3058.541016" xlink:href="#DejaVuSans-27"/>
     <use x="3086.03125" xlink:href="#DejaVuSans-20"/>
     <use x="3117.818359" xlink:href="#DejaVuSans-67"/>
     <use x="3181.294922" xlink:href="#DejaVuSans-61"/>
     <use x="3242.574219" xlink:href="#DejaVuSans-74"/>
     <use x="3281.783203" xlink:href="#DejaVuSans-65"/>
    </g>
   </g>
   <g id="patch_2">
    <path clip-path="url(#p08ca0416e0)" d="M 178.610218 126.966315 
C 179.808808 126.966315 180.958467 126.49011 181.805998 125.64258 
C 182.653529 124.795049 183.129733 123.645389 183.129733 122.4468 
C 183.129733 121.248211 182.653529 120.098551 181.805998 119.25102 
C 180.958467 118.40349 179.808808 117.927285 178.610218 117.927285 
C 177.411629 117.927285 176.261969 118.40349 175.414439 119.25102 
C 174.566908 120.098551 174.090703 121.248211 174.090703 122.4468 
C 174.090703 123.645389 174.566908 124.795049 175.414439 125.64258 
C 176.261969 126.49011 177.411629 126.966315 178.610218 126.966315 
z
" style="fill:#6fa4ff;stroke:#6fa4ff;stroke-linejoin:miter;stroke-width:1.5;"/>
   </g>
   <g id="patch_3">
    <path clip-path="url(#p08ca0416e0)" d="M 178.610218 86.638335 
C 181.406927 86.638335 184.089466 85.527191 186.067038 83.549619 
C 188.044609 81.572048 189.155753 78.889509 189.155753 76.0928 
C 189.155753 73.296091 188.044609 70.613552 186.067038 68.635981 
C 184.089466 66.658409 181.406927 65.547265 178.610218 65.547265 
C 175.81351 65.547265 173.130971 66.658409 171.153399 68.635981 
C 169.175828 70.613552 168.064683 73.296091 168.064683 76.0928 
C 168.064683 78.889509 169.175828 81.572048 171.153399 83.549619 
C 173.130971 85.527191 175.81351 86.638335 178.610218 86.638335 
z
" style="fill:#6fa4ff;stroke:#6fa4ff;stroke-linejoin:miter;stroke-width:2;"/>
   </g>
   <g id="patch_4">
    <path clip-path="url(#p08ca0416e0)" d="M 224.964218 173.320315 
C 226.162808 173.320315 227.312467 172.84411 228.159998 171.99658 
C 229.007529 171.149049 229.483733 169.999389 229.483733 168.8008 
C 229.483733 167.602211 229.007529 166.452551 228.159998 165.60502 
C 227.312467 164.75749 226.162808 164.281285 224.964218 164.281285 
C 223.765629 164.281285 222.615969 164.75749 221.768439 165.60502 
C 220.920908 166.452551 220.444703 167.602211 220.444703 168.8008 
C 220.444703 169.999389 220.920908 171.149049 221.768439 171.99658 
C 222.615969 172.84411 223.765629 173.320315 224.964218 173.320315 
z
" style="fill:#6fa4ff;stroke:#6fa4ff;stroke-linejoin:miter;stroke-width:1.5;"/>
   </g>
   <g id="patch_5">
    <path clip-path="url(#p08ca0416e0)" d="M 224.964218 132.992335 
C 227.760927 132.992335 230.443466 131.881191 232.421038 129.903619 
C 234.398609 127.926048 235.509753 125.243509 235.509753 122.4468 
C 235.509753 119.650091 234.398609 116.967552 232.421038 114.989981 
C 230.443466 113.012409 227.760927 111.901265 224.964218 111.901265 
C 222.16751 111.901265 219.484971 113.012409 217.507399 114.989981 
C 215.529828 116.967552 214.418683 119.650091 214.418683 122.4468 
C 214.418683 125.243509 215.529828 127.926048 217.507399 129.903619 
C 219.484971 131.881191 222.16751 132.992335 224.964218 132.992335 
z
" style="fill:#6fa4ff;stroke:#6fa4ff;stroke-linejoin:miter;stroke-width:2;"/>
   </g>
   <g id="patch_6">
    <path clip-path="url(#p08ca0416e0)" d="M 271.318218 219.674315 
C 272.516808 219.674315 273.666467 219.19811 274.513998 218.35058 
C 275.361529 217.503049 275.837733 216.353389 275.837733 215.1548 
C 275.837733 213.956211 275.361529 212.806551 274.513998 211.95902 
C 273.666467 211.11149 272.516808 210.635285 271.318218 210.635285 
C 270.119629 210.635285 268.969969 211.11149 268.122439 211.95902 
C 267.274908 212.806551 266.798703 213.956211 266.798703 215.1548 
C 266.798703 216.353389 267.274908 217.503049 268.122439 218.35058 
C 268.969969 219.19811 270.119629 219.674315 271.318218 219.674315 
z
" style="fill:#6fa4ff;stroke:#6fa4ff;stroke-linejoin:miter;stroke-width:1.5;"/>
   </g>
   <g id="patch_7">
    <path clip-path="url(#p08ca0416e0)" d="M 271.318218 179.346335 
C 274.114927 179.346335 276.797466 178.235191 278.775038 176.257619 
C 280.752609 174.280048 281.863753 171.597509 281.863753 168.8008 
C 281.863753 166.004091 280.752609 163.321552 278.775038 161.343981 
C 276.797466 159.366409 274.114927 158.255265 271.318218 158.255265 
C 268.52151 158.255265 265.838971 159.366409 263.861399 161.343981 
C 261.883828 163.321552 260.772683 166.004091 260.772683 168.8008 
C 260.772683 171.597509 261.883828 174.280048 263.861399 176.257619 
C 265.838971 178.235191 268.52151 179.346335 271.318218 179.346335 
z
" style="fill:#6fa4ff;stroke:#6fa4ff;stroke-linejoin:miter;stroke-width:2;"/>
   </g>
   <g id="patch_8">
    <path clip-path="url(#p08ca0416e0)" d="M 302.607168 230.21985 
L 332.737268 230.21985 
L 332.737268 200.08975 
L 302.607168 200.08975 
z
" style="fill:#05bab6;stroke:#05bab6;stroke-linejoin:miter;stroke-width:1.5;"/>
   </g>
   <g id="patch_9">
    <path clip-path="url(#p08ca0416e0)" d="M 364.026218 80.612315 
C 365.224808 80.612315 366.374467 80.13611 367.221998 79.28858 
C 368.069529 78.441049 368.545733 77.291389 368.545733 76.0928 
C 368.545733 74.894211 368.069529 73.744551 367.221998 72.89702 
C 366.374467 72.04949 365.224808 71.573285 364.026218 71.573285 
C 362.827629 71.573285 361.677969 72.04949 360.830439 72.89702 
C 359.982908 73.744551 359.506703 74.894211 359.506703 76.0928 
C 359.506703 77.291389 359.982908 78.441049 360.830439 79.28858 
C 361.677969 80.13611 362.827629 80.612315 364.026218 80.612315 
z
" style="fill:#bb8bff;stroke:#bb8bff;stroke-linejoin:miter;stroke-width:1.5;"/>
   </g>
   <g id="patch_10">
    <path clip-path="url(#p08ca0416e0)" d="M 364.026218 126.966315 
C 365.224808 126.966315 366.374467 126.49011 367.221998 125.64258 
C 368.069529 124.795049 368.545733 123.645389 368.545733 122.4468 
C 368.545733 121.248211 368.069529 120.098551 367.221998 119.25102 
C 366.374467 118.40349 365.224808 117.927285 364.026218 117.927285 
C 362.827629 117.927285 361.677969 118.40349 360.830439 119.25102 
C 359.982908 120.098551 359.506703 121.248211 359.506703 122.4468 
C 359.506703 123.645389 359.982908 124.795049 360.830439 125.64258 
C 361.677969 126.49011 362.827629 126.966315 364.026218 126.966315 
z
" style="fill:#bb8bff;stroke:#bb8bff;stroke-linejoin:miter;stroke-width:1.5;"/>
   </g>
   <g id="patch_11">
    <path clip-path="url(#p08ca0416e0)" d="M 364.026218 173.320315 
C 365.224808 173.320315 366.374467 172.84411 367.221998 171.99658 
C 368.069529 171.149049 368.545733 169.999389 368.545733 168.8008 
C 368.545733 167.602211 368.069529 166.452551 367.221998 165.60502 
C 366.374467 164.75749 365.224808 164.281285 364.026218 164.281285 
C 362.827629 164.281285 361.677969 164.75749 360.830439 165.60502 
C 359.982908 166.452551 359.506703 167.602211 359.506703 168.8008 
C 359.506703 169.999389 359.982908 171.149049 360.830439 171.99658 
C 361.677969 172.84411 362.827629 173.320315 364.026218 173.320315 
z
" style="fill:#bb8bff;stroke:#bb8bff;stroke-linejoin:miter;stroke-width:1.5;"/>
   </g>
   <g id="patch_12">
    <path clip-path="url(#p08ca0416e0)" d="M 364.026218 219.674315 
C 365.224808 219.674315 366.374467 219.19811 367.221998 218.35058 
C 368.069529 217.503049 368.545733 216.353389 368.545733 215.1548 
C 368.545733 213.956211 368.069529 212.806551 367.221998 211.95902 
C 366.374467 211.11149 365.224808 210.635285 364.026218 210.635285 
C 362.827629 210.635285 361.677969 211.11149 360.830439 211.95902 
C 359.982908 212.806551 359.506703 213.956211 359.506703 215.1548 
C 359.506703 216.353389 359.982908 217.503049 360.830439 218.35058 
C 361.677969 219.19811 362.827629 219.674315 364.026218 219.674315 
z
" style="fill:#bb8bff;stroke:#bb8bff;stroke-linejoin:miter;stroke-width:1.5;"/>
   </g>
   <g id="patch_13">
    <path clip-path="url(#p08ca0416e0)" d="M 364.026218 272.054335 
C 366.822927 272.054335 369.505466 270.943191 371.483038 268.965619 
C 373.460609 266.988048 374.571753 264.305509 374.571753 261.5088 
C 374.571753 258.712091 373.460609 256.029552 371.483038 254.051981 
C 369.505466 252.074409 366.822927 250.963265 364.026218 250.963265 
C 361.22951 250.963265 358.546971 252.074409 356.569399 254.051981 
C 354.591828 256.029552 353.480683 258.712091 353.480683 261.5088 
C 353.480683 264.305509 354.591828 266.988048 356.569399 268.965619 
C 358.546971 270.943191 361.22951 272.054335 364.026218 272.054335 
z
" style="fill:#bb8bff;stroke:#bb8bff;stroke-linejoin:miter;stroke-width:2;"/>
   </g>
   <g id="patch_14">
    <path clip-path="url(#p08ca0416e0)" d="M 395.315168 230.21985 
L 425.445268 230.21985 
L 425.445268 200.08975 
L 395.315168 200.08975 
z
" style="fill:#05bab6;stroke:#05bab6;stroke-linejoin:miter;stroke-width:1.5;"/>
   </g>
   <g id="patch_15">
    <path clip-path="url(#p08ca0416e0)" d="M 456.734218 219.674315 
C 457.932808 219.674315 459.082467 219.19811 459.929998 218.35058 
C 460.777529 217.503049 461.253733 216.353389 461.253733 215.1548 
C 461.253733 213.956211 460.777529 212.806551 459.929998 211.95902 
C 459.082467 211.11149 457.932808 210.635285 456.734218 210.635285 
C 455.535629 210.635285 454.385969 211.11149 453.538439 211.95902 
C 452.690908 212.806551 452.214703 213.956211 452.214703 215.1548 
C 452.214703 216.353389 452.690908 217.503049 453.538439 218.35058 
C 454.385969 219.19811 455.535629 219.674315 456.734218 219.674315 
z
" style="fill:#6fa4ff;stroke:#6fa4ff;stroke-linejoin:miter;stroke-width:1.5;"/>
   </g>
   <g id="patch_16">
    <path clip-path="url(#p08ca0416e0)" d="M 456.734218 179.346335 
C 459.530927 179.346335 462.213466 178.235191 464.191038 176.257619 
C 466.168609 174.280048 467.279753 171.597509 467.279753 168.8008 
C 467.279753 166.004091 466.168609 163.321552 464.191038 161.343981 
C 462.213466 159.366409 459.530927 158.255265 456.734218 158.255265 
C 453.93751 158.255265 451.254971 159.366409 449.277399 161.343981 
C 447.299828 163.321552 446.188683 166.004091 446.188683 168.8008 
C 446.188683 171.597509 447.299828 174.280048 449.277399 176.257619 
C 451.254971 178.235191 453.93751 179.346335 456.734218 179.346335 
z
" style="fill:#6fa4ff;stroke:#6fa4ff;stroke-linejoin:miter;stroke-width:2;"/>
   </g>
   <g id="patch_17">
    <path clip-path="url(#p08ca0416e0)" d="M 503.088218 173.320315 
C 504.286808 173.320315 505.436467 172.84411 506.283998 171.99658 
C 507.131529 171.149049 507.607733 169.999389 507.607733 168.8008 
C 507.607733 167.602211 507.131529 166.452551 506.283998 165.60502 
C 505.436467 164.75749 504.286808 164.281285 503.088218 164.281285 
C 501.889629 164.281285 500.739969 164.75749 499.892439 165.60502 
C 499.044908 166.452551 498.568703 167.602211 498.568703 168.8008 
C 498.568703 169.999389 499.044908 171.149049 499.892439 171.99658 
C 500.739969 172.84411 501.889629 173.320315 503.088218 173.320315 
z
" style="fill:#6fa4ff;stroke:#6fa4ff;stroke-linejoin:miter;stroke-width:1.5;"/>
   </g>
   <g id="patch_18">
    <path clip-path="url(#p08ca0416e0)" d="M 503.088218 132.992335 
C 505.884927 132.992335 508.567466 131.881191 510.545038 129.903619 
C 512.522609 127.926048 513.633753 125.243509 513.633753 122.4468 
C 513.633753 119.650091 512.522609 116.967552 510.545038 114.989981 
C 508.567466 113.012409 505.884927 111.901265 503.088218 111.901265 
C 500.29151 111.901265 497.608971 113.012409 495.631399 114.989981 
C 493.653828 116.967552 492.542683 119.650091 492.542683 122.4468 
C 492.542683 125.243509 493.653828 127.926048 495.631399 129.903619 
C 497.608971 131.881191 500.29151 132.992335 503.088218 132.992335 
z
" style="fill:#6fa4ff;stroke:#6fa4ff;stroke-linejoin:miter;stroke-width:2;"/>
   </g>
   <g id="patch_19">
    <path clip-path="url(#p08ca0416e0)" d="M 549.442218 126.966315 
C 550.640808 126.966315 551.790467 126.49011 552.637998 125.64258 
C 553.485529 124.795049 553.961733 123.645389 553.961733 122.4468 
C 553.961733 121.248211 553.485529 120.098551 552.637998 119.25102 
C 551.790467 118.40349 550.640808 117.927285 549.442218 117.927285 
C 548.243629 117.927285 547.093969 118.40349 546.246439 119.25102 
C 545.398908 120.098551 544.922703 121.248211 544.922703 122.4468 
C 544.922703 123.645389 545.398908 124.795049 546.246439 125.64258 
C 547.093969 126.49011 548.243629 126.966315 549.442218 126.966315 
z
" style="fill:#6fa4ff;stroke:#6fa4ff;stroke-linejoin:miter;stroke-width:1.5;"/>
   </g>
   <g id="patch_20">
    <path clip-path="url(#p08ca0416e0)" d="M 549.442218 86.638335 
C 552.238927 86.638335 554.921466 85.527191 556.899038 83.549619 
C 558.876609 81.572048 559.987753 78.889509 559.987753 76.0928 
C 559.987753 73.296091 558.876609 70.613552 556.899038 68.635981 
C 554.921466 66.658409 552.238927 65.547265 549.442218 65.547265 
C 546.64551 65.547265 543.962971 66.658409 541.985399 68.635981 
C 540.007828 70.613552 538.896683 73.296091 538.896683 76.0928 
C 538.896683 78.889509 540.007828 81.572048 541.985399 83.549619 
C 543.962971 85.527191 546.64551 86.638335 549.442218 86.638335 
z
" style="fill:#6fa4ff;stroke:#6fa4ff;stroke-linejoin:miter;stroke-width:2;"/>
   </g>
   <g id="line2d_13">
    <path clip-path="url(#p08ca0416e0)" d="M 178.610218 82.11882 
L 178.610218 70.06678 
" style="fill:none;stroke:#ffffff;stroke-linecap:square;stroke-width:2;"/>
   </g>
   <g id="line2d_14">
    <path clip-path="url(#p08ca0416e0)" d="M 172.584198 76.0928 
L 184.636238 76.0928 
" style="fill:none;stroke:#ffffff;stroke-linecap:square;stroke-width:2;"/>
   </g>
   <g id="line2d_15">
    <path clip-path="url(#p08ca0416e0)" d="M 224.964218 128.47282 
L 224.964218 116.42078 
" style="fill:none;stroke:#ffffff;stroke-linecap:square;stroke-width:2;"/>
   </g>
   <g id="line2d_16">
    <path clip-path="url(#p08ca0416e0)" d="M 218.938198 122.4468 
L 230.990238 122.4468 
" style="fill:none;stroke:#ffffff;stroke-linecap:square;stroke-width:2;"/>
   </g>
   <g id="line2d_17">
    <path clip-path="url(#p08ca0416e0)" d="M 271.318218 174.82682 
L 271.318218 162.77478 
" style="fill:none;stroke:#ffffff;stroke-linecap:square;stroke-width:2;"/>
   </g>
   <g id="line2d_18">
    <path clip-path="url(#p08ca0416e0)" d="M 265.292198 168.8008 
L 277.344238 168.8008 
" style="fill:none;stroke:#ffffff;stroke-linecap:square;stroke-width:2;"/>
   </g>
   <g id="line2d_19">
    <path clip-path="url(#p08ca0416e0)" d="M 364.026218 267.53482 
L 364.026218 255.48278 
" style="fill:none;stroke:#ffffff;stroke-linecap:square;stroke-width:2;"/>
   </g>
   <g id="line2d_20">
    <path clip-path="url(#p08ca0416e0)" d="M 358.000198 261.5088 
L 370.052238 261.5088 
" style="fill:none;stroke:#ffffff;stroke-linecap:square;stroke-width:2;"/>
   </g>
   <g id="line2d_21">
    <path clip-path="url(#p08ca0416e0)" d="M 456.734218 174.82682 
L 456.734218 162.77478 
" style="fill:none;stroke:#ffffff;stroke-linecap:square;stroke-width:2;"/>
   </g>
   <g id="line2d_22">
    <path clip-path="url(#p08ca0416e0)" d="M 450.708198 168.8008 
L 462.760238 168.8008 
" style="fill:none;stroke:#ffffff;stroke-linecap:square;stroke-width:2;"/>
   </g>
   <g id="line2d_23">
    <path clip-path="url(#p08ca0416e0)" d="M 503.088218 128.47282 
L 503.088218 116.42078 
" style="fill:none;stroke:#ffffff;stroke-linecap:square;stroke-width:2;"/>
   </g>
   <g id="line2d_24">
    <path clip-path="url(#p08ca0416e0)" d="M 497.062198 122.4468 
L 509.114238 122.4468 
" style="fill:none;stroke:#ffffff;stroke-linecap:square;stroke-width:2;"/>
   </g>
   <g id="line2d_25">
    <path clip-path="url(#p08ca0416e0)" d="M 549.442218 82.11882 
L 549.442218 70.06678 
" style="fill:none;stroke:#ffffff;stroke-linecap:square;stroke-width:2;"/>
   </g>
   <g id="line2d_26">
    <path clip-path="url(#p08ca0416e0)" d="M 543.416198 76.0928 
L 555.468238 76.0928 
" style="fill:none;stroke:#ffffff;stroke-linecap:square;stroke-width:2;"/>
   </g>
   <g id="text_2">
    <g clip-path="url(#p08ca0416e0)">
     <!-- X -->
     <g transform="translate(313.219718 218.741987)scale(0.13 -0.13)">
      <defs>
       <path d="M 403 4666 
L 1081 4666 
L 2241 2931 
L 3406 4666 
L 4084 4666 
L 2584 2425 
L 4184 0 
L 3506 0 
L 2194 1984 
L 872 0 
L 191 0 
L 1856 2491 
L 403 4666 
z
" id="DejaVuSans-58" transform="scale(0.015625)"/>
      </defs>
      <use xlink:href="#DejaVuSans-58"/>
     </g>
    </g>
   </g>
   <g id="text_3">
    <g clip-path="url(#p08ca0416e0)">
     <!-- X -->
     <g transform="translate(405.927718 218.741987)scale(0.13 -0.13)">
      <use xlink:href="#DejaVuSans-58"/>
     </g>
    </g>
   </g>
   <g id="text_4">
    <g clip-path="url(#p08ca0416e0)">
     <!-- ${val}_{0}$ -->
     <g transform="translate(112.458258 80.576784)scale(0.1625 -0.1625)">
      <defs>
       <path d="M 459 3500 
L 1069 3500 
L 1581 525 
L 3256 3500 
L 3866 3500 
L 1875 0 
L 1100 0 
L 459 3500 
z
" id="DejaVuSans-Oblique-76" transform="scale(0.015625)"/>
       <path d="M 3438 1997 
L 3047 0 
L 2472 0 
L 2578 531 
Q 2325 219 2001 64 
Q 1678 -91 1281 -91 
Q 834 -91 548 182 
Q 263 456 263 884 
Q 263 1497 752 1853 
Q 1241 2209 2100 2209 
L 2900 2209 
L 2931 2363 
Q 2938 2388 2941 2417 
Q 2944 2447 2944 2509 
Q 2944 2788 2717 2942 
Q 2491 3097 2081 3097 
Q 1800 3097 1504 3025 
Q 1209 2953 897 2809 
L 997 3341 
Q 1322 3463 1633 3523 
Q 1944 3584 2234 3584 
Q 2853 3584 3176 3315 
Q 3500 3047 3500 2534 
Q 3500 2431 3484 2292 
Q 3469 2153 3438 1997 
z
M 2816 1759 
L 2241 1759 
Q 1534 1759 1195 1570 
Q 856 1381 856 984 
Q 856 709 1029 553 
Q 1203 397 1509 397 
Q 1978 397 2328 733 
Q 2678 1069 2791 1631 
L 2816 1759 
z
" id="DejaVuSans-Oblique-61" transform="scale(0.015625)"/>
       <path d="M 1172 4863 
L 1747 4863 
L 800 0 
L 225 0 
L 1172 4863 
z
" id="DejaVuSans-Oblique-6c" transform="scale(0.015625)"/>
      </defs>
      <use transform="translate(0 0.015625)" xlink:href="#DejaVuSans-Oblique-76"/>
      <use transform="translate(59.179688 0.015625)" xlink:href="#DejaVuSans-Oblique-61"/>
      <use transform="translate(120.458984 0.015625)" xlink:href="#DejaVuSans-Oblique-6c"/>
      <use transform="translate(148.242188 -16.390625)scale(0.7)" xlink:href="#DejaVuSans-30"/>
     </g>
    </g>
   </g>
   <g id="text_5">
    <g clip-path="url(#p08ca0416e0)">
     <!-- ${val}_{1}$ -->
     <g transform="translate(112.458258 126.930784)scale(0.1625 -0.1625)">
      <use transform="translate(0 0.015625)" xlink:href="#DejaVuSans-Oblique-76"/>
      <use transform="translate(59.179688 0.015625)" xlink:href="#DejaVuSans-Oblique-61"/>
      <use transform="translate(120.458984 0.015625)" xlink:href="#DejaVuSans-Oblique-6c"/>
      <use transform="translate(148.242188 -16.390625)scale(0.7)" xlink:href="#DejaVuSans-31"/>
     </g>
    </g>
   </g>
   <g id="text_6">
    <g clip-path="url(#p08ca0416e0)">
     <!-- ${val}_{2}$ -->
     <g transform="translate(112.458258 173.284784)scale(0.1625 -0.1625)">
      <defs>
       <path d="M 1228 531 
L 3431 531 
L 3431 0 
L 469 0 
L 469 531 
Q 828 903 1448 1529 
Q 2069 2156 2228 2338 
Q 2531 2678 2651 2914 
Q 2772 3150 2772 3378 
Q 2772 3750 2511 3984 
Q 2250 4219 1831 4219 
Q 1534 4219 1204 4116 
Q 875 4013 500 3803 
L 500 4441 
Q 881 4594 1212 4672 
Q 1544 4750 1819 4750 
Q 2544 4750 2975 4387 
Q 3406 4025 3406 3419 
Q 3406 3131 3298 2873 
Q 3191 2616 2906 2266 
Q 2828 2175 2409 1742 
Q 1991 1309 1228 531 
z
" id="DejaVuSans-32" transform="scale(0.015625)"/>
      </defs>
      <use transform="translate(0 0.015625)" xlink:href="#DejaVuSans-Oblique-76"/>
      <use transform="translate(59.179688 0.015625)" xlink:href="#DejaVuSans-Oblique-61"/>
      <use transform="translate(120.458984 0.015625)" xlink:href="#DejaVuSans-Oblique-6c"/>
      <use transform="translate(148.242188 -16.390625)scale(0.7)" xlink:href="#DejaVuSans-32"/>
     </g>
    </g>
   </g>
   <g id="text_7">
    <g clip-path="url(#p08ca0416e0)">
     <!-- ${val}_{3}$ -->
     <g transform="translate(112.458258 219.638784)scale(0.1625 -0.1625)">
      <defs>
       <path d="M 2597 2516 
Q 3050 2419 3304 2112 
Q 3559 1806 3559 1356 
Q 3559 666 3084 287 
Q 2609 -91 1734 -91 
Q 1441 -91 1130 -33 
Q 819 25 488 141 
L 488 750 
Q 750 597 1062 519 
Q 1375 441 1716 441 
Q 2309 441 2620 675 
Q 2931 909 2931 1356 
Q 2931 1769 2642 2001 
Q 2353 2234 1838 2234 
L 1294 2234 
L 1294 2753 
L 1863 2753 
Q 2328 2753 2575 2939 
Q 2822 3125 2822 3475 
Q 2822 3834 2567 4026 
Q 2313 4219 1838 4219 
Q 1578 4219 1281 4162 
Q 984 4106 628 3988 
L 628 4550 
Q 988 4650 1302 4700 
Q 1616 4750 1894 4750 
Q 2613 4750 3031 4423 
Q 3450 4097 3450 3541 
Q 3450 3153 3228 2886 
Q 3006 2619 2597 2516 
z
" id="DejaVuSans-33" transform="scale(0.015625)"/>
      </defs>
      <use transform="translate(0 0.015625)" xlink:href="#DejaVuSans-Oblique-76"/>
      <use transform="translate(59.179688 0.015625)" xlink:href="#DejaVuSans-Oblique-61"/>
      <use transform="translate(120.458984 0.015625)" xlink:href="#DejaVuSans-Oblique-6c"/>
      <use transform="translate(148.242188 -16.390625)scale(0.7)" xlink:href="#DejaVuSans-33"/>
     </g>
    </g>
   </g>
   <g id="text_8">
    <g clip-path="url(#p08ca0416e0)">
     <!-- ${p}_{0}$ -->
     <g transform="translate(126.270758 265.959777)scale(0.1625 -0.1625)">
      <defs>
       <path d="M 3175 2156 
Q 3175 2616 2975 2859 
Q 2775 3103 2400 3103 
Q 2144 3103 1911 2972 
Q 1678 2841 1497 2591 
Q 1319 2344 1212 1994 
Q 1106 1644 1106 1300 
Q 1106 863 1306 627 
Q 1506 391 1875 391 
Q 2147 391 2380 519 
Q 2613 647 2778 891 
Q 2956 1147 3065 1494 
Q 3175 1841 3175 2156 
z
M 1394 2969 
Q 1625 3272 1939 3428 
Q 2253 3584 2638 3584 
Q 3175 3584 3472 3232 
Q 3769 2881 3769 2247 
Q 3769 1728 3584 1258 
Q 3400 788 3053 416 
Q 2822 169 2531 39 
Q 2241 -91 1919 -91 
Q 1547 -91 1294 64 
Q 1041 219 916 525 
L 556 -1331 
L -19 -1331 
L 922 3500 
L 1497 3500 
L 1394 2969 
z
" id="DejaVuSans-Oblique-70" transform="scale(0.015625)"/>
      </defs>
      <use xlink:href="#DejaVuSans-Oblique-70"/>
      <use transform="translate(63.476562 -16.40625)scale(0.7)" xlink:href="#DejaVuSans-30"/>
     </g>
    </g>
   </g>
  </g>
 </g>
 <defs>
  <clipPath id="p08ca0416e0">
   <rect height="250.3116" width="497.635221" x="82.400637" y="39.0096"/>
  </clipPath>
 </defs>
</svg>
