<?xml version="1.0" encoding="utf-8" standalone="no"?>
<!DOCTYPE svg PUBLIC "-//W3C//DTD SVG 1.1//EN"
  "http://www.w3.org/Graphics/SVG/1.1/DTD/svg11.dtd">
<svg height="325.08pt" version="1.1" viewBox="0 0 525.879508 325.08" width="525.879508pt" xmlns="http://www.w3.org/2000/svg" xmlns:xlink="http://www.w3.org/1999/xlink">
 <metadata>
  <rdf:RDF xmlns:cc="http://creativecommons.org/ns#" xmlns:dc="http://purl.org/dc/elements/1.1/" xmlns:rdf="http://www.w3.org/1999/02/22-rdf-syntax-ns#">
   <cc:Work>
    <dc:type rdf:resource="http://purl.org/dc/dcmitype/StillImage"/>
    <dc:date>2021-09-12T21:08:47.921662</dc:date>
    <dc:format>image/svg+xml</dc:format>
    <dc:creator>
     <cc:Agent>
      <dc:title>Matplotlib v3.4.3, https://matplotlib.org/</dc:title>
     </cc:Agent>
    </dc:creator>
   </cc:Work>
  </rdf:RDF>
 </metadata>
 <defs>
  <style type="text/css">*{stroke-linecap:butt;stroke-linejoin:round;}</style>
 </defs>
 <g id="figure_1">
  <g id="patch_1">
   <path d="M 0 325.08 
L 525.879508 325.08 
L 525.879508 0 
L 0 0 
z
" style="fill:#ffffff;"/>
  </g>
  <g id="axes_1">
   <g id="line2d_1">
    <path clip-path="url(#p12dd6f95e1)" d="M 138.228058 76.0928 
L 467.341458 76.0928 
" style="fill:none;stroke:#000000;stroke-linecap:square;stroke-width:2;"/>
   </g>
   <g id="line2d_2">
    <path clip-path="url(#p12dd6f95e1)" d="M 138.228058 122.4468 
L 467.341458 122.4468 
" style="fill:none;stroke:#000000;stroke-linecap:square;stroke-width:2;"/>
   </g>
   <g id="line2d_3">
    <path clip-path="url(#p12dd6f95e1)" d="M 138.228058 168.8008 
L 467.341458 168.8008 
" style="fill:none;stroke:#000000;stroke-linecap:square;stroke-width:2;"/>
   </g>
   <g id="line2d_4">
    <path clip-path="url(#p12dd6f95e1)" d="M 138.228058 215.1548 
L 467.341458 215.1548 
" style="fill:none;stroke:#000000;stroke-linecap:square;stroke-width:2;"/>
   </g>
   <g id="line2d_5">
    <path clip-path="url(#p12dd6f95e1)" d="M 138.228058 261.5088 
L 467.341458 261.5088 
" style="fill:none;stroke:#000000;stroke-linecap:square;stroke-width:2;"/>
   </g>
   <g id="line2d_6">
    <path clip-path="url(#p12dd6f95e1)" d="M 163.259218 122.4468 
L 163.259218 76.0928 
" style="fill:none;stroke:#6fa4ff;stroke-linecap:square;stroke-width:2;"/>
   </g>
   <g id="line2d_7">
    <path clip-path="url(#p12dd6f95e1)" d="M 209.613218 168.8008 
L 209.613218 122.4468 
" style="fill:none;stroke:#6fa4ff;stroke-linecap:square;stroke-width:2;"/>
   </g>
   <g id="line2d_8">
    <path clip-path="url(#p12dd6f95e1)" d="M 255.967218 215.1548 
L 255.967218 168.8008 
" style="fill:none;stroke:#6fa4ff;stroke-linecap:square;stroke-width:2;"/>
   </g>
   <g id="line2d_9">
    <path clip-path="url(#p12dd6f95e1)" d="M 302.321218 261.5088 
L 302.321218 76.0928 
" style="fill:none;stroke:#bb8bff;stroke-linecap:square;stroke-width:2;"/>
   </g>
   <g id="line2d_10">
    <path clip-path="url(#p12dd6f95e1)" d="M 348.675218 215.1548 
L 348.675218 168.8008 
" style="fill:none;stroke:#6fa4ff;stroke-linecap:square;stroke-width:2;"/>
   </g>
   <g id="line2d_11">
    <path clip-path="url(#p12dd6f95e1)" d="M 395.029218 168.8008 
L 395.029218 122.4468 
" style="fill:none;stroke:#6fa4ff;stroke-linecap:square;stroke-width:2;"/>
   </g>
   <g id="line2d_12">
    <path clip-path="url(#p12dd6f95e1)" d="M 441.383218 122.4468 
L 441.383218 76.0928 
" style="fill:none;stroke:#6fa4ff;stroke-linecap:square;stroke-width:2;"/>
   </g>
   <g id="text_1">
    <!-- Type 2 verification circuit, for input vector [1, 5, 7, 10]; 'VC_2' gate -->
    <g transform="translate(68.918248 33.0096)scale(0.12 -0.12)">
     <defs>
      <path d="M -19 4666 
L 3928 4666 
L 3928 4134 
L 2272 4134 
L 2272 0 
L 1638 0 
L 1638 4134 
L -19 4134 
L -19 4666 
z
" id="DejaVuSans-54" transform="scale(0.015625)"/>
      <path d="M 2059 -325 
Q 1816 -950 1584 -1140 
Q 1353 -1331 966 -1331 
L 506 -1331 
L 506 -850 
L 844 -850 
Q 1081 -850 1212 -737 
Q 1344 -625 1503 -206 
L 1606 56 
L 191 3500 
L 800 3500 
L 1894 763 
L 2988 3500 
L 3597 3500 
L 2059 -325 
z
" id="DejaVuSans-79" transform="scale(0.015625)"/>
      <path d="M 1159 525 
L 1159 -1331 
L 581 -1331 
L 581 3500 
L 1159 3500 
L 1159 2969 
Q 1341 3281 1617 3432 
Q 1894 3584 2278 3584 
Q 2916 3584 3314 3078 
Q 3713 2572 3713 1747 
Q 3713 922 3314 415 
Q 2916 -91 2278 -91 
Q 1894 -91 1617 61 
Q 1341 213 1159 525 
z
M 3116 1747 
Q 3116 2381 2855 2742 
Q 2594 3103 2138 3103 
Q 1681 3103 1420 2742 
Q 1159 2381 1159 1747 
Q 1159 1113 1420 752 
Q 1681 391 2138 391 
Q 2594 391 2855 752 
Q 3116 1113 3116 1747 
z
" id="DejaVuSans-70" transform="scale(0.015625)"/>
      <path d="M 3597 1894 
L 3597 1613 
L 953 1613 
Q 991 1019 1311 708 
Q 1631 397 2203 397 
Q 2534 397 2845 478 
Q 3156 559 3463 722 
L 3463 178 
Q 3153 47 2828 -22 
Q 2503 -91 2169 -91 
Q 1331 -91 842 396 
Q 353 884 353 1716 
Q 353 2575 817 3079 
Q 1281 3584 2069 3584 
Q 2775 3584 3186 3129 
Q 3597 2675 3597 1894 
z
M 3022 2063 
Q 3016 2534 2758 2815 
Q 2500 3097 2075 3097 
Q 1594 3097 1305 2825 
Q 1016 2553 972 2059 
L 3022 2063 
z
" id="DejaVuSans-65" transform="scale(0.015625)"/>
      <path id="DejaVuSans-20" transform="scale(0.015625)"/>
      <path d="M 1228 531 
L 3431 531 
L 3431 0 
L 469 0 
L 469 531 
Q 828 903 1448 1529 
Q 2069 2156 2228 2338 
Q 2531 2678 2651 2914 
Q 2772 3150 2772 3378 
Q 2772 3750 2511 3984 
Q 2250 4219 1831 4219 
Q 1534 4219 1204 4116 
Q 875 4013 500 3803 
L 500 4441 
Q 881 4594 1212 4672 
Q 1544 4750 1819 4750 
Q 2544 4750 2975 4387 
Q 3406 4025 3406 3419 
Q 3406 3131 3298 2873 
Q 3191 2616 2906 2266 
Q 2828 2175 2409 1742 
Q 1991 1309 1228 531 
z
" id="DejaVuSans-32" transform="scale(0.015625)"/>
      <path d="M 191 3500 
L 800 3500 
L 1894 563 
L 2988 3500 
L 3597 3500 
L 2284 0 
L 1503 0 
L 191 3500 
z
" id="DejaVuSans-76" transform="scale(0.015625)"/>
      <path d="M 2631 2963 
Q 2534 3019 2420 3045 
Q 2306 3072 2169 3072 
Q 1681 3072 1420 2755 
Q 1159 2438 1159 1844 
L 1159 0 
L 581 0 
L 581 3500 
L 1159 3500 
L 1159 2956 
Q 1341 3275 1631 3429 
Q 1922 3584 2338 3584 
Q 2397 3584 2469 3576 
Q 2541 3569 2628 3553 
L 2631 2963 
z
" id="DejaVuSans-72" transform="scale(0.015625)"/>
      <path d="M 603 3500 
L 1178 3500 
L 1178 0 
L 603 0 
L 603 3500 
z
M 603 4863 
L 1178 4863 
L 1178 4134 
L 603 4134 
L 603 4863 
z
" id="DejaVuSans-69" transform="scale(0.015625)"/>
      <path d="M 2375 4863 
L 2375 4384 
L 1825 4384 
Q 1516 4384 1395 4259 
Q 1275 4134 1275 3809 
L 1275 3500 
L 2222 3500 
L 2222 3053 
L 1275 3053 
L 1275 0 
L 697 0 
L 697 3053 
L 147 3053 
L 147 3500 
L 697 3500 
L 697 3744 
Q 697 4328 969 4595 
Q 1241 4863 1831 4863 
L 2375 4863 
z
" id="DejaVuSans-66" transform="scale(0.015625)"/>
      <path d="M 3122 3366 
L 3122 2828 
Q 2878 2963 2633 3030 
Q 2388 3097 2138 3097 
Q 1578 3097 1268 2742 
Q 959 2388 959 1747 
Q 959 1106 1268 751 
Q 1578 397 2138 397 
Q 2388 397 2633 464 
Q 2878 531 3122 666 
L 3122 134 
Q 2881 22 2623 -34 
Q 2366 -91 2075 -91 
Q 1284 -91 818 406 
Q 353 903 353 1747 
Q 353 2603 823 3093 
Q 1294 3584 2113 3584 
Q 2378 3584 2631 3529 
Q 2884 3475 3122 3366 
z
" id="DejaVuSans-63" transform="scale(0.015625)"/>
      <path d="M 2194 1759 
Q 1497 1759 1228 1600 
Q 959 1441 959 1056 
Q 959 750 1161 570 
Q 1363 391 1709 391 
Q 2188 391 2477 730 
Q 2766 1069 2766 1631 
L 2766 1759 
L 2194 1759 
z
M 3341 1997 
L 3341 0 
L 2766 0 
L 2766 531 
Q 2569 213 2275 61 
Q 1981 -91 1556 -91 
Q 1019 -91 701 211 
Q 384 513 384 1019 
Q 384 1609 779 1909 
Q 1175 2209 1959 2209 
L 2766 2209 
L 2766 2266 
Q 2766 2663 2505 2880 
Q 2244 3097 1772 3097 
Q 1472 3097 1187 3025 
Q 903 2953 641 2809 
L 641 3341 
Q 956 3463 1253 3523 
Q 1550 3584 1831 3584 
Q 2591 3584 2966 3190 
Q 3341 2797 3341 1997 
z
" id="DejaVuSans-61" transform="scale(0.015625)"/>
      <path d="M 1172 4494 
L 1172 3500 
L 2356 3500 
L 2356 3053 
L 1172 3053 
L 1172 1153 
Q 1172 725 1289 603 
Q 1406 481 1766 481 
L 2356 481 
L 2356 0 
L 1766 0 
Q 1100 0 847 248 
Q 594 497 594 1153 
L 594 3053 
L 172 3053 
L 172 3500 
L 594 3500 
L 594 4494 
L 1172 4494 
z
" id="DejaVuSans-74" transform="scale(0.015625)"/>
      <path d="M 1959 3097 
Q 1497 3097 1228 2736 
Q 959 2375 959 1747 
Q 959 1119 1226 758 
Q 1494 397 1959 397 
Q 2419 397 2687 759 
Q 2956 1122 2956 1747 
Q 2956 2369 2687 2733 
Q 2419 3097 1959 3097 
z
M 1959 3584 
Q 2709 3584 3137 3096 
Q 3566 2609 3566 1747 
Q 3566 888 3137 398 
Q 2709 -91 1959 -91 
Q 1206 -91 779 398 
Q 353 888 353 1747 
Q 353 2609 779 3096 
Q 1206 3584 1959 3584 
z
" id="DejaVuSans-6f" transform="scale(0.015625)"/>
      <path d="M 3513 2113 
L 3513 0 
L 2938 0 
L 2938 2094 
Q 2938 2591 2744 2837 
Q 2550 3084 2163 3084 
Q 1697 3084 1428 2787 
Q 1159 2491 1159 1978 
L 1159 0 
L 581 0 
L 581 3500 
L 1159 3500 
L 1159 2956 
Q 1366 3272 1645 3428 
Q 1925 3584 2291 3584 
Q 2894 3584 3203 3211 
Q 3513 2838 3513 2113 
z
" id="DejaVuSans-6e" transform="scale(0.015625)"/>
      <path d="M 544 1381 
L 544 3500 
L 1119 3500 
L 1119 1403 
Q 1119 906 1312 657 
Q 1506 409 1894 409 
Q 2359 409 2629 706 
Q 2900 1003 2900 1516 
L 2900 3500 
L 3475 3500 
L 3475 0 
L 2900 0 
L 2900 538 
Q 2691 219 2414 64 
Q 2138 -91 1772 -91 
Q 1169 -91 856 284 
Q 544 659 544 1381 
z
M 1991 3584 
L 1991 3584 
z
" id="DejaVuSans-75" transform="scale(0.015625)"/>
      <path d="M 750 794 
L 1409 794 
L 1409 256 
L 897 -744 
L 494 -744 
L 750 256 
L 750 794 
z
" id="DejaVuSans-2c" transform="scale(0.015625)"/>
      <path d="M 550 4863 
L 1875 4863 
L 1875 4416 
L 1125 4416 
L 1125 -397 
L 1875 -397 
L 1875 -844 
L 550 -844 
L 550 4863 
z
" id="DejaVuSans-5b" transform="scale(0.015625)"/>
      <path d="M 794 531 
L 1825 531 
L 1825 4091 
L 703 3866 
L 703 4441 
L 1819 4666 
L 2450 4666 
L 2450 531 
L 3481 531 
L 3481 0 
L 794 0 
L 794 531 
z
" id="DejaVuSans-31" transform="scale(0.015625)"/>
      <path d="M 691 4666 
L 3169 4666 
L 3169 4134 
L 1269 4134 
L 1269 2991 
Q 1406 3038 1543 3061 
Q 1681 3084 1819 3084 
Q 2600 3084 3056 2656 
Q 3513 2228 3513 1497 
Q 3513 744 3044 326 
Q 2575 -91 1722 -91 
Q 1428 -91 1123 -41 
Q 819 9 494 109 
L 494 744 
Q 775 591 1075 516 
Q 1375 441 1709 441 
Q 2250 441 2565 725 
Q 2881 1009 2881 1497 
Q 2881 1984 2565 2268 
Q 2250 2553 1709 2553 
Q 1456 2553 1204 2497 
Q 953 2441 691 2322 
L 691 4666 
z
" id="DejaVuSans-35" transform="scale(0.015625)"/>
      <path d="M 525 4666 
L 3525 4666 
L 3525 4397 
L 1831 0 
L 1172 0 
L 2766 4134 
L 525 4134 
L 525 4666 
z
" id="DejaVuSans-37" transform="scale(0.015625)"/>
      <path d="M 2034 4250 
Q 1547 4250 1301 3770 
Q 1056 3291 1056 2328 
Q 1056 1369 1301 889 
Q 1547 409 2034 409 
Q 2525 409 2770 889 
Q 3016 1369 3016 2328 
Q 3016 3291 2770 3770 
Q 2525 4250 2034 4250 
z
M 2034 4750 
Q 2819 4750 3233 4129 
Q 3647 3509 3647 2328 
Q 3647 1150 3233 529 
Q 2819 -91 2034 -91 
Q 1250 -91 836 529 
Q 422 1150 422 2328 
Q 422 3509 836 4129 
Q 1250 4750 2034 4750 
z
" id="DejaVuSans-30" transform="scale(0.015625)"/>
      <path d="M 1947 4863 
L 1947 -844 
L 622 -844 
L 622 -397 
L 1369 -397 
L 1369 4416 
L 622 4416 
L 622 4863 
L 1947 4863 
z
" id="DejaVuSans-5d" transform="scale(0.015625)"/>
      <path d="M 750 3309 
L 1409 3309 
L 1409 2516 
L 750 2516 
L 750 3309 
z
M 750 794 
L 1409 794 
L 1409 256 
L 897 -744 
L 494 -744 
L 750 256 
L 750 794 
z
" id="DejaVuSans-3b" transform="scale(0.015625)"/>
      <path d="M 1147 4666 
L 1147 2931 
L 616 2931 
L 616 4666 
L 1147 4666 
z
" id="DejaVuSans-27" transform="scale(0.015625)"/>
      <path d="M 1831 0 
L 50 4666 
L 709 4666 
L 2188 738 
L 3669 4666 
L 4325 4666 
L 2547 0 
L 1831 0 
z
" id="DejaVuSans-56" transform="scale(0.015625)"/>
      <path d="M 4122 4306 
L 4122 3641 
Q 3803 3938 3442 4084 
Q 3081 4231 2675 4231 
Q 1875 4231 1450 3742 
Q 1025 3253 1025 2328 
Q 1025 1406 1450 917 
Q 1875 428 2675 428 
Q 3081 428 3442 575 
Q 3803 722 4122 1019 
L 4122 359 
Q 3791 134 3420 21 
Q 3050 -91 2638 -91 
Q 1578 -91 968 557 
Q 359 1206 359 2328 
Q 359 3453 968 4101 
Q 1578 4750 2638 4750 
Q 3056 4750 3426 4639 
Q 3797 4528 4122 4306 
z
" id="DejaVuSans-43" transform="scale(0.015625)"/>
      <path d="M 3263 -1063 
L 3263 -1509 
L -63 -1509 
L -63 -1063 
L 3263 -1063 
z
" id="DejaVuSans-5f" transform="scale(0.015625)"/>
      <path d="M 2906 1791 
Q 2906 2416 2648 2759 
Q 2391 3103 1925 3103 
Q 1463 3103 1205 2759 
Q 947 2416 947 1791 
Q 947 1169 1205 825 
Q 1463 481 1925 481 
Q 2391 481 2648 825 
Q 2906 1169 2906 1791 
z
M 3481 434 
Q 3481 -459 3084 -895 
Q 2688 -1331 1869 -1331 
Q 1566 -1331 1297 -1286 
Q 1028 -1241 775 -1147 
L 775 -588 
Q 1028 -725 1275 -790 
Q 1522 -856 1778 -856 
Q 2344 -856 2625 -561 
Q 2906 -266 2906 331 
L 2906 616 
Q 2728 306 2450 153 
Q 2172 0 1784 0 
Q 1141 0 747 490 
Q 353 981 353 1791 
Q 353 2603 747 3093 
Q 1141 3584 1784 3584 
Q 2172 3584 2450 3431 
Q 2728 3278 2906 2969 
L 2906 3500 
L 3481 3500 
L 3481 434 
z
" id="DejaVuSans-67" transform="scale(0.015625)"/>
     </defs>
     <use xlink:href="#DejaVuSans-54"/>
     <use x="45.458984" xlink:href="#DejaVuSans-79"/>
     <use x="104.638672" xlink:href="#DejaVuSans-70"/>
     <use x="168.115234" xlink:href="#DejaVuSans-65"/>
     <use x="229.638672" xlink:href="#DejaVuSans-20"/>
     <use x="261.425781" xlink:href="#DejaVuSans-32"/>
     <use x="325.048828" xlink:href="#DejaVuSans-20"/>
     <use x="356.835938" xlink:href="#DejaVuSans-76"/>
     <use x="416.015625" xlink:href="#DejaVuSans-65"/>
     <use x="477.539062" xlink:href="#DejaVuSans-72"/>
     <use x="518.652344" xlink:href="#DejaVuSans-69"/>
     <use x="546.435547" xlink:href="#DejaVuSans-66"/>
     <use x="581.640625" xlink:href="#DejaVuSans-69"/>
     <use x="609.423828" xlink:href="#DejaVuSans-63"/>
     <use x="664.404297" xlink:href="#DejaVuSans-61"/>
     <use x="725.683594" xlink:href="#DejaVuSans-74"/>
     <use x="764.892578" xlink:href="#DejaVuSans-69"/>
     <use x="792.675781" xlink:href="#DejaVuSans-6f"/>
     <use x="853.857422" xlink:href="#DejaVuSans-6e"/>
     <use x="917.236328" xlink:href="#DejaVuSans-20"/>
     <use x="949.023438" xlink:href="#DejaVuSans-63"/>
     <use x="1004.003906" xlink:href="#DejaVuSans-69"/>
     <use x="1031.787109" xlink:href="#DejaVuSans-72"/>
     <use x="1070.650391" xlink:href="#DejaVuSans-63"/>
     <use x="1125.630859" xlink:href="#DejaVuSans-75"/>
     <use x="1189.009766" xlink:href="#DejaVuSans-69"/>
     <use x="1216.792969" xlink:href="#DejaVuSans-74"/>
     <use x="1256.001953" xlink:href="#DejaVuSans-2c"/>
     <use x="1287.789062" xlink:href="#DejaVuSans-20"/>
     <use x="1319.576172" xlink:href="#DejaVuSans-66"/>
     <use x="1354.78125" xlink:href="#DejaVuSans-6f"/>
     <use x="1415.962891" xlink:href="#DejaVuSans-72"/>
     <use x="1457.076172" xlink:href="#DejaVuSans-20"/>
     <use x="1488.863281" xlink:href="#DejaVuSans-69"/>
     <use x="1516.646484" xlink:href="#DejaVuSans-6e"/>
     <use x="1580.025391" xlink:href="#DejaVuSans-70"/>
     <use x="1643.501953" xlink:href="#DejaVuSans-75"/>
     <use x="1706.880859" xlink:href="#DejaVuSans-74"/>
     <use x="1746.089844" xlink:href="#DejaVuSans-20"/>
     <use x="1777.876953" xlink:href="#DejaVuSans-76"/>
     <use x="1837.056641" xlink:href="#DejaVuSans-65"/>
     <use x="1898.580078" xlink:href="#DejaVuSans-63"/>
     <use x="1953.560547" xlink:href="#DejaVuSans-74"/>
     <use x="1992.769531" xlink:href="#DejaVuSans-6f"/>
     <use x="2053.951172" xlink:href="#DejaVuSans-72"/>
     <use x="2095.064453" xlink:href="#DejaVuSans-20"/>
     <use x="2126.851562" xlink:href="#DejaVuSans-5b"/>
     <use x="2165.865234" xlink:href="#DejaVuSans-31"/>
     <use x="2229.488281" xlink:href="#DejaVuSans-2c"/>
     <use x="2261.275391" xlink:href="#DejaVuSans-20"/>
     <use x="2293.0625" xlink:href="#DejaVuSans-35"/>
     <use x="2356.685547" xlink:href="#DejaVuSans-2c"/>
     <use x="2388.472656" xlink:href="#DejaVuSans-20"/>
     <use x="2420.259766" xlink:href="#DejaVuSans-37"/>
     <use x="2483.882812" xlink:href="#DejaVuSans-2c"/>
     <use x="2515.669922" xlink:href="#DejaVuSans-20"/>
     <use x="2547.457031" xlink:href="#DejaVuSans-31"/>
     <use x="2611.080078" xlink:href="#DejaVuSans-30"/>
     <use x="2674.703125" xlink:href="#DejaVuSans-5d"/>
     <use x="2713.716797" xlink:href="#DejaVuSans-3b"/>
     <use x="2747.408203" xlink:href="#DejaVuSans-20"/>
     <use x="2779.195312" xlink:href="#DejaVuSans-27"/>
     <use x="2806.685547" xlink:href="#DejaVuSans-56"/>
     <use x="2875.09375" xlink:href="#DejaVuSans-43"/>
     <use x="2944.917969" xlink:href="#DejaVuSans-5f"/>
     <use x="2994.917969" xlink:href="#DejaVuSans-32"/>
     <use x="3058.541016" xlink:href="#DejaVuSans-27"/>
     <use x="3086.03125" xlink:href="#DejaVuSans-20"/>
     <use x="3117.818359" xlink:href="#DejaVuSans-67"/>
     <use x="3181.294922" xlink:href="#DejaVuSans-61"/>
     <use x="3242.574219" xlink:href="#DejaVuSans-74"/>
     <use x="3281.783203" xlink:href="#DejaVuSans-65"/>
    </g>
   </g>
   <g id="patch_2">
    <path clip-path="url(#p12dd6f95e1)" d="M 163.259218 126.966315 
C 164.457808 126.966315 165.607467 126.49011 166.454998 125.64258 
C 167.302529 124.795049 167.778733 123.645389 167.778733 122.4468 
C 167.778733 121.248211 167.302529 120.098551 166.454998 119.25102 
C 165.607467 118.40349 164.457808 117.927285 163.259218 117.927285 
C 162.060629 117.927285 160.910969 118.40349 160.063439 119.25102 
C 159.215908 120.098551 158.739703 121.248211 158.739703 122.4468 
C 158.739703 123.645389 159.215908 124.795049 160.063439 125.64258 
C 160.910969 126.49011 162.060629 126.966315 163.259218 126.966315 
z
" style="fill:#6fa4ff;stroke:#6fa4ff;stroke-linejoin:miter;stroke-width:1.5;"/>
   </g>
   <g id="patch_3">
    <path clip-path="url(#p12dd6f95e1)" d="M 163.259218 86.638335 
C 166.055927 86.638335 168.738466 85.527191 170.716038 83.549619 
C 172.693609 81.572048 173.804753 78.889509 173.804753 76.0928 
C 173.804753 73.296091 172.693609 70.613552 170.716038 68.635981 
C 168.738466 66.658409 166.055927 65.547265 163.259218 65.547265 
C 160.46251 65.547265 157.779971 66.658409 155.802399 68.635981 
C 153.824828 70.613552 152.713683 73.296091 152.713683 76.0928 
C 152.713683 78.889509 153.824828 81.572048 155.802399 83.549619 
C 157.779971 85.527191 160.46251 86.638335 163.259218 86.638335 
z
" style="fill:#6fa4ff;stroke:#6fa4ff;stroke-linejoin:miter;stroke-width:2;"/>
   </g>
   <g id="patch_4">
    <path clip-path="url(#p12dd6f95e1)" d="M 148.194168 276.57385 
L 178.324268 276.57385 
L 178.324268 246.44375 
L 148.194168 246.44375 
z
" style="fill:#05bab6;stroke:#05bab6;stroke-linejoin:miter;stroke-width:1.5;"/>
   </g>
   <g id="patch_5">
    <path clip-path="url(#p12dd6f95e1)" d="M 209.613218 173.320315 
C 210.811808 173.320315 211.961467 172.84411 212.808998 171.99658 
C 213.656529 171.149049 214.132733 169.999389 214.132733 168.8008 
C 214.132733 167.602211 213.656529 166.452551 212.808998 165.60502 
C 211.961467 164.75749 210.811808 164.281285 209.613218 164.281285 
C 208.414629 164.281285 207.264969 164.75749 206.417439 165.60502 
C 205.569908 166.452551 205.093703 167.602211 205.093703 168.8008 
C 205.093703 169.999389 205.569908 171.149049 206.417439 171.99658 
C 207.264969 172.84411 208.414629 173.320315 209.613218 173.320315 
z
" style="fill:#6fa4ff;stroke:#6fa4ff;stroke-linejoin:miter;stroke-width:1.5;"/>
   </g>
   <g id="patch_6">
    <path clip-path="url(#p12dd6f95e1)" d="M 209.613218 132.992335 
C 212.409927 132.992335 215.092466 131.881191 217.070038 129.903619 
C 219.047609 127.926048 220.158753 125.243509 220.158753 122.4468 
C 220.158753 119.650091 219.047609 116.967552 217.070038 114.989981 
C 215.092466 113.012409 212.409927 111.901265 209.613218 111.901265 
C 206.81651 111.901265 204.133971 113.012409 202.156399 114.989981 
C 200.178828 116.967552 199.067683 119.650091 199.067683 122.4468 
C 199.067683 125.243509 200.178828 127.926048 202.156399 129.903619 
C 204.133971 131.881191 206.81651 132.992335 209.613218 132.992335 
z
" style="fill:#6fa4ff;stroke:#6fa4ff;stroke-linejoin:miter;stroke-width:2;"/>
   </g>
   <g id="patch_7">
    <path clip-path="url(#p12dd6f95e1)" d="M 194.548168 276.57385 
L 224.678268 276.57385 
L 224.678268 246.44375 
L 194.548168 246.44375 
z
" style="fill:#6fa4ff;stroke:#6fa4ff;stroke-linejoin:miter;stroke-width:1.5;"/>
   </g>
   <g id="patch_8">
    <path clip-path="url(#p12dd6f95e1)" d="M 255.967218 219.674315 
C 257.165808 219.674315 258.315467 219.19811 259.162998 218.35058 
C 260.010529 217.503049 260.486733 216.353389 260.486733 215.1548 
C 260.486733 213.956211 260.010529 212.806551 259.162998 211.95902 
C 258.315467 211.11149 257.165808 210.635285 255.967218 210.635285 
C 254.768629 210.635285 253.618969 211.11149 252.771439 211.95902 
C 251.923908 212.806551 251.447703 213.956211 251.447703 215.1548 
C 251.447703 216.353389 251.923908 217.503049 252.771439 218.35058 
C 253.618969 219.19811 254.768629 219.674315 255.967218 219.674315 
z
" style="fill:#6fa4ff;stroke:#6fa4ff;stroke-linejoin:miter;stroke-width:1.5;"/>
   </g>
   <g id="patch_9">
    <path clip-path="url(#p12dd6f95e1)" d="M 255.967218 179.346335 
C 258.763927 179.346335 261.446466 178.235191 263.424038 176.257619 
C 265.401609 174.280048 266.512753 171.597509 266.512753 168.8008 
C 266.512753 166.004091 265.401609 163.321552 263.424038 161.343981 
C 261.446466 159.366409 258.763927 158.255265 255.967218 158.255265 
C 253.17051 158.255265 250.487971 159.366409 248.510399 161.343981 
C 246.532828 163.321552 245.421683 166.004091 245.421683 168.8008 
C 245.421683 171.597509 246.532828 174.280048 248.510399 176.257619 
C 250.487971 178.235191 253.17051 179.346335 255.967218 179.346335 
z
" style="fill:#6fa4ff;stroke:#6fa4ff;stroke-linejoin:miter;stroke-width:2;"/>
   </g>
   <g id="patch_10">
    <path clip-path="url(#p12dd6f95e1)" d="M 302.321218 80.612315 
C 303.519808 80.612315 304.669467 80.13611 305.516998 79.28858 
C 306.364529 78.441049 306.840733 77.291389 306.840733 76.0928 
C 306.840733 74.894211 306.364529 73.744551 305.516998 72.89702 
C 304.669467 72.04949 303.519808 71.573285 302.321218 71.573285 
C 301.122629 71.573285 299.972969 72.04949 299.125439 72.89702 
C 298.277908 73.744551 297.801703 74.894211 297.801703 76.0928 
C 297.801703 77.291389 298.277908 78.441049 299.125439 79.28858 
C 299.972969 80.13611 301.122629 80.612315 302.321218 80.612315 
z
" style="fill:#bb8bff;stroke:#bb8bff;stroke-linejoin:miter;stroke-width:1.5;"/>
   </g>
   <g id="patch_11">
    <path clip-path="url(#p12dd6f95e1)" d="M 302.321218 126.966315 
C 303.519808 126.966315 304.669467 126.49011 305.516998 125.64258 
C 306.364529 124.795049 306.840733 123.645389 306.840733 122.4468 
C 306.840733 121.248211 306.364529 120.098551 305.516998 119.25102 
C 304.669467 118.40349 303.519808 117.927285 302.321218 117.927285 
C 301.122629 117.927285 299.972969 118.40349 299.125439 119.25102 
C 298.277908 120.098551 297.801703 121.248211 297.801703 122.4468 
C 297.801703 123.645389 298.277908 124.795049 299.125439 125.64258 
C 299.972969 126.49011 301.122629 126.966315 302.321218 126.966315 
z
" style="fill:#bb8bff;stroke:#bb8bff;stroke-linejoin:miter;stroke-width:1.5;"/>
   </g>
   <g id="patch_12">
    <path clip-path="url(#p12dd6f95e1)" d="M 302.321218 173.320315 
C 303.519808 173.320315 304.669467 172.84411 305.516998 171.99658 
C 306.364529 171.149049 306.840733 169.999389 306.840733 168.8008 
C 306.840733 167.602211 306.364529 166.452551 305.516998 165.60502 
C 304.669467 164.75749 303.519808 164.281285 302.321218 164.281285 
C 301.122629 164.281285 299.972969 164.75749 299.125439 165.60502 
C 298.277908 166.452551 297.801703 167.602211 297.801703 168.8008 
C 297.801703 169.999389 298.277908 171.149049 299.125439 171.99658 
C 299.972969 172.84411 301.122629 173.320315 302.321218 173.320315 
z
" style="fill:#bb8bff;stroke:#bb8bff;stroke-linejoin:miter;stroke-width:1.5;"/>
   </g>
   <g id="patch_13">
    <path clip-path="url(#p12dd6f95e1)" d="M 302.321218 219.674315 
C 303.519808 219.674315 304.669467 219.19811 305.516998 218.35058 
C 306.364529 217.503049 306.840733 216.353389 306.840733 215.1548 
C 306.840733 213.956211 306.364529 212.806551 305.516998 211.95902 
C 304.669467 211.11149 303.519808 210.635285 302.321218 210.635285 
C 301.122629 210.635285 299.972969 211.11149 299.125439 211.95902 
C 298.277908 212.806551 297.801703 213.956211 297.801703 215.1548 
C 297.801703 216.353389 298.277908 217.503049 299.125439 218.35058 
C 299.972969 219.19811 301.122629 219.674315 302.321218 219.674315 
z
" style="fill:#bb8bff;stroke:#bb8bff;stroke-linejoin:miter;stroke-width:1.5;"/>
   </g>
   <g id="patch_14">
    <path clip-path="url(#p12dd6f95e1)" d="M 302.321218 272.054335 
C 305.117927 272.054335 307.800466 270.943191 309.778038 268.965619 
C 311.755609 266.988048 312.866753 264.305509 312.866753 261.5088 
C 312.866753 258.712091 311.755609 256.029552 309.778038 254.051981 
C 307.800466 252.074409 305.117927 250.963265 302.321218 250.963265 
C 299.52451 250.963265 296.841971 252.074409 294.864399 254.051981 
C 292.886828 256.029552 291.775683 258.712091 291.775683 261.5088 
C 291.775683 264.305509 292.886828 266.988048 294.864399 268.965619 
C 296.841971 270.943191 299.52451 272.054335 302.321218 272.054335 
z
" style="fill:#bb8bff;stroke:#bb8bff;stroke-linejoin:miter;stroke-width:2;"/>
   </g>
   <g id="patch_15">
    <path clip-path="url(#p12dd6f95e1)" d="M 348.675218 219.674315 
C 349.873808 219.674315 351.023467 219.19811 351.870998 218.35058 
C 352.718529 217.503049 353.194733 216.353389 353.194733 215.1548 
C 353.194733 213.956211 352.718529 212.806551 351.870998 211.95902 
C 351.023467 211.11149 349.873808 210.635285 348.675218 210.635285 
C 347.476629 210.635285 346.326969 211.11149 345.479439 211.95902 
C 344.631908 212.806551 344.155703 213.956211 344.155703 215.1548 
C 344.155703 216.353389 344.631908 217.503049 345.479439 218.35058 
C 346.326969 219.19811 347.476629 219.674315 348.675218 219.674315 
z
" style="fill:#6fa4ff;stroke:#6fa4ff;stroke-linejoin:miter;stroke-width:1.5;"/>
   </g>
   <g id="patch_16">
    <path clip-path="url(#p12dd6f95e1)" d="M 348.675218 179.346335 
C 351.471927 179.346335 354.154466 178.235191 356.132038 176.257619 
C 358.109609 174.280048 359.220753 171.597509 359.220753 168.8008 
C 359.220753 166.004091 358.109609 163.321552 356.132038 161.343981 
C 354.154466 159.366409 351.471927 158.255265 348.675218 158.255265 
C 345.87851 158.255265 343.195971 159.366409 341.218399 161.343981 
C 339.240828 163.321552 338.129683 166.004091 338.129683 168.8008 
C 338.129683 171.597509 339.240828 174.280048 341.218399 176.257619 
C 343.195971 178.235191 345.87851 179.346335 348.675218 179.346335 
z
" style="fill:#6fa4ff;stroke:#6fa4ff;stroke-linejoin:miter;stroke-width:2;"/>
   </g>
   <g id="patch_17">
    <path clip-path="url(#p12dd6f95e1)" d="M 395.029218 173.320315 
C 396.227808 173.320315 397.377467 172.84411 398.224998 171.99658 
C 399.072529 171.149049 399.548733 169.999389 399.548733 168.8008 
C 399.548733 167.602211 399.072529 166.452551 398.224998 165.60502 
C 397.377467 164.75749 396.227808 164.281285 395.029218 164.281285 
C 393.830629 164.281285 392.680969 164.75749 391.833439 165.60502 
C 390.985908 166.452551 390.509703 167.602211 390.509703 168.8008 
C 390.509703 169.999389 390.985908 171.149049 391.833439 171.99658 
C 392.680969 172.84411 393.830629 173.320315 395.029218 173.320315 
z
" style="fill:#6fa4ff;stroke:#6fa4ff;stroke-linejoin:miter;stroke-width:1.5;"/>
   </g>
   <g id="patch_18">
    <path clip-path="url(#p12dd6f95e1)" d="M 395.029218 132.992335 
C 397.825927 132.992335 400.508466 131.881191 402.486038 129.903619 
C 404.463609 127.926048 405.574753 125.243509 405.574753 122.4468 
C 405.574753 119.650091 404.463609 116.967552 402.486038 114.989981 
C 400.508466 113.012409 397.825927 111.901265 395.029218 111.901265 
C 392.23251 111.901265 389.549971 113.012409 387.572399 114.989981 
C 385.594828 116.967552 384.483683 119.650091 384.483683 122.4468 
C 384.483683 125.243509 385.594828 127.926048 387.572399 129.903619 
C 389.549971 131.881191 392.23251 132.992335 395.029218 132.992335 
z
" style="fill:#6fa4ff;stroke:#6fa4ff;stroke-linejoin:miter;stroke-width:2;"/>
   </g>
   <g id="patch_19">
    <path clip-path="url(#p12dd6f95e1)" d="M 441.383218 126.966315 
C 442.581808 126.966315 443.731467 126.49011 444.578998 125.64258 
C 445.426529 124.795049 445.902733 123.645389 445.902733 122.4468 
C 445.902733 121.248211 445.426529 120.098551 444.578998 119.25102 
C 443.731467 118.40349 442.581808 117.927285 441.383218 117.927285 
C 440.184629 117.927285 439.034969 118.40349 438.187439 119.25102 
C 437.339908 120.098551 436.863703 121.248211 436.863703 122.4468 
C 436.863703 123.645389 437.339908 124.795049 438.187439 125.64258 
C 439.034969 126.49011 440.184629 126.966315 441.383218 126.966315 
z
" style="fill:#6fa4ff;stroke:#6fa4ff;stroke-linejoin:miter;stroke-width:1.5;"/>
   </g>
   <g id="patch_20">
    <path clip-path="url(#p12dd6f95e1)" d="M 441.383218 86.638335 
C 444.179927 86.638335 446.862466 85.527191 448.840038 83.549619 
C 450.817609 81.572048 451.928753 78.889509 451.928753 76.0928 
C 451.928753 73.296091 450.817609 70.613552 448.840038 68.635981 
C 446.862466 66.658409 444.179927 65.547265 441.383218 65.547265 
C 438.58651 65.547265 435.903971 66.658409 433.926399 68.635981 
C 431.948828 70.613552 430.837683 73.296091 430.837683 76.0928 
C 430.837683 78.889509 431.948828 81.572048 433.926399 83.549619 
C 435.903971 85.527191 438.58651 86.638335 441.383218 86.638335 
z
" style="fill:#6fa4ff;stroke:#6fa4ff;stroke-linejoin:miter;stroke-width:2;"/>
   </g>
   <g id="line2d_13">
    <path clip-path="url(#p12dd6f95e1)" d="M 163.259218 82.11882 
L 163.259218 70.06678 
" style="fill:none;stroke:#ffffff;stroke-linecap:square;stroke-width:2;"/>
   </g>
   <g id="line2d_14">
    <path clip-path="url(#p12dd6f95e1)" d="M 157.233198 76.0928 
L 169.285238 76.0928 
" style="fill:none;stroke:#ffffff;stroke-linecap:square;stroke-width:2;"/>
   </g>
   <g id="line2d_15">
    <path clip-path="url(#p12dd6f95e1)" d="M 209.613218 128.47282 
L 209.613218 116.42078 
" style="fill:none;stroke:#ffffff;stroke-linecap:square;stroke-width:2;"/>
   </g>
   <g id="line2d_16">
    <path clip-path="url(#p12dd6f95e1)" d="M 203.587198 122.4468 
L 215.639238 122.4468 
" style="fill:none;stroke:#ffffff;stroke-linecap:square;stroke-width:2;"/>
   </g>
   <g id="line2d_17">
    <path clip-path="url(#p12dd6f95e1)" d="M 255.967218 174.82682 
L 255.967218 162.77478 
" style="fill:none;stroke:#ffffff;stroke-linecap:square;stroke-width:2;"/>
   </g>
   <g id="line2d_18">
    <path clip-path="url(#p12dd6f95e1)" d="M 249.941198 168.8008 
L 261.993238 168.8008 
" style="fill:none;stroke:#ffffff;stroke-linecap:square;stroke-width:2;"/>
   </g>
   <g id="line2d_19">
    <path clip-path="url(#p12dd6f95e1)" d="M 302.321218 267.53482 
L 302.321218 255.48278 
" style="fill:none;stroke:#ffffff;stroke-linecap:square;stroke-width:2;"/>
   </g>
   <g id="line2d_20">
    <path clip-path="url(#p12dd6f95e1)" d="M 296.295198 261.5088 
L 308.347238 261.5088 
" style="fill:none;stroke:#ffffff;stroke-linecap:square;stroke-width:2;"/>
   </g>
   <g id="line2d_21">
    <path clip-path="url(#p12dd6f95e1)" d="M 348.675218 174.82682 
L 348.675218 162.77478 
" style="fill:none;stroke:#ffffff;stroke-linecap:square;stroke-width:2;"/>
   </g>
   <g id="line2d_22">
    <path clip-path="url(#p12dd6f95e1)" d="M 342.649198 168.8008 
L 354.701238 168.8008 
" style="fill:none;stroke:#ffffff;stroke-linecap:square;stroke-width:2;"/>
   </g>
   <g id="line2d_23">
    <path clip-path="url(#p12dd6f95e1)" d="M 395.029218 128.47282 
L 395.029218 116.42078 
" style="fill:none;stroke:#ffffff;stroke-linecap:square;stroke-width:2;"/>
   </g>
   <g id="line2d_24">
    <path clip-path="url(#p12dd6f95e1)" d="M 389.003198 122.4468 
L 401.055238 122.4468 
" style="fill:none;stroke:#ffffff;stroke-linecap:square;stroke-width:2;"/>
   </g>
   <g id="line2d_25">
    <path clip-path="url(#p12dd6f95e1)" d="M 441.383218 82.11882 
L 441.383218 70.06678 
" style="fill:none;stroke:#ffffff;stroke-linecap:square;stroke-width:2;"/>
   </g>
   <g id="line2d_26">
    <path clip-path="url(#p12dd6f95e1)" d="M 435.357198 76.0928 
L 447.409238 76.0928 
" style="fill:none;stroke:#ffffff;stroke-linecap:square;stroke-width:2;"/>
   </g>
   <g id="text_2">
    <g clip-path="url(#p12dd6f95e1)">
     <!-- X -->
     <g transform="translate(158.806718 265.095988)scale(0.13 -0.13)">
      <defs>
       <path d="M 403 4666 
L 1081 4666 
L 2241 2931 
L 3406 4666 
L 4084 4666 
L 2584 2425 
L 4184 0 
L 3506 0 
L 2194 1984 
L 872 0 
L 191 0 
L 1856 2491 
L 403 4666 
z
" id="DejaVuSans-58" transform="scale(0.015625)"/>
      </defs>
      <use xlink:href="#DejaVuSans-58"/>
     </g>
    </g>
   </g>
   <g id="text_3">
    <g clip-path="url(#p12dd6f95e1)">
     <!-- H -->
     <g transform="translate(204.725015 265.095988)scale(0.13 -0.13)">
      <defs>
       <path d="M 628 4666 
L 1259 4666 
L 1259 2753 
L 3553 2753 
L 3553 4666 
L 4184 4666 
L 4184 0 
L 3553 0 
L 3553 2222 
L 1259 2222 
L 1259 0 
L 628 0 
L 628 4666 
z
" id="DejaVuSans-48" transform="scale(0.015625)"/>
      </defs>
      <use xlink:href="#DejaVuSans-48"/>
     </g>
    </g>
   </g>
   <g id="text_4">
    <g clip-path="url(#p12dd6f95e1)">
     <!-- ${val}_{0}$ -->
     <g transform="translate(97.107258 80.576784)scale(0.1625 -0.1625)">
      <defs>
       <path d="M 459 3500 
L 1069 3500 
L 1581 525 
L 3256 3500 
L 3866 3500 
L 1875 0 
L 1100 0 
L 459 3500 
z
" id="DejaVuSans-Oblique-76" transform="scale(0.015625)"/>
       <path d="M 3438 1997 
L 3047 0 
L 2472 0 
L 2578 531 
Q 2325 219 2001 64 
Q 1678 -91 1281 -91 
Q 834 -91 548 182 
Q 263 456 263 884 
Q 263 1497 752 1853 
Q 1241 2209 2100 2209 
L 2900 2209 
L 2931 2363 
Q 2938 2388 2941 2417 
Q 2944 2447 2944 2509 
Q 2944 2788 2717 2942 
Q 2491 3097 2081 3097 
Q 1800 3097 1504 3025 
Q 1209 2953 897 2809 
L 997 3341 
Q 1322 3463 1633 3523 
Q 1944 3584 2234 3584 
Q 2853 3584 3176 3315 
Q 3500 3047 3500 2534 
Q 3500 2431 3484 2292 
Q 3469 2153 3438 1997 
z
M 2816 1759 
L 2241 1759 
Q 1534 1759 1195 1570 
Q 856 1381 856 984 
Q 856 709 1029 553 
Q 1203 397 1509 397 
Q 1978 397 2328 733 
Q 2678 1069 2791 1631 
L 2816 1759 
z
" id="DejaVuSans-Oblique-61" transform="scale(0.015625)"/>
       <path d="M 1172 4863 
L 1747 4863 
L 800 0 
L 225 0 
L 1172 4863 
z
" id="DejaVuSans-Oblique-6c" transform="scale(0.015625)"/>
      </defs>
      <use transform="translate(0 0.015625)" xlink:href="#DejaVuSans-Oblique-76"/>
      <use transform="translate(59.179688 0.015625)" xlink:href="#DejaVuSans-Oblique-61"/>
      <use transform="translate(120.458984 0.015625)" xlink:href="#DejaVuSans-Oblique-6c"/>
      <use transform="translate(148.242188 -16.390625)scale(0.7)" xlink:href="#DejaVuSans-30"/>
     </g>
    </g>
   </g>
   <g id="text_5">
    <g clip-path="url(#p12dd6f95e1)">
     <!-- ${val}_{1}$ -->
     <g transform="translate(97.107258 126.930784)scale(0.1625 -0.1625)">
      <use transform="translate(0 0.015625)" xlink:href="#DejaVuSans-Oblique-76"/>
      <use transform="translate(59.179688 0.015625)" xlink:href="#DejaVuSans-Oblique-61"/>
      <use transform="translate(120.458984 0.015625)" xlink:href="#DejaVuSans-Oblique-6c"/>
      <use transform="translate(148.242188 -16.390625)scale(0.7)" xlink:href="#DejaVuSans-31"/>
     </g>
    </g>
   </g>
   <g id="text_6">
    <g clip-path="url(#p12dd6f95e1)">
     <!-- ${val}_{2}$ -->
     <g transform="translate(97.107258 173.284784)scale(0.1625 -0.1625)">
      <use transform="translate(0 0.015625)" xlink:href="#DejaVuSans-Oblique-76"/>
      <use transform="translate(59.179688 0.015625)" xlink:href="#DejaVuSans-Oblique-61"/>
      <use transform="translate(120.458984 0.015625)" xlink:href="#DejaVuSans-Oblique-6c"/>
      <use transform="translate(148.242188 -16.390625)scale(0.7)" xlink:href="#DejaVuSans-32"/>
     </g>
    </g>
   </g>
   <g id="text_7">
    <g clip-path="url(#p12dd6f95e1)">
     <!-- ${val}_{3}$ -->
     <g transform="translate(97.107258 219.638784)scale(0.1625 -0.1625)">
      <defs>
       <path d="M 2597 2516 
Q 3050 2419 3304 2112 
Q 3559 1806 3559 1356 
Q 3559 666 3084 287 
Q 2609 -91 1734 -91 
Q 1441 -91 1130 -33 
Q 819 25 488 141 
L 488 750 
Q 750 597 1062 519 
Q 1375 441 1716 441 
Q 2309 441 2620 675 
Q 2931 909 2931 1356 
Q 2931 1769 2642 2001 
Q 2353 2234 1838 2234 
L 1294 2234 
L 1294 2753 
L 1863 2753 
Q 2328 2753 2575 2939 
Q 2822 3125 2822 3475 
Q 2822 3834 2567 4026 
Q 2313 4219 1838 4219 
Q 1578 4219 1281 4162 
Q 984 4106 628 3988 
L 628 4550 
Q 988 4650 1302 4700 
Q 1616 4750 1894 4750 
Q 2613 4750 3031 4423 
Q 3450 4097 3450 3541 
Q 3450 3153 3228 2886 
Q 3006 2619 2597 2516 
z
" id="DejaVuSans-33" transform="scale(0.015625)"/>
      </defs>
      <use transform="translate(0 0.015625)" xlink:href="#DejaVuSans-Oblique-76"/>
      <use transform="translate(59.179688 0.015625)" xlink:href="#DejaVuSans-Oblique-61"/>
      <use transform="translate(120.458984 0.015625)" xlink:href="#DejaVuSans-Oblique-6c"/>
      <use transform="translate(148.242188 -16.390625)scale(0.7)" xlink:href="#DejaVuSans-33"/>
     </g>
    </g>
   </g>
   <g id="text_8">
    <g clip-path="url(#p12dd6f95e1)">
     <!-- ${p}_{0}$ -->
     <g transform="translate(110.919758 265.959777)scale(0.1625 -0.1625)">
      <defs>
       <path d="M 3175 2156 
Q 3175 2616 2975 2859 
Q 2775 3103 2400 3103 
Q 2144 3103 1911 2972 
Q 1678 2841 1497 2591 
Q 1319 2344 1212 1994 
Q 1106 1644 1106 1300 
Q 1106 863 1306 627 
Q 1506 391 1875 391 
Q 2147 391 2380 519 
Q 2613 647 2778 891 
Q 2956 1147 3065 1494 
Q 3175 1841 3175 2156 
z
M 1394 2969 
Q 1625 3272 1939 3428 
Q 2253 3584 2638 3584 
Q 3175 3584 3472 3232 
Q 3769 2881 3769 2247 
Q 3769 1728 3584 1258 
Q 3400 788 3053 416 
Q 2822 169 2531 39 
Q 2241 -91 1919 -91 
Q 1547 -91 1294 64 
Q 1041 219 916 525 
L 556 -1331 
L -19 -1331 
L 922 3500 
L 1497 3500 
L 1394 2969 
z
" id="DejaVuSans-Oblique-70" transform="scale(0.015625)"/>
      </defs>
      <use xlink:href="#DejaVuSans-Oblique-70"/>
      <use transform="translate(63.476562 -16.40625)scale(0.7)" xlink:href="#DejaVuSans-30"/>
     </g>
    </g>
   </g>
  </g>
 </g>
 <defs>
  <clipPath id="p12dd6f95e1">
   <rect height="250.3116" width="404.927221" x="67.049637" y="39.0096"/>
  </clipPath>
 </defs>
</svg>
